<?xml version="1.0" encoding="UTF-8"?>
<svg width="798px" height="420px" viewBox="0 0 798 420" version="1.1" xmlns="http://www.w3.org/2000/svg" xmlns:xlink="http://www.w3.org/1999/xlink">
    <!-- Generator: Sketch 51.3 (57544) - http://www.bohemiancoding.com/sketch -->
    <title>404-image--desktop</title>
    <desc>Created with Sketch.</desc>
    <defs>
        <linearGradient x1="95.1583591%" y1="100%" x2="32.4424878%" y2="0%" id="linearGradient-1">
            <stop stop-color="#8067FF" offset="0%"></stop>
            <stop stop-color="#2CCDFF" offset="100%"></stop>
        </linearGradient>
        <path d="M26.5614119,22.8254078 C26.4977655,22.2582872 26.9144017,19.7568395 27.0125798,19.0829913 C27.1637967,18.0452465 26.7891401,16.8440152 26.5614119,15.8178965 C26.3406805,14.8234008 25.9310125,13.6539618 25.4860388,12.7985795 C25.0410651,11.9431973 23.8225814,11.9075793 23.0552123,11.770624 C21.8617277,11.557634 15.832381,12.2588475 14.464544,11.5735849 C13.0967069,10.8883222 12.0946326,11.5245227 11.0530419,11.5735849 C9.70382647,11.6370633 9.21026365,10.532534 7.80146428,10.72855 C6.64995925,10.88899 6.1636131,11.57195 5.57251321,12.5648181 C5.09358462,13.3693435 4.25529281,14.6429304 4.11987474,15.5702273 C3.99438733,16.431023 3.98872785,17.0135006 3.76799639,17.904059 C3.58337642,18.6478964 3.53905854,19.4861623 3.49391918,20.2555769 C3.41266833,21.6369889 3.72947321,23.1546587 3.28439915,24.485846 C2.42381728,27.0593972 2.01709698,22.9955375 1.95751303,22.0454534 C1.89883186,21.1083905 1.53553159,20.4118438 1.48316994,19.4661776 C1.3942454,17.8654975 0.113584928,13.4310621 0.657288496,12.3677399 C1.3036841,11.1023563 1.54066574,7.89169534 2.11754673,7.0111353 C2.74520951,6.05337801 2.27102055,5.80222735 2.97609732,4.86121163 C3.59924616,4.02948117 4.76767845,3.39260396 5.57251321,2.75316902 C6.43151519,2.07071754 7.35596925,1.39756693 8.48558169,1.6138122 C9.29222203,1.76820668 10.463018,1.27951304 11.7112402,1.59335029 C12.762242,1.85760092 14.5026581,0.924850117 15.4038654,0.666983443 C16.7634629,0.277974475 17.728091,1.21247958 18.9579128,1.59335029 C19.8821411,1.8793521 20.6741112,1.42291181 21.5644851,1.61125447 C22.5419778,1.81796635 23.2041722,2.84594521 24.0552748,3.32563768 C25.048792,3.88531765 25.599718,4.23875078 26.3233019,5.16581519 C26.5790163,5.49320589 27.4892515,7.31259511 28.097053,8.28011831 C28.9077558,9.5708468 28.8653248,13.8597125 28.4177681,15.080452 C28.2514295,15.5343346 28.5199723,17.6591434 28.5682715,18.327411 C28.6260498,19.1298437 28.2222036,19.557779 27.9533987,20.2555769 C27.6818854,20.960118 27.8141437,21.7854147 27.749143,22.531112 C27.7042293,23.0433575 27.4978963,24.485846 27.0125798,25.3973326 C26.297121,25.3973326 26.6018117,23.1855841 26.5614119,22.8254078 Z" id="path-2"></path>
    </defs>
    <g id="Web-Pages-V4" stroke="none" stroke-width="1" fill="none" fill-rule="evenodd">
        <g id="Koodoo-/-Desktop" transform="translate(-321.000000, -230.000000)">
            <g id="Section-1">
                <g id="404-image--desktop" transform="translate(321.000000, 230.000000)">
                    <g id="undraw_page_not_found_su7k" transform="translate(0.000000, 137.878788)">
                        <ellipse id="Oval" fill="#DAE6F9" fill-rule="nonzero" cx="399" cy="255.672348" rx="399" ry="26.4488636"></ellipse>
                        <path d="M260.963808,176.110746 L237.205447,176.110746 L237.205447,106.462202 C237.205449,102.762874 235.729278,99.2150592 233.101675,96.5992383 C230.474073,93.9834173 226.910278,92.5138643 223.194286,92.5138643 L217.627237,92.5138643 C209.889083,92.5138643 203.61607,98.7587479 203.61607,106.462202 L203.61607,176.110746 L136.601858,176.110746 C133.797751,176.11075 131.198407,174.648946 129.751037,172.258021 C128.303668,169.867097 128.219655,166.896237 129.529614,164.428037 L200.456703,30.7875579 C202.243611,27.4206724 202.570111,23.4728747 201.360429,19.8603756 C200.150747,16.2478766 197.510063,13.2847798 194.051231,11.6587652 L189.864227,9.69043634 C183.111845,6.51610122 175.045269,9.17150002 171.524886,15.7274791 L85.0199511,176.82574 C83.5468912,179.569019 82.7762235,182.631641 82.7762238,185.742279 C82.7762238,196.188046 91.2823352,204.656014 101.775155,204.656014 L203.61607,204.656014 L203.61607,248.69732 C203.61607,253.131566 205.385502,257.384197 208.535111,260.519683 C211.684721,263.655169 215.956508,265.416667 220.410728,265.416667 L220.410762,265.416667 C229.686195,265.416667 237.20542,257.93116 237.20542,248.69732 L237.20542,204.656041 L260.963781,204.656041 C264.766168,204.656041 268.41282,203.152322 271.101513,200.475685 C273.790207,197.799048 275.300699,194.16875 275.300699,190.383413 C275.30071,186.598075 273.790226,182.96777 271.101537,180.291125 C268.412848,177.614481 264.766197,176.110753 260.963808,176.110746 Z" id="Shape" fill="#9FAABB"></path>
                        <path d="M699.026782,177.038776 L675.268423,177.038776 L675.268423,107.390232 C675.268423,99.6867782 668.995408,93.4418946 661.257253,93.4418946 L655.690202,93.4418946 C651.974209,93.4418946 648.410413,94.9114474 645.782809,97.5272682 C643.155204,100.143089 641.679032,103.690903 641.679032,107.390232 L641.679032,177.038776 L574.664806,177.038776 C571.860699,177.03878 569.261354,175.576976 567.813984,173.186051 C566.366614,170.795127 566.282602,167.824268 567.592561,165.356067 L638.519664,31.7155882 C640.306573,28.3487027 640.633073,24.4009051 639.423391,20.788406 C638.213708,17.1759069 635.573024,14.2128101 632.114191,12.5867955 L627.927186,10.6184666 C621.174803,7.44413152 613.108226,10.0995303 609.587842,16.6555094 L523.082889,177.75377 C521.609828,180.497049 520.839161,183.559671 520.839161,186.670309 C520.839161,197.116077 529.345274,205.584045 539.838097,205.584045 L641.679032,205.584045 L641.679032,249.62535 C641.679032,258.85919 649.198258,266.344697 658.473694,266.344697 C667.74913,266.344697 675.268356,258.85919 675.268356,249.62535 L675.268356,205.584071 L699.026715,205.584071 C702.829103,205.584071 706.475755,204.080352 709.164449,201.403715 C711.853144,198.727078 713.363636,195.09678 713.363636,191.311444 C713.363659,183.4289 706.944835,177.038813 699.026782,177.038776 Z" id="Shape" fill="#9FAABB"></path>
                        <path d="M401.025938,0 C343.544086,0 302.272727,36.6888499 302.272727,122.296173 C302.272727,219.317798 343.544073,245 401.025938,245 C458.507803,245 502.237762,216.87188 502.237762,122.296173 C502.237729,21.1980004 458.507789,0 401.025938,0 Z M401.403826,212.795339 C361.59056,212.795339 340.790619,189.558223 340.790619,122.358825 C340.790619,63.0652339 362.441999,31.7970072 402.255298,31.7970072 C442.068598,31.7970072 463.719977,52.3359049 463.719977,122.358825 C463.719883,187.864109 441.217059,212.795339 401.403793,212.795339 L401.403826,212.795339 Z" id="Shape" fill="#9FAABB"></path>
                        <path d="M386.144819,0.928030303 C328.662968,0.928030303 287.391608,37.6168868 287.391608,123.224203 C287.391608,220.245828 328.662954,245.92803 386.144819,245.92803 C443.626684,245.92803 487.356643,217.79991 487.356643,123.224203 C487.35661,22.1260373 443.62667,0.928030303 386.144819,0.928030303 Z M386.522674,213.723376 C346.709408,213.723376 325.909467,190.486253 325.909467,123.286856 C325.909467,63.9932642 347.560847,32.7250375 387.374146,32.7250375 C427.187445,32.7250375 448.838825,53.2639352 448.838825,123.286856 C448.838765,188.792146 426.33594,213.723376 386.522674,213.723376 Z" id="Shape" fill="url(#linearGradient-1)" fill-rule="nonzero"></path>
                        <path d="M253.523255,178.894843 L229.76488,178.894843 L229.76488,109.24628 C229.764872,101.54284 223.491872,95.2979688 215.753732,95.2979615 L210.186682,95.2979615 C206.47069,95.2979597 202.906895,96.7675111 200.279291,99.383331 C197.651687,101.999151 196.175514,105.546965 196.175514,109.246294 L196.175514,178.894843 L129.1613,178.894843 C126.357193,178.894847 123.757849,177.433043 122.31048,175.042118 C120.86311,172.651193 120.779097,169.680334 122.089057,167.212133 L193.016154,33.5716036 C194.803051,30.2047211 195.129544,26.2569318 193.919861,22.6444415 C192.710178,19.0319512 190.069499,16.0688618 186.610675,14.4428493 L182.423671,12.4745202 C175.671282,9.30019069 167.604706,11.9556056 164.084336,18.5115968 L77.5793918,179.60983 C76.1063318,182.353107 75.335664,185.415727 75.3356643,188.526363 C75.3356643,193.542599 77.3373327,198.353383 80.9003252,201.900397 C84.4633176,205.447411 89.2957721,207.440102 94.3346034,207.4401 L196.175514,207.4401 L196.175514,251.481409 C196.175514,255.915656 197.944947,260.168288 201.094556,263.303774 C204.244166,266.43926 208.515953,268.200758 212.970174,268.200758 L212.970207,268.200758 C217.424428,268.200758 221.696215,266.43926 224.845824,263.303774 C227.995434,260.168288 229.764866,255.915656 229.764866,251.481409 L229.764866,207.440127 L253.523221,207.440127 C261.441283,207.440127 267.86014,201.050053 267.86014,193.167498 C267.860155,185.284946 261.441314,178.894862 253.523255,178.894843 Z" id="Shape" fill="url(#linearGradient-1)" fill-rule="nonzero"></path>
                        <path d="M692.516293,178.894843 L668.757933,178.894843 L668.757933,109.246281 C668.757926,101.542832 662.484912,95.2979581 654.746763,95.2979618 L649.179713,95.2979618 C645.46372,95.29796 641.899924,96.7675114 639.272319,99.3833313 C636.644715,101.999151 635.168542,105.546965 635.168542,109.246294 L635.168542,178.894843 L568.154317,178.894843 C565.350208,178.894851 562.75086,177.433047 561.303489,175.042121 C559.856118,172.651195 559.772108,169.680334 561.082072,167.212133 L632.009175,33.5716306 C633.796079,30.2047461 634.122577,26.2569515 632.912895,22.6444553 C631.703212,19.0319592 629.062531,16.0688646 625.603702,14.4428497 L621.416697,12.4745207 C614.664305,9.30019049 606.597724,11.9556051 603.077352,18.5115972 L516.572399,179.60983 C515.099339,182.353107 514.328671,185.415727 514.328671,188.526363 C514.328671,198.972132 522.834785,207.4401 533.327607,207.4401 L635.168542,207.4401 L635.168542,251.481409 C635.168542,260.71525 642.687769,268.200758 651.963204,268.200758 C661.23864,268.200758 668.757867,260.71525 668.757867,251.481409 L668.757867,207.440127 L692.516226,207.440127 C700.434289,207.440127 706.853147,201.050054 706.853147,193.167498 C706.853162,185.284959 700.43434,178.89488 692.516293,178.894843 Z" id="Shape" fill="url(#linearGradient-1)" fill-rule="nonzero"></path>
                        <g id="Group-3" transform="translate(715.223776, 117.859848)">
                            <path d="M25.8053264,133.498778 C24.6197614,127.441746 29.7570552,122.072005 34.8315274,118.581695 C39.9059996,115.091386 45.8352429,111.661998 47.5666465,105.738749 C50.0549905,97.2259995 42.6429726,89.4299199 36.8739641,82.7069138 C32.5939116,77.7176792 28.9183512,72.2370641 25.924197,66.3797548 C24.7240465,64.0311456 23.6210176,61.575973 23.3051669,58.9557828 C22.8503003,55.1824104 24.0585818,51.4275411 25.2758956,47.8282418 C29.3311342,35.8378953 33.6668897,23.9480153 38.283162,12.158602" id="Shape" stroke="#373C45"></path>
                            <path d="M9.18719787,50.8946046 C14.6920485,52.9024157 20.8604793,51.2027186 24.5709841,46.6556373 C28.281489,42.108556 28.7246003,35.7060619 25.6760837,30.6881076 C22.6275671,25.6701533 16.7524737,23.1314339 11.0238674,24.3566567 L11.3690746,31.4787436 L8.01054582,25.3750522 C4.71433514,26.9289465 2.16787073,29.7322465 0.930746672,33.1689178 C0.491395395,34.3727381 0.224303833,35.6329529 0.137438759,36.9119726 C-0.298168491,43.0778434 3.39589145,48.7854738 9.18719787,50.8946046 Z" id="Shape" fill="url(#linearGradient-1)" fill-rule="nonzero"></path>
                            <path d="M24.1196142,9.69904803 C25.720574,5.26713501 29.4625578,1.95950813 34.0464367,0.924497693 L35.1820029,7.69526052 L37.2873208,0.584170421 C43.2852339,0.673410586 48.5376829,4.642486 50.2791654,10.4016118 C52.0206478,16.1607377 49.851665,22.3887623 44.9142229,25.8065262 C39.9767808,29.2242901 33.4035356,29.0477534 28.6554112,25.3698657 C23.9072868,21.6919779 22.0735097,15.3564517 24.1195943,9.69904803 L24.1196142,9.69904803 Z" id="Shape" fill="url(#linearGradient-1)" fill-rule="nonzero"></path>
                            <path d="M34.4529545,82.8441404 C41.0436847,85.2427245 48.3792195,82.2981815 51.5020749,76.0004855 C54.6249304,69.7027896 52.5410522,62.0565969 46.6587621,58.2293395 L45.0410337,63.6939764 L43.8939105,56.8434041 C43.8825695,56.8380349 43.8708263,56.8335667 43.8587887,56.8300404 C39.2262341,55.1408661 34.0473126,56.0606591 30.2742306,59.2427016 C26.5011485,62.424744 24.7076025,67.3852068 25.5696736,72.2542321 C26.4317447,77.1232575 29.8183553,81.1605109 34.4529148,82.8441404 L34.4529545,82.8441404 Z" id="Shape" fill="url(#linearGradient-1)" fill-rule="nonzero"></path>
                            <path d="M20.0948321,105.823365 C21.222998,112.263958 26.6931889,117.031533 33.2073241,117.251629 C39.7214594,117.471725 45.4989506,113.084181 47.0564401,106.734329 C48.6139296,100.384477 45.5256897,93.8080008 39.653678,90.9699804 C33.7816663,88.1319601 26.7309519,89.8081467 22.7525425,94.9879361 L28.8973075,104.267047 L20.5012572,99.341995 C19.8502547,101.438596 19.7108678,103.661437 20.0948321,105.823365 Z" id="Shape" fill="url(#linearGradient-1)" fill-rule="nonzero"></path>
                        </g>
                        <g id="Group-2" transform="translate(31.622378, 169.829545)">
                            <path d="M17.1178658,88.0820227 C16.3282958,84.0842302 19.7496536,80.5400892 23.1291635,78.2363665 C26.5086733,75.9326437 30.4574501,73.6691954 31.6105466,69.7596994 C33.2677468,64.1410657 28.3314451,58.9954594 24.4893908,54.5581014 C21.6389478,51.2650797 19.1910877,47.6477334 17.1970343,43.7817591 C16.3301097,42.2632303 15.739635,40.604434 15.4527998,38.8817531 C15.1498554,36.3912319 15.9545725,33.9129266 16.7652747,31.537291 C19.4659942,23.6233547 22.3535339,15.775732 25.4278938,7.99442284" id="Shape" stroke="#373C45"></path>
                            <path d="M6.05046556,33.5611701 C9.71661053,34.8864072 13.8247076,33.7645782 16.2958602,30.7633829 C18.7670128,27.7621877 19.0621208,23.5363591 17.0318452,20.2243717 C15.0015696,16.9123842 11.0888299,15.2367723 7.27366253,16.045477 L7.50357116,20.7462348 L5.2668403,16.7176454 C3.07161671,17.7432617 1.37571492,19.5935188 0.551815657,21.8618158 C0.259214372,22.65637 0.0813349919,23.4881458 0.0234832323,24.3323334 C-0.2665997,28.4019432 2.19357511,32.1690941 6.05046556,33.5611701 Z" id="Shape" fill="url(#linearGradient-1)" fill-rule="nonzero"></path>
                            <path d="M15.9952047,6.37105704 C17.0614178,3.44588135 19.5535176,1.26276347 22.6063056,0.579630854 L23.3625718,5.04850699 L24.764694,0.355002525 C28.7591928,0.413909581 32.257223,3.0335964 33.4170152,6.83475562 C34.5768074,10.6359148 33.1323041,14.7465565 29.8440596,17.0023616 C26.5558151,19.2581666 22.1781561,19.1416509 19.0159908,16.7141619 C15.8538254,14.2866729 14.6325576,10.1050791 15.9952047,6.37105704 Z" id="Shape" fill="url(#linearGradient-1)" fill-rule="nonzero"></path>
                            <path d="M22.8770412,54.6486754 C27.266362,56.231821 32.1517235,54.288353 34.2315008,50.1317058 C36.3112782,45.9750586 34.9234424,40.9283648 31.0059206,38.4022806 L29.9285399,42.0090774 L29.1645759,37.4875306 C29.1570273,37.4839897 29.1492115,37.4810419 29.1412001,37.4787144 C26.0558282,36.3631299 22.6062175,36.9698856 20.0929793,39.0702155 C17.579741,41.1705454 16.3851084,44.4450148 16.9594952,47.6590461 C17.533882,50.8730774 19.789931,53.5378555 22.8770412,54.6486754 Z" id="Shape" fill="url(#linearGradient-1)" fill-rule="nonzero"></path>
                            <path d="M23.3140536,53.0142025 C27.7033745,54.5973481 32.588736,52.65388 34.6685133,48.4972328 C36.7482906,44.3405857 35.3604548,39.2938918 31.442933,36.7678076 L30.3655524,40.3746044 L29.6015883,35.853051 C29.5940398,35.84951 29.586224,35.8465622 29.5782126,35.8442347 C24.8097634,34.1242634 19.5418919,36.5735793 17.8120922,41.314935 C16.0822924,46.0562907 18.5456045,51.2942311 23.3140536,53.0142025 Z" id="Shape"></path>
                            <path d="M13.3147778,69.8155492 C14.0661259,74.0665033 17.7091888,77.2132169 22.0474954,77.358477 C26.385802,77.5037371 30.2335095,74.6078381 31.2707627,70.416772 C32.3080159,66.2257058 30.2512896,61.8850683 26.3406227,60.0119113 C22.4299559,58.1387542 17.7342993,59.2450909 15.0847525,62.66389 L19.1770618,68.7883448 L13.5854328,65.5376726 C13.1518808,66.9214863 13.0590574,68.3886204 13.3147778,69.8155492 Z" id="Shape" fill="url(#linearGradient-1)" fill-rule="nonzero"></path>
                            <path d="M13.6930419,68.6053 C14.44439,72.8562541 18.0874529,76.0029676 22.4257595,76.1482278 C26.7640661,76.2934879 30.6117736,73.3975889 31.6490268,69.2065228 C32.68628,65.0154566 30.6295537,60.674819 26.7188868,58.801662 C22.80822,56.928505 18.1125634,58.0348416 15.4630166,61.4536408 L19.5553259,67.5780956 L13.9636902,64.3274234 C13.5301404,65.7112376 13.4373193,67.1783717 13.6930419,68.6053 Z" id="Shape"></path>
                        </g>
                    </g>
                    <g id="Group" transform="translate(291.536000, 0.000000)">
                        <path d="M33.5983418,195.814404 C33.5983418,195.814404 30.7951211,208.838885 22.402152,210.142066 C14.009183,211.445246 8.38959292,210.142066 8.38959292,210.142066 L28.2939854,222.727273 L38.9101587,221.424092 C38.9101587,221.424092 40.0504486,209.270838 44.0457842,202.511536 C48.0411199,195.752234 33.5983418,195.814404 33.5983418,195.814404 Z" id="Shape" fill="#FBCBAB" fill-rule="nonzero"></path>
                        <path d="M175.693811,195.814394 C175.693811,195.814394 174.30806,208.399606 184.443587,209.270833 C192.706453,213.154062 200.418053,210.142061 200.418053,210.142061 L180.896219,222.727273 L170.484087,221.424092 C170.484087,221.424092 169.181655,207.967653 164.842657,204.929338 C160.503659,201.891023 175.693811,195.814394 175.693811,195.814394 Z" id="Shape" fill="#FBCBAB" fill-rule="nonzero"></path>
                        <path d="M79.3105438,111.363636 C79.3105438,111.363636 74.0861855,113.963655 72.3447327,119.163692 C72.3447327,119.163692 62.7924602,122.194613 57.5313623,130.418267 C57.5313623,130.418267 50.9917296,137.349216 50.1246772,140.811038 C49.2576247,144.272861 39.2644781,165.058403 39.2644781,165.058403 C39.2644781,165.058403 30.7361367,200.459134 28.8974867,205.995116 C30.3270792,205.995116 34.2519673,201.51899 40.2500344,212.518939 C40.2500344,212.518939 40.2500344,210.402347 48.1579504,196.294261 C56.0658663,182.186175 61.7444406,161.941288 61.7444406,161.941288 C61.7444406,161.941288 67.1264043,149.9038 73.2411767,149.9038 C79.3559492,149.9038 81.0813881,137.780118 85.438694,140.40935 C89.7959999,143.038582 118.54834,139.971145 118.54834,139.971145 C118.54834,139.971145 133.765845,143.389147 136.080267,147.742701 C138.394689,152.096254 143.474104,155.541458 143.907631,159.872388 C144.341157,164.203318 157.45388,190.467916 159.736743,194.988988 C162.019606,199.510061 168.300913,210.327912 169.175314,212.518939 C169.175314,212.518939 168.967606,205.384098 180.842336,207.626269 C180.842336,207.626269 174.41713,188.571031 170.500698,183.356387 C166.584267,178.141743 157.293827,143.389147 157.293827,143.389147 C157.293827,143.389147 155.552375,137.327305 153.810922,135.596394 C152.069469,133.865483 138.556677,120.003586 133.765845,120.003586 C133.765845,120.003586 131.15734,113.510843 128.107961,112.641735 L79.3105438,111.363636 Z" id="Shape" fill="#3F3D56" fill-rule="nonzero"></path>
                        <path d="M0.0343677521,215.343501 C3.5232797,216.733903 11.6845164,206.907211 15.0464263,207.957547 C18.3959352,209.004008 21.527484,209.641262 25.3319001,209.641262 C29.1363162,209.641262 39.1558419,206.521905 40.8491448,209.641262 C43.917794,215.300143 3.58908803,229.223485 3.58908803,229.223485 C3.58908803,229.223485 -0.40929238,223.615302 0.0343677521,215.343501 Z" id="Shape" fill="#3F3D56" fill-rule="nonzero" transform="translate(20.507894, 218.551136) scale(-1, 1) translate(-20.507894, -218.551136) "></path>
                        <path d="M169.69058,216.271531 C173.179492,217.661934 181.340729,207.835241 184.702639,208.885577 C188.052148,209.932038 191.183696,210.569292 194.988112,210.569292 C198.792529,210.569292 208.812054,207.449935 210.505357,210.569292 C213.574006,216.228173 173.2453,230.151515 173.2453,230.151515 C173.2453,230.151515 169.24692,224.543332 169.69058,216.271531 Z" id="Shape" fill="#3F3D56" fill-rule="nonzero"></path>
                        <g id="Face" transform="translate(84.828106, 0.000000)">
                            <path d="M24.6960997,36.0385101 L7.77473212,36.0385101 L7.77473212,44.2363757 C5.20523745,44.6743304 3.4179823,45.5528881 3.4179823,47.4010134 C3.4179823,51.0062541 8.29189943,54.7537879 16.2354159,54.7537879 C24.4649125,54.7537879 29.0528496,51.0062541 29.0528496,47.4010134 C29.0528496,45.5528881 27.2655944,44.6743304 24.6960997,44.2366165 L24.6960997,36.0385101 Z" id="Fill-137" fill="#FBCBAB" fill-rule="nonzero"></path>
                            <path d="M5.12697345,26.3451817 C5.12697345,23.8105287 4.04340528,20.7260101 2.70658403,20.7260101 C1.36999648,20.7260101 0,21.2140609 0,23.7484742 C0,24.9691998 0.423100892,27.7027149 0.832884956,28.901398 C1.2739752,30.1920848 2.01364244,30.9343434 2.70658403,30.9343434 C4.04340528,30.9343434 5.12697345,28.8795951 5.12697345,26.3451817" id="Fill-139" fill="#FBCBAB" fill-rule="nonzero"></path>
                            <path d="M25.6348673,26.3451817 C25.6348673,23.8105287 26.7184354,20.7260101 28.055023,20.7260101 C29.3918443,20.7260101 30.7618407,21.2140609 30.7618407,23.7484742 C30.7618407,24.9691998 30.3387398,27.7027149 29.9289558,28.901398 C29.4878654,30.1920848 28.7481982,30.9343434 28.055023,30.9343434 C26.7184354,30.9343434 25.6348673,28.8795951 25.6348673,26.3451817" id="Fill-141" fill="#ECA182" fill-rule="nonzero"></path>
                            <path d="M24.7648356,37.739899 L24.7648356,42.4257739 C24.4090485,42.759349 24.0374865,43.0724324 23.6469944,43.3652834 C22.1571059,44.4863656 21.1081896,45.2066908 20.1318382,45.6442812 C19.1523318,46.0852437 18.2483026,46.2468434 17.0513439,46.2468434 C14.657669,46.2468434 13.4325579,45.6038165 10.4590909,43.3652834 C9.41017455,42.5741448 8.48114808,41.6416388 7.67492405,40.5643934 L7.67492405,37.7435305 C8.26685071,38.4034179 8.91896518,38.9989766 9.62447183,39.5309848 C12.6010938,41.7728901 13.8262049,42.415917 16.2198798,42.415917 C17.4168386,42.415917 18.320625,42.2543173 19.3003741,41.8133548 C20.2767255,41.3723923 21.3253992,40.6520671 22.8152877,39.5309848 C23.5210371,38.9989766 24.1729088,38.4034179 24.7648356,37.739899" id="Fill-143" fill="#ECA182" fill-rule="nonzero"></path>
                            <path d="M16.2354159,5.4135101 L16.2354159,5.41374981 L16.2354159,5.4135101 C6.16557666,5.4135101 3.4179823,14.1692882 3.4179823,24.9700626 C3.4179823,32.1336631 5.63734848,37.2366857 9.77858113,40.1806081 C12.6920339,42.2517334 13.8920124,42.8440657 16.2354159,42.8440657 L16.2354159,42.843826 L16.2354159,42.8440657 C18.5790571,42.8440657 19.778798,42.2517334 22.6922507,40.1806081 C26.8334835,37.2366857 29.0528496,32.1336631 29.0528496,24.9700626 C29.0528496,14.1692882 26.3052553,5.4135101 16.2354159,5.4135101" id="Fill-145" fill="#FBCBAB" fill-rule="nonzero"></path>
                            <path d="M15.9040355,5.69191935 C15.725601,5.69191935 15.5547232,5.70078875 15.3809204,5.70606245 C24.5220288,6.00114986 27.0408307,14.6341945 27.0408307,25.2484719 C27.0408307,32.4120723 24.938132,37.5150949 21.015012,40.4590174 C18.4628146,42.3740891 17.2971404,43.0234732 15.3809204,43.1109686 C15.5500918,43.1179203 15.7229197,43.1224749 15.9040355,43.1224749 C18.3082689,43.1224749 19.5390277,42.5301427 22.5278045,40.4590174 C26.7761042,37.5150949 29.0528496,32.4120723 29.0528496,25.2484719 C29.0528496,14.4476974 26.2342193,5.69191935 15.9040355,5.69191935" id="Fill-147" fill="#ECA182" fill-rule="nonzero"></path>
                            <path d="M26.6609094,17.6271394 C26.4355401,16.7285083 25.9512263,15.6757432 25.5340632,14.8347914 C25.2111873,14.1896576 25.0154971,13.9800899 24.4154927,13.1211398 C23.6814626,12.0703217 19.2231182,12.8545556 17.9949518,12.6620379 C16.7667853,12.4695203 16.0231229,12.8545556 14.7136816,12.4920012 C13.6417979,12.1934269 12.6347958,12.4503171 11.5718809,12.4920012 C10.1985084,12.5499226 9.37229188,11.8552055 7.93797767,12.0347862 C6.76214825,12.1792265 6.39886857,13.9390685 5.79589085,14.8347914 C5.30835736,15.5632932 4.94083445,16.5389913 4.80377309,17.3765503 C4.67591057,18.1564302 4.85850566,18.8207094 4.636126,19.6265207 C4.44732177,20.297101 4.4045476,20.9744672 4.35901387,21.6707366 C4.27392551,22.9190776 4.29807216,23.9558477 3.84434413,25.1595963 C3.68589578,25.5798299 3.54285523,25.7819493 3.4179823,25.8301768 C3.56102276,25.7051245 3.70728287,25.4516272 3.84434413,25.0280007 C4.29807216,23.6412783 3.90528575,21.9949999 3.98761455,20.5539912 C4.03337831,19.7549658 4.0756925,18.971693 4.26472677,18.1983565 C4.49009594,17.270886 4.30405135,16.5004578 4.43237386,15.6052196 C4.57219478,14.6389732 5.522425,13.3295602 6.00972854,12.4920012 C6.61270617,11.4554734 7.36171396,10.7104918 8.53754347,10.5437556 C9.97185768,10.3382434 11.0561597,11.4169399 12.4295322,11.3493245 C13.4924471,11.2979464 14.0588598,10.9419354 15.1307434,11.2853442 C16.4401846,11.7055778 22.7748999,11.5548366 23.9898241,11.7763438 C24.7726372,11.920784 25.2111873,12.3766429 25.5340632,13.1211398 C25.9512263,14.093445 26.4355401,15.306403 26.6609094,16.3431731 C26.8924878,17.4119333 27.4710888,18.8657863 27.3186196,19.9473911 C27.31563,19.9633862 27.3126404,19.9796235 27.3094209,19.9956185 C27.1997259,19.2028942 26.8343057,18.3202583 26.6609094,17.6271394 Z" id="Fill-151" fill="#ECA182" fill-rule="nonzero"></path>
                            <g id="Rectangle-6-+-Rectangle-6-+-Rectangle-6-+-Rectangle-6-Mask">
                                <g id="Group-7" transform="translate(0.559306, 0.000000)">
                                    <mask id="mask-3" fill="white">
                                        <use xlink:href="#path-2"></use>
                                    </mask>
                                    <use id="Mask" fill="#8F6B02" fill-rule="nonzero" xlink:href="#path-2"></use>
                                    <g mask="url(#mask-3)" fill="#D4A20B" fill-rule="nonzero" id="Rectangle-6">
                                        <g transform="translate(10.720035, -4.176136)">
                                            <path d="M11.4326627,4.26818112 L11.9317188,4.26818112 C13.8170089,7.32514126 14.8744422,10.0575253 15.1040187,12.4653331 C15.3335953,14.873141 15.2030761,17.8679659 14.7124609,21.4498077 C15.0234501,18.7218245 15.0234501,15.7269997 14.7124609,12.4653331 C14.4014716,9.20366658 13.3082055,6.47128258 11.4326627,4.26818112 Z" transform="translate(13.323228, 12.858994) scale(-1, 1) rotate(-34.000000) translate(-13.323228, -12.858994) "></path>
                                            <path d="M8.39045553,0.00807785199 L8.98769569,0.00807785199 C11.2438961,4.21742112 12.509368,7.97983271 12.7841113,11.2953126 C13.0588546,14.6107925 12.902657,18.7345773 12.3155186,23.666667 C12.6876916,19.9103154 12.6876916,15.7865305 12.3155186,11.2953126 C11.9433456,6.80409467 10.6349913,3.04168309 8.39045553,0.00807785199 Z" transform="translate(10.652969, 11.837372) scale(-1, 1) rotate(-23.500000) translate(-10.652969, -11.837372) "></path>
                                            <path d="M5.61627676,0.173695694 L6.21669139,0.173695694 C8.48488422,4.00415012 9.75708244,7.4279018 10.0332861,10.4449507 C10.3094898,13.4619997 10.1524619,17.2145969 9.56220265,21.7027424 C9.93635387,18.2845051 9.93635387,14.5319079 9.56220265,10.4449507 C9.18805143,6.35799359 7.87274286,2.93424191 5.61627676,0.173695694 Z" transform="translate(7.890816, 10.938219) scale(-1, 1) rotate(-18.100000) translate(-7.890816, -10.938219) "></path>
                                            <path d="M1.99297502,2.11526811 L2.61574736,2.11526811 C4.96840118,5.52004104 6.28797244,8.56330844 6.57446104,11.2450703 C6.86094974,13.9268322 6.69807465,17.2624002 6.08583587,21.2517744 C6.47391939,18.2134087 6.47391939,14.8778406 6.08583587,11.2450703 C5.69775236,7.61229999 4.33346541,4.56903259 1.99297502,2.11526811 Z" transform="translate(4.352211, 11.683521) scale(-1, 1) rotate(-11.000000) translate(-4.352211, -11.683521) "></path>
                                        </g>
                                    </g>
                                </g>
                            </g>
                            <path d="M26.3052873,4.59246178 C26.0406074,4.70535438 25.2033115,3.6671553 24.5877992,3.51433439 C23.6834364,3.29140123 23.3531881,3.52051377 22.7008216,3.42877369 C21.4853523,3.2545626 20.2077491,4.70291512 19.0262622,4.29056008 C18.1953684,4.00321872 16.2546941,3.58444664 15.3409982,3.51433439 C14.4517121,3.44707417 9.93779546,3.18754005 8.39016005,4.13155977 C7.41184962,4.72739498 4.63630069,7.29730569 4.38095405,7.98488099 C4.10119741,8.73971649 3.5471885,8.82836689 3.07023824,9.38451144 C2.41811105,10.1483783 2.01750324,12.7397597 1.74061839,13.4152138 C1.23279678,14.6403956 2.25421758,15.8139227 2.43250558,17.1063647 C2.48491504,17.4880604 2.48491504,18.6331333 2.00266416,19.1637731 C1.89210169,19.1761319 1.67781231,16.9970567 1.36072299,15.8022966 C1.31947407,15.6464416 0.663084455,13.6815103 1.17014571,12.7227438 C1.85649459,11.4303018 1.82321543,8.14302851 2.43250558,7.24155146 C3.10018813,6.26378279 2.6819893,5.84068136 3.42960228,4.87812348 C4.09106259,4.02869586 6.71882054,2.14886563 7.57125242,1.49503927 C8.48183733,0.798194903 15.765548,0.418870783 17.2015279,0.450363617 C18.6451803,0.482024721 19.9709462,1.30058495 20.6250509,1.49503927 C21.6033613,1.78856001 22.4254829,1.3025277 23.3700502,1.49503927 C24.4069922,1.70585133 26.5819328,4.47338981 26.3052873,4.59246178 Z" id="Fill-163" fill="#A98004" fill-rule="nonzero"></path>
                        </g>
                        <path d="M91.5930418,44.5327715 C91.3929067,43.8746908 88.584826,45.1502026 88.2091749,45.5612689 C86.6080939,46.9562423 83.8062021,45.6834275 82.1290698,46.9641235 C81.8528833,47.1729754 81.6247292,47.4409364 81.3285292,47.634026 C81.0403516,47.8069134 80.7291672,47.9395353 80.403905,48.0280863 C77.1482862,49.0708011 73.9567845,50.2983867 70.8454513,51.7046688 C71.966208,58.3406441 73.110981,65.1027186 75.7367538,71.3091682 C76.985597,74.2646204 76.8231884,78.017465 77.8238641,81.063551 C80.0413613,87.8138038 80.375886,94.0774145 80.403905,101.17444 C80.403905,106.029263 81.7408076,111.089555 80.1397266,115.684298 C79.7794834,116.724617 79.3391861,117.757055 79.2391185,118.83678 C79.139051,119.916505 79.4672726,121.138092 80.3678806,121.784351 C80.889243,122.122904 81.4872123,122.329961 82.1090562,122.387263 C84.8749237,122.781323 87.6608046,122.064134 90.3826424,121.441518 C97.6795691,119.778584 105.124596,118.824958 112.549609,117.894976 L124.998014,116.318735 C125.891048,116.257252 126.764908,116.034161 127.575754,115.660654 C129.853292,114.435126 130.069438,111.06197 128.652481,108.918282 C127.976025,107.889785 127.019379,107.046496 126.446992,105.95889 C125.874606,104.871283 125.830576,103.342329 126.811238,102.589674 C128.812589,101.052839 128.212184,98.203783 128.308249,95.713322 C128.575096,88.7463361 132.186985,81.8542082 131.848089,74.8977305 C131.746199,73.455115 133.229716,72.7542933 133.283608,71.3091682 C133.423703,68.8581132 132.667192,66.1282129 133.283608,63.7441481 L133.283608,48.5994737 C132.294941,47.0626386 130.401662,46.085369 128.612454,45.6440215 C126.823246,45.202674 124.953984,45.0726341 123.188792,44.5327715 C119.58636,43.4294027 110.178747,43.3033034 110.126712,44.2648105 C110.006631,46.3966767 109.084268,45.7149524 107.331084,46.9641235 C106.325304,47.6807577 101.264984,49.1369835 97.2265933,48.0280863 C94.2256314,47.2040554 91.7878612,45.1664592 91.5930418,44.5327715 Z" id="Shape" fill="#DAE6F9" fill-rule="nonzero"></path>
                        <path d="M66.0076065,55.2405412 C65.559096,55.5711748 65.1646286,55.9878197 64.8418238,56.4718658 C64.4355662,57.1737609 64.5269646,58.364195 64.0010472,58.7981467 C62.2040764,60.280886 61.9744403,65.1139174 63.3121389,73.2972408 C65.0784764,73.4737173 69.0633702,72.2264025 70.8226423,72.3948573 C71.4761871,72.4550197 72.150928,72.7117128 72.7797441,72.4911172 C73.2291748,72.2638069 73.6507272,71.9712479 74.0338437,71.6207673 C75.0936462,70.8667314 76.4784547,70.7784932 77.3580907,69.7878184 C78.2377268,68.7971436 78.3119129,67.3412126 78.3013149,65.9895632 C78.3171615,64.8164607 78.2116365,63.6453027 77.9869069,62.5001419 C77.2097184,58.8903957 74.7757054,56.1068803 73.2495899,52.9062387 C72.5041955,51.3460262 72.1014706,50.435568 70.5294303,51.5064593 C68.95739,52.5773507 67.4948626,54.0052059 66.0076065,55.2405412 Z" id="Shape" fill="#DAE6F9" fill-rule="nonzero"></path>
                        <path d="M75.6052656,130.852273 C75.6052656,130.852273 73.9206302,153.488041 84.4549322,157.326687 C94.9892342,161.165333 85.7201858,138.536767 85.7201858,138.536767 L82.3438069,131.709306 L75.6052656,130.852273 Z" id="Shape" fill="#FBCBAB" fill-rule="nonzero"></path>
                        <path d="M65.8319985,55.1539484 L62.4558584,60.7918902 C62.4558584,60.7918902 65.4117617,80.3016551 65.8319985,83.7677827 C66.196482,86.2688954 66.7635115,88.7344425 67.5271912,91.1387883 C67.5271912,91.1387883 67.9474281,101.544484 67.9474281,105.449362 C67.9474281,109.35424 70.0842256,115.855057 70.0842256,115.855057 C70.3822551,119.540647 71.0993989,123.177764 72.2210231,126.69219 C73.9090932,131.459944 75.5971632,137.097886 75.5971632,137.097886 C75.5971632,137.097886 77.7339607,131.028506 86.152943,140.132576 C88.1152019,138.088522 88.1152019,134.805624 86.152943,132.76157 C86.152943,132.76157 83.6243993,121.061561 83.6243993,114.984869 C83.6243993,108.908177 78.9733033,79.8848422 78.9733033,79.8848422 C78.9733033,79.8848422 75.9532961,46.890817 65.8319985,55.1539484 Z" id="Shape" fill="#000000" fill-rule="nonzero" opacity="0.1"></path>
                        <path d="M64.8983816,55.1483682 L61.5236814,60.7871655 C61.5236814,60.7871655 64.478324,80.2998906 64.8983816,83.7665441 C65.2638565,86.2684824 65.8330496,88.7345077 66.599971,91.1386682 C66.599971,91.1386682 67.0200286,101.545942 67.0200286,105.444099 C67.0200286,109.342256 69.1559148,115.851374 69.1559148,115.851374 C69.4519324,119.537798 70.1688147,123.175691 71.291801,126.690151 C72.9791511,131.465942 74.6736208,137.097425 74.6736208,137.097425 C74.6736208,137.097425 76.809507,131.027125 85.2248987,140.132576 C87.1816473,138.089092 87.1816473,134.811249 85.2248987,132.767765 C85.2248987,132.767765 82.6903137,121.065981 82.6903137,114.988367 C82.6903137,108.910753 78.048321,79.8830145 78.048321,79.8830145 C78.048321,79.8830145 75.0296019,46.905924 64.8983816,55.1483682 Z" id="Shape" fill="#DAE6F9" fill-rule="nonzero"></path>
                        <path d="M138.263258,49.546403 C139.39674,50.2763077 139.284665,53.0509511 140.16458,54.0682588 C141.080928,55.2412929 141.601673,56.6825635 142.485727,57.8836223 C143.369781,59.0846811 142.708175,59.4836449 143.677002,60.5565908 C145.150425,62.1820237 143.510534,65.2814723 144.487434,67.2472052 C142.095986,70.3331182 143.922865,72.5935514 141.121296,75.3189926 C140.8088,75.6834631 140.396609,75.9504322 139.934484,76.0876702 C139.29809,76.1554975 138.669992,75.9012119 138.263258,75.4110737 C137.827286,74.9626785 137.520491,74.4021844 137.104703,73.9337714 C136.12514,72.9318137 134.819418,72.3063146 133.419126,72.168215 C132.030485,72.0340612 130.633039,72.0139752 129.241062,72.108162 C128.935529,72.1440881 128.626007,72.0926944 128.348934,71.9600315 C128.142807,71.8196209 127.976103,71.6294909 127.864521,71.4075444 C126.24981,68.6531162 126.754407,65.1940669 127.331666,62.0472928 L128.651692,54.84094 C128.844347,53.4650695 129.214736,52.1195084 129.753733,50.8374107 C130.254293,49.7764754 131.368443,47.9748872 132.749021,48.2951695 C134.129599,48.6154519 137.09663,48.7136689 138.263258,49.546403 Z" id="Shape" fill="#DAE6F9" fill-rule="nonzero"></path>
                        <path d="M130.405849,132.708333 C130.405849,132.708333 132.090485,155.344102 121.556183,159.182748 C111.021881,163.021394 120.290929,140.392827 120.290929,140.392827 L123.667308,133.565367 L130.405849,132.708333 Z" id="Shape" fill="#FBCBAB" fill-rule="nonzero"></path>
                        <path d="M140.776922,51.6523774 L142.977328,54.2332472 C142.977328,54.2332472 145.537134,68.9873411 139.88209,87.6310178 L138.143769,104.534618 C138.143769,104.534618 135.099873,118.842726 134.667127,122.308256 C134.23438,125.773787 134.23438,126.20515 133.361553,127.506552 C132.814235,128.1359 132.814235,129.070578 133.361553,129.699926 L130.750404,139.204545 C130.750404,139.204545 127.706508,133.136211 119.880397,139.204545 C121.178636,137.903144 118.120072,136.448382 119.880397,133.414215 C121.640722,130.380048 120.313143,129.670681 119.880397,128.800643 C119.44765,127.930604 121.618718,123.602347 121.618718,122.732309 C121.618718,121.86227 124.684617,101.939126 124.684617,101.939126 C124.684617,101.939126 125.990192,82.4327221 127.295766,75.9330246 C128.095247,71.9337732 128.080577,63.0213646 127.941218,56.7483157 C127.801859,50.212062 135.737991,46.673419 140.410187,51.2648814 C140.520208,51.3818613 140.652232,51.49153 140.776922,51.6523774 Z" id="Shape" fill="#000000" fill-rule="nonzero" opacity="0.1"></path>
                        <path d="M141.760763,49.8215594 L143.920252,52.4169526 C143.920252,52.4169526 146.432457,67.2614248 140.882571,86.0026629 L139.176575,103.001385 C139.176575,103.001385 136.189282,117.390009 135.764583,120.875041 C135.339883,124.360073 135.332685,124.801217 134.483286,126.109942 C133.943021,126.741637 133.943021,127.683963 134.483286,128.315658 L131.935089,137.903173 C131.935089,137.903173 128.098398,133.102063 120.417816,139.204545 C120.417816,139.204545 118.258328,135.719513 119.993117,132.668272 C121.727906,129.617031 121.699113,128.308306 121.274413,127.440724 C120.849714,126.573142 122.980409,122.205823 122.980409,121.338242 C122.980409,120.47066 125.967702,100.413344 125.967702,100.413344 C125.967702,100.413344 127.248999,80.7971719 128.530295,74.2535462 C129.811592,67.7099205 128.954995,48.1011005 128.954995,48.1011005 C128.954995,48.1011005 135.786178,43.3073433 141.760763,49.8215594 Z" id="Shape" fill="#DAE6F9" fill-rule="nonzero"></path>
                    </g>
                </g>
            </g>
        </g>
    </g>
</svg>