<?xml version="1.0" encoding="UTF-8"?>
<svg width="319px" height="212px" viewBox="0 0 319 212" version="1.1" xmlns="http://www.w3.org/2000/svg" xmlns:xlink="http://www.w3.org/1999/xlink">
    <!-- Generator: Sketch 51.3 (57544) - http://www.bohemiancoding.com/sketch -->
    <title>404-image--mobile</title>
    <desc>Created with Sketch.</desc>
    <defs>
        <linearGradient x1="95.1583591%" y1="100%" x2="32.4424878%" y2="0%" id="linearGradient-1">
            <stop stop-color="#8067FF" offset="0%"></stop>
            <stop stop-color="#2CCDFF" offset="100%"></stop>
        </linearGradient>
        <path d="M13.1510883,11.3135712 C13.1195757,11.032474 13.3258606,9.79261414 13.3744706,9.45861664 C13.4493411,8.94425125 13.2638411,8.34885266 13.1510883,7.84024983 C13.0417997,7.34732114 12.8389649,6.76768063 12.6186494,6.34370447 C12.398334,5.91972835 11.7950383,5.90207406 11.4150984,5.83419118 C10.8241803,5.72862124 7.83892967,6.07618257 7.1616861,5.73652741 C6.48444253,5.3968722 5.98829539,5.71220941 5.47258293,5.73652741 C4.80455929,5.76799093 4.56018643,5.22052336 3.86266158,5.31768002 C3.29252833,5.39720321 3.05172858,5.73571707 2.75906316,6.22783899 C2.521936,6.62660757 2.1068809,7.25786974 2.03983269,7.71749088 C1.97770135,8.1441502 1.97489923,8.43285928 1.86561066,8.87427071 C1.7742016,9.24295882 1.75225893,9.65845114 1.72990953,10.0398168 C1.6896806,10.7245232 1.84653706,11.4767667 1.62617195,12.1365789 C1.20008059,13.4121774 0.998705208,11.3978972 0.969204001,10.9269815 C0.940149774,10.4625198 0.760272516,10.1172716 0.734347211,9.64854557 C0.690318889,8.85515743 0.0562381779,6.65719886 0.32543673,6.13015584 C0.645480171,5.50295969 0.762814535,3.91157338 1.0484399,3.47511771 C1.35920834,3.00039868 1.12442787,2.87591412 1.47352553,2.40949317 C1.78205903,1.99724021 2.36057331,1.68156762 2.75906316,1.36462727 C3.18437229,1.02636547 3.64208805,0.692713718 4.20138184,0.799897181 C4.60076567,0.876423872 5.18045026,0.634199488 5.79847012,0.789755093 C6.31884222,0.920732745 7.18055718,0.458408358 7.62676302,0.330594957 C8.29992702,0.137779971 8.77753373,0.60097389 9.38644321,0.789755093 C9.84404721,0.931513867 10.2361675,0.705276082 10.6770095,0.798629422 C11.1609858,0.901087594 11.4888515,1.41061243 11.9102495,1.64837532 C12.4021598,1.92578457 12.6749343,2.10096614 13.0331952,2.56047203 C13.1598046,2.72274549 13.6104803,3.62453835 13.911415,4.10409792 C14.3128103,4.74385642 14.2918018,6.86966238 14.0702075,7.47473035 C13.9878499,7.69970038 14.1208108,8.75287656 14.1447247,9.08410805 C14.1733319,9.48183937 13.9733796,9.69394843 13.8402889,10.0398168 C13.7058572,10.3890274 13.7713409,10.7980915 13.7391578,11.1677015 C13.7169201,11.4215995 13.6147605,12.1365789 13.3744706,12.5883636 C13.0202325,12.5883636 13.171091,11.4920951 13.1510883,11.3135712 Z" id="path-2"></path>
    </defs>
    <g id="Web-Pages-V4" stroke="none" stroke-width="1" fill="none" fill-rule="evenodd">
        <g id="Dynamo-/-Mobile" transform="translate(-28.000000, -184.000000)">
            <g id="404-image--mobile" transform="translate(28.000000, 184.000000)">
                <g id="undraw_page_not_found_su7k" transform="translate(0.000000, 67.638095)">
                    <ellipse id="Oval" fill="#DAE6F9" fill-rule="nonzero" cx="162.676888" cy="132.497053" rx="156.143679" ry="11.7580052"></ellipse>
                    <path d="M93.3135325,88.4776929 L81.4873746,88.4776929 L81.4873746,53.4864012 C81.4873755,51.6278658 80.7525845,49.8454509 79.4446473,48.5312676 C78.1367102,47.2170843 76.3627664,46.4787837 74.5130635,46.4787837 L71.7419631,46.4787837 C67.8901557,46.4787837 64.7676488,49.616201 64.7676488,53.4864012 L64.7676488,88.4776929 L31.4101016,88.4776929 C30.0143063,88.4776947 28.7204354,87.7432873 27.9999807,86.5420915 C27.279526,85.3408957 27.2377072,83.8483419 27.8897633,82.6083226 L63.1950162,15.4676086 C64.0844824,13.776092 64.2470039,11.7927262 63.6448625,9.97781372 C63.0427211,8.16290127 61.7282724,6.67424727 60.0065758,5.85734075 L57.922418,4.86845618 C54.5612968,3.27367645 50.5460114,4.60774359 48.7936764,7.90145462 L5.73426596,88.8369042 C5.00102351,90.2151223 4.61740957,91.7537776 4.61740971,93.316556 C4.61740971,98.5644892 8.85148197,102.81878 14.0744748,102.81878 L64.7676488,102.81878 L64.7676488,124.945045 C64.7676488,127.172802 65.6484159,129.309315 67.2161915,130.884577 C68.7839671,132.459839 70.9103272,133.344812 73.1274967,133.344812 L73.1275133,133.344812 C77.7445299,133.344812 81.4873613,129.584108 81.4873613,124.945045 L81.4873613,102.818793 L93.3135192,102.818793 C95.2062267,102.818793 97.0214139,102.063328 98.3597603,100.71859 C99.6981066,99.3738533 100.449982,97.5499984 100.449982,95.648253 C100.449987,93.7465063 99.6981161,91.9226483 98.359772,90.5779073 C97.021428,89.2331662 95.2062412,88.4776964 93.3135325,88.4776929 Z" id="Shape" fill="#9FAABB"></path>
                    <path d="M311.367374,88.9439335 L299.541217,88.9439335 L299.541217,53.9526418 C299.541217,50.0824416 296.41871,46.9450243 292.566902,46.9450243 L289.795801,46.9450243 C287.946097,46.9450243 286.172152,47.6833248 284.864215,48.997508 C283.556277,50.3116912 282.821485,52.0941061 282.821485,53.9526418 L282.821485,88.9439335 L249.463931,88.9439335 C248.068135,88.9439353 246.774264,88.2095279 246.053809,87.0083321 C245.333354,85.8071363 245.291535,84.3145825 245.943592,83.0745632 L281.248852,15.9338492 C282.138318,14.2423326 282.30084,12.2589668 281.698698,10.4440543 C281.096557,8.62914187 279.782108,7.14048787 278.060411,6.32358135 L275.976252,5.33469679 C272.615131,3.73991706 268.599844,5.0739842 266.847509,8.36769522 L223.78809,89.3031448 C223.054847,90.6813629 222.671233,92.2200182 222.671233,93.7827966 C222.671233,99.0307298 226.905306,103.28502 232.1283,103.28502 L282.821485,103.28502 L282.821485,125.411286 C282.821485,130.050349 286.564317,133.811053 291.181334,133.811053 C295.798352,133.811053 299.541184,130.050349 299.541184,125.411286 L299.541184,103.285034 L311.367341,103.285034 C313.260049,103.285034 315.075237,102.529568 316.413583,101.184831 C317.75193,99.8400939 318.503805,98.016239 318.503805,96.1144936 C318.503816,92.1543189 315.308729,88.943952 311.367374,88.9439335 Z" id="Shape" fill="#9FAABB"></path>
                    <path d="M163.032014,0 C134.419373,0 113.875801,18.4324061 113.875801,61.4413571 C113.875801,110.184831 134.419367,123.087519 163.032014,123.087519 C191.644662,123.087519 213.412047,108.956006 213.412047,61.4413571 C213.412031,10.6498338 191.644655,0 163.032014,0 Z M163.220115,106.90796 C143.402335,106.90796 133.048785,95.2336788 133.048785,61.4728336 C133.048785,31.6838496 143.826154,15.974754 163.643951,15.974754 C183.461747,15.974754 194.239117,26.2934558 194.239117,61.4728336 C194.23907,94.3825592 183.037878,106.90796 163.220098,106.90796 L163.220115,106.90796 Z" id="Shape" fill="#9FAABB"></path>
                    <path d="M155.624666,0.466240602 C127.012025,0.466240602 106.468452,18.8986501 106.468452,61.9075977 C106.468452,110.651071 127.012018,123.553759 155.624666,123.553759 C184.237313,123.553759 206.004699,109.422247 206.004699,61.9075977 C206.004682,11.1160777 184.237307,0.466240602 155.624666,0.466240602 Z M155.81275,107.374204 C135.99497,107.374204 125.64142,95.6999194 125.64142,61.9390742 C125.64142,32.1500902 136.418789,16.4409946 156.236586,16.4409946 C176.054382,16.4409946 186.831752,26.7596964 186.831752,61.9390742 C186.831722,94.8488032 175.63053,107.374204 155.81275,107.374204 Z" id="Shape" fill="url(#linearGradient-1)" fill-rule="nonzero"></path>
                    <path d="M89.6098613,89.8764178 L77.7836963,89.8764178 L77.7836963,54.8851167 C77.7836926,51.0149232 74.6611922,47.8775124 70.8093917,47.8775087 L68.0382912,47.8775087 C66.1885883,47.8775078 64.414644,48.6158075 63.1067062,49.9299903 C61.7987684,51.2441731 61.0639766,53.0265878 61.0639766,54.8851234 L61.0639766,89.8764178 L27.7064283,89.8764178 C26.3106329,89.8764196 25.016762,89.1420121 24.2963072,87.9408162 C23.5758525,86.7396203 23.5340337,85.2470665 24.1860898,84.0070471 L59.4913473,16.8663077 C60.3808077,15.1747926 60.5433256,13.191431 59.9411838,11.3765229 C59.339042,9.56161491 58.024596,8.07296461 56.3029034,7.2560591 L54.2187455,6.26717446 C50.8576209,4.67239754 46.842335,6.00647275 45.090007,9.30018986 L2.03059172,90.2356258 C1.29734925,91.6138428 0.913735287,93.1524972 0.913735432,94.7152746 C0.913735432,97.2354218 1.91010242,99.6523502 3.68364693,101.434363 C5.45719145,103.216376 7.86263389,104.2175 10.3708042,104.217499 L61.0639766,104.217499 L61.0639766,126.343766 C61.0639766,128.571523 61.9447438,130.708037 63.5125194,132.283299 C65.0802951,133.858561 67.2066552,134.743534 69.4238248,134.743534 L69.4238414,134.743534 C71.641011,134.743534 73.7673711,133.858561 75.3351468,132.283299 C76.9029225,130.708037 77.7836897,128.571523 77.7836897,126.343766 L77.7836897,104.217512 L89.6098446,104.217512 C93.5512043,104.217512 96.7463075,101.007152 96.7463075,97.0469718 C96.7463149,93.0867929 93.5512196,89.8764271 89.6098613,89.8764178 Z" id="Shape" fill="url(#linearGradient-1)" fill-rule="nonzero"></path>
                    <path d="M308.126659,89.8764179 L296.300502,89.8764179 L296.300502,54.8851168 C296.300499,51.0149194 293.177992,47.877507 289.326187,47.8775088 L286.555086,47.8775088 C284.705382,47.8775079 282.931438,48.6158077 281.6235,49.9299905 C280.315562,51.2441732 279.58077,53.026588 279.58077,54.8851235 L279.58077,89.8764179 L246.223216,89.8764179 C244.827419,89.8764217 243.533547,89.1420145 242.813091,87.9408179 C242.092636,86.7396213 242.050818,85.2470663 242.702877,84.0070471 L278.008137,16.8663213 C278.897601,15.1748051 279.060121,13.1914408 278.45798,11.3765299 C277.855839,9.56161894 276.541391,8.072966 274.819696,7.25605932 L272.735538,6.26717468 C269.374411,4.67239744 265.359124,6.00647252 263.606794,9.30019008 L220.547375,90.2356259 C219.814132,91.6138429 219.430518,93.1524972 219.430518,94.7152747 C219.430518,99.9632083 223.664591,104.217499 228.887585,104.217499 L279.58077,104.217499 L279.58077,126.343766 C279.58077,130.98283 283.323602,134.743534 287.940619,134.743534 C292.557637,134.743534 296.300469,130.98283 296.300469,126.343766 L296.300469,104.217512 L308.126626,104.217512 C312.067986,104.217512 315.26309,101.007152 315.26309,97.0469718 C315.263098,93.0867995 312.068012,89.8764364 308.126659,89.8764179 Z" id="Shape" fill="url(#linearGradient-1)" fill-rule="nonzero"></path>
                </g>
                <g id="Group" transform="translate(107.346032, 0.000000)">
                    <path d="M16.6352135,97.0567639 C16.6352135,97.0567639 15.2472827,103.512438 11.0917552,104.158368 C6.93622773,104.804299 4.15385588,104.158368 4.15385588,104.158368 L14.0089202,110.396313 L19.2652007,109.750383 C19.2652007,109.750383 19.8297811,103.726539 21.807952,100.376244 C23.7861229,97.0259487 16.6352135,97.0567639 16.6352135,97.0567639 Z" id="Shape" fill="#FBCBAB" fill-rule="nonzero"></path>
                    <path d="M86.9895331,97.0567588 C86.9895331,97.0567588 86.3034197,103.294706 91.3217226,103.726536 C95.4128337,105.651285 99.2310015,104.158366 99.2310015,104.158366 L89.5653496,110.396313 L84.4100938,109.750383 C84.4100938,109.750383 83.7652339,103.080606 81.6169088,101.574644 C79.4685836,100.068682 86.9895331,97.0567588 86.9895331,97.0567588 Z" id="Shape" fill="#FBCBAB" fill-rule="nonzero"></path>
                    <path d="M39.2682424,55.1981567 C39.2682424,55.1981567 36.6815577,56.4868739 35.8193295,59.0643083 C35.8193295,59.0643083 31.0898076,60.5666051 28.4849325,64.6427163 C28.4849325,64.6427163 25.247029,68.0780889 24.8177339,69.7939651 C24.3884389,71.5098414 19.4406313,81.8123392 19.4406313,81.8123392 C19.4406313,81.8123392 15.2180783,99.3589565 14.3077258,102.102904 C15.0155458,102.102904 16.9588366,99.8842813 19.9286001,105.336482 C19.9286001,105.336482 19.9286001,104.287379 23.843968,97.2946083 C27.759336,90.3018378 30.5709121,80.2673195 30.5709121,80.2673195 C30.5709121,80.2673195 33.2356303,74.3008554 36.2631769,74.3008554 C39.2907236,74.3008554 40.145023,68.2916684 42.3024126,69.5948656 C44.4598022,70.8980628 58.6956632,69.377666 58.6956632,69.377666 C58.6956632,69.377666 66.2301554,71.0718224 67.3760721,73.2296915 C68.5219889,75.3875606 71.0369094,77.0951994 71.2515569,79.2418548 C71.4662044,81.3885101 77.9585767,94.40674 79.088868,96.6476408 C80.2191593,98.8885416 83.3291609,104.250485 83.762094,105.336482 C83.762094,105.336482 83.6592537,101.800049 89.5386712,102.911396 C89.5386712,102.911396 86.3574226,93.466536 84.4183187,90.8818616 C82.4792147,88.2971872 77.8793316,71.0718224 77.8793316,71.0718224 C77.8793316,71.0718224 77.0171034,68.0672289 76.1548752,67.2092907 C75.2926469,66.3513526 68.6021925,59.4806074 66.2301554,59.4806074 C66.2301554,59.4806074 64.9386321,56.2624344 63.4288232,55.8316553 L39.2682424,55.1981567 Z" id="Shape" fill="#3F3D56" fill-rule="nonzero"></path>
                    <path d="M0.017016164,106.736496 C1.74444651,107.425658 5.78523862,102.55499 7.44978772,103.075597 C9.10819681,103.594282 10.6586895,103.910141 12.5423323,103.910141 C14.4259751,103.910141 19.3868434,102.364011 20.2252316,103.910141 C21.7445815,106.715005 1.77702953,113.616206 1.77702953,113.616206 C1.77702953,113.616206 -0.202648874,110.836471 0.017016164,106.736496 Z" id="Shape" fill="#3F3D56" fill-rule="nonzero" transform="translate(10.153870, 108.326382) scale(-1, 1) translate(-10.153870, -108.326382) "></path>
                    <path d="M84.0172128,107.19648 C85.7446432,107.885643 89.7854353,103.014975 91.4499844,103.535581 C93.1083935,104.054267 94.6588861,104.370126 96.5425289,104.370126 C98.4261717,104.370126 103.38704,102.823995 104.225428,104.370126 C105.744778,107.17499 85.7772262,114.07619 85.7772262,114.07619 C85.7772262,114.07619 83.7975478,111.296456 84.0172128,107.19648 Z" id="Shape" fill="#3F3D56" fill-rule="nonzero"></path>
                    <g id="Face" transform="translate(42.000098, 0.000000)">
                        <path d="M12.2275348,17.8627368 L3.84942595,17.8627368 L3.84942595,21.9260656 C2.57721756,22.1431409 1.69231165,22.5786041 1.69231165,23.4946402 C1.69231165,25.2816026 4.10548587,27.1390937 8.03848033,27.1390937 C12.1130693,27.1390937 14.3846491,25.2816026 14.3846491,23.4946402 C14.3846491,22.5786041 13.4997432,22.1431409 12.2275348,21.926185 L12.2275348,17.8627368 Z" id="Fill-137" fill="#FBCBAB" fill-rule="nonzero"></path>
                        <path d="M2.53846748,13.0581715 C2.53846748,11.8018533 2.00197113,10.2729903 1.34008409,10.2729903 C0.678312758,10.2729903 0,10.514896 0,11.7710955 C0,12.3761566 0.209485746,13.7310423 0.412378062,14.3251778 C0.630770696,14.9649157 0.996994798,15.3328213 1.34008409,15.3328213 C2.00197113,15.3328213 2.53846748,14.3143711 2.53846748,13.0581715" id="Fill-139" fill="#FBCBAB" fill-rule="nonzero"></path>
                        <path d="M12.6923374,13.0581715 C12.6923374,11.8018533 13.2288338,10.2729903 13.8906051,10.2729903 C14.5524921,10.2729903 15.2308049,10.514896 15.2308049,11.7710955 C15.2308049,12.3761566 15.0213191,13.7310423 14.8184268,14.3251778 C14.6000342,14.9649157 14.2338101,15.3328213 13.8906051,15.3328213 C13.2288338,15.3328213 12.6923374,14.3143711 12.6923374,13.0581715" id="Fill-141" fill="#ECA182" fill-rule="nonzero"></path>
                        <path d="M12.2615672,18.706042 L12.2615672,21.0286283 C12.0854099,21.1939671 11.9014421,21.3491491 11.7081017,21.4943027 C10.970428,22.0499748 10.4510884,22.407009 9.96767723,22.6239037 C9.48270395,22.8424698 9.03510095,22.9225678 8.44246267,22.9225678 C7.25730618,22.9225678 6.65072908,22.6038471 5.17850589,21.4943027 C4.65916633,21.1021694 4.19918668,20.6399663 3.80000897,20.1060222 L3.80000897,18.707842 C4.09308375,19.0349197 4.41595871,19.3301125 4.76526922,19.5938061 C6.23905452,20.7050219 6.84563161,21.0237427 8.03078811,21.0237427 C8.62342643,21.0237427 9.07090923,20.9436446 9.55600266,20.7250786 C10.0394138,20.5065124 10.5586332,20.1494782 11.296307,19.5938061 C11.6457377,19.3301125 11.9684924,19.0349197 12.2615672,18.706042" id="Fill-143" fill="#ECA182" fill-rule="nonzero"></path>
                        <path d="M8.03848036,2.68324373 L8.03848036,2.68336254 L8.03848036,2.68324373 C3.05270078,2.68324373 1.69231165,7.02310569 1.69231165,12.3765843 C1.69231165,15.9272724 2.7911644,18.4566208 4.84157183,19.9157964 C6.28408077,20.9423639 6.87821424,21.2359575 8.03848036,21.2359575 L8.03848036,21.2358387 L8.03848036,21.2359575 C9.19886416,21.2359575 9.79287994,20.9423639 11.2353889,19.9157964 C13.2857964,18.4566208 14.3846491,15.9272724 14.3846491,12.3765843 C14.3846491,7.02310569 13.02426,2.68324373 8.03848036,2.68324373" id="Fill-145" fill="#FBCBAB" fill-rule="nonzero"></path>
                        <path d="M7.87440725,2.8212392 C7.78606077,2.8212392 7.70145574,2.82563538 7.61540244,2.82824932 C12.1413487,2.97451144 13.3884581,7.25353972 13.3884581,12.5145797 C13.3884581,16.0652679 12.3473698,18.5946163 10.4049543,20.0537918 C9.14131015,21.0030104 8.56416144,21.3248821 7.61540244,21.3682498 C7.69916261,21.3716955 7.78473318,21.373953 7.87440725,21.373953 C9.06479148,21.373953 9.67416487,21.0803594 11.1539683,20.0537918 C13.2573867,18.5946163 14.3846491,16.0652679 14.3846491,12.5145797 C14.3846491,7.16110116 12.9890886,2.8212392 7.87440725,2.8212392" id="Fill-147" fill="#ECA182" fill-rule="nonzero"></path>
                        <path d="M13.2003515,8.73701355 C13.0887666,8.29160088 12.8489731,7.76979057 12.6424273,7.35296695 C12.482565,7.03320194 12.3856748,6.92932828 12.0886006,6.50358371 C11.7251675,5.98273844 9.51775174,6.37144942 8.90966187,6.27602669 C8.301572,6.18060401 7.93336983,6.37144942 7.28503916,6.19174679 C6.75432803,6.04375637 6.25574105,6.17108577 5.72947055,6.19174679 C5.04948626,6.22045597 4.64040986,5.8761146 3.9302521,5.96512505 C3.34807535,6.03671784 3.16820829,6.90899574 2.86966191,7.35296695 C2.6282743,7.71405391 2.44630633,8.19766542 2.3784445,8.61280735 C2.31513719,8.99936021 2.40554369,9.32861479 2.29543905,9.72802075 C2.20195829,10.0603985 2.18077994,10.3961397 2.15823527,10.7412505 C2.11610632,11.3599993 2.12806181,11.8738816 1.90341196,12.470528 C1.824961,12.6788197 1.75413875,12.7790015 1.69231165,12.8029058 C1.76313386,12.7409228 1.83555017,12.6152751 1.90341196,12.4053017 C2.12806181,11.7179631 1.93358538,10.9019738 1.97434801,10.1877279 C1.99700657,9.79168545 2.01795718,9.40345085 2.11155184,9.0201413 C2.22313664,8.56043412 2.13102223,8.17856603 2.19455728,7.73483504 C2.26378542,7.2559083 2.73426348,6.60688871 2.97553725,6.19174679 C3.27408358,5.67798464 3.64493237,5.30872936 4.22710917,5.22608538 C4.93726693,5.12422184 5.4741266,5.65888524 6.1541109,5.62537118 C6.6803814,5.59990527 6.9608237,5.42344595 7.49153483,5.59365892 C8.13986546,5.80195061 11.2763102,5.72723467 11.8778435,5.83702625 C12.26543,5.90861904 12.482565,6.13456867 12.6424273,6.50358371 C12.8489731,6.98551349 13.0887666,7.58672451 13.2003515,8.10060677 C13.3150106,8.63034517 13.6014876,9.3509575 13.525997,9.88706236 C13.5245168,9.89499045 13.5230366,9.90303861 13.5214425,9.91096665 C13.4671303,9.51804732 13.2862035,9.08056273 13.2003515,8.73701355 Z" id="Fill-151" fill="#ECA182" fill-rule="nonzero"></path>
                        <g id="Rectangle-6-+-Rectangle-6-+-Rectangle-6-+-Rectangle-6-Mask">
                            <g id="Group-7" transform="translate(0.276924, 0.000000)">
                                <mask id="mask-3" fill="white">
                                    <use xlink:href="#path-2"></use>
                                </mask>
                                <use id="Mask" fill="#8F6B02" fill-rule="nonzero" xlink:href="#path-2"></use>
                                <g mask="url(#mask-3)" fill="#D4A20B" fill-rule="nonzero" id="Rectangle-6">
                                    <g transform="translate(5.307705, -2.251684)">
                                        <path d="M5.66054081,2.29730685 L5.90763353,2.29730685 C6.84107849,3.81251028 7.36463494,5.16683531 7.47830289,6.36028194 C7.59197088,7.55372858 7.52734816,9.03813424 7.28443473,10.8134989 C7.43841174,9.46135518 7.43841174,7.97694952 7.28443473,6.36028194 C7.13045771,4.74361435 6.58915973,3.38928932 5.66054081,2.29730685 Z" transform="translate(6.596597, 6.555403) scale(-1, 1) rotate(-34.000000) translate(-6.596597, -6.555403) "></path>
                                        <path d="M4.15428297,0.185757191 L4.44998856,0.185757191 C5.5670787,2.2721473 6.19363922,4.13701263 6.32967013,5.78035317 C6.46570108,7.4236937 6.38836453,9.46767619 6.09766048,11.9123006 C6.2819308,10.0504389 6.2819308,8.0064564 6.09766048,5.78035317 C5.91339016,3.55424994 5.26559767,1.68938461 4.15428297,0.185757191 Z" transform="translate(5.274499, 6.049029) scale(-1, 1) rotate(-23.500000) translate(-5.274499, -6.049029) "></path>
                                        <path d="M2.78073137,0.26784682 L3.07800871,0.26784682 C4.20103651,2.16643805 4.8309274,3.86344425 4.96768135,5.35886543 C5.10443536,6.85428661 5.02668772,8.71428736 4.7344385,10.9388677 C4.91968828,9.24459479 4.91968828,7.38459404 4.7344385,5.35886543 C4.54918871,3.33313685 3.89795304,1.63613065 2.78073137,0.26784682 Z" transform="translate(3.906901, 5.603357) scale(-1, 1) rotate(-18.100000) translate(-3.906901, -5.603357) "></path>
                                        <path d="M0.986761942,1.23020062 L1.29510903,1.23020062 C2.45995517,2.91779987 3.11330139,4.42621641 3.25514765,5.75545023 C3.39699395,7.08468404 3.31635123,8.73798143 3.01321952,10.7153423 C3.20536746,9.20935534 3.20536746,7.55605794 3.01321952,5.75545023 C2.82107158,3.95484249 2.14558572,2.44642596 0.986761942,1.23020062 Z" transform="translate(2.154867, 5.972771) scale(-1, 1) rotate(-11.000000) translate(-2.154867, -5.972771) "></path>
                                    </g>
                                </g>
                            </g>
                        </g>
                        <path d="M13.0242758,2.27628545 C12.8932275,2.33224144 12.4786655,1.81765089 12.173913,1.74190415 C11.7261448,1.63140579 11.5626322,1.744967 11.2396325,1.6994954 C10.6378292,1.61314646 10.0052623,2.33103241 9.42028437,2.12664578 C9.00889219,1.98422305 8.04802538,1.77665577 7.59563616,1.74190415 C7.15533277,1.70856616 4.92040203,1.57992627 4.15413667,2.04783618 C3.66975554,2.34316602 2.29552555,3.61696004 2.1690983,3.95776149 C2.03058517,4.33190093 1.75628424,4.37584112 1.52013659,4.65149801 C1.19725532,5.03011391 0.998906357,6.31455001 0.861815106,6.64934353 C0.610382437,7.25661334 1.11610838,7.83828019 1.20438235,8.47888798 C1.23033132,8.66807811 1.23033132,9.23564143 0.991559231,9.4986567 C0.936817532,9.50478241 0.830718557,8.42470873 0.673721271,7.83251762 C0.653298102,7.75526702 0.328306425,6.78133521 0.57936263,6.30611596 C0.919187743,5.66550817 0.902710563,4.03614841 1.20438235,3.58932507 C1.53496538,3.10468727 1.32790674,2.89497412 1.69806494,2.41787564 C2.02556722,1.99685097 3.32662293,1.06510011 3.74867907,0.741026558 C4.19952794,0.395630825 7.80583929,0.207616201 8.51682177,0.223225842 C9.23160307,0.238918887 9.88801637,0.644643924 10.2118767,0.741026558 C10.6962579,0.88651214 11.1033068,0.645606864 11.570981,0.741026558 C12.0843918,0.845517012 13.1612486,2.2172666 13.0242758,2.27628545 Z" id="Fill-163" fill="#A98004" fill-rule="nonzero"></path>
                    </g>
                    <path d="M45.3495537,22.0729762 C45.2504628,21.746794 43.8601257,22.3790102 43.6741333,22.5827581 C42.881406,23.2741863 41.4941331,22.6433069 40.6637512,23.2780927 C40.5270057,23.3816116 40.4140421,23.5144283 40.2673875,23.6101345 C40.124705,23.6958273 39.9706313,23.7615623 39.8095875,23.8054532 C38.1976653,24.322282 36.6174887,24.9307433 35.0770052,25.6277767 C35.6319143,28.9169438 36.1987144,32.2686128 37.4987873,35.3448825 C38.1171146,36.8097728 38.0367028,38.6698962 38.5321574,40.1797098 C39.6300848,43.5255193 39.7957148,46.6301212 39.8095875,50.1478112 C39.8095875,52.5541377 40.4715148,55.0623061 39.6787875,57.3397223 C39.5004238,57.8553637 39.2824238,58.3670987 39.2328783,58.9022719 C39.1833329,59.4374452 39.345842,60.0429332 39.7917511,60.3632559 C40.0498881,60.5310619 40.3459547,60.6336913 40.6538421,60.6620935 C42.0232786,60.8574122 43.4026242,60.5019322 44.7502607,60.1933286 C48.3631156,59.3690836 52.0492978,58.8964124 55.7255709,58.4354602 L61.889026,57.6541854 C62.3311853,57.6237113 62.763851,57.5131348 63.1653171,57.3280031 C64.2929717,56.720562 64.3999899,55.0486338 63.6984262,53.9861 C63.3634989,53.4763182 62.8898443,53.0583362 62.6064443,52.5192565 C62.3230442,51.9801769 62.3012442,51.2223403 62.7867897,50.8492816 C63.7776989,50.0875386 63.4804262,48.6753843 63.5279898,47.4409701 C63.660111,43.9877353 65.4484299,40.5716045 65.280636,37.1235782 C65.2301879,36.4085359 65.9647071,36.0611687 65.9913901,35.3448825 C66.0607537,34.1300001 65.68619,32.7769061 65.9913901,31.5952279 L65.9913901,24.0886653 C65.5018809,23.3269223 64.5644808,22.8425319 63.678608,22.623775 C62.7927352,22.405018 61.867226,22.3405629 60.9932441,22.0729762 C59.2096076,21.5260838 54.5517096,21.4635819 54.5259459,21.9401595 C54.4664914,22.9968337 54.009811,22.6589324 53.1417746,23.2780927 C52.6437927,23.6332974 50.1383264,24.3550858 48.1388382,23.8054532 C46.6530017,23.3970166 45.4460128,22.3870679 45.3495537,22.0729762 Z" id="Shape" fill="#DAE6F9" fill-rule="nonzero"></path>
                    <path d="M32.6816911,27.3803564 C32.4596246,27.5442372 32.2643158,27.7507501 32.1044887,27.9906709 C31.9033424,28.3385701 31.9485956,28.928617 31.6882033,29.1437081 C30.798487,29.8786381 30.6847896,32.2741636 31.347111,36.3302844 C32.2216601,36.4177562 34.1946611,35.799516 35.065712,35.8830118 C35.3892952,35.9128317 35.7233729,36.0400634 36.0347124,35.9307237 C36.2572345,35.8180557 36.4659536,35.6730468 36.6556423,35.4993287 C37.1803717,35.1255856 37.8660183,35.0818497 38.3015437,34.5908149 C38.7370692,34.0997801 38.7738002,33.3781379 38.7685529,32.7081835 C38.7763989,32.1267271 38.7241513,31.5462345 38.6128832,30.9786277 C38.2280816,29.189432 37.0229529,27.8097633 36.2673425,26.2233432 C35.8982827,25.450013 35.6988855,24.9987381 34.9205368,25.5295329 C34.1421881,26.0603276 33.4180614,26.7680539 32.6816911,27.3803564 Z" id="Shape" fill="#DAE6F9" fill-rule="nonzero"></path>
                    <path d="M37.4336848,64.8578341 C37.4336848,64.8578341 36.599588,76.0774092 41.8153324,77.9800607 C47.0310768,79.8827121 42.4417848,68.6667067 42.4417848,68.6667067 L40.7700719,65.2826287 L37.4336848,64.8578341 Z" id="Shape" fill="#FBCBAB" fill-rule="nonzero"></path>
                    <path d="M32.5947441,27.337436 L30.9231493,30.1319209 C30.9231493,30.1319209 32.3866764,39.8020708 32.5947441,41.5200809 C32.7752072,42.7597747 33.0559549,43.9818402 33.434068,45.1735709 C33.434068,45.1735709 33.6421357,50.3312258 33.6421357,52.2667056 C33.6421357,54.2021854 34.7001071,57.4243605 34.7001071,57.4243605 C34.8476674,59.2511485 35.2027398,61.0539109 35.7580784,62.7958606 C36.5938758,65.1590306 37.4296731,67.9535155 37.4296731,67.9535155 C37.4296731,67.9535155 38.4876445,64.9451855 42.6560516,69.4576805 C43.6276054,68.444531 43.6276054,66.81734 42.6560516,65.8041906 C42.6560516,65.8041906 41.4041189,60.0050002 41.4041189,56.9930457 C41.4041189,53.9810912 39.1012679,39.5954746 39.1012679,39.5954746 C39.1012679,39.5954746 37.6060017,23.2417578 32.5947441,27.337436 Z" id="Shape" fill="#000000" fill-rule="nonzero" opacity="0.1"></path>
                    <path d="M32.1324916,27.3346702 L30.4616098,30.129579 C30.4616098,30.129579 31.9245126,39.8011962 32.1324916,41.519467 C32.3134455,42.7595701 32.5952645,43.9818725 32.9749826,45.1735113 C32.9749826,45.1735113 33.1829616,50.3319488 33.1829616,52.2640972 C33.1829616,54.1962456 34.2404817,57.4225347 34.2404817,57.4225347 C34.387046,59.2497362 34.7419888,61.0528834 35.2980019,62.7948498 C36.1334428,65.1620035 36.9724088,67.9532873 36.9724088,67.9532873 C36.9724088,67.9532873 38.0299289,64.9445008 42.1965583,69.4576805 C43.1653838,68.4448136 43.1653838,66.8201281 42.1965583,65.8072613 C42.1965583,65.8072613 40.9416344,60.007191 40.9416344,56.9947795 C40.9416344,53.982368 38.6432906,39.5945687 38.6432906,39.5945687 C38.6432906,39.5945687 37.1486621,23.2492457 32.1324916,27.3346702 Z" id="Shape" fill="#DAE6F9" fill-rule="nonzero"></path>
                    <path d="M68.4569148,24.5580174 C69.0181242,24.9197997 68.9626337,26.2950709 69.3982974,26.7993065 C69.8519999,27.380729 70.1098308,28.0951047 70.5475437,28.6904178 C70.9852567,29.2857309 70.6576825,29.4834801 71.1373679,30.0152931 C71.8668895,30.8209502 71.0549462,32.3572133 71.538629,33.3315424 C70.3545753,34.8610966 71.2590998,35.9814959 69.8719868,37.3323797 C69.7172638,37.513032 69.5131795,37.6453571 69.2843721,37.71338 C68.9692806,37.7469991 68.658297,37.6209607 68.4569148,37.3780203 C68.2410563,37.1557701 68.089156,36.8779573 67.883291,36.6457852 C67.3982894,36.149158 66.7518004,35.839125 66.0584877,35.770675 C65.3709438,35.7041807 64.6790403,35.6942249 63.9898443,35.7409093 C63.838569,35.7587163 63.6853183,35.7332427 63.548134,35.6674873 C63.4460761,35.5978919 63.3635379,35.5036526 63.3082913,35.3936433 C62.5088156,34.0283919 62.7586517,32.3138902 63.0444643,30.7541699 L63.6980357,27.1822913 C63.7934227,26.5003315 63.9768096,25.8333948 64.2436778,25.1979142 C64.4915153,24.6720543 65.0431535,23.7790847 65.7267053,23.9378348 C66.410257,24.096585 67.8792936,24.1452669 68.4569148,24.5580174 Z" id="Shape" fill="#DAE6F9" fill-rule="nonzero"></path>
                    <path d="M64.566554,65.7778034 C64.566554,65.7778034 65.4006508,76.9973785 60.1849064,78.90003 C54.969162,80.8026814 59.558454,69.586676 59.558454,69.586676 L61.2301669,66.202598 L64.566554,65.7778034 Z" id="Shape" fill="#FBCBAB" fill-rule="nonzero"></path>
                    <path d="M69.70148,25.6018581 L70.7909454,26.8810841 C70.7909454,26.8810841 72.0583567,34.1940528 69.2584308,43.4349201 L68.3977532,51.8133065 C68.3977532,51.8133065 66.8906595,58.9052192 66.676398,60.6229334 C66.4621365,62.3406475 66.4621365,62.5544558 66.0299819,63.1995046 C65.758994,63.5114454 65.758994,63.9747247 66.0299819,64.2866655 L64.7371497,68.9976959 C64.7371497,68.9976959 63.2300561,65.9898841 59.3551911,68.9976959 C59.9979756,68.3526471 58.4836188,67.6315843 59.3551911,66.1276785 C60.2267633,64.6237726 59.5694526,64.27217 59.3551911,63.8409295 C59.1409296,63.409689 60.2158687,61.2643583 60.2158687,60.8331178 C60.2158687,60.4018773 61.733857,50.5268328 61.733857,50.5268328 C61.733857,50.5268328 62.3802731,40.8583489 63.0266892,37.6367289 C63.4225283,35.6544722 63.4152652,31.2369753 63.3462657,28.1276952 C63.2772662,24.8879558 67.2066045,23.134003 69.5199025,25.4097931 C69.5743758,25.467775 69.6397437,25.522133 69.70148,25.6018581 Z" id="Shape" fill="#000000" fill-rule="nonzero" opacity="0.1"></path>
                    <path d="M70.1885997,24.6944006 L71.2578059,25.9808251 C71.2578059,25.9808251 72.5016491,33.3385904 69.7537891,42.6278147 L68.9091162,51.0533489 C68.9091162,51.0533489 67.4300476,58.18517 67.2197704,59.9125502 C67.0094932,61.6399305 67.0059292,61.8585862 66.5853747,62.5072649 C66.3178786,62.8203691 66.3178786,63.2874394 66.5853747,63.6005436 L65.3237114,68.3526614 C65.3237114,68.3526614 63.4240883,65.9729582 59.6212782,68.9976959 C59.6212782,68.9976959 58.552072,67.2703156 59.411001,65.7579468 C60.26993,64.245578 60.2556739,63.5968993 60.0453967,63.1668764 C59.8351195,62.7368534 60.8900696,60.5721617 60.8900696,60.1421388 C60.8900696,59.7121158 62.3691382,49.7705686 62.3691382,49.7705686 C62.3691382,49.7705686 63.0035339,40.0476771 63.6379296,36.8042838 C64.2723253,33.5608904 63.8482068,23.8416432 63.8482068,23.8416432 C63.8482068,23.8416432 67.2304625,21.4655843 70.1885997,24.6944006 Z" id="Shape" fill="#DAE6F9" fill-rule="nonzero"></path>
                </g>
            </g>
        </g>
    </g>
</svg>