<?xml version="1.0" encoding="UTF-8"?>
<svg width="585px" height="393px" viewBox="0 0 585 393" version="1.1" xmlns="http://www.w3.org/2000/svg" xmlns:xlink="http://www.w3.org/1999/xlink">
    <!-- Generator: Sketch 51.3 (57544) - http://www.bohemiancoding.com/sketch -->
    <title>about-me</title>
    <desc>Created with Sketch.</desc>
    <defs>
        <linearGradient x1="95.1583591%" y1="100%" x2="32.4424878%" y2="0%" id="linearGradient-1">
            <stop stop-color="#8067FF" offset="0%"></stop>
            <stop stop-color="#2CCDFF" offset="100%"></stop>
        </linearGradient>
        <linearGradient x1="95.1583591%" y1="100%" x2="-6.76857114%" y2="-48.9076246%" id="linearGradient-2">
            <stop stop-color="#8067FF" offset="0%"></stop>
            <stop stop-color="#2CCDFF" offset="100%"></stop>
        </linearGradient>
        <path d="M25.0401448,22.4380378 C24.9801436,21.8805418 25.3729176,19.4215462 25.4654727,18.7591339 C25.6080289,17.7390006 25.2548301,16.5581555 25.0401448,15.549451 C24.8320554,14.5718329 24.4458506,13.4222405 24.0263621,12.5813748 C23.6068737,11.7405093 22.4581769,11.7054958 21.7347578,11.5708647 C20.6096283,11.3614894 14.9256039,12.0508026 13.6361078,11.3771696 C12.3466117,10.7035365 11.4019297,11.3289401 10.4199946,11.3771696 C9.1480536,11.4395707 8.68275889,10.3537864 7.3546465,10.5464758 C6.26909229,10.704193 5.81060092,11.3755625 5.25335544,12.3515806 C4.8018568,13.1424524 4.01157696,14.3944252 3.88391477,15.305985 C3.76561447,16.1521721 3.76027913,16.7247645 3.55218975,17.6002093 C3.37814363,18.3314229 3.33636399,19.1554627 3.29380993,19.9118195 C3.2172126,21.2697876 3.51587293,22.761701 3.09628985,24.0702967 C2.28499659,26.6001722 1.90157062,22.6052802 1.84539926,21.67132 C1.79007897,20.7501601 1.4475862,20.0654344 1.39822349,19.1358171 C1.31439198,17.5623022 0.107079512,13.2031236 0.619643232,12.157847 C1.22901745,10.9139382 1.4524263,7.75776538 1.99626725,6.89214933 C2.58798153,5.95064613 2.14095108,5.70375775 2.80564558,4.77871202 C3.39310446,3.96109685 4.49461644,3.33502808 5.25335544,2.70644499 C6.0631593,2.0355754 6.93466656,1.37384883 7.99958206,1.5864242 C8.76002322,1.73819845 9.86376352,1.25779842 11.0404955,1.56630954 C12.0313027,1.82607558 13.672039,0.909154487 14.5216309,0.655664067 C15.8033594,0.273256971 16.7127397,1.19190259 17.8721253,1.56630954 C18.7434198,1.84745762 19.4900309,1.39876358 20.3294098,1.58390987 C21.2509181,1.78711364 21.8751862,2.79764668 22.6775432,3.26919829 C23.6141581,3.81937993 24.1335305,4.16681494 24.8156722,5.07814615 C25.056741,5.39998069 25.9148437,7.18849306 26.4878342,8.13959643 C27.2521052,9.40841997 27.2121043,13.6244994 26.7901808,14.8245217 C26.6333691,15.2707014 26.8865314,17.3594501 26.9320643,18.0163766 C26.9865335,18.8051912 26.605817,19.2258639 26.3524075,19.9118195 C26.0964447,20.6044038 26.2211281,21.4156944 26.1598503,22.1487365 C26.1175089,22.6522887 25.9229934,24.0702967 25.4654727,24.9663144 C24.7909908,24.9663144 25.0782307,22.7921016 25.0401448,22.4380378 Z" id="path-3"></path>
    </defs>
    <g id="Web-Pages-V4" stroke="none" stroke-width="1" fill="none" fill-rule="evenodd">
        <g id="Homepage-(1)" transform="translate(-154.000000, -5536.000000)">
            <g id="Section-4" transform="translate(0.000000, 5376.000000)">
                <g id="about-me" transform="translate(154.000000, 160.000000)">
                    <g id="Group" opacity="0.2" transform="translate(26.615599, 0.000000)" fill-rule="nonzero">
                        <path d="M38.1526462,356.556685 C37.954827,357.970701 37.8766946,359.398888 37.9190808,360.826045 C47.3884401,360.978134 56.8940111,361.294986 66.4357939,361.776602 C66.5009749,361.407242 66.566156,361.027019 66.6204735,360.641365 C67.2355508,356.65865 66.7761375,352.583936 65.2896936,348.838162 C63.3233983,344.041922 59.6569638,340.614485 55.0671309,339.957242 C50.4772981,339.3 46.001532,341.554178 42.7696379,345.58454 C40.2808221,348.765401 38.6868816,352.553353 38.1526462,356.556685 Z" id="Shape" fill="#373C45"></path>
                        <ellipse id="Oval" fill="#373C45" transform="translate(55.472177, 334.938735) rotate(-81.950938) translate(-55.472177, -334.938735) " cx="55.4721769" cy="334.938735" rx="18.8236382" ry="14.3811293"></ellipse>
                        <ellipse id="Oval" fill="#373C45" transform="translate(58.941977, 313.056865) rotate(-81.820000) translate(-58.941977, -313.056865) " cx="58.941977" cy="313.056865" rx="18.8264624" ry="14.3832869"></ellipse>
                        <ellipse id="Oval" fill="#3F3D56" transform="translate(62.213601, 290.284398) rotate(-81.820000) translate(-62.213601, -290.284398) " cx="62.2136011" cy="290.284398" rx="18.8264624" ry="14.3832869"></ellipse>
                        <ellipse id="Oval" fill="#3F3D56" transform="translate(65.485998, 267.506554) rotate(-81.820000) translate(-65.485998, -267.506554) " cx="65.4859981" cy="267.506554" rx="18.8264624" ry="14.3832869"></ellipse>
                        <path d="M141.171309,119.292201 C143.471359,117.088984 145.61657,114.729615 147.591643,112.230919 L111.079387,100.731894 L151.486212,106.84805 C161.77877,90.9100444 165.057465,71.4382506 160.551811,53.0084958 L102.231058,73.3830084 L157.569777,43.785376 C147.988442,19.8298556 125.824713,3.23605263 100.140503,0.788546586 C74.4562929,-1.65895945 49.5574002,10.4501407 35.6240423,32.1648933 C21.6906843,53.8796458 21.0587025,81.5597065 33.9864903,103.887744 C30.4025552,107.308209 27.1957792,111.103167 24.4211699,115.207521 L69.3472145,147.406964 L20.075766,122.594708 C9.55428277,143.363966 10.2284646,168.041065 21.8682451,188.204875 C-4.13533733,212.998776 -6.71534672,253.614806 15.9419732,281.499743 C38.599293,309.38468 78.8835633,315.172239 108.474792,294.793745 C138.066021,274.41525 147.024796,234.715645 129.053064,203.6039 C152.064254,181.663606 157.071615,146.825301 141.171309,119.292201 Z" id="Shape" fill="url(#linearGradient-1)"></path>
                        <path d="M13.3349582,143.952368 C11.1156664,159.243245 14.1223665,174.835598 21.8682451,188.204875 C-4.13533733,212.998776 -6.71534672,253.614806 15.9419732,281.499743 C38.599293,309.38468 78.8835633,315.172239 108.474792,294.793745 C138.066021,274.41525 147.024796,234.715645 129.053064,203.6039 C139.867688,193.316156 14.4376045,136.299025 13.3349582,143.952368 Z" id="Shape" fill="#000000" opacity="0.1"></path>
                    </g>
                    <path d="M0,260.452646 C0,313.890251 33.5247911,357.137883 74.9582173,357.137883" id="Shape" fill="#3A3768" fill-rule="nonzero"></path>
                    <path d="M74.9582173,357.137883 C74.9582173,303.097354 112.372145,259.366295 158.607242,259.366295" id="Shape" fill="#6C63FF" fill-rule="nonzero"></path>
                    <path d="M27.1587744,265.297772 C27.1587744,316.057521 48.5381616,357.137883 74.9582173,357.137883" id="Shape" fill="#6C63FF" fill-rule="nonzero"></path>
                    <path d="M74.9582173,357.137883 C74.9582173,288.083983 118.200418,232.207521 171.643454,232.207521" id="Shape" fill="#3A3768" fill-rule="nonzero"></path>
                    <ellipse id="Oval" fill="#6C63FF" fill-rule="nonzero" opacity="0.1" cx="71.7045961" cy="372.460864" rx="18.636351" ry="3.15041783"></ellipse>
                    <path d="M59.1898329,357.816852 C59.1898329,357.816852 69.8197772,357.490947 73.0245125,355.20961 C76.2292479,352.928273 89.3740947,350.206964 90.1671309,353.862535 C90.9601671,357.518106 106.147354,372.058914 94.1431755,372.156685 C82.1389972,372.254457 66.256546,370.288162 63.0572423,368.354457 C59.8579387,366.420752 59.1898329,357.816852 59.1898329,357.816852 Z" id="Shape" fill="#9FAABB" fill-rule="nonzero"></path>
                    <path d="M94.3604457,370.885655 C82.3562674,370.977994 66.4738162,369.011699 63.2745125,367.083426 C60.8410864,365.600557 59.8688022,360.277437 59.5428969,357.849443 L59.1898329,357.849443 C59.1898329,357.849443 59.8633705,366.426184 63.0572423,368.370752 C66.2511142,370.31532 82.144429,372.287047 94.1431755,372.172981 C97.6086351,372.172981 98.8036212,370.912813 98.7384401,369.087744 C98.2550139,370.174095 96.9568245,370.863928 94.3604457,370.885655 Z" id="Shape" fill="#000000" fill-rule="nonzero" opacity="0.2"></path>
                    <ellipse id="Oval" fill="url(#linearGradient-1)" fill-rule="nonzero" opacity="0.1" cx="304.547632" cy="383.595961" rx="277.562674" ry="9.22855153"></ellipse>
                    <rect id="Rectangle-path" fill="#3A3768" fill-rule="nonzero" x="377.702507" y="103.393454" width="5.38286908" height="44.3937326" rx="2.29"></rect>
                    <rect id="Rectangle-path" fill="#373C45" fill-rule="nonzero" x="198.688162" y="68.6139276" width="3.02005571" height="14.6168524" rx="1.51002786"></rect>
                    <rect id="Rectangle-path" fill="#373C45" fill-rule="nonzero" x="198.579526" y="95.3707521" width="3.40571031" height="25.4423398" rx="1.70285515"></rect>
                    <rect id="Rectangle-path" fill="#373C45" fill-rule="nonzero" x="198.633844" y="129.715738" width="3.24275766" height="25.65961" rx="1.62137883"></rect>
                    <rect id="Rectangle-path" fill="#373C45" fill-rule="nonzero" x="200.399164" y="20.3147632" width="180.209331" height="366.246936" rx="38.99"></rect>
                    <rect id="Rectangle-path" fill="#FFFFFF" fill-rule="nonzero" x="273.119499" y="31.2488858" width="25.1653203" height="5.11128134" rx="2.55564067"></rect>
                    <circle id="Oval" fill="#FFFFFF" fill-rule="nonzero" cx="304.987604" cy="33.8072423" r="2.9005571"></circle>
                    <path d="M355.166156,29.8529248 L334.525487,29.8529248 L334.525487,32.3352368 C334.525487,38.8449663 329.248309,44.1221448 322.738579,44.1221448 L256.981755,44.1221448 C253.855231,44.1235866 250.856347,42.8822182 248.64556,40.6714316 C246.434773,38.4606449 245.193405,35.4617609 245.194847,32.3352368 L245.194847,29.8529248 L225.841504,29.8529248 C217.936833,29.8529248 211.52883,36.2609273 211.52883,44.1655989 L211.52883,362.705432 C211.52883,370.610103 217.936833,377.018106 225.841504,377.018106 L355.166156,377.018106 C358.961614,377.018106 362.60154,375.509995 365.284825,372.825691 C367.96811,370.141388 369.474839,366.500889 369.473398,362.705432 L369.473398,44.1655989 C369.474839,40.3701413 367.96811,36.7296426 365.284825,34.0453393 C362.60154,31.361036 358.961614,29.8529245 355.166156,29.8529248 Z" id="Shape" fill="#FFFFFF" fill-rule="nonzero"></path>
                    <rect id="Rectangle-path" fill="url(#linearGradient-2)" fill-rule="nonzero" opacity="0.8" x="248.464763" y="70.9115599" width="84.735376" height="29.3314763" rx="3.88"></rect>
                    <g id="Group" opacity="0.3" transform="translate(236.281337, 269.415042)" fill="#6C63FF" fill-rule="nonzero">
                        <rect id="Rectangle-path" x="0.369359331" y="0.298746518" width="108.635097" height="9.77715877" rx="3.88"></rect>
                        <rect id="Rectangle-path" x="0.369359331" y="15.5076602" width="108.635097" height="9.77715877" rx="3.88"></rect>
                        <rect id="Rectangle-path" x="0.369359331" y="30.7165738" width="108.635097" height="9.77715877" rx="3.88"></rect>
                        <rect id="Rectangle-path" x="0.369359331" y="45.9254875" width="108.635097" height="9.77715877" rx="3.88"></rect>
                        <rect id="Rectangle-path" x="0.369359331" y="61.1344011" width="41.281337" height="9.77715877" rx="3.88"></rect>
                    </g>
                    <rect id="Rectangle-path" fill="url(#linearGradient-1)" fill-rule="nonzero" opacity="0.3" x="217.096379" y="129.031337" width="147.743733" height="111.89415" rx="5.71"></rect>
                    <path d="M444.534819,249.252368 C444.697772,251.42507 445.306128,253.999721 447.359331,254.749304 C448.34909,255.02905 449.399201,255.012052 450.379387,254.700418 C452.956017,254.141678 455.297057,252.800418 457.082173,250.860167 C458.787744,248.872145 459.645961,246.063928 458.923538,243.549025 C458.239136,241.148189 456.3,239.35571 454.93663,237.264485 C453.345125,234.825627 452.83454,232.066295 451.726462,229.448189 C442.95961,230.290111 444.045961,242.723398 444.534819,249.252368 Z" id="Shape" fill="#FBCBAB" fill-rule="nonzero"></path>
                    <path d="M398.462674,383.416713 C399.348491,384.051351 400.365861,384.47835 401.439276,384.666017 C411.770589,387.214288 422.443161,388.092666 433.052089,387.267827 C434.464345,387.159192 436.354596,386.398747 436.006964,385.024513 C435.659331,383.650279 433.834262,383.818663 432.584958,383.433008 C431.406267,383.074513 430.520891,382.123955 429.646379,381.260306 C426.387326,378.028412 422.43844,375.535237 418.554735,373.06922 C417.608165,372.390127 416.551606,371.879304 415.431476,371.559192 C414.084401,371.255014 412.683008,371.510306 411.330501,371.771031 C407.908496,372.417409 401.379526,372.314206 398.674513,374.845404 C396.507242,376.855153 396.186769,381.428691 398.462674,383.416713 Z" id="Shape" fill="#3F3D56" fill-rule="nonzero"></path>
                    <path d="M438.152507,380.706267 C438.152507,381.548189 438.244847,382.493315 438.891226,383.03649 C439.404444,383.39077 440.023953,383.557635 440.645682,383.509053 C445.150725,383.47863 449.274398,380.974375 451.37883,376.990947 L466.587744,375.214763 C469.466574,374.877994 472.399721,374.530362 475.039554,373.335376 C478.162813,371.928552 480.655989,369.440808 483.078552,367.012813 C483.502056,366.65289 483.824122,366.188516 484.012813,365.665738 C484.268106,364.704318 483.534819,363.699443 482.616852,363.31922 C481.668884,363.005686 480.654327,362.951301 479.678273,363.161699 C472.253064,364.182869 464.800696,367.507103 457.53844,365.654875 C455.756825,365.204039 453.996936,364.438162 452.166435,364.568524 C451.178471,364.696068 450.212065,364.955481 449.293036,365.339833 C446.930223,366.208914 439.868942,367.43649 438.304596,369.440808 C436.740251,371.445125 438.152507,378.316295 438.152507,380.706267 Z" id="Shape" fill="#3F3D56" fill-rule="nonzero"></path>
                    <path d="M399.706546,210.882451 C397.533844,214.271866 392.960306,215.005153 389.761003,217.433148 C384.872423,221.164763 384.008774,228.117409 383.731755,234.271588 C383.536212,238.535515 383.422145,242.85376 384.36727,247.014485 C385.024513,249.915042 386.186908,252.668942 387.083148,255.515181 C388.984262,261.685655 389.511142,268.192897 389.799025,274.651253 C390.548607,290.946518 389.885933,307.339554 391.971727,323.537047 C392.56922,328.164903 393.394847,332.771031 393.845682,337.415181 C395.344847,352.797911 392.808217,368.658635 396.925487,383.552507 C401.374304,378.725513 407.607714,375.933731 414.171309,375.828552 C415.53468,375.828552 416.952368,375.910028 418.201671,375.361421 C419.450975,374.812813 420.434123,373.357103 419.918106,372.102368 C419.603443,371.558032 419.239822,371.043508 418.831755,370.565181 C417.039276,367.849304 420.091922,364.003621 418.782869,361.010724 C418.283148,359.864624 417.185933,359.011838 416.870891,357.795125 C416.528691,356.480641 417.191365,355.133565 417.376045,353.78649 C417.739972,351.070613 416.181058,348.544847 415.371727,345.937604 C414.149582,341.999582 414.63844,337.789972 415.062117,333.66727 C416.464775,320.196781 417.081419,306.65601 416.908914,293.113788 C416.789415,283.950418 416.333148,274.591504 418.972981,265.813788 C423.912998,270.469616 428.144026,275.824283 431.531198,281.707103 C433.638719,285.302925 435.458357,289.137744 436.159053,293.24415 C436.702228,296.253343 436.571866,299.333148 436.468663,302.391226 L434.904318,349.26727 C434.583844,358.713092 434.312256,368.441365 437.593036,377.311421 C445.914485,372.873677 454.431476,368.620613 462.758357,364.161142 C462.617131,361.086769 458.494429,359.967827 456.968106,357.295404 C456.423149,356.1793 456.128405,354.957687 456.104457,353.715877 C455.045265,341.016435 457.641643,328.327855 460.037047,315.813092 C460.949582,311.044011 461.834958,306.24234 461.834958,301.386351 C461.834958,293.684123 459.575348,286.177437 457.250557,278.844568 C454.78454,271.066295 452.204457,263.326045 449.6461,255.585794 C447.989415,250.615738 446.33273,245.640251 444.263231,240.827716 C442.302368,236.281337 439.977577,231.881616 438.288301,227.22117 C435.610446,219.736212 434.697911,211.756964 433.79624,203.864624 C422.476462,206.118802 410.993733,208.633705 399.706546,210.882451 Z" id="Shape" fill="#3A3768" fill-rule="nonzero"></path>
                    <g id="Face" transform="translate(392.000000, 94.000000)">
                        <path d="M23.7511484,35 L7.24885155,35 L7.24885155,42.884552 C4.74299239,43.3057685 3,44.1507488 3,45.9282406 C3,49.3956929 7.75321082,53 15.5,53 C23.5256867,53 28,49.3956929 28,45.9282406 C28,44.1507488 26.2570076,43.3057685 23.7511484,42.8847836 L23.7511484,35 Z" id="Fill-137" fill="#FBCBAB" fill-rule="nonzero"></path>
                        <path d="M4,26.5044946 C4,24.0215692 3.15461378,21 2.11164271,21 C1.06885396,21 0,21.4780905 0,23.9607811 C0,25.156594 0.330097978,27.8343231 0.649806334,29.0085432 C0.993939375,30.2728895 1.57101843,31 2.11164271,31 C3.15461378,31 4,28.9871853 4,26.5044946" id="Fill-139" fill="#FBCBAB" fill-rule="nonzero"></path>
                        <path d="M25,26.5044946 C25,24.0215692 25.8453862,21 26.888175,21 C27.9311461,21 29,21.4780905 29,23.9607811 C29,25.156594 28.669902,27.8343231 28.3501937,29.0085432 C28.0060606,30.2728895 27.4289815,31 26.888175,31 C25.8453862,31 25,28.9871853 25,26.5044946" id="Fill-141" fill="#ECA182" fill-rule="nonzero"></path>
                        <path d="M23.6,37 L23.6,40.9659715 C23.2544122,41.2482986 22.8935017,41.5132821 22.5142037,41.7611417 C21.0670254,42.7099891 20.048178,43.3196487 19.0998154,43.690011 C18.1483882,44.0632272 17.2702746,44.2 16.1076288,44.2 C13.7825726,44.2 12.5925814,43.655763 9.70435399,41.7611417 C8.68550659,41.0915478 7.78311225,40.3023052 7,39.3905599 L7,37.0030736 C7.57495807,37.5615807 8.20837857,38.0656422 8.89366067,38.5159166 C11.7849527,40.413392 12.9749439,40.957629 15.3,40.957629 C16.4626459,40.957629 17.3405237,40.8208562 18.2921866,40.44764 C19.2405493,40.0744238 20.2591609,39.464764 21.7063392,38.5159166 C22.3918571,38.0656422 23.0250418,37.5615807 23.6,37" id="Fill-143" fill="#ECA182" fill-rule="nonzero"></path>
                        <path d="M15.5,5 L15.5,5.00023055 L15.5,5 C5.67954807,5 3,13.4211417 3,23.8091221 C3,30.6989375 5.16440186,35.6069281 9.20307369,38.4383369 C12.0443725,40.4303061 13.2146327,41 15.5,41 L15.5,40.9997695 L15.5,41 C17.7855991,41 18.9556275,40.4303061 21.7969263,38.4383369 C25.8355982,35.6069281 28,30.6989375 28,23.8091221 C28,13.4211417 25.320452,5 15.5,5" id="Fill-145" fill="#FBCBAB" fill-rule="nonzero"></path>
                        <path d="M15.4974058,5 C15.3277408,5 15.1652611,5.00853043 15,5.01360257 C23.6918538,5.29741205 26.0868651,13.600511 26.0868651,23.8091221 C26.0868651,30.6989375 24.0875069,35.6069281 20.3571951,38.4383369 C17.9304295,40.2802167 16.8220443,40.904782 15,40.9889335 C15.1608572,40.9956195 15.3251912,41 15.4974058,41 C17.7834792,41 18.9537504,40.4303061 21.7956389,38.4383369 C25.835149,35.6069281 28,30.6989375 28,23.8091221 C28,13.4211417 25.3198959,5 15.4974058,5" id="Fill-147" fill="#ECA182" fill-rule="nonzero"></path>
                        <path d="M25.3434795,16.9643715 C25.1268316,16.0840799 24.6612595,15.0527998 24.2602397,14.2290102 C23.9498583,13.5970424 23.7617409,13.3917517 23.1849553,12.5503312 C22.4793304,11.5209583 18.1935137,12.2891875 17.0128744,12.1005987 C15.8322352,11.91201 15.1173508,12.2891875 13.8585819,11.9340321 C12.8281776,11.6415511 11.8601441,11.8931987 10.8383616,11.9340321 C9.51813543,11.9907715 8.72389156,11.3102322 7.345082,11.4861481 C6.21475445,11.6276405 5.86553286,13.3515674 5.28588898,14.2290102 C4.81722191,14.9426446 4.46392129,15.8984305 4.33216389,16.7188965 C4.20924935,17.4828605 4.38477843,18.133583 4.17100435,18.9229492 C3.98950641,19.5798442 3.9483875,20.2433865 3.90461582,20.9254464 C3.82282019,22.148311 3.84603241,23.1639225 3.40986261,24.3431049 C3.25754585,24.7547623 3.12004063,24.9527567 3,25 C3.13750513,24.8774998 3.2781053,24.6291759 3.40986261,24.2141949 C3.84603241,22.855773 3.46844593,21.243092 3.54758879,19.8314917 C3.59158161,19.0487729 3.63225833,18.2814852 3.81397741,17.5239312 C4.03062532,16.6153886 3.85178023,15.8606834 3.97513695,14.9837154 C4.10954713,14.0371883 5.02300563,12.754498 5.49145165,11.9340321 C6.07109544,10.9186579 6.79111836,10.1888801 7.92144599,10.0255466 C9.30025555,9.82422852 10.3425976,10.8809108 11.6628237,10.8146753 C12.6846063,10.7643457 13.2291001,10.4156003 14.2595044,10.7520008 C15.5182732,11.1636582 21.6078496,11.0159933 22.775759,11.2329799 C23.5282791,11.3744724 23.9498583,11.8210281 24.2602397,12.5503312 C24.6612595,13.5027933 25.1268316,14.6909971 25.3434795,15.7066086 C25.5660964,16.7535574 26.1223069,18.17774 25.9757379,19.2372711 C25.972864,19.2529398 25.9699901,19.2688458 25.9668951,19.2845144 C25.8614451,18.5079681 25.5101659,17.6433451 25.3434795,16.9643715 Z" id="Fill-151" fill="#ECA182" fill-rule="nonzero"></path>
                        <g id="Rectangle-6-+-Rectangle-6-+-Rectangle-6-+-Rectangle-6-Mask">
                            <g id="Group-7" transform="translate(0.527273, 0.000000)">
                                <mask id="mask-4" fill="white">
                                    <use xlink:href="#path-3"></use>
                                </mask>
                                <use id="Mask" fill="#8F6B02" fill-rule="nonzero" xlink:href="#path-3"></use>
                                <g mask="url(#mask-4)" fill="#D4A20B" fill-rule="nonzero" id="Rectangle-6">
                                    <g transform="translate(10.227273, -4.105263)">
                                        <path d="M10.6566611,4.19574583 L11.1271345,4.19574583 C12.9044472,7.20082629 13.9013175,9.88683901 14.1177454,12.253784 C14.3341733,14.620729 14.2111294,17.5647287 13.7486134,21.085783 C14.0417912,18.4040965 14.0417912,15.4600968 13.7486134,12.253784 C13.4554357,9.04747116 12.4247849,6.36145845 10.6566611,4.19574583 Z" transform="translate(12.438947, 12.640764) scale(-1, 1) rotate(-34.000000) translate(-12.438947, -12.640764) "></path>
                                        <path d="M7.78869199,0.00794076278 L8.35172607,0.00794076278 C10.4787058,4.14584727 11.6716996,7.84440698 11.9307073,11.1036199 C12.1897151,14.3628327 12.0424636,18.4166328 11.4889526,23.2650201 C11.8398099,19.5724174 11.8398099,15.5186173 11.4889526,11.1036199 C11.1380953,6.68862239 9.90467513,2.99006269 7.78869199,0.00794076278 Z" transform="translate(9.921623, 11.636480) scale(-1, 1) rotate(-23.500000) translate(-9.921623, -11.636480) "></path>
                                        <path d="M5.17340037,0.170747905 L5.73942711,0.170747905 C7.87771241,3.93619569 9.07704729,7.30184288 9.33743175,10.2676895 C9.59781629,13.2335361 9.449782,16.922448 8.89332896,21.3344252 C9.2460512,17.9741988 9.2460512,14.2852869 8.89332896,10.2676895 C8.54060672,6.25009209 7.30063058,2.88444489 5.17340037,0.170747905 Z" transform="translate(7.317668, 10.752587) scale(-1, 1) rotate(-18.100000) translate(-7.317668, -10.752587) "></path>
                                        <path d="M1.75761809,2.0793699 L2.34472203,2.0793699 C4.56263094,5.42636043 5.80662563,8.41798054 6.07670601,11.0542302 C6.34678647,13.6904799 6.19323983,16.9694401 5.61606615,20.8911106 C5.98192274,17.9043089 5.98192274,14.6253488 5.61606615,11.0542302 C5.25020957,7.48311165 3.96406021,4.49149154 1.75761809,2.0793699 Z" transform="translate(3.981733, 11.485240) scale(-1, 1) rotate(-11.000000) translate(-3.981733, -11.485240) "></path>
                                    </g>
                                </g>
                            </g>
                        </g>
                        <path d="M23.9781332,3.98553817 C23.7379955,4.09411613 22.9783368,3.09559591 22.4198971,2.94861565 C21.5993902,2.73420276 21.2997637,2.95455886 20.7078871,2.86632499 C19.6051207,2.69877206 18.4459817,4.0917701 17.3740467,3.69517483 C16.6201965,3.41881535 14.8594688,3.01604828 14.0304941,2.94861565 C13.223666,2.88392605 9.12829664,2.63431103 7.72416379,3.54225134 C6.83656597,4.11531437 4.31837636,6.58700586 4.08670641,7.24830277 C3.83288986,7.97428927 3.33025073,8.05955155 2.89752508,8.59444085 C2.30586557,9.32911356 1.94240363,11.8214551 1.69119257,12.4710941 C1.2304581,13.6494508 2.15716893,14.778127 2.31892539,16.0211732 C2.36647525,16.3882809 2.36647525,17.4895904 1.92894048,17.9999497 C1.82862978,18.0118361 1.63421011,15.9160428 1.34652251,14.7669452 C1.30909834,14.6170468 0.713571631,12.727213 1.17361626,11.8050895 C1.79632431,10.5620433 1.76613091,7.40040607 2.31892539,6.5333825 C2.92469791,5.59298309 2.54527604,5.18605214 3.22356754,4.26028219 C3.82369477,3.44331877 6.20779715,1.63533363 6.98118835,1.00649582 C7.80734041,0.336284092 14.4156781,-0.0285426685 15.7185085,0.00174654259 C17.0283001,0.0321975932 18.231136,0.819473327 18.8245896,1.00649582 C19.7121875,1.28879851 20.4580788,0.821341831 21.3150623,1.00649582 C22.2558552,1.20925087 24.2291272,3.871017 23.9781332,3.98553817 Z" id="Fill-163" fill="#A98004" fill-rule="nonzero"></path>
                    </g>
                    <path d="M392.216156,230.985376 C394.481198,232.001114 396.762535,233.044011 399.212256,233.445961 C401.661978,233.847911 404.328969,233.522006 406.273538,232.011978 C408.218106,230.50195 409.233844,227.62312 408.125766,225.406964 C409.86764,225.461364 411.611103,225.379639 413.340251,225.162535 C414.32883,225.032173 415.512953,224.65195 415.686769,223.668802 C415.866017,222.511838 414.470056,221.822006 413.345682,221.4961 L407.289276,219.82312 C405.514837,219.253926 403.674791,218.914394 401.814067,218.812813 C400.660787,218.836891 399.511168,218.951309 398.375766,219.155014 L389.185237,220.583565 C388.940405,220.604393 388.703098,220.678551 388.489972,220.800836 C388.212096,221.035827 388.020879,221.357073 387.946797,221.71337 C387.501393,223.125627 385.442758,227.058217 386.148886,228.454178 C386.730084,229.632869 390.950557,230.360724 392.216156,230.985376 Z" id="Shape" fill="#FBCBAB" fill-rule="nonzero"></path>
                    <g id="Group" opacity="0.1" transform="translate(394.888579, 258.551532)" fill="#000000" fill-rule="nonzero">
                        <path d="M30.8849582,14.7200557 C27.6529426,9.3737138 23.7096485,4.49119217 19.1632312,0.206406685 C16.5233983,8.98412256 16.9905292,18.3430362 17.0991643,27.5064067 C17.2716693,41.0486287 16.6550256,54.5893992 15.2523677,68.0598886 C14.8286908,72.1608635 14.3398329,76.3922006 15.5619777,80.3302228 C16.3713092,82.9374652 17.9302228,85.4740947 17.5662953,88.1791086 C17.3816156,89.5261838 16.7189415,90.8949861 17.0611421,92.1877437 C17.3761838,93.4044568 18.4733983,94.2572423 18.9731198,95.4033426 C20.2821727,98.3962396 17.2295265,102.225627 19.0220056,104.957799 C19.4300722,105.436126 19.7936933,105.95065 20.1083565,106.494986 C20.651532,107.755153 19.6412256,109.210864 18.391922,109.754039 C17.1426184,110.297214 15.7249304,110.210306 14.3615599,110.22117 C9.22100976,110.308143 4.24407925,112.042643 0.162952646,115.169499 C0.52326541,118.489911 1.14256091,121.77708 2.01518106,125.000975 C6.46917257,120.168555 12.7115452,117.376277 19.2827298,117.277019 C20.6461003,117.277019 22.0637883,117.358496 23.3130919,116.809889 C24.5623955,116.261281 25.5455432,114.805571 25.0295265,113.550836 C24.7148632,113.006499 24.3512422,112.491976 23.9431755,112.013649 C22.1506964,109.297772 25.2033426,105.452089 23.8942897,102.459192 C23.3945682,101.313092 22.2973538,100.460306 21.982312,99.2435933 C21.6401114,97.9291086 22.3027855,96.5820334 22.4874652,95.2349582 C22.8513928,92.5190808 21.2924791,89.9933148 20.4831476,87.3860724 C19.2610028,83.4480501 19.7498607,79.2384401 20.1735376,75.1157382 C21.5761955,61.6452488 22.1928392,48.1044782 22.0203343,34.5622563 C21.9008357,25.3988858 21.4445682,16.0399721 24.0844011,7.26225627 C26.5352551,9.57394783 28.8085358,12.0669306 30.8849582,14.7200557 Z" id="Shape"></path>
                    </g>
                    <g id="Group" opacity="0.1" transform="translate(386.740947, 100.314763)" fill="#000000" fill-rule="nonzero">
                        <path d="M0.0543175487,3.19818942 C0.0543175487,2.45222841 0.0543175487,1.70264624 0.0543175487,0.949442897 C0.0271587744,1.53064067 0.0217270195,2.11183844 0.0543175487,2.69303621 C0.0488857939,2.86142061 0.0543175487,3.02980501 0.0543175487,3.19818942 Z" id="Shape"></path>
                    </g>
                    <g id="Group-10" transform="translate(356.000000, 137.000000)" fill="#FFFFFF" fill-rule="nonzero">
                        <path d="M7.94126206,25.2729242 C8.05650847,22.0396113 9.03859436,18.3684856 9.79815434,15.6079343 C11.3027504,10.1381571 14.2006964,7.88718663 19.1761838,5.15501393 C24.1516713,2.42284123 29.8895567,0.467521141 37.7962396,0.467521141 C38.2535928,0.467521141 38.9435936,1.03795064 39.7950245,2.05546584 C41.5653703,2.91901372 47.0505603,6.39657999 49.9678091,6.39657999 C54.2726299,7.00808657 59.0023677,6.60807799 59.5455432,4.75584958 C60.1409517,3.56276852 60.4881989,2.80184689 60.8067328,2.31380781 C60.7475192,2.20306912 60.6637632,2.45040225 60.894808,2.18491369 C60.946767,2.11255835 60.9984988,2.04722144 61.0509873,1.98818878 C61.2488565,1.722058 61.5636843,1.24767253 62.0544568,0.413649477 C64.3279657,0.413649477 62.8196469,0.413649477 67.3264662,2.2218663 C72.3900616,3.43400085 78.6795725,14.1089275 80.1259272,17.2302259 C80.1403941,17.2614462 80.1546976,17.2990498 80.168847,17.3428813 C80.7318221,18.2013669 81.2287353,19.1745781 81.6056308,20.2516202 C83.7751888,26.4514972 85.7423398,27.5501393 86.4647632,31.4610028 C86.9590529,34.1497214 86.9318942,36.8927577 87.1274373,39.6357939 C87.4859331,44.7688022 88.6266017,49.804039 89.8433148,54.7958217 C91.5633705,62.0091922 93.4047354,69.1917827 95.3674095,76.3435933 C96.3417217,79.5924321 97.1091375,82.8997583 97.6650418,86.2456825 C98.1747983,89.8663516 98.1601632,93.5415834 97.6215877,97.158078 C94.1738406,96.124909 90.4600813,96.4655316 87.2577994,98.1086351 C85.0204132,94.1783399 83.6759067,89.803594 83.3197772,85.2951253 C83.1849096,82.6217719 83.2103032,79.94274 83.3958217,77.2724234 C83.539914,74.1406689 83.0615528,71.0070479 82.4442549,67.8727209 C81.9517272,68.5396082 81.371454,69.1873165 80.7420649,69.6939994 C80.8671917,71.1248975 81.0606312,72.5500728 81.354039,73.9672702 C78.8772884,77.2249806 75.7608758,79.9421375 72.1961003,81.9519499 C70.8436335,82.7661336 69.3635498,83.3464146 67.8181058,83.6683844 C66.4323198,83.8612815 65.0289405,83.8940877 63.6356546,83.766156 L53.6086351,83.2229805 C50.2250727,83.0409253 45.923138,82.4305384 42.3883189,83.1040143 C38.8832624,84.4686101 34.5535389,84.477935 32.5885514,85.7810592 C30.8048059,88.1806002 30.8376581,91.3258276 31.4162226,94.2916224 C21.028195,86.4582186 11.0871582,80.4045671 3.65222841,69.7277159 C2.34317549,67.8483287 1.05041783,65.8331476 0.800557103,63.5572423 C0.615877437,61.8679666 1.02869081,60.151532 1.43607242,58.5220056 L5.23830084,43.0252089 C6.10959412,39.7875823 6.77719697,36.4985498 7.23718663,33.1774373 C7.5517674,30.5125174 7.67121603,27.8586846 7.94126206,25.2729242 Z M25.3646774,25.6290589 C26.7749015,34.5584146 24.8487389,43.8968055 21.2348189,52.2428969 C19.9366295,55.2140669 18.4483287,58.6469359 19.9366295,61.5203343 C20.39115,62.3073508 20.950282,63.0291061 21.5987465,63.6658774 C24.3783204,66.6509832 27.1997778,69.593838 30.0631188,72.494442 C29.9653676,67.0278783 30.0355486,60.9444824 29.9869957,56.3716796 C30.0334252,54.5510938 28.3585733,39.8838873 28.0268513,38.0931755 C27.6706239,36.6435327 26.1219369,27.6565445 25.3646774,25.6290589 Z" id="Combined-Shape"></path>
                    </g>
                    <g id="Group" opacity="0.2" transform="translate(431.824513, 29.874652)" fill-rule="nonzero">
                        <path d="M90.498468,314.145543 C90.7188151,315.372932 91.0366746,316.580798 91.4490251,317.75766 C99.1729805,315.269916 106.97117,312.916156 114.843593,310.696379 C114.794708,310.370474 114.751253,310.033705 114.691504,309.696936 C114.134323,306.236501 112.67485,302.984069 110.460167,300.267409 C107.586769,296.829109 103.697632,294.993175 99.7976323,295.715599 C95.8976323,296.438022 92.8667131,299.517827 91.318663,303.776323 C90.1507629,307.103137 89.8681142,310.67649 90.498468,314.145543 Z" id="Shape" fill="#373C45"></path>
                        <ellipse id="Oval" fill="#373C45" transform="translate(99.199238, 292.064392) rotate(-8.990000) translate(-99.199238, -292.064392) " cx="99.1992384" cy="292.064392" rx="12.297493" ry="16.4527855"></ellipse>
                        <ellipse id="Oval" fill="#373C45" transform="translate(95.776359, 272.255270) rotate(-8.990000) translate(-95.776359, -272.255270) " cx="95.7763587" cy="272.25527" rx="12.297493" ry="16.4527855"></ellipse>
                        <ellipse id="Oval" fill="#3F3D56" transform="translate(92.352697, 252.441632) rotate(-8.990000) translate(-92.352697, -252.441632) " cx="92.3526969" cy="252.441632" rx="12.297493" ry="16.4527855"></ellipse>
                        <ellipse id="Oval" fill="#3F3D56" transform="translate(88.929884, 232.633360) rotate(-8.990000) translate(-88.929884, -232.633360) " cx="88.9298839" cy="232.63336" rx="12.297493" ry="16.4527855"></ellipse>
                        <path d="M110.791504,88.7603064 C112.074477,86.3041048 113.188752,83.7634122 114.126602,81.1558496 L81.4220056,81.6664345 L115.837604,75.5991643 C117.999511,67.1753715 118.347581,58.3884617 116.858774,49.8200557 C115.563873,42.2367513 112.839487,34.9686515 108.830641,28.4026462 L66.9463788,61.3788301 L103.947493,21.5477716 C90.8678273,5.69791086 70.1076602,-2.76476323 48.6848189,1.17869081 C16.6917827,7.07214485 -4.66587744,38.402507 0.988579387,71.1559889 C3.22282565,84.3863066 9.81493378,96.4903195 19.7172702,105.544429 C17.7206055,109.377547 16.133026,113.410217 14.9807799,117.575766 L60.0208914,131.904735 L13.4218663,124.89234 C12.4535692,131.391744 12.5305857,138.00416 13.65,144.479248 C15.8842463,157.709566 22.4763544,169.813579 32.3786908,178.867688 C26.1261028,190.830313 23.9935267,204.521185 26.3114206,217.818802 C31.9658774,250.577716 62.4869081,272.353621 94.485376,266.465599 C126.483844,260.577577 147.836072,229.241783 142.181616,196.488301 C139.947369,183.257983 133.355261,171.15397 123.452925,162.099861 C129.714788,150.140378 131.856935,136.449348 129.547354,123.148747 C127.309376,109.913645 120.706861,97.8080777 110.791504,88.7603064 Z" id="Shape" fill="url(#linearGradient-1)"></path>
                        <path d="M13.65,144.479248 C15.8842463,157.709566 22.4763544,169.813579 32.3786908,178.867688 C26.1261028,190.830313 23.9935267,204.521185 26.3114206,217.818802 C31.9658774,250.577716 62.4869081,272.353621 94.485376,266.465599 C126.483844,260.577577 147.836072,229.241783 142.181616,196.488301 C139.947369,183.257983 133.355261,171.15397 123.452925,162.099861 C129.476741,150.579109 12.5038997,137.825348 13.65,144.479248 Z" id="Shape" fill="#000000" opacity="0.1"></path>
                    </g>
                    <path d="M493.746518,298.746518 C493.746518,327.160028 511.568106,350.152646 533.599304,350.152646" id="Shape" fill="#3A3768" fill-rule="nonzero"></path>
                    <path d="M533.599304,350.152646 C533.599304,321.418663 553.49039,298.170752 578.069081,298.170752" id="Shape" fill="#8067FF" fill-rule="nonzero"></path>
                    <path d="M508.184123,301.326602 C508.184123,328.31156 519.552786,350.152646 533.599304,350.152646" id="Shape" fill="#8067FF" fill-rule="nonzero"></path>
                    <path d="M533.599304,350.152646 C533.599304,313.439415 556.58649,283.733148 585,283.733148" id="Shape" fill="#3A3768" fill-rule="nonzero"></path>
                    <ellipse id="Oval" fill="#6C63FF" fill-rule="nonzero" opacity="0.1" cx="528.993175" cy="355.725627" rx="10.1465181" ry="1.71643454"></ellipse>
                    <path d="M522.181755,347.757242 C522.181755,347.757242 527.966574,347.577994 529.710167,346.334123 C531.45376,345.090251 538.612813,343.618245 539.047354,345.600836 C539.481894,347.583426 547.738162,355.508357 541.220056,355.562674 C534.70195,355.616992 526.011142,354.541504 524.300139,353.482312 C522.589136,352.42312 522.181755,347.757242 522.181755,347.757242 Z" id="Shape" fill="#9FAABB" fill-rule="nonzero"></path>
                    <path d="M541.323259,354.867409 C534.805153,354.921727 526.146936,353.851671 524.403343,352.787047 C523.077994,351.983148 522.551114,349.082591 522.371866,347.746379 L522.181755,347.746379 C522.181755,347.746379 522.545682,352.412256 524.289276,353.471448 C526.032869,354.530641 534.674791,355.600696 541.209192,355.551811 C543.094011,355.551811 543.745822,354.861978 543.707799,353.867967 C543.447075,354.481755 542.730084,354.856546 541.323259,354.867409 Z" id="Shape" fill="#000000" fill-rule="nonzero" opacity="0.2"></path>
                </g>
            </g>
        </g>
    </g>
</svg>