<?xml version="1.0" encoding="UTF-8"?>
<svg width="585px" height="411px" viewBox="0 0 585 411" version="1.1" xmlns="http://www.w3.org/2000/svg" xmlns:xlink="http://www.w3.org/1999/xlink">
    <!-- Generator: Sketch 51.3 (57544) - http://www.bohemiancoding.com/sketch -->
    <title>data-driven</title>
    <desc>Created with Sketch.</desc>
    <defs>
        <linearGradient x1="50%" y1="0%" x2="50%" y2="100%" id="linearGradient-1">
            <stop stop-color="#A59CFF" offset="0%"></stop>
            <stop stop-color="#6C63FF" offset="100%"></stop>
        </linearGradient>
        <linearGradient x1="94.8196001%" y1="86.6323367%" x2="0%" y2="0%" id="linearGradient-2">
            <stop stop-color="#8067FF" offset="0%"></stop>
            <stop stop-color="#2CCDFF" offset="100%"></stop>
        </linearGradient>
        <linearGradient x1="88.6660782%" y1="68.7297371%" x2="-43.0223717%" y2="-20.143646%" id="linearGradient-3">
            <stop stop-color="#8067FF" offset="0%"></stop>
            <stop stop-color="#2CCDFF" offset="100%"></stop>
        </linearGradient>
        <linearGradient x1="95.1583591%" y1="100%" x2="32.4424878%" y2="0%" id="linearGradient-4">
            <stop stop-color="#8067FF" offset="0%"></stop>
            <stop stop-color="#2CCDFF" offset="100%"></stop>
        </linearGradient>
        <path d="M570.313363,363.186595 C557.363658,373.914955 538.936254,378.355008 521.11512,381.159253 L518.115681,381.616005 C499.502142,384.388383 480.681195,385.86486 461.79643,386.762431 C451.691937,387.251049 441.587445,387.596269 431.482952,387.904311 L423.564221,388.137998 C413.282456,388.442499 402.981192,388.741689 392.660428,389.035568 C382.555935,389.322366 372.451442,389.59146 362.34695,389.842851 C349.406108,390.157974 336.465267,390.419987 323.524425,390.628889 C313.419932,390.788221 303.31544,390.897983 293.210947,390.958175 C280.26656,391.03253 267.325719,391.007745 254.388423,390.88382 C244.276839,390.78114 234.172347,390.604104 224.074945,390.352713 C211.127012,390.019886 198.186171,389.533038 185.25242,388.892169 C176.473921,388.463743 167.700739,387.94857 158.932876,387.346648 L154.938942,387.065162 C117.302366,384.356516 78.9903847,379.496888 46.0550568,364.137276 C44.7255183,363.51057 44.2841115,363.303439 43.8427048,363.085685 C37.7955273,360.198348 32.0030202,356.806713 26.5267952,352.946854 C16.7892552,346.010598 8.74820633,337.544754 4.49900126,327.501522 C-2.15932758,311.748891 1.36129038,294.041787 8.96625064,278.639686 C16.5712109,263.237586 27.9892876,249.333207 37.8650996,234.828678 C40.7581754,230.579822 43.5023429,226.171635 46.0550568,221.651915 C62.0095189,193.30674 69.9229321,160.505577 53.1973377,133.190749 C50.9896557,129.708166 48.6058079,126.340127 46.0550568,123.099717 C41.9760327,117.788648 37.8278726,112.477579 35.0252054,106.598226 C28.4891941,92.9169118 29.8931867,77.5307447 32.2757198,62.9146826 C35.4666122,43.4814808 41.3165816,22.5505576 59.6003952,10.4094537 C78.5702506,-2.19902434 105.496064,-1.56169605 129.039532,2.97395694 C165.644386,9.97925706 199.430619,24.6431188 233.535941,37.8676808 C267.641263,51.0922428 303.368621,63.1855471 340.866925,64.486759 C348.922146,64.762049 356.986778,64.4692126 365.000708,63.6104326 C375.684284,62.5140261 386.222641,60.2977244 396.441635,56.9981516 C411.199512,52.1438345 424.627851,44.8411145 434.583436,34.6916615 C455.935824,12.9959443 496.061296,11.3548239 524.992054,24.4572314 C552.598592,36.959488 570.451635,63.4192341 569.132733,89.8471139 C567.633013,119.265126 545.57331,143.451734 525.359007,168.259738 C522.907338,171.265803 520.487578,174.28249 518.131636,177.320422 C516.816279,179.016423 515.52574,180.715965 514.260019,182.419048 C512.042349,185.425113 509.899133,188.447111 507.878235,191.506287 C497.550379,207.189874 490.248554,226.028236 497.358926,242.959924 C501.347541,252.440183 508.95782,259.673859 518.131636,265.98872 C538.686301,280.132097 567.058653,289.649533 579.822222,309.449198 C590.820165,326.513663 586.746459,349.54777 570.313363,363.186595 Z" id="path-5"></path>
        <path d="M140.923107,269.627868 L140.923107,388.84573 C132.179891,388.420203 123.441971,387.908516 114.709348,387.310668 L110.731467,387.031086 L110.731467,269.627868 C110.731467,268.393906 111.223669,267.210483 112.099794,266.33794 C112.975918,265.465396 114.164199,264.975207 115.403226,264.975207 L136.251348,264.975207 C137.490376,264.975207 138.678656,265.465396 139.554781,266.33794 C140.430906,267.210483 140.923107,268.393906 140.923107,269.627868 Z" id="path-7"></path>
        <filter x="-91.1%" y="-22.2%" width="315.3%" height="152.5%" filterUnits="objectBoundingBox" id="filter-8">
            <feOffset dx="5" dy="5" in="SourceAlpha" result="shadowOffsetOuter1"></feOffset>
            <feGaussianBlur stdDeviation="10" in="shadowOffsetOuter1" result="shadowBlurOuter1"></feGaussianBlur>
            <feColorMatrix values="0 0 0 0 0.168627451   0 0 0 0 0.168627451   0 0 0 0 0.168627451  0 0 0 0.3 0" type="matrix" in="shadowBlurOuter1"></feColorMatrix>
        </filter>
        <path d="M179.740931,390.474509 L179.740931,188.87173 C179.740931,186.286128 181.832549,184.190083 184.41269,184.190083 L205.260812,184.190083 C206.49984,184.190083 207.68812,184.683326 208.564245,185.561305 C209.440369,186.439285 209.932571,187.63008 209.932571,188.87173 L209.932571,391 L179.740931,390.474509 Z" id="path-9"></path>
        <filter x="-91.1%" y="-13.3%" width="315.3%" height="131.4%" filterUnits="objectBoundingBox" id="filter-10">
            <feOffset dx="5" dy="5" in="SourceAlpha" result="shadowOffsetOuter1"></feOffset>
            <feGaussianBlur stdDeviation="10" in="shadowOffsetOuter1" result="shadowBlurOuter1"></feGaussianBlur>
            <feColorMatrix values="0 0 0 0 0.168627451   0 0 0 0 0.168627451   0 0 0 0 0.168627451  0 0 0 0.3 0" type="matrix" in="shadowBlurOuter1"></feColorMatrix>
        </filter>
        <path d="M248.750395,391 L248.750395,230.87485 C248.750395,228.292089 250.842012,226.198347 253.422154,226.198347 L274.270276,226.198347 C276.850417,226.198347 278.942035,228.292089 278.942035,230.87485 L278.942035,390.65536 L248.750395,391 Z" id="path-11"></path>
        <filter x="-91.1%" y="-16.7%" width="315.3%" height="139.4%" filterUnits="objectBoundingBox" id="filter-12">
            <feOffset dx="5" dy="5" in="SourceAlpha" result="shadowOffsetOuter1"></feOffset>
            <feGaussianBlur stdDeviation="10" in="shadowOffsetOuter1" result="shadowBlurOuter1"></feGaussianBlur>
            <feColorMatrix values="0 0 0 0 0.168627451   0 0 0 0 0.168627451   0 0 0 0 0.168627451  0 0 0 0.3 0" type="matrix" in="shadowBlurOuter1"></feColorMatrix>
        </filter>
        <path d="M347.951499,112.404007 L347.951499,390.191658 C337.887619,390.478832 327.823739,390.74828 317.759858,391 L317.759858,112.404007 C317.759858,109.813511 319.851476,107.713499 322.431618,107.713499 L343.27974,107.713499 C345.859881,107.713499 347.951499,109.813511 347.951499,112.404007 Z" id="path-13"></path>
        <filter x="-91.1%" y="-9.7%" width="315.3%" height="122.9%" filterUnits="objectBoundingBox" id="filter-14">
            <feOffset dx="5" dy="5" in="SourceAlpha" result="shadowOffsetOuter1"></feOffset>
            <feGaussianBlur stdDeviation="10" in="shadowOffsetOuter1" result="shadowBlurOuter1"></feGaussianBlur>
            <feColorMatrix values="0 0 0 0 0.168627451   0 0 0 0 0.168627451   0 0 0 0 0.168627451  0 0 0 0.3 0" type="matrix" in="shadowBlurOuter1"></feColorMatrix>
        </filter>
        <path d="M418.039236,167.33066 L418.039236,386.62698 C407.975355,387.115485 397.911475,387.460624 387.847595,387.768595 L387.847595,167.33066 C387.847595,164.744158 389.939213,162.647383 392.519354,162.647383 L413.367476,162.647383 C415.947618,162.647383 418.039236,164.744158 418.039236,167.33066 Z" id="path-15"></path>
        <filter x="-91.1%" y="-12.2%" width="315.3%" height="128.9%" filterUnits="objectBoundingBox" id="filter-16">
            <feOffset dx="5" dy="5" in="SourceAlpha" result="shadowOffsetOuter1"></feOffset>
            <feGaussianBlur stdDeviation="10" in="shadowOffsetOuter1" result="shadowBlurOuter1"></feGaussianBlur>
            <feColorMatrix values="0 0 0 0 0.168627451   0 0 0 0 0.168627451   0 0 0 0 0.168627451  0 0 0 0.3 0" type="matrix" in="shadowBlurOuter1"></feColorMatrix>
        </filter>
        <linearGradient x1="99.982811%" y1="50.0000413%" x2="0.0187255522%" y2="50.0000413%" id="linearGradient-17">
            <stop stop-color="#808080" stop-opacity="0.25" offset="0%"></stop>
            <stop stop-color="#808080" stop-opacity="0.12" offset="54%"></stop>
            <stop stop-color="#808080" stop-opacity="0.1" offset="100%"></stop>
        </linearGradient>
    </defs>
    <g id="Web-Pages-V4" stroke="none" stroke-width="1" fill="none" fill-rule="evenodd">
        <g id="Homepage-(1)" transform="translate(-701.000000, -2982.000000)">
            <g id="Section-3" transform="translate(0.000000, 2642.000000)">
                <g id="Skill-1" transform="translate(153.000000, 340.000000)">
                    <g id="data-driven" transform="translate(547.000000, 0.000000)">
                        <ellipse id="Oval" fill="url(#linearGradient-1)" fill-rule="nonzero" opacity="0.1" cx="499.842779" cy="402" rx="34.0621572" ry="9"></ellipse>
                        <g id="Group" transform="translate(15.000000, 117.000000)" fill-rule="nonzero" opacity="0.6">
                            <path d="M438.614807,92.262158 C422.386978,136.888754 390.073284,165.728402 342.435688,148.373789 C294.798092,131.019177 329.766135,92.416205 354.549173,61.6366305 C379.332212,30.8570559 364.20069,0.359248479 406.226262,0.00198261415 C448.251835,-0.35528325 454.842635,47.6355624 438.614807,92.262158 Z" id="Oval" fill="url(#linearGradient-2)"></path>
                            <path d="M50.3130365,126.79791 C46.0943771,108.990144 -21.9524481,91.3344794 7.26765697,49.0296775 C36.4877621,6.72487574 40.5713261,27.7006298 66.8087224,37.6333739 C93.0461187,47.5661179 161.219362,-26.5551432 144.855011,57.5596573 C128.490659,141.674458 62.2445127,177.162949 50.3130365,126.79791 Z" id="Oval" fill-opacity="0.8" fill="url(#linearGradient-3)"></path>
                        </g>
                        <g id="Shape-+-Shape-+-Shape-+-Shape-+-Shape-Mask" transform="translate(0.020110, 0.000000)">
                            <mask id="mask-6" fill="white">
                                <use xlink:href="#path-5"></use>
                            </mask>
                            <use id="Mask" fill="url(#linearGradient-4)" fill-rule="nonzero" opacity="0.297946" xlink:href="#path-5"></use>
                            <g id="Shape" fill-rule="nonzero" mask="url(#mask-6)">
                                <use fill="black" fill-opacity="1" filter="url(#filter-8)" xlink:href="#path-7"></use>
                                <use fill="#373C45" xlink:href="#path-7"></use>
                            </g>
                            <g id="Shape" fill-rule="nonzero" mask="url(#mask-6)">
                                <use fill="black" fill-opacity="1" filter="url(#filter-10)" xlink:href="#path-9"></use>
                                <use fill="#373C45" xlink:href="#path-9"></use>
                            </g>
                            <g id="Shape" fill-rule="nonzero" mask="url(#mask-6)">
                                <use fill="black" fill-opacity="1" filter="url(#filter-12)" xlink:href="#path-11"></use>
                                <use fill="#373C45" xlink:href="#path-11"></use>
                            </g>
                            <g id="Shape" fill-rule="nonzero" mask="url(#mask-6)">
                                <use fill="black" fill-opacity="1" filter="url(#filter-14)" xlink:href="#path-13"></use>
                                <use fill="#373C45" xlink:href="#path-13"></use>
                            </g>
                            <g id="Shape" fill-rule="nonzero" mask="url(#mask-6)">
                                <use fill="black" fill-opacity="1" filter="url(#filter-16)" xlink:href="#path-15"></use>
                                <use fill="#373C45" xlink:href="#path-15"></use>
                            </g>
                        </g>
                        <polyline id="Shape" stroke="#2B2B2B" stroke-width="7" stroke-linecap="round" points="125.215722 199 194.091408 122.091216 262.967093 160.810811 331.842779 42 400.718464 98.7533784"></polyline>
                        <ellipse id="Oval" fill="#F2F6FD" fill-rule="nonzero" cx="126.21755" cy="199" rx="15.0274223" ry="15"></ellipse>
                        <ellipse id="Oval" fill="#5798FF" fill-rule="nonzero" cx="195.343693" cy="123" rx="15.0274223" ry="15"></ellipse>
                        <ellipse id="Oval" fill="#F2F6FD" fill-rule="nonzero" cx="264.469835" cy="161" rx="15.0274223" ry="15"></ellipse>
                        <ellipse id="Oval" fill="#5798FF" fill-rule="nonzero" cx="333.595978" cy="43" rx="15.0274223" ry="15"></ellipse>
                        <ellipse id="Oval" fill="#F2F6FD" fill-rule="nonzero" cx="465.837294" cy="169" rx="15.0274223" ry="15"></ellipse>
                        <path d="M408.818704,177.327304 C408.918425,178.258675 409.292097,179.140622 409.89342,179.863863 C410.672588,180.735971 411.838654,181.134801 412.886502,181.655939 C415.598273,183.029491 417.669572,185.385969 418.66847,188.233975 C420.457871,193.402811 420.688935,198.869441 422.967331,203.857474 C425.245728,208.845508 427.921769,213.636786 429.888498,218.747127 C431.006202,221.645292 431.898216,224.660446 433.537157,227.298042 C434.330607,228.595235 435.342973,229.748167 436.530239,230.706709 C436.406647,232.578551 436.358284,234.429122 436.369031,236.300964 C437.107068,236.286568 437.800939,236.647968 438.206795,237.258156 C438.604449,237.864425 438.878281,238.54189 439.012831,239.252306 C439.749011,242.267461 438.840877,245.479372 439.501827,248.510479 C441.317678,256.941885 440.760064,265.704787 437.889754,273.84416 C437.153574,275.907441 436.229318,282.73541 437.013861,284.782737 C439.937086,284.490262 442.52715,286.266385 445.262301,287.441604 C445.48345,289.045872 445.351469,290.678493 444.875403,292.227563 C443.892039,295.030009 443.897412,298.07707 443.913533,301.039047 L444.047872,322.980014 C444.047872,325.761189 444.085487,328.579587 444.789426,331.275678 C445.590089,334.312103 447.272018,337.407024 447.218283,340.544487 C447.073196,347.298008 450.297342,353.732465 450.03941,360.432809 C449.991048,361.7197 449.81372,362.995956 449.690128,364.272212 C449.372783,367.672074 449.459352,371.097032 449.94806,374.476942 C450.92605,381.209192 453.510741,387.82977 452.865912,394.599244 C452.822923,395.056569 452.667089,395.66279 452.23183,395.838276 C452.769187,396.439179 453.338786,397.034766 453.919133,397.603763 C453.801699,397.797538 453.641969,397.962876 453.451631,398.087677 C452.816666,398.415833 452.114925,398.597626 451.398925,398.61945 C450.558876,398.64126 449.74322,398.903547 449.050672,399.374568 C448.547264,399.85254 448.205642,400.472956 448.072681,401.150691 C447.685809,402.50589 447.921688,403.960922 448.71751,405.128355 C449.197309,405.72606 449.824712,406.191264 450.539153,406.47906 C453.021745,407.542606 455.869741,406.771535 458.459805,405.995146 L468.605117,402.953403 C469.223935,402.826202 469.794988,402.531677 470.254805,402.102565 C470.465183,401.856624 470.604438,401.55896 470.657824,401.241092 C472.898605,401.772866 475.359703,401.118785 477.643473,400.443433 L487.788786,397.396371 C488.408472,397.271589 488.980162,396.976736 489.438474,396.545534 C489.80817,396.100562 489.959685,395.51638 489.852239,394.950214 C489.927469,394.918308 490.002699,394.897037 490.07793,394.859813 C490.851725,394.51416 491.690002,393.838808 491.501927,393.025195 C491.367588,392.493421 490.83023,392.184993 490.599166,391.695762 C490.377989,391.048388 490.521247,390.333465 490.975317,389.818602 C491.372961,389.286828 491.910319,388.845457 492.275722,388.287095 C493.447162,386.510972 492.651873,384.176487 492.211239,382.097253 C491.260116,377.656946 492.141383,373.019883 491.539542,368.521081 C491.335346,367.005527 490.96457,365.516561 490.669023,364.011643 C490.042756,360.454651 489.628276,356.864309 489.427727,353.259187 C489.040829,348.111621 487.595337,343.038503 488.422868,337.93348 C488.824721,334.937295 488.995378,331.915171 488.933358,328.893333 C488.991823,326.968332 488.907411,325.04168 488.6808,323.128911 C488.47123,321.703758 488.100453,320.305194 487.939246,318.874724 C487.808456,317.266816 487.779741,315.652372 487.853269,314.040905 C487.927362,310.448644 487.592084,306.859564 486.853784,303.341626 C485.779068,298.507806 483.758603,293.881378 482.898831,289.036924 C483.189004,289.100736 483.479177,289.164549 483.758603,289.238997 C483.790845,285.516584 480.496842,277.422994 479.277041,273.89202 C479.098485,273.459507 478.989688,273.001923 478.954626,272.535998 C479.028377,271.92153 479.141449,271.312312 479.293161,270.712015 C479.448995,269.425124 478.755804,268.202045 478.567728,266.915154 C478.494458,266.009919 478.561507,265.09892 478.766551,264.213745 C479.631697,259.454374 480.706412,254.732227 481.781127,250.015398 C482.249706,248.307044 482.411579,246.530545 482.259376,244.766795 C482.006682,242.875564 482.59472,240.968784 483.871449,239.539464 C484.343601,239.10836 484.745948,238.607962 485.064383,238.055816 C485.24309,237.582002 485.323502,237.077413 485.30082,236.572169 C485.279478,234.384771 484.954009,232.210689 484.333576,230.111123 C485.279326,228.414766 485.628608,226.330215 485.90266,224.362653 C486.504501,220.018065 487.106342,215.652207 487.084847,211.265077 C487.132725,208.924674 486.806278,206.591502 486.117604,204.352024 C485.614552,202.968935 484.999985,201.628095 484.27984,200.342453 C481.453339,194.955589 478.75043,189.286886 475.182375,184.352029 C474.10766,182.852429 474.784731,180.78383 474.859961,178.933259 C474.940564,176.699811 474.048551,174.556765 473.172658,172.50412 C472.725801,171.240814 472.040119,170.073191 471.152193,169.063547 C470.545278,168.402511 469.690157,168.017859 468.787819,168 C467.764131,168.123776 466.844869,168.680463 466.267612,169.526189 C464.955,171.295579 464.411363,173.510711 464.757637,175.678807 C465.114622,177.827448 466.060706,179.837907 467.492787,181.491089 C468.184528,182.322938 468.976779,183.067666 469.851787,183.708584 C470.740219,186.502166 471.635815,189.293976 472.538576,192.084013 C473.9572,196.52432 475.375824,200.985899 477.374794,205.186908 C477.960514,206.404669 478.605343,207.6437 478.6752,208.989087 C478.75043,210.440828 478.137842,211.823439 477.648847,213.190096 C476.61867,216.038542 476.035149,219.026254 475.918555,222.049439 C475.761461,222.11837 475.610474,222.200194 475.467175,222.294055 C473.774498,223.389508 473.242514,225.77717 471.479981,226.755633 C470.453628,227.324631 469.206958,227.287407 468.057013,227.547976 C467.954915,227.547976 467.852817,227.601153 467.745345,227.633059 C467.702357,227.42035 467.659368,227.212958 467.6325,226.994931 C467.616002,226.858931 467.616002,226.721466 467.6325,226.585466 C470.37244,225.094678 472.674055,222.925094 474.311856,220.28927 C474.656956,219.801129 474.923431,219.262954 475.101772,218.69395 C475.246808,218.012111 475.274062,217.310883 475.182375,216.620034 C475.092618,214.314205 474.759435,212.023987 474.188264,209.786747 C473.614973,207.538692 472.360549,205.517959 470.593341,203.995736 C469.712074,203.293795 468.696468,202.767339 467.820575,202.060081 C466.111778,200.693423 464.940338,198.672685 462.984356,197.656998 C460.412956,196.417684 457.312706,197.211179 455.670919,199.52884 C455.410729,200.047657 455.04481,200.507545 454.596203,200.879544 C454.254052,201.039733 453.92045,201.217225 453.596718,201.411317 C453.005625,201.879278 452.973383,202.777975 453.166832,203.506504 C453.533506,205.003459 453.738848,206.534653 453.77942,208.074437 C450.197746,212.233962 450.184103,218.347579 453.747178,222.522718 C453.747178,223.511816 453.747178,224.500914 453.709563,225.490013 C453.709563,225.676133 453.709563,225.867572 453.671948,226.053692 C453.052244,225.840008 452.497542,225.47405 452.059875,224.990146 C451.458035,224.245663 451.350563,223.15021 450.614383,222.538671 C450.084987,222.193265 449.481499,221.974771 448.85185,221.900543 C447.286929,221.548713 445.819324,220.860661 444.552989,219.885122 C443.558877,219.124686 442.52715,218.151541 441.366458,217.928196 C439.363647,214.210435 437.025599,210.679295 434.380808,207.377814 C433.710058,206.59628 433.099347,205.766168 432.553792,204.894432 C431.398473,202.900282 431.054564,200.555162 430.323758,198.369574 C428.281799,192.243545 423.187648,187.32996 421.946352,180.991222 C421.494971,178.693961 420.022611,176.694494 419.012379,174.578036 C418.329935,173.147566 417.577634,171.637329 416.212746,170.818399 C414.455586,169.754852 412.02673,170.244083 410.565117,171.674554 C409.131355,173.190377 408.486631,175.277208 408.818704,177.327304 Z M472.619179,392.530646 C471.984213,392.858802 471.282473,393.040595 470.566473,393.062419 C470.205353,393.099603 469.846573,393.156412 469.491758,393.232586 C469.357418,392.115862 469.282188,390.983185 469.196211,389.882415 C468.911411,386.271674 468.341812,382.687522 467.777587,379.108687 C467.186493,375.386274 466.907067,371.31289 465.628156,367.739374 C463.570076,361.921774 461.485128,355.928689 461.748434,349.765436 C461.807543,348.366872 461.984871,346.978944 462.060101,345.585698 C462.232056,342.134489 461.74306,338.608832 462.597459,335.253342 C462.978983,333.727153 463.629186,332.270094 463.87637,330.717316 C464.034032,329.315031 464.052031,327.900805 463.930106,326.495036 C463.695254,321.615159 464.105322,316.725825 465.149908,311.951036 C466.149393,313.243245 466.477181,314.913013 466.761981,316.513651 L468.777072,327.32992 C469.975379,333.748424 471.033974,340.555122 474.209758,346.266367 C473.763751,348.32433 473.323118,350.520554 474.059298,352.488115 C474.376339,353.338953 474.897576,354.083435 475.21999,354.944908 C475.757348,356.375378 475.682118,357.949427 475.843325,359.464981 C476.192608,362.655621 477.525255,365.793083 476.547264,368.872051 C475.541294,372.046894 474.887246,375.320597 474.596655,378.635409 C474.543221,379.55725 474.435567,380.475227 474.274241,381.384677 C474.102286,382.203608 473.82286,382.979997 473.667027,383.820199 C473.452166,384.99929 473.5054,386.210939 473.82286,387.367127 C474.06413,388.007925 474.212481,388.679308 474.263494,389.361277 C474.263494,390.041947 473.419842,390.531178 472.742771,390.637533 C472.941594,390.892784 473.156537,391.1374 473.376853,391.376698 C473.247506,391.828087 472.983419,392.230296 472.619179,392.530646 Z" id="Shape" fill="url(#linearGradient-17)" fill-rule="nonzero"></path>
                        <path d="M449.344879,398.7633 C448.496107,398.784862 447.671982,399.044168 446.972243,399.509834 C446.461799,399.976767 446.116082,400.587425 445.984098,401.25525 C445.594216,402.584829 445.832805,404.013348 446.635622,405.156152 C447.120728,405.745479 447.754687,406.203614 448.476179,406.486243 C450.984549,407.537699 453.862116,406.770136 456.479073,406.007831 L466.729726,403.021696 C467.354578,402.897963 467.931641,402.608566 468.396543,402.185789 C468.975139,401.431175 468.992611,400.403396 468.439978,399.630751 C467.889294,398.888809 467.137775,398.308469 466.26823,397.953679 C463.081189,396.450097 459.486945,396.108374 455.985,396.045287 C454.681951,396.045287 453.39519,395.740365 452.510202,396.712961 C452.043276,397.238689 452.130146,397.801218 451.424328,398.248087 C450.779181,398.566937 450.068897,398.74292 449.344879,398.7633 Z" id="Shape" fill="#3F3D56" fill-rule="nonzero"></path>
                        <path d="M469.381236,391.761634 C468.532848,391.785569 467.709361,392.044668 467.008491,392.508184 C466.499195,392.976002 466.153683,393.586284 466.0203,394.253638 C465.631001,395.58499 465.869504,397.014882 466.671854,398.15988 C467.158839,398.746101 467.792418,399.202141 468.512496,399.484742 C471.026411,400.536221 473.898682,399.773899 476.515759,399.011577 L486.766886,396.020121 C487.391766,395.896385 487.968856,395.606982 488.43378,395.184196 C489.011475,394.431215 489.02895,393.405381 488.477217,392.634361 C487.925892,391.89297 487.174519,391.312757 486.305368,390.957253 C483.11275,389.453639 479.518341,389.106651 476.016234,389.043562 C474.713125,389.043562 473.431734,388.743891 472.541276,389.716509 C472.074329,390.242248 472.161202,390.799531 471.455352,391.24641 C470.813825,391.569616 470.104223,391.745886 469.381236,391.761634 Z" id="Shape" fill="#3F3D56" fill-rule="nonzero"></path>
                        <path d="M460.343651,283.922158 C466.210461,283.323571 472.112146,283.15537 478.002787,283.418863 C478.391491,283.414822 478.778159,283.47634 479.147018,283.600906 C480.444166,284.136326 480.644539,285.860379 480.765817,287.268534 C481.293112,292.986822 483.750311,298.314252 484.984183,303.914747 C485.708775,307.435082 486.037801,311.02751 485.964953,314.62315 C485.89368,316.22962 485.921858,317.839049 486.04932,319.441931 C486.207509,320.871503 486.576616,322.274304 486.776989,323.698522 C486.99945,325.611851 487.082285,327.539263 487.024818,329.464997 C487.085142,332.484412 486.917675,335.504086 486.523887,338.497535 C485.711851,343.600089 487.130277,348.670518 487.50993,353.831968 C487.699137,357.441922 488.098824,361.037322 488.706891,364.599267 C488.996904,366.103798 489.360738,367.592266 489.56111,369.107505 C490.151682,373.610389 489.286917,378.247127 490.22023,382.691114 C490.652613,384.768545 491.43301,387.102976 490.283506,388.880571 C489.924944,389.415992 489.397649,389.871099 489.00745,390.411873 C488.561709,390.925924 488.420902,391.64285 488.638343,392.291198 C488.86508,392.77843 489.392376,393.099682 489.5242,393.61904 C489.729845,394.438233 488.886172,395.107508 488.126866,395.455531 C482.405706,398.07909 475.028838,396.23189 471.169033,391.204295 C471.833426,391.097211 472.645461,390.609979 472.66128,389.924641 C472.610589,389.243305 472.465013,388.57271 472.228898,387.932878 C471.918343,386.777732 471.866097,385.566692 472.075982,384.388396 C472.228898,383.563849 472.503092,382.782136 472.671826,381.952235 C472.830127,381.041943 472.935767,380.123015 472.988204,379.200175 C473.273411,375.883659 473.915261,372.608804 474.902287,369.434111 C475.861966,366.355445 474.554272,363.2393 474.21153,360.026779 C474.053341,358.506186 474.12189,356.937405 473.599867,355.502479 C473.283489,354.656515 472.772012,353.896218 472.460908,353.050255 C471.738513,351.074554 472.170895,348.879332 472.608551,346.823318 C469.492233,341.110385 468.45346,334.299841 467.27759,327.880153 L465.300231,317.064666 C465.004945,315.458406 464.683295,313.793249 463.718344,312.497532 C462.693363,317.272456 462.290929,322.163468 462.521382,327.044898 C462.640966,328.451376 462.623304,329.866414 462.468653,331.269363 C462.226097,332.822081 461.588069,334.283778 461.213689,335.804371 C460.39638,339.161456 460.876219,342.68452 460.686393,346.13798 C460.612572,347.535427 460.438564,348.922165 460.380561,350.319612 C460.122186,356.487652 462.168094,362.484358 464.187637,368.304375 C465.426782,371.875627 465.700976,375.934112 466.29682,379.671345 C466.824116,383.253306 467.409414,386.835266 467.688881,390.449352 C467.947256,393.768957 468.063261,397.361627 470.098623,399.969123 C468.237269,401.195235 466.317912,402.442764 464.14018,402.865746 C461.602345,403.268912 459.00558,402.757469 456.800223,401.420111 C454.607353,400.088725 452.647304,398.397014 450.999969,396.413933 C451.427079,396.264015 451.579995,395.63222 451.622178,395.177112 C452.254933,388.398693 449.718641,381.791609 448.758962,375.045315 C448.279237,371.665591 448.194281,368.240165 448.50586,364.840206 C448.627138,363.560552 448.801146,362.280898 448.848602,360.99589 C449.101704,354.297784 445.922111,347.845971 446.038116,341.14251 C446.090845,337.999594 444.456229,334.904866 443.654739,331.869033 C442.963981,329.191932 442.94289,326.354206 442.927071,323.570021 L442.795247,301.617794 C442.795247,298.651567 442.795247,295.61038 443.739106,292.810133 C444.899157,289.436986 443.570372,285.565898 443.369999,282 C448.8493,283.763326 454.616393,284.416413 460.343651,283.922158 Z" id="Shape" fill="#696791" fill-rule="nonzero"></path>
                        <path d="M442.429917,221.768077 C440.182177,217.19624 437.436615,212.883811 434.242597,208.908331 C433.575229,208.131893 432.967446,207.30666 432.424382,206.4396 C431.274627,204.455039 430.932375,202.124642 430.205089,199.953861 C428.172965,193.867163 423.103351,188.977586 421.868034,182.683387 C421.418828,180.395555 419.95356,178.426955 418.948193,176.298738 C418.269036,174.878154 417.520359,173.377762 416.162045,172.57436 C414.413349,171.510252 411.996192,171.999742 410.541619,173.425647 C409.12332,174.929518 408.487148,177.003287 408.819662,179.038817 C408.919797,179.965647 409.291749,180.842696 409.8892,181.560753 C410.664616,182.428001 411.825065,182.821721 412.867866,183.343134 C415.562419,184.702018 417.624294,187.04512 418.621984,189.882078 C420.402766,195.0164 420.632717,200.453992 422.900139,205.412736 C425.167561,210.37148 427.830713,215.128043 429.787969,220.198518 C430.900289,223.07693 431.788006,226.051113 433.419053,228.711383 C435.050099,231.371653 437.595601,233.600959 440.670525,234 C440.649692,232.071408 440.944089,230.15227 441.542199,228.317663 C442.210661,226.22137 443.397849,223.752639 442.429917,221.768077 Z" id="Shape" fill="#FBCBAB" fill-rule="nonzero"></path>
                        <path d="M474.383352,224.545378 C474.241509,220.812336 474.850451,217.087971 476.177095,213.574625 C476.684862,212.228358 477.280936,210.860974 477.231263,209.430235 C477.159514,208.099807 476.497209,206.880248 475.895615,205.676527 C473.820393,201.532138 472.363323,197.139613 470.928329,192.757647 L468.168725,184.495265 C467.268989,183.864143 466.455062,183.128134 465.745793,182.304282 C464.274761,180.677358 463.30253,178.693111 462.936516,176.57077 C462.580776,174.433208 463.139775,172.248661 464.487414,170.50993 C465.082459,169.673315 466.025929,169.12297 467.075922,169 C468.002273,169.019586 468.879839,169.401154 469.504373,170.055895 C470.414782,171.04944 471.119068,172.199737 471.579595,173.44532 C472.479226,175.472639 473.395414,177.58443 473.312626,179.780692 C473.235357,181.607391 472.52338,183.645269 473.643779,185.128802 C477.308532,189.99648 480.084694,195.587447 482.987797,200.90388 C483.72833,202.170708 484.359612,203.493202 484.875366,204.858208 C485.584354,207.070365 485.919724,209.376582 485.868823,211.689852 C485.868823,216.013743 485.272749,220.321797 484.654597,224.608732 C484.262734,227.295986 483.749447,230.220816 481.624553,232 C479.41687,229.296908 477.198148,226.657169 474.383352,224.545378 Z" id="Shape" fill="#FBCBAB" fill-rule="nonzero"></path>
                        <ellipse id="Oval" fill="#FBCBAB" fill-rule="nonzero" cx="460.327239" cy="217.5" rx="11.5210238" ry="11.5"></ellipse>
                        <path d="M464.867003,227.875182 C465.129812,229.819077 466.186305,231.560806 467.216516,233.240332 C467.836746,234.277075 468.630429,235.381208 469.844607,235.49525 C466.684598,237.130776 463.365104,238.447216 459.936705,239.424509 C458.771447,239.810618 457.549711,240.005012 456.320452,239.999902 C455.278777,239.923259 454.259099,239.665273 453.308661,239.237895 C449.096864,237.429028 445.959965,233.813714 444.798903,229.430298 C446.15681,229.465973 447.514828,229.363485 448.851419,229.124458 C449.614679,229.066646 450.326115,228.721401 450.838255,228.160286 C451.142828,227.634803 451.285311,227.033093 451.248238,226.428924 C451.300799,224.635357 451.306056,222.836606 451.248238,221.043039 C453.92818,220.874583 456.616441,221.201588 459.174559,222.007211 C460.225795,222.344153 461.277031,222.748483 462.328268,223.012853 C462.990547,223.178732 464.814441,223.012853 465.303266,223.391264 C466.107462,223.925187 464.683037,226.553333 464.867003,227.875182 Z" id="Shape" fill="#FBCBAB" fill-rule="nonzero"></path>
                        <path d="M459.686599,233.828606 C459.93274,230.843721 462.045998,228.353406 464.931254,227.648174 C466.060385,227.392653 467.28449,227.424593 468.292265,226.860316 C470.022896,225.886139 470.545251,223.511917 472.207289,222.420626 C473.869328,221.329336 476.22784,221.9362 477.673549,223.314952 C479.119259,224.693705 479.852667,226.658028 480.443614,228.579764 C481.325843,231.178204 481.804606,233.898634 481.862942,236.644668 C481.884948,237.14696 481.805977,237.648552 481.630784,238.119241 C481.317913,238.668678 480.922808,239.166066 480.459442,239.593814 C479.206606,241.012348 478.628667,242.911287 478.876549,244.794745 C479.026491,246.548046 478.867505,248.314283 478.406957,250.011647 C477.351694,254.706858 476.296432,259.396746 475.446945,264.134544 C475.24762,265.006522 475.181783,265.904148 475.251722,266.796229 C475.415288,268.079161 476.117037,269.292889 475.964024,270.575821 C475.814597,271.173058 475.703563,271.77941 475.631616,272.391089 C475.666093,272.85406 475.77294,273.308615 475.948195,273.737902 C477.145918,277.246002 480.380298,285.284289 480.34864,289 C474.729367,287.54672 466.445556,287.221995 460.641612,287.195378 C459.045512,287.178525 457.44969,287.24961 455.861273,287.408313 C452.046499,287.823535 448.142027,288.946766 444.443332,287.908709 C441.008453,286.94518 437.969296,284.182351 434.418338,284.52837 C433.647996,282.494843 434.555522,275.707548 435.278377,273.652728 C438.09646,265.561708 438.64424,256.84248 436.861271,248.457223 C436.212284,245.444196 437.103981,242.244852 436.381126,239.253118 C436.249011,238.545261 435.980084,237.870563 435.589679,237.267502 C435.189932,236.658695 434.508839,236.299037 433.785181,236.314619 C433.719421,231.502322 434.161605,226.696634 435.104259,221.978787 C435.452495,220.301925 436.159521,218.321632 437.86377,218.03417 C439.372796,217.773325 440.639111,219.061581 441.852663,220.003817 C443.096961,220.975587 444.538106,221.658966 446.073713,222.005404 C446.691965,222.079711 447.284529,222.298436 447.804343,222.644208 C448.527198,223.251072 448.632724,224.342362 449.223671,225.082311 C450.278934,226.40783 452.637446,226.296039 453.386682,227.823846 C453.550488,228.278932 453.682715,228.744965 453.782406,229.218568 C454.136821,230.126404 454.740918,230.913194 455.523589,231.486323 C456.69887,232.601099 458.128899,233.405693 459.686599,233.828606 Z" id="Shape" fill="#F86D70" fill-rule="nonzero"></path>
                        <path d="M451.921857,204.45039 C451.720743,203.713781 451.754262,202.837377 452.368777,202.34272 C452.676034,202.111521 453.078261,202.025494 453.407865,201.805049 C453.872384,201.429314 454.25254,200.966475 454.525164,200.444741 C456.246551,198.126319 459.455261,197.342335 462.11721,198.589776 C464.133934,199.605974 465.35179,201.638371 467.145055,203.009432 C468.055653,203.719157 469.111501,204.246075 470.027686,204.955801 C471.862592,206.481289 473.167069,208.511843 473.765051,210.773401 C474.35881,213.01904 474.705221,215.318614 474.798552,217.634083 C474.893898,218.329006 474.865561,219.034483 474.714755,219.720246 C474.529096,220.295465 474.252081,220.839572 473.89354,221.333259 C472.049997,224.021614 469.619872,226.462641 466.575232,227.849832 C463.530593,229.237023 459.826747,229.462845 456.821213,228.011133 C456.518839,227.893548 456.258679,227.693609 456.072623,227.435825 C455.901786,227.04327 455.860821,226.609575 455.955306,226.193805 C456.118222,224.550483 455.780459,222.897059 454.983256,221.435417 C454.424607,220.360075 453.586632,219.435281 453.139713,218.322302 C452.724132,217.076502 452.546222,215.768602 452.614582,214.461824 C452.564304,211.079873 452.804523,207.708676 451.921857,204.45039 Z" id="Shape" fill="#976E00" fill-rule="nonzero"></path>
                    </g>
                </g>
            </g>
        </g>
    </g>
</svg>