<?xml version="1.0" encoding="UTF-8"?>
<svg width="585px" height="433px" viewBox="0 0 585 433" version="1.1" xmlns="http://www.w3.org/2000/svg" xmlns:xlink="http://www.w3.org/1999/xlink">
    <!-- Generator: Sketch 51.3 (57544) - http://www.bohemiancoding.com/sketch -->
    <title>delivery</title>
    <desc>Created with Sketch.</desc>
    <defs>
        <linearGradient x1="95.1583591%" y1="100%" x2="32.4424878%" y2="0%" id="linearGradient-1">
            <stop stop-color="#8067FF" offset="0%"></stop>
            <stop stop-color="#2CCDFF" offset="100%"></stop>
        </linearGradient>
        <linearGradient x1="0%" y1="16.2490067%" x2="50%" y2="100%" id="linearGradient-2">
            <stop stop-color="#8067FF" offset="0%"></stop>
            <stop stop-color="#2CCDFF" offset="100%"></stop>
        </linearGradient>
        <path d="M35.2749315,30.354828 C35.1899584,29.6006313 35.7462011,26.2740307 35.8772767,25.3779001 C36.0791634,23.9978343 35.5789668,22.4003527 35.2749315,21.0357481 C34.9802373,19.7131979 34.4332978,18.157996 33.8392223,17.0204486 C33.2451468,15.8829013 31.6183736,15.8355341 30.5938744,15.6534012 C29.000477,15.3701522 20.9508167,16.3026752 19.1246448,15.3913648 C17.298473,14.4800544 15.9606235,15.3261185 14.5700166,15.3913648 C12.7687061,15.4757829 12.1097602,14.0069024 10.2289003,14.2675782 C8.69154898,14.4809425 8.04223795,15.3891907 7.2530723,16.7095762 C6.61366432,17.7794905 5.49447767,19.4731958 5.31368371,20.7063802 C5.14614798,21.8511267 5.13859212,22.6257463 4.84389796,23.8100733 C4.59741553,24.7992804 4.53824761,25.9140652 4.47798296,26.9372867 C4.36950657,28.7743852 4.79246644,30.792689 4.19825695,32.5629952 C3.0493113,35.9854841 2.50630715,30.5810784 2.42675782,29.3175899 C2.34841376,28.0714181 1.86337882,27.1451013 1.79347183,25.8874881 C1.67475046,23.7587915 -0.0350337439,17.8615684 0.690854024,16.4474879 C1.55384388,14.764692 1.87023332,10.4949299 2.64041561,9.32389941 C3.47839564,8.05020659 2.84531544,7.71620884 3.78664935,6.46478015 C4.61860291,5.35868664 6.1785535,4.51172267 7.2530723,3.66135724 C8.39990868,2.75378541 9.63412881,1.85858252 11.1422518,2.14616064 C12.2191812,2.35148525 13.7822875,1.70158617 15.448764,2.11894896 C16.8519355,2.47036798 19.1755303,1.22993055 20.3787142,0.887001358 C22.1938856,0.369669952 23.4817412,1.61244038 25.1236518,2.11894896 C26.3575705,2.49929422 27.4149139,1.89228792 28.6036343,2.14275919 C29.9086653,2.41765914 30.7927479,3.78473753 31.9290379,4.42266622 C33.2554629,5.16696789 33.9909931,5.63698805 34.9570355,6.86986332 C35.2984348,7.30525042 36.5136715,9.72480181 37.3251352,11.011482 C38.4074884,12.7279833 38.3508395,18.4316177 37.7533155,20.0550427 C37.5312402,20.6586475 37.8897663,23.4843673 37.9542496,24.3730765 C38.0313882,25.4402078 37.4922212,26.0093061 37.1333452,26.9372867 C36.7708532,27.8742348 36.9474286,28.9717722 36.8606475,29.9634528 C36.8006841,30.6446728 36.5252131,32.5629952 35.8772767,33.7751539 C34.9220819,33.7751539 35.3288684,30.8338158 35.2749315,30.354828 Z" id="path-3"></path>
        <path d="M35.2749315,30.354828 C35.1899584,29.6006313 35.7462011,26.2740307 35.8772767,25.3779001 C36.0791634,23.9978343 35.5789668,22.4003527 35.2749315,21.0357481 C34.9802373,19.7131979 34.4332978,18.157996 33.8392223,17.0204486 C33.2451468,15.8829013 31.6183736,15.8355341 30.5938744,15.6534012 C29.000477,15.3701522 20.9508167,16.3026752 19.1246448,15.3913648 C17.298473,14.4800544 15.9606235,15.3261185 14.5700166,15.3913648 C12.7687061,15.4757829 12.1097602,14.0069024 10.2289003,14.2675782 C8.69154898,14.4809425 8.04223795,15.3891907 7.2530723,16.7095762 C6.61366432,17.7794905 5.49447767,19.4731958 5.31368371,20.7063802 C5.14614798,21.8511267 5.13859212,22.6257463 4.84389796,23.8100733 C4.59741553,24.7992804 4.53824761,25.9140652 4.47798296,26.9372867 C4.36950657,28.7743852 4.79246644,30.792689 4.19825695,32.5629952 C3.0493113,35.9854841 2.50630715,30.5810784 2.42675782,29.3175899 C2.34841376,28.0714181 1.86337882,27.1451013 1.79347183,25.8874881 C1.67475046,23.7587915 -0.0350337439,17.8615684 0.690854024,16.4474879 C1.55384388,14.764692 1.87023332,10.4949299 2.64041561,9.32389941 C3.47839564,8.05020659 2.84531544,7.71620884 3.78664935,6.46478015 C4.61860291,5.35868664 6.1785535,4.51172267 7.2530723,3.66135724 C8.39990868,2.75378541 9.63412881,1.85858252 11.1422518,2.14616064 C12.2191812,2.35148525 13.7822875,1.70158617 15.448764,2.11894896 C16.8519355,2.47036798 19.1755303,1.22993055 20.3787142,0.887001358 C22.1938856,0.369669952 23.4817412,1.61244038 25.1236518,2.11894896 C26.3575705,2.49929422 27.4149139,1.89228792 28.6036343,2.14275919 C29.9086653,2.41765914 30.7927479,3.78473753 31.9290379,4.42266622 C33.2554629,5.16696789 33.9909931,5.63698805 34.9570355,6.86986332 C35.2984348,7.30525042 36.5136715,9.72480181 37.3251352,11.011482 C38.4074884,12.7279833 38.3508395,18.4316177 37.7533155,20.0550427 C37.5312402,20.6586475 37.8897663,23.4843673 37.9542496,24.3730765 C38.0313882,25.4402078 37.4922212,26.0093061 37.1333452,26.9372867 C36.7708532,27.8742348 36.9474286,28.9717722 36.8606475,29.9634528 C36.8006841,30.6446728 36.5252131,32.5629952 35.8772767,33.7751539 C34.9220819,33.7751539 35.3288684,30.8338158 35.2749315,30.354828 Z" id="path-5"></path>
    </defs>
    <g id="Web-Pages-V4" stroke="none" stroke-width="1" fill="none" fill-rule="evenodd">
        <g id="Homepage-(1)" transform="translate(-154.000000, -3560.000000)">
            <g id="Section-3" transform="translate(0.000000, 2642.000000)">
                <g id="Skill-2" transform="translate(154.000000, 918.000000)">
                    <g id="delivery">
                        <path d="M421.43274,257.812215 L426.024994,254.965666 C426.461474,254.687804 426.891805,254.391417 427.334432,254.113554 C407.04342,250.608629 391.910336,233.400263 390.95296,212.742893 C390.615476,205.846797 391.913395,198.968791 394.739879,192.675035 C400.06753,180.754328 410.380767,171.817899 422.902016,168.27252 L422.674555,186.426213 L432.602922,166.667091 C432.643653,166.660619 432.685143,166.660619 432.725874,166.667091 C444.345338,166.122157 455.704387,170.235942 464.303946,178.103382 C472.903504,185.970822 478.039074,196.947396 478.580791,208.618177 C478.617677,209.457939 478.580791,210.285352 478.580791,211.088067 C482.03574,207.130068 485.171014,202.888031 487.248901,198.238463 C491.453857,188.822006 491.552218,178.158255 491.201805,165.197507 C490.537865,139.510648 489.437445,113.632374 487.998908,87.8281956 C466.584182,85.4394053 450.073584,67.7721957 449.053888,46.154973 C448.992412,44.8027081 449.010855,43.4751421 449.053888,42.1537508 C449.053888,41.8264904 449.053888,41.4930552 449.103069,41.1657947 C449.189135,39.8876266 449.30594,38.6218078 449.502663,37.3745133 C449.502663,37.1645726 449.576434,36.9669814 449.61332,36.7570407 C449.793649,35.6991044 450.008815,34.6535175 450.258817,33.6202801 C450.357179,33.2374472 450.449393,32.8484394 450.553902,32.4656065 C450.861282,31.3418064 451.168661,30.2365305 451.592845,29.1436041 C451.721945,28.7792953 451.875635,28.427336 452.010882,28.0692019 C452.324409,27.2664876 452.662527,26.4761227 453.019088,25.6919326 C453.209663,25.2782259 453.394091,24.8706941 453.596962,24.4569874 C453.646142,24.3520171 453.689176,24.2470468 453.744504,24.1420764 C463.295524,5.19374925 484.954539,-4.20311499 505.236766,1.80191946 L504.941682,25.4264194 L514.777835,5.91428667 C531.337887,15.4350633 539.807321,34.6679619 535.679661,53.3794018 L535.728842,53.3794018 C535.661218,53.6943129 535.562857,53.9968744 535.489085,54.3056107 C535.353838,54.8860349 535.206296,55.4602844 535.046458,56.0345338 C534.83744,56.7693262 534.603832,57.4917691 534.364075,58.2142119 C534.179647,58.7514131 534.001367,59.3009636 533.798497,59.83199 C533.503412,60.6100055 533.183737,61.3694967 532.827176,62.1289879 C532.630453,62.5735682 532.452173,63.0243231 532.212417,63.4627286 C531.650936,64.5988781 531.036177,65.7103287 530.368138,66.7970804 C530.140677,67.1737387 529.882478,67.5318728 529.642722,67.908531 C529.175505,68.6371486 528.70214,69.3595915 528.191889,70.0635102 C527.878362,70.495741 527.540244,70.9094476 527.208274,71.3355037 C526.728761,71.9529763 526.236954,72.5704488 525.726703,73.1323488 C525.363995,73.5460554 524.995139,73.9535873 524.613988,74.3672939 C524.079148,74.9353687 523.525864,75.4849193 522.954138,76.0282951 C522.579134,76.3926039 522.197983,76.7569127 521.804537,77.1026974 C521.15904,77.6769468 520.482804,78.2264974 519.800421,78.7636985 C519.456156,79.0353864 519.124185,79.3194238 518.767625,79.5787623 C517.73073,80.3526612 516.658999,81.0792206 515.552432,81.7584404 C515.343414,81.8819349 515.1221,81.9869052 514.937673,82.1103998 C514.015533,82.6599503 513.093394,83.1724526 512.103631,83.6540811 C511.691742,83.8578471 511.26141,84.0369141 510.837226,84.2283306 C510.044186,84.5864647 509.244999,84.9322493 508.427369,85.2471603 C507.954004,85.4262274 507.468344,85.592945 506.982684,85.7596626 C506.177349,86.0375252 505.359718,86.2906889 504.523645,86.5191538 C504.031838,86.6549978 503.546178,86.7908417 503.048222,86.9081615 C502.150673,87.1242769 501.234682,87.3033439 500.312542,87.4577121 C500.251066,87.4577121 500.195738,87.4577121 500.134262,87.4947604 C500.740825,98.3787433 501.279764,109.268901 501.75108,120.165233 C507.035905,109.268286 516.559847,101.04187 528.077902,97.425133 C539.595956,93.8083958 552.089048,95.1213336 562.612278,101.054458 L554.86016,122.388134 L570.807023,107.006893 C579.343454,114.865793 584.42834,125.804354 584.946494,137.423591 C585.149357,141.500552 584.774711,145.585789 583.833779,149.556927 C579.734566,167.141619 565.36016,180.429046 547.573315,183.07541 C529.786471,185.721774 512.194282,177.190403 503.195765,161.554418 C503.195765,162.659694 503.275683,163.771145 503.306421,164.876421 C503.595358,176.312013 503.958067,190.53858 498.283836,203.246165 C494.441588,211.859907 488.250959,218.855871 482.134101,225.123218 C478.156607,229.204711 474.03157,233.150361 469.802024,236.972516 C465.643392,242.581366 460.214982,247.115127 453.965817,250.198778 C447.019034,255.574906 439.826347,260.609365 432.387756,265.302157 L427.869273,268.228977 C423.695056,270.828536 419.416329,273.496018 415.217521,276.25612 C415.955233,276.182023 416.686796,276.101752 417.436803,276.070878 C436.507452,275.173397 453.966954,286.765398 460.617516,304.740129 L433.211534,327.148208 L463.334753,320.127545 C463.318024,335.268954 455.563353,349.341489 442.798134,357.395701 C430.032914,365.449913 414.044866,366.357841 400.457143,359.800156 C401.133379,360.652269 401.815762,361.498206 402.491998,362.344143 C403.838321,364.029843 405.178497,365.703194 406.487935,367.364195 C424.315963,390.043962 429.28322,411.581405 420.449125,428 L409.715423,422.171059 C418.322057,406.190869 405.412106,385.740178 396.909981,374.959108 C395.625133,373.32898 394.309548,371.686503 392.981667,370.019327 C381.590172,355.817459 368.680221,339.689075 369.006043,319.923779 C369.467113,290.161602 398.29319,272.211675 421.43274,257.812215 Z" id="Shape" fill="#DAE6F9" fill-rule="nonzero"></path>
                        <ellipse id="Oval" fill-opacity="0.8" fill="#DAE6F9" fill-rule="nonzero" cx="280.5" cy="420.5" rx="280.5" ry="12.5"></ellipse>
                        <path d="M506.843102,418 C508.682542,414.548302 506.597843,410.319815 504.218834,407.237718 C501.839825,404.155621 498.939641,400.973294 499.000956,397.032971 C499.086797,391.394988 504.942347,388.068579 509.626788,385.080448 C513.095773,382.860716 516.296075,380.230239 519.161219,377.243653 C520.363766,376.094473 521.358049,374.737187 522.098192,373.234421 C523.060832,371.029344 523.036306,368.523574 522.974991,366.105506 C522.770609,358.061985 522.382283,350.026816 521.810013,342" id="Shape" stroke="#2B2B2B" stroke-width="4"></path>
                        <path d="M533,340.587447 C532.854347,337.525575 531.163467,334.747372 528.510903,333.211626 L526.497222,337.200984 L526.554939,332.377838 C523.76001,331.540375 520.73248,332.113429 518.436847,333.91444 C516.141213,335.715451 514.863795,338.51979 515.011546,341.434063 C515.162761,344.642044 517.013724,347.525659 519.867195,348.998677 C522.720666,350.471695 526.143134,350.310331 528.84539,348.575369 C531.547645,346.840407 533.11915,343.795428 532.967935,340.587447 L533,340.587447 Z" id="Shape" fill="url(#linearGradient-1)" fill-rule="nonzero"></path>
                        <path d="M517.003488,400.118783 C515.05626,403.900642 510.726596,405.802906 506.623386,404.679343 C502.520176,403.555779 499.764129,399.713267 500.015934,395.467158 C500.267739,391.221048 503.458619,387.731079 507.665873,387.100174 C511.873127,386.469269 515.947629,388.869745 517.434238,392.855168 L511.802344,397.438316 L517.999999,395.998449 C518.000722,397.431636 517.659074,398.84427 517.003488,400.118783 Z" id="Shape" fill="url(#linearGradient-1)" fill-rule="nonzero"></path>
                        <path d="M511.424484,383.989601 C509.036494,384.104408 506.701061,383.264874 504.934609,381.65664 C503.168157,380.048407 502.116217,377.803971 502.011401,375.419635 C501.939808,374.012046 502.206182,372.607754 502.788333,371.323743 C503.880543,368.889735 505.996611,367.063669 508.56717,366.336882 L508.522223,370.048183 L510.564079,366.00998 C515.537598,365.778106 519.757728,369.61501 519.990003,374.579945 C520.222278,379.54488 516.37874,383.757726 511.405221,383.989601 L511.424484,383.989601 Z" id="Shape" fill="url(#linearGradient-1)" fill-rule="nonzero"></path>
                        <path d="M532.416871,368.989832 C527.455578,369.223885 523.244051,365.388886 523.010161,360.424122 C522.776272,355.459358 526.608589,351.244884 531.569882,351.010831 C533.253931,350.927742 534.927021,351.324043 536.395152,352.153782 L534.80384,356.52011 L538.076297,353.373785 C539.832353,354.979952 540.880014,357.217605 540.989425,359.595804 C541.030305,360.428764 540.952526,361.263308 540.758428,362.074338 C539.835692,365.986521 536.429727,368.810207 532.416871,368.989832 Z" id="Shape" fill="url(#linearGradient-1)" fill-rule="nonzero"></path>
                        <path d="M531.021038,343.116592 C529.026173,343.350099 527.086721,344.005217 525.085699,344.134943 C523.084677,344.264669 520.886631,343.758737 519.618291,342.1177 C518.934865,341.235562 518.596231,340.119916 518.017474,339.159942 C517.472333,338.262884 516.725882,337.521062 515.844056,337 C514.421658,340.132325 514.819313,343.844943 516.868509,346.564588 C518.917704,349.284234 522.259649,350.534725 525.478154,349.786152 C528.696658,349.037578 531.228197,346.421007 532,343.045243 C531.667522,343.058215 531.341202,343.084161 531.021038,343.116592 Z" id="Shape" fill="#000000" fill-rule="nonzero" opacity="0.1"></path>
                        <path d="M532.03417,368.988282 C529.009978,369.150532 526.128011,367.618809 524.44688,364.955749 C522.765749,362.292689 522.533314,358.890925 523.834954,356 C524.51918,356.488503 525.107354,357.112631 525.566924,357.837842 C526.181097,358.818457 526.549601,359.948438 527.274326,360.851123 C528.613224,362.520118 530.910233,363.065625 532.992281,362.961719 C535.074329,362.857813 537.076534,362.24087 539.134015,362.039551 C539.416535,362.039551 539.711338,361.987598 540,361.981104 C539.123395,365.936255 535.871758,368.796572 532.03417,368.988282 Z" id="Shape" fill="#000000" fill-rule="nonzero" opacity="0.1"></path>
                        <path d="M511.090792,382.989335 C508.787354,383.107075 506.534611,382.246099 504.830704,380.596793 C503.126796,378.947486 502.112102,376.645728 502.010997,374.200499 C501.94194,372.75696 502.198882,371.316804 502.760421,370 C503.481242,370.500341 504.110754,371.135066 504.618496,371.873462 C505.293597,372.885789 505.714761,374.049307 506.476572,374.982751 C507.944451,376.718168 510.409498,377.329508 512.632995,377.270346 C514.856492,377.211185 516.85702,376.659006 519,376.488094 C517.916408,380.206557 514.753994,382.806011 511.090792,382.989335 Z" id="Shape" fill="#000000" fill-rule="nonzero" opacity="0.1"></path>
                        <path d="M516,399.557718 C513.987563,404.201761 508.725936,406.274648 504.247827,404.187642 C499.769718,402.100636 497.770895,396.644043 499.783332,392 C500.513425,392.503211 501.170642,393.111756 501.735162,393.807281 C502.577998,394.878505 503.135664,396.08774 504.117916,397.093245 C505.936667,398.939957 508.87075,399.722017 511.48164,399.774592 C512.990571,399.795119 514.499347,399.7227 516,399.557718 Z" id="Shape" fill="#000000" fill-rule="nonzero" opacity="0.1"></path>
                        <path d="M495,413.005911 C495,413.005911 501.713476,412.778488 503.739042,411.186528 C505.764607,409.594567 514.048806,407.694916 514.576423,410.25008 C515.104041,412.805244 524.673928,422.95901 517.087154,422.999144 C509.500381,423.039277 499.463522,421.661362 497.444021,420.32358 C495.42452,418.985798 495,413.005911 495,413.005911 Z" id="Shape" fill="#373C45" fill-rule="nonzero"></path>
                        <path d="M517.242314,419.278879 C509.654188,419.332204 499.601439,418.212376 497.579963,417.145874 C496.044126,416.324667 495.424935,413.365123 495.224609,412 L495,412 C495,412 495.424935,416.761933 497.4282,417.865763 C499.431465,418.969593 509.496355,420.041428 517.090552,419.998768 C519.282002,419.998768 520.040815,419.294876 519.998322,418.281699 C519.713008,418.884273 518.875279,419.268214 517.242314,419.278879 Z" id="Shape" fill="#DAE6F9" fill-rule="nonzero" opacity="0.2"></path>
                        <path d="M119.71355,397 C115.224876,388.684068 120.331825,378.499527 126.168337,371.086962 C132.00485,363.674398 139.152104,355.964836 138.997536,346.516601 C138.774957,332.941338 124.381524,324.928591 112.881616,317.732587 C104.348157,312.392089 96.4763434,306.059524 89.430459,298.867054 C86.6049439,295.977516 83.8659873,292.896166 82.2213768,289.208446 C79.8472023,283.899615 79.9090297,277.866852 80.0635984,272.050649 C80.5582181,252.663308 81.5144829,233.313092 82.9323927,214" id="Shape" stroke="#2B2B2B" stroke-width="4"></path>
                        <path d="M61.0232725,212.997066 C61.3647933,205.859228 65.314106,199.385349 71.5048109,195.815289 L76.2055476,205.111858 L76.0644028,193.857794 C84.8269714,191.275906 94.2535885,194.654572 99.3806135,202.214735 C104.507639,209.774897 104.158813,219.782081 98.5178139,226.966945 C92.8768145,234.151809 83.2378165,236.865978 74.676291,233.680291 C66.1147656,230.494604 60.5949245,222.139932 61.0232725,213.015475 L61.0232725,212.997066 Z" id="Shape" fill="url(#linearGradient-1)" fill-rule="nonzero"></path>
                        <path d="M99.3206454,356.582246 C103.663121,365.049043 113.152527,369.537438 122.448645,367.521561 C131.744762,365.505683 138.524959,357.489199 138.973641,347.983431 C139.120287,345.0771 138.65383,342.172432 137.604603,339.458321 C134.464167,331.307585 126.611948,325.949854 117.880786,326.000354 C109.149624,326.050854 101.359848,331.499057 98.313819,339.685576 L111.433257,350.360389 L97.0000334,347.00071 C96.9940538,350.33456 97.7899939,353.620904 99.3206454,356.582246 Z" id="Shape" fill="url(#linearGradient-1)" fill-rule="nonzero"></path>
                        <path d="M109.01433,314.97778 C119.684101,315.46516 129.023923,307.882672 130.728376,297.349339 C132.432829,286.816006 125.960127,276.680007 115.680064,273.784271 L115.790648,282.431716 L111.060127,273.023246 L111.004835,273.023246 C99.4059322,272.482616 89.5644504,281.437564 89.0232701,293.024684 C88.4820897,304.611803 97.4461449,314.443287 109.045048,314.983918 L109.01433,314.97778 Z" id="Shape" fill="url(#linearGradient-1)" fill-rule="nonzero"></path>
                        <path d="M58.0088472,281.974952 C66.9107536,282.409274 75.1142509,277.1612 78.4627451,268.889854 C81.8112394,260.618507 79.5730711,251.13121 72.8822879,245.235039 C66.1915047,239.338869 56.5100698,238.322162 48.7434265,242.700069 L52.4201807,252.868582 L44.8276833,245.522951 C40.7285175,249.258529 38.2813227,254.473441 38.025688,260.017838 C37.9283701,261.960338 38.1078833,263.906817 38.5588173,265.79861 C40.7004395,274.939733 48.6427526,281.545254 58.0088472,281.974952 Z" id="Shape" fill="url(#linearGradient-1)" fill-rule="nonzero"></path>
                        <path d="M64.4277848,219.843891 C69.3330279,220.405378 74.1016692,221.986575 79.0193306,222.302814 C83.9369919,222.619054 89.3451776,221.399273 92.4559709,217.423692 C94.1324464,215.281008 94.9706841,212.570385 96.3863745,210.234085 C97.7277929,208.05721 99.5665192,206.259096 101.738678,205 C105.43091,212.639389 104.549643,221.807511 99.4762695,228.536605 C94.402896,235.265699 86.0488254,238.346912 78.0295157,236.446764 C70.010206,234.546616 63.7662911,228.006459 62,219.656729 C62.8258194,219.695452 63.6330113,219.753537 64.4277848,219.843891 Z" id="Shape" fill="#000000" fill-rule="nonzero" opacity="0.1"></path>
                        <path d="M58.7194385,279.978353 C66.1799823,280.306719 73.2756718,276.880984 77.4199024,270.949937 C81.5641329,265.018891 82.1514021,257.449102 78.9676316,251 C77.2776658,252.084785 75.8242133,253.472242 74.6878292,255.085473 C73.1699923,257.270726 72.2555578,259.794455 70.4702332,261.801562 C67.1546305,265.518867 61.4938453,266.736196 56.3555941,266.516483 C51.217343,266.29677 46.2594904,264.895358 41.1461219,264.449994 C40.4369685,264.390612 39.715374,264.343106 39,264.325292 C41.1714732,273.162565 49.2210348,279.552213 58.7194385,279.978353 Z" id="Shape" fill="#000000" fill-rule="nonzero" opacity="0.1"></path>
                        <path d="M108.05882,314.977275 C115.332349,315.312682 122.261889,311.916932 126.361875,306.00805 C130.461861,300.099168 131.144612,292.524117 128.165231,286 C126.439083,287.125993 124.937828,288.55324 123.735939,290.210939 C122.106352,292.466799 121.089392,295.06555 119.184122,297.146957 C115.649266,301.015005 109.706786,302.380552 104.346301,302.254224 C99.1573523,302.145943 94.1583176,300.894692 89,300.503677 C91.6163247,308.786988 99.2363127,314.573739 108.05882,314.977275 Z" id="Shape" fill="#000000" fill-rule="nonzero" opacity="0.1"></path>
                        <path d="M99,354.798938 C103.377567,363.105048 112.943656,367.50826 122.314895,365.530641 C131.686133,363.553022 138.521121,355.688678 138.973428,346.363316 C139.121259,343.512143 138.651032,340.662601 137.593327,338 C135.851013,339.114221 134.28699,340.472507 132.95173,342.031022 C130.940372,344.4412 129.609781,347.128548 127.282794,349.357962 C122.950637,353.491416 115.963488,355.202642 109.743748,355.383406 C106.153783,355.395463 102.56624,355.200298 99,354.798938 Z" id="Shape" fill="#000000" fill-rule="nonzero" opacity="0.1"></path>
                        <polygon id="Shape" fill="url(#linearGradient-2)" fill-rule="nonzero" points="264 408.47541 183.011952 425 181.171315 424.816393 110 417.655738 110 327.688525 197.123506 313 260.318725 320.344262 260.337131 320.742077 260.343267 320.937923"></polygon>
                        <polygon id="Shape" fill="#000000" fill-rule="nonzero" opacity="0.1" points="266 410.357793 184.844444 427 183 426.815087 183 333.926915 262.329556 322"></polygon>
                        <polygon id="Shape" fill="#000000" fill-rule="nonzero" opacity="0.05" points="260 321.10625 259.975514 321.125 181.008815 333 110 328 196.924584 313 259.975514 320.5 259.993879 320.90625"></polygon>
                        <polygon id="Shape" fill="#373C45" fill-rule="nonzero" points="355 411.47541 274.011952 428 272.171315 427.816393 201 420.655738 201 330.688525 288.123506 316 351.318725 323.344262 351.337131 323.742077 351.343267 323.937923"></polygon>
                        <polygon id="Shape" fill="#000000" fill-rule="nonzero" opacity="0.1" points="355 413.357793 273.844444 430 272 429.815087 272 336.926915 351.329556 325"></polygon>
                        <polygon id="Shape" fill="#000000" fill-rule="nonzero" opacity="0.05" points="351 324.10625 350.975514 324.125 272.008815 336 201 331 287.924584 316 350.975514 323.5 350.993879 323.90625"></polygon>
                        <polygon id="Shape" fill="#373C45" fill-rule="nonzero" points="298 323.47541 217.011952 340 215.171315 339.816393 144 332.655738 144 242.688525 231.123506 228 294.318725 235.344262 294.337131 235.742077 294.343267 235.937923"></polygon>
                        <polygon id="Shape" fill="#2B2B2B" fill-rule="nonzero" opacity="0.1" points="298 323.357793 216.844444 340 215 339.815087 215 246.926915 294.329556 235"></polygon>
                        <polygon id="Shape" fill="#000000" fill-rule="nonzero" opacity="0.05" points="294 236.10625 293.975514 236.125 215.008815 248 144 243 230.924584 228 293.975514 235.5 293.993879 235.90625"></polygon>
                        <polygon id="Shape" fill="#373C45" fill-rule="nonzero" points="346 327.290829 303.403893 336 302.43313 335.901173 265 332.127198 265 284.739426 310.82374 277 344.064656 280.872802 344.077023 281.08281 344.077023 281.181637"></polygon>
                        <polygon id="Shape" fill="#2B2B2B" fill-rule="nonzero" opacity="0.1" points="344 329.119109 301.958132 338 301 337.899224 301 288.361489 342.102044 282"></polygon>
                        <polygon id="Shape" fill="#000000" fill-rule="nonzero" opacity="0.05" points="344 280.64632 343.987646 280.657092 302.396669 286 265 283.748654 310.779107 277 343.987646 280.37702 344 280.560144"></polygon>
                        <polygon id="Shape" fill="#373C45" fill-rule="nonzero" points="231 236.296095 188.403893 245 187.43313 244.90734 150 241.13297 150 193.740237 195.82374 186 229.064656 189.873207 229.077023 190.083237 229.077023 190.182075"></polygon>
                        <polygon id="Shape" fill="#2B2B2B" fill-rule="nonzero" opacity="0.1" points="231 236.124409 188.958132 245 188 244.905512 188 195.362205 229.102044 189"></polygon>
                        <polygon id="Shape" fill="#000000" fill-rule="nonzero" opacity="0.05" points="229 189.64632 228.987646 189.657092 187.396669 195 150 192.748654 195.779107 186 228.987646 189.37702 229 189.560144"></polygon>
                        <polygon id="Shape" fill="url(#linearGradient-1)" fill-rule="nonzero" points="306 234.296095 263.403893 243 262.43313 242.90734 225 239.13297 225 191.740237 270.82374 184 304.064656 187.873207 304.077023 188.083237 304.077023 188.182075"></polygon>
                        <polygon id="Shape" fill="#000000" fill-rule="nonzero" opacity="0.1" points="306 235.124409 263.958132 244 263 243.905512 263 194.362205 304.102044 188"></polygon>
                        <polygon id="Shape" fill="#000000" fill-rule="nonzero" opacity="0.05" points="304 187.64632 303.987646 187.657092 262.396669 193 225 190.748654 270.779107 184 303.987646 187.37702 304 187.560144"></polygon>
                        <polygon id="Shape" fill="#373C45" fill-rule="nonzero" points="328 187.296095 285.403893 196 284.43313 195.90734 247 192.13297 247 144.740237 292.82374 137 326.064656 140.873207 326.077023 141.083237 326.077023 141.182075"></polygon>
                        <polygon id="Shape" fill="#2B2B2B" fill-rule="nonzero" opacity="0.1" points="328 188.124409 285.958132 197 285 196.905512 285 147.362205 326.102044 141"></polygon>
                        <polygon id="Shape" fill="#000000" fill-rule="nonzero" opacity="0.05" points="326 140.64632 325.987646 140.657092 284.396669 146 247 143.748654 292.779107 137 325.987646 140.37702 326 140.560144"></polygon>
                        <path d="M412.493329,269.701881 L408.855104,309.543046 C407.905736,319.992787 406.937993,330.485354 405.076006,340.800496 C404.46351,344.355121 403.679516,347.891391 402.785272,351.397071 C400.298539,361.130992 396.69094,370.644661 395.527198,380.623306 C395.490448,380.910858 395.459824,381.235118 395.429199,381.498197 C395.190325,383.700718 394.982077,385.927712 394.204207,387.983399 C393.591712,389.506809 392.728093,390.895621 392.097222,392.400678 C390.872231,395.41079 390.676232,398.739045 390.523108,402 C386.107984,399.510353 381.27286,397.851367 376.258084,397.105508 C373.808101,396.744539 371.143745,396.493697 369.520631,394.658262 C367.683144,392.663757 367.897517,389.610817 368.203765,386.931083 C369.167425,378.610446 370.127002,370.293889 371.082495,361.98141 C371.401013,358.404596 372.01561,354.860286 372.919982,351.384835 C373.25073,350.228511 373.648852,349.090542 374.053099,347.952572 C374.61047,346.386335 375.173966,344.820097 375.596588,343.211033 C376.182744,340.625808 376.587971,338.002951 376.80933,335.361492 C377.795448,326.99191 378.983689,318.640683 380.024932,310.27722 L380.080057,309.836716 C381.641921,297.159982 382.830162,284.422066 382.487165,271.65356 C382.438165,269.763063 382.358541,267.872565 382.236042,265.975949 C382.064543,263.228916 381.81342,261.772804 384.073529,260.053614 C386.590886,258.156999 389.904488,256.829368 392.783217,255.58739 C394.332831,254.914398 411.396961,248.857464 411.770584,250.191213 C412.562766,253.024226 412.974699,255.949798 412.995575,258.891172 C413.030114,262.501278 412.862436,266.110487 412.493329,269.701881 Z" id="Shape" fill="#373C45" fill-rule="nonzero"></path>
                        <path d="M403,341.677965 C402.408867,345.199778 401.652217,348.703406 400.789163,352.176727 C398.389163,361.820797 394.907389,371.246649 393.784236,381.133185 C393.748768,381.418082 393.719212,381.739349 393.689655,382 C386.347783,371.246649 380.164532,359.681038 373,348.812516 C373.537931,347.260736 374.081773,345.708956 374.489655,344.114744 C375.077432,341.538905 375.488292,338.923962 375.719212,336.289166 C376.670936,327.996841 377.817734,319.722701 378.82266,311.436438 L378.875862,311 C379.290667,312.758458 379.885084,314.467179 380.649261,316.09784 C385.461084,326.123794 396.893596,331.191326 402.485714,340.786903 C402.670936,341.085944 402.842365,341.382965 403,341.677965 Z" id="Shape" fill="#000000" fill-rule="nonzero" opacity="0.1"></path>
                        <path d="M341.033994,252.827382 C341.285317,261.031597 342.584844,269.167753 343.88437,277.272972 L346.563111,293.978387 C348.028143,303.13543 349.560604,312.4719 353.851493,320.669928 C357.063531,326.807621 361.685432,332.041985 365.872114,337.542397 C376.157989,351.067596 383.88772,366.393267 393.640298,380.314447 C396.478415,384.360869 400.530241,388.7414 405.366686,387.893755 C408.541944,387.343095 410.846765,384.670229 413.335481,382.616081 C416.277805,380.190703 419.820854,378.414979 422.137934,375.370881 C424.455014,372.326783 424.908623,367.278036 421.770143,365.112519 C420.697421,364.376243 419.391765,364.09782 418.178056,363.627593 C413.317091,361.771436 410.166352,356.970176 408.168024,352.119418 C406.169695,347.268661 404.949857,342.065234 402.283376,337.554772 C396.484545,327.760449 384.623301,322.587957 379.633609,312.348157 C376.838401,306.618818 376.568688,299.973775 376.360273,293.61953 L375.814718,277.341032 C375.753419,275.559121 375.71051,273.709151 376.427702,272.081919 C378.334083,267.750886 384.096134,267.342531 388.767074,266.791871 C394.064196,266.167589 399.195786,264.534136 403.889394,261.978237 C406.580395,260.511873 409.203967,258.643341 410.63222,255.920977 C411.944007,253.446101 412.121772,250.531934 412.275018,247.72295 L413.893296,218.216237 C414.034283,215.679489 414.15688,213.049933 413.280312,210.674052 C411.05518,204.697225 403.576772,202.742073 397.256905,203.026684 C385.499868,203.558782 374.650048,208.663215 363.542774,212.115667 C360.790475,212.969499 358.025916,213.736711 355.187799,214.31212 C352.735862,214.813282 349.670941,214.609105 347.317082,215.41344 C343.09975,216.848868 343.203958,226.166777 342.609363,230.027584 C341.38252,237.561483 340.855109,245.194528 341.033994,252.827382 Z" id="Shape" fill="#373C45" fill-rule="nonzero"></path>
                        <path d="M404.402507,388.572981 C405.46565,389.603149 405.811643,391.109243 406.088437,392.530995 C407.626117,400.421373 408.426117,408.427332 408.478935,416.453784 C408.410063,417.202642 408.564968,417.954817 408.92558,418.622558 C409.227193,419.018253 409.633165,419.330109 410.101956,419.526214 C413.178149,420.929893 416.745023,418.971972 419.311662,416.821271 C424.061203,412.839159 428.081013,407.489515 428.351517,401.447068 C428.420715,399.89278 428.238283,398.320418 428.521368,396.784203 C428.93656,394.50699 430.326823,392.524971 431.547234,390.536927 C433.635352,387.148272 435.323278,383.547644 436.57986,379.801493 C437.045378,378.39179 437.359917,376.620624 436.202413,375.638651 C435.797069,375.330157 435.333649,375.099056 434.837314,374.957897 L420.934684,370.01791 C419.726854,369.590179 416.732441,376.957989 416.260633,377.765255 C415.096838,379.735225 413.939334,380.849734 411.605453,381.307587 C409.271573,381.765439 406.390395,381.102758 404.163458,382.241365 C400.388988,384.16314 402.269932,386.51867 404.402507,388.572981 Z" id="Shape" fill="#9FAABB" fill-rule="nonzero"></path>
                        <path d="M384.332247,393.379618 C384.082235,392.869509 383.733346,392.416836 383.306842,392.049183 C382.683586,391.643016 381.973824,391.396617 381.237721,391.330873 C378.674208,390.881149 375.634615,390.587578 373.858467,392.542631 C372.198287,394.37276 372.485156,397.352185 371.099639,399.413423 C370.66018,400.03804 370.062027,400.600196 369.683603,401.287275 C369.213226,402.339019 369.003582,403.49325 369.073243,404.647717 C369,407.82702 368.926757,411.018815 369.146486,414.191872 C369.323491,416.852742 369.756847,419.644782 371.386508,421.731005 C373.99885,425.078954 378.71083,425.55991 382.885693,425.77228 L386.273192,425.953419 C387.204637,426.064981 388.148589,425.975615 389.044227,425.691079 C390.165784,425.163272 391.029448,424.191501 391.436839,422.998978 C393.20078,418.514225 390.411434,413.685932 388.690218,409.188686 C386.706548,404.010607 387.060557,398.270373 384.332247,393.379618 Z" id="Shape" fill="#9FAABB" fill-rule="nonzero"></path>
                        <g id="Face" transform="translate(353.000000, 28.000000)">
                            <path d="M30.7274641,54.4848485 L8.94476291,54.4848485 L8.94476291,65.0136095 C5.63707903,65.5760875 3.336364,66.7044452 3.336364,69.078047 C3.336364,73.7083641 9.61050703,78.5214325 19.8361135,78.5214325 C30.4298592,78.5214325 36.335863,73.7083641 36.335863,69.078047 C36.335863,66.7044452 34.035148,65.5760875 30.7274641,65.0139187 L30.7274641,54.4848485 Z" id="Fill-137" fill="#FBCBAB" fill-rule="nonzero"></path>
                            <path d="M6.78891915,42.3431348 C6.78891915,39.0718562 5.35410448,35.0909091 3.58394291,35.0909091 C1.81409079,35.0909091 0,35.7207981 0,38.9917673 C0,40.5672625 0.560252121,44.0951968 1.10287067,45.6422434 C1.68694352,47.308032 2.66637927,48.2660073 3.58394291,48.2660073 C5.35410448,48.2660073 6.78891915,45.6141041 6.78891915,42.3431348" id="Fill-139" fill="#FBCBAB" fill-rule="nonzero"></path>
                            <path d="M32.7272727,42.3431348 C32.7272727,39.0718562 34.1620874,35.0909091 35.9319396,35.0909091 C37.7021012,35.0909091 39.516192,35.7207981 39.516192,38.9917673 C39.516192,40.5672625 38.9559399,44.0951968 38.4133213,45.6422434 C37.8292484,47.308032 36.8498126,48.2660073 35.9319396,48.2660073 C34.1620874,48.2660073 32.7272727,45.6141041 32.7272727,42.3431348" id="Fill-141" fill="#ECA182" fill-rule="nonzero"></path>
                            <path d="M30.7845573,56 L30.7845573,61.5861279 C30.3310345,61.9837897 29.8574035,62.3570228 29.3596422,62.7061365 C27.4604772,64.0426017 26.1234206,64.9013161 24.8788628,65.4229767 C23.6302833,65.9486571 22.4779148,66.1413035 20.9521482,66.1413035 C17.9009242,66.1413035 16.3392718,65.3747378 12.5489852,62.7061365 C11.2119286,61.7630039 10.027696,60.6513444 9,59.3671379 L9,56.0043292 C9.75453055,56.7909945 10.5857827,57.5009724 11.4850939,58.1351903 C15.2794022,60.8078116 16.8410547,61.5743773 19.8922787,61.5743773 C21.4180453,61.5743773 22.5701044,61.3817309 23.8189932,60.8560505 C25.063551,60.3303701 26.4002983,59.4716555 28.2994633,58.1351903 C29.199084,57.5009724 30.0300267,56.7909945 30.7845573,56" id="Fill-143" fill="#ECA182" fill-rule="nonzero"></path>
                            <path d="M19.3235857,14.4848485 L19.3235857,14.4851577 L19.3235857,14.4848485 C6.21350073,14.4848485 2.63636364,25.7795568 2.63636364,39.7122532 C2.63636364,48.9530971 5.525792,55.5358532 10.9173291,59.3334306 C14.7103999,62.0051242 16.2726712,62.7692162 19.3235857,62.7692162 L19.3235857,62.768907 L19.3235857,62.7692162 C22.3748097,62.7692162 23.9367715,62.0051242 27.7298423,59.3334306 C33.1213795,55.5358532 36.0108078,48.9530971 36.0108078,39.7122532 C36.0108078,25.7795568 32.4336708,14.4848485 19.3235857,14.4848485" id="Fill-145" fill="#FBCBAB" fill-rule="nonzero"></path>
                            <path d="M20.0578273,14.4848485 C19.8313753,14.4848485 19.6145135,14.4962898 19.3939394,14.5030927 C30.9949633,14.8837472 34.1915867,26.0201328 34.1915867,39.7122532 C34.1915867,48.9530971 31.5230418,55.5358532 26.5441918,59.3334306 C23.3051859,61.8038195 21.8258233,62.6415068 19.3939394,62.7543734 C19.6086356,62.7633409 19.8279724,62.7692162 20.0578273,62.7692162 C23.1090513,62.7692162 24.6710131,62.0051242 28.4640839,59.3334306 C33.8556211,55.5358532 36.7450493,48.9530971 36.7450493,39.7122532 C36.7450493,25.7795568 33.1679124,14.4848485 20.0578273,14.4848485" id="Fill-147" fill="#ECA182" fill-rule="nonzero"></path>
                            <path d="M34.9034432,28.6167226 C34.6002697,27.4701208 33.9487562,26.1268526 33.387576,25.0538461 C32.9532337,24.2306923 32.6899853,23.9632959 31.8828416,22.8673246 C30.8954023,21.5265408 24.8979044,22.5271785 23.2457382,22.2815369 C21.593572,22.0358954 20.5931752,22.5271785 18.8316756,22.0645797 C17.3897457,21.6836159 16.0350964,22.0113931 14.6052315,22.0645797 C12.7577298,22.1384842 11.6462787,21.2520648 9.71679636,21.4811996 C8.13503552,21.665497 7.64634085,23.9109549 6.83519721,25.0538461 C6.17935261,25.9833728 5.68494982,27.2283078 5.50057079,28.2969852 C5.3285663,29.2920674 5.57419867,30.1396497 5.27504691,31.1678189 C5.02106182,32.0234411 4.96352073,32.8877216 4.90226739,33.7761216 C4.787804,35.3689334 4.82028679,36.6917928 4.2099183,38.2277073 C3.99676885,38.7639014 3.80434642,39.0217941 3.63636364,39.0833296 C3.82878594,38.9237701 4.02553939,38.600322 4.2099183,38.0597988 C4.82028679,36.2904203 4.29189879,34.1898631 4.40264994,32.3512183 C4.46421273,31.3317076 4.52113503,30.3322962 4.77542958,29.3455631 C5.07860291,28.1621637 4.82833018,27.1791412 5.00095345,26.0368685 C5.18904473,24.8039932 6.46732279,23.1332571 7.12285806,22.0645797 C7.93400158,20.7420295 8.94158921,19.7914756 10.5233502,19.5787296 C12.4528325,19.3165078 13.9114679,20.6928629 15.7589696,20.6065895 C17.1888344,20.541034 17.9507897,20.0867843 19.3927196,20.5249543 C21.154219,21.0611484 29.6758672,20.8688112 31.3102194,21.1514417 C32.363283,21.3357392 32.9532337,21.9173891 33.387576,22.8673246 C33.9487562,24.1079305 34.6002697,25.6555956 34.9034432,26.9784549 C35.2149693,28.3421319 35.9933207,30.1971654 35.7882145,31.5772312 C35.7841928,31.59764 35.7801712,31.618358 35.7758401,31.6387667 C35.6282752,30.6272957 35.1367011,29.5011027 34.9034432,28.6167226 Z" id="Fill-151" fill="#ECA182" fill-rule="nonzero"></path>
                            <g id="Rectangle-6-+-Rectangle-6-+-Rectangle-6-+-Rectangle-6-Mask">
                                <g id="Mask" transform="translate(0.000000, 6.000000)" fill="#8F6B02" fill-rule="nonzero">
                                    <path d="M35.2749315,30.354828 C35.1899584,29.6006313 35.7462011,26.2740307 35.8772767,25.3779001 C36.0791634,23.9978343 35.5789668,22.4003527 35.2749315,21.0357481 C34.9802373,19.7131979 34.4332978,18.157996 33.8392223,17.0204486 C33.2451468,15.8829013 31.6183736,15.8355341 30.5938744,15.6534012 C29.000477,15.3701522 20.9508167,16.3026752 19.1246448,15.3913648 C17.298473,14.4800544 15.9606235,15.3261185 14.5700166,15.3913648 C12.7687061,15.4757829 12.1097602,14.0069024 10.2289003,14.2675782 C8.69154898,14.4809425 8.04223795,15.3891907 7.2530723,16.7095762 C6.61366432,17.7794905 5.49447767,19.4731958 5.31368371,20.7063802 C5.14614798,21.8511267 5.13859212,22.6257463 4.84389796,23.8100733 C4.59741553,24.7992804 4.53824761,25.9140652 4.47798296,26.9372867 C4.36950657,28.7743852 4.79246644,30.792689 4.19825695,32.5629952 C3.0493113,35.9854841 2.50630715,30.5810784 2.42675782,29.3175899 C2.34841376,28.0714181 1.86337882,27.1451013 1.79347183,25.8874881 C1.67475046,23.7587915 -0.0350337439,17.8615684 0.690854024,16.4474879 C1.55384388,14.764692 1.87023332,10.4949299 2.64041561,9.32389941 C3.47839564,8.05020659 2.84531544,7.71620884 3.78664935,6.46478015 C4.61860291,5.35868664 6.1785535,4.51172267 7.2530723,3.66135724 C8.39990868,2.75378541 9.63412881,1.85858252 11.1422518,2.14616064 C12.2191812,2.35148525 13.7822875,1.70158617 15.448764,2.11894896 C16.8519355,2.47036798 19.1755303,1.22993055 20.3787142,0.887001358 C22.1938856,0.369669952 23.4817412,1.61244038 25.1236518,2.11894896 C26.3575705,2.49929422 27.4149139,1.89228792 28.6036343,2.14275919 C29.9086653,2.41765914 30.7927479,3.78473753 31.9290379,4.42266622 C33.2554629,5.16696789 33.9909931,5.63698805 34.9570355,6.86986332 C35.2984348,7.30525042 36.5136715,9.72480181 37.3251352,11.011482 C38.4074884,12.7279833 38.3508395,18.4316177 37.7533155,20.0550427 C37.5312402,20.6586475 37.8897663,23.4843673 37.9542496,24.3730765 C38.0313882,25.4402078 37.4922212,26.0093061 37.1333452,26.9372867 C36.7708532,27.8742348 36.9474286,28.9717722 36.8606475,29.9634528 C36.8006841,30.6446728 36.5252131,32.5629952 35.8772767,33.7751539 C34.9220819,33.7751539 35.3288684,30.8338158 35.2749315,30.354828 Z" id="path-1"></path>
                                </g>
                                <g id="Rectangle-6-Clipped" transform="translate(0.000000, 6.000000)">
                                    <mask id="mask-4" fill="white">
                                        <use xlink:href="#path-3"></use>
                                    </mask>
                                    <g id="path-1"></g>
                                    <path d="M29.5756245,0.122407577 L30.2419044,0.122407577 C32.7589174,4.18776755 34.1706755,7.82148341 34.4771785,11.0235552 C34.7836817,14.225627 34.609428,18.2083551 33.9544174,22.9717395 C34.369613,19.3438762 34.369613,15.3611481 33.9544174,11.0235552 C33.5392219,6.68596226 32.0796242,3.05224639 29.5756245,0.122407577 Z" id="Rectangle-6" fill="#D4A20B" fill-rule="nonzero" mask="url(#mask-4)" transform="translate(32.099680, 11.547074) scale(-1, 1) rotate(-34.000000) translate(-32.099680, -11.547074) "></path>
                                </g>
                                <g id="Rectangle-6-Clipped" transform="translate(0.000000, 6.000000)">
                                    <g id="Rectangle-6-+-Rectangle-6-+-Rectangle-6-Mask">
                                        <mask id="mask-6" fill="white">
                                            <use xlink:href="#path-5"></use>
                                        </mask>
                                        <g id="Mask"></g>
                                        <path d="M25.5140345,-5.54297651 L26.3113979,-5.54297651 C29.323606,0.0549033644 31.0131122,5.05842215 31.3799164,9.46757984 C31.7467208,13.8767375 31.5381846,19.3608358 30.7543077,25.9198746 C31.2511884,20.9244147 31.2511884,15.4403164 30.7543077,9.46757984 C30.257427,3.49484326 28.5106693,-1.50867552 25.5140345,-5.54297651 Z" id="Rectangle-6" fill="#D4A20B" fill-rule="nonzero" mask="url(#mask-6)" transform="translate(28.534671, 10.188449) scale(-1, 1) rotate(-23.500000) translate(-28.534671, -10.188449) "></path>
                                        <path d="M21.8102839,-5.32272629 L22.6118854,-5.32272629 C25.6401043,-0.228719371 27.3385908,4.32442572 27.7073447,8.33670899 C28.0760988,12.3489923 27.866454,17.3394592 27.0784107,23.3081098 C27.5779325,18.7622982 27.5779325,13.7718313 27.0784107,8.33670899 C26.5788888,2.90158675 24.8228467,-1.65155834 21.8102839,-5.32272629 Z" id="Rectangle-6" fill="#D4A20B" fill-rule="nonzero" mask="url(#mask-6)" transform="translate(24.846975, 8.992692) scale(-1, 1) rotate(-18.100000) translate(-24.846975, -8.992692) "></path>
                                        <path d="M16.9728861,-2.74068713 L17.804337,-2.74068713 C20.9453181,1.78721869 22.7070513,5.8343691 23.0895365,9.40076409 C23.4720219,12.9671591 23.2545706,17.4030314 22.4371829,22.708381 C22.9553054,18.6677491 22.9553054,14.2318768 22.4371829,9.40076409 C21.9190603,4.56965137 20.0976281,0.522500955 16.9728861,-2.74068713 Z" id="Rectangle-6" fill="#D4A20B" fill-rule="nonzero" mask="url(#mask-6)" transform="translate(20.122655, 9.983847) scale(-1, 1) rotate(-11.000000) translate(-20.122655, -9.983847) "></path>
                                    </g>
                                </g>
                                <g id="Rectangle-6-Clipped" transform="translate(17.000000, 0.000000)"></g>
                                <g id="Rectangle-6-Clipped" transform="translate(0.000000, 5.000000)"></g>
                            </g>
                            <path d="M33.5104754,11.8039821 C33.1683225,11.9508634 31.9088175,10.8181766 31.1131419,10.6193457 C29.9440681,10.3292938 29.3234907,11.0089677 28.4801736,10.8896073 C26.9089309,10.6629463 25.2573675,12.5473561 23.7300541,12.0108528 C22.6559539,11.6370012 20.1472355,11.0921489 18.9660966,11.0009279 C17.8165125,10.9134176 11.9813521,10.5757452 9.98071685,11.8039821 C8.71605055,12.5792061 5.12808594,15.922843 4.79799818,16.8174275 C4.43635552,17.7995222 3.7201857,17.9148627 3.10362994,18.6384464 C2.26062218,19.6322916 1.74275467,23.0038633 1.38482437,23.8826773 C0.728361093,25.476726 2.04875637,27.0035684 2.27923006,28.6851275 C2.34698,29.1817408 2.34698,30.6715623 1.72357212,31.3619624 C1.58064752,31.378042 1.30363467,28.54291 0.893731881,26.988442 C0.840409214,26.7856636 -0.00810860423,24.229148 0.647371759,22.9817244 C1.53461806,21.3001654 1.49159794,17.0231887 2.27923006,15.8503028 C3.1423463,14.5781561 2.60173879,14.027671 3.56818146,12.7753146 C4.42325418,11.6701488 7.82016873,9.22435577 8.92211127,8.37368112 C10.0992285,7.46703696 19.4779383,6.6047344 21.334236,6.64570881 C23.200452,6.68690217 25.1614758,8.20350251 26.0725475,8.20350251 C27.1173371,8.20350251 27.6056569,7.64649602 29.3452884,8.37368112 C31.0849198,9.10086622 33.8680964,11.649061 33.5104754,11.8039821 Z" id="Fill-163" fill="#A98004" fill-rule="nonzero"></path>
                        </g>
                        <path d="M357.671197,96.7890628 C357.36028,95.7651618 358.722098,94.7106051 357.671197,94.4469659 C356.825502,94.2323759 354.170267,94.6186379 353.604398,95.2746703 C353.10283,95.9786449 352.558779,96.6522428 351.975191,97.2918165 C349.487852,99.4622414 345.135009,97.481882 342.529521,99.4745037 C342.100455,99.7994543 341.746009,100.216372 341.285852,100.516798 C340.838157,100.785792 340.35472,100.992137 339.849413,101.129912 C334.791689,102.752262 329.833572,104.66225 325,106.85027 C326.741137,117.175115 328.519585,127.696158 332.59882,137.352709 C334.538945,141.951067 336.734021,146.457458 338.288608,151.196832 C341.733573,161.699481 341.882813,172.937867 341.926341,183.980057 C341.926341,191.533626 341.926341,199.246605 339.439003,206.395518 C338.879351,208.01414 338.195333,209.6205 338.039874,211.300433 C337.884416,212.980367 338.39432,214.881021 339.793448,215.886529 C340.603404,216.41328 341.532372,216.735438 342.498429,216.824594 C346.795307,217.437708 351.123277,216.32184 355.351753,215.353119 C366.687801,212.765777 378.253927,211.28204 389.788961,209.83509 L409.128021,207.382632 C410.515383,207.286973 411.872958,206.939868 413.132637,206.358731 C416.670876,204.451946 417.006667,199.203687 414.805372,195.868345 C413.754471,194.268116 412.268286,192.956051 411.379063,191.263856 C410.489839,189.57166 410.421437,187.192776 411.944932,186.021728 C415.054106,183.630582 414.121354,179.197765 414.270594,175.322882 C414.685151,164.48302 414.629186,153.651333 414.102699,142.827821 C413.944408,140.58327 413.907045,138.332018 413.990769,136.083563 C414.208411,132.269991 415.166036,128.536125 416.123662,124.826783 L422,102.018928 C420.464068,99.6277823 417.52279,98.1072587 414.743189,97.4205706 C411.963587,96.7338825 409.059619,96.5315547 406.317328,95.691588 C400.720815,93.9748678 387.438426,92.9509668 387.357587,94.4469659 C387.171037,97.7639146 384.405425,97.5309312 381.681789,99.4745037 C380.119272,100.589508 372.257876,102.855234 365.984086,101.129912 C361.32198,99.8478112 357.973856,97.775011 357.671197,96.7890628 Z" id="Shape" fill="#F2F6FD" fill-rule="nonzero"></path>
                        <path d="M294.725734,133.208711 C293.389151,134.042815 291.968314,134.745355 290.484805,135.305659 C289.075432,135.840658 287.569966,136.264967 286.416844,137.199677 C285.845915,137.67516 285.366671,138.243433 285.001065,138.878465 C283.610629,141.246735 283.672498,144.153584 285.162544,146.465363 C286.65259,148.777142 289.334841,150.127745 292.163239,149.990445 C294.014642,149.898204 295.763545,149.178724 297.461198,148.471542 L311.695859,142.525064 C314.104604,141.522711 316.705537,140.354323 317.845847,138.079042 C317.97652,137.866021 318.02632,137.616138 317.986784,137.37186 C317.876537,137.103833 317.666493,136.884677 317.397411,136.75692 C314.189657,134.753602 311.383819,132.212312 309.114145,129.254642 C308.531177,128.492115 307.832897,126.696488 306.987274,126.235283 C303.976342,124.630287 297.140886,131.708256 294.725734,133.208711 Z" id="Shape" fill="#FBCBAB" fill-rule="nonzero"></path>
                        <path d="M438.423949,128 L443.431774,133.777215 C444.507936,135.011662 445.584099,136.24611 446.562428,137.579313 C448.96996,140.926218 450.900582,144.597421 452.297886,148.485657 C453.386277,151.368092 454.291232,154.441867 453.912129,157.503297 C453.658086,159.07283 453.23785,160.610297 452.658645,162.089269 C451.741216,164.932548 450.602394,167.698108 449.252835,170.360068 C448.125862,172.379924 446.852607,174.31298 445.443464,176.143455 C441.564639,181.331538 437.320324,186.230592 432.743523,190.80252 C431.031446,192.512229 430.297699,195.283564 429.570067,197.591981 C428.194291,201.856997 424.923001,205.183834 421.761774,208.331675 C420.745013,209.416695 419.620096,210.392959 418.40488,211.244971 C416.584892,212.430423 414.455894,213.040762 412.29032,212.997887 C411.34539,213.003346 410.409923,212.807758 409.544883,212.423868 C407.380329,211.386933 406.279708,208.862487 406.053469,206.455315 C405.85367,204.268014 406.215895,202.065659 407.105174,200.060876 C409.979017,193.635577 417.359291,190.851897 422.57501,186.160997 C425.63229,183.414351 427.974166,179.957898 430.28547,176.54465 C431.850946,174.411158 433.158522,172.096653 434.180445,169.650261 C435.342211,166.508592 434.889734,162.792904 435.910865,159.60803 C436.338884,158.25631 437.133777,157.040379 437.567911,155.701003 C438.002045,154.361628 438.148794,152.775362 437.335558,151.621154 C436.726207,150.883309 435.947447,150.306973 435.067056,149.942305 C431.734621,148.238768 428.004739,146.041451 427.368825,142.319592 C427.114135,140.258485 427.647705,138.176914 428.860778,136.499171 C430.067266,134.842837 431.478991,133.349344 433.06148,132.05516 C434.510631,130.734301 436.962569,129.271481 438.423949,128 Z" id="Shape" fill="#FBCBAB" fill-rule="nonzero"></path>
                        <path d="M289.98952,142.146156 C289.114954,140.331174 288.015674,138.478897 286.24225,137.577621 C284.497941,136.80746 282.520525,136.80746 280.776216,137.577621 C279.05767,138.338047 277.447748,139.333328 275.9904,140.536292 L271.7026,143.774668 C270.730636,144.427508 269.870799,145.240288 269.157858,146.180141 C268.477872,147.320448 268.027703,148.588478 267.833863,149.909557 C267.226526,152.9366 266.734583,156.050663 267.159719,159.115 C267.839937,164.087554 270.755155,168.388814 273.961894,172.167956 C275.966107,174.517488 278.444042,176.891883 281.492874,176.99755 C282.810796,177.04106 284.274478,176.50651 284.821081,175.282018 C285.011662,174.795504 285.112561,174.277076 285.118676,173.752958 C285.446638,168.233422 283.515307,162.844416 281.268159,157.81592 C280.660822,156.448467 280.004898,155.031289 280.053485,153.533307 C280.034848,153.278978 280.098907,153.025479 280.235686,152.812286 C280.428479,152.605513 280.686767,152.475545 280.964491,152.44556 C284.04369,151.823991 289.351816,154.272974 291.507862,150.773539 C292.904738,148.461301 290.985553,144.203551 289.98952,142.146156 Z" id="Shape" fill="#FBCBAB" fill-rule="nonzero"></path>
                        <path d="M314.769492,113.597043 C313.958561,114.116516 313.245342,114.771126 312.661693,115.531633 C311.927157,116.634412 311.773862,118.052271 311.141522,119.186559 C309.787421,121.669388 306.612948,122.557913 304.639281,124.593328 C304.319308,124.871564 304.095903,125.241849 304.000554,125.651996 C303.988408,126.206261 304.176301,126.746747 304.530698,127.176983 L314.07328,141.97313 C317.266915,142.250401 320.294481,140.284303 323.475342,140.54897 C324.656987,140.643494 325.876955,141.046796 327.01389,140.700208 C327.826485,140.34307 328.588675,139.883418 329.281371,139.332762 C331.197552,138.148062 333.701362,138.009426 335.291792,136.452932 C336.882222,134.896438 337.016355,132.608959 336.997193,130.485321 C337.025845,128.642206 336.83505,126.802146 336.428726,125.002932 C335.023527,119.331495 330.622697,114.958188 327.863397,109.929514 C326.515682,107.478193 325.787534,106.047731 322.945198,107.730257 C320.102863,109.412783 317.458533,111.656151 314.769492,113.597043 Z" id="Shape" fill="#F2F6FD" fill-rule="nonzero"></path>
                        <path d="M426.363137,106.905857 C428.154654,108.033187 429.77038,109.403319 431.161124,110.974541 C432.609453,112.78628 433.432512,115.012308 434.829798,116.867331 C436.227084,118.722354 438.019949,120.05797 439.551222,121.715124 C441.880032,124.225589 443.455967,127.280193 445,130.316248 C441.220213,135.082409 437.101258,139.586666 432.673256,143.796082 C432.179342,144.359003 431.527856,144.771334 430.797447,144.983297 C429.791598,145.088055 428.798863,144.695314 428.156002,143.938301 C427.466929,143.245759 426.982026,142.380081 426.324855,141.656622 C424.776612,140.109109 422.712862,139.143032 420.499639,138.929738 C418.304832,138.722539 416.096107,138.691516 413.896026,138.836987 C413.413119,138.892475 412.923905,138.813098 412.485979,138.608201 C412.160186,138.391338 411.896704,138.097684 411.720343,137.75489 C409.168222,133.500704 409.96576,128.158238 410.878143,123.298077 L412.964502,112.167939 C413.269001,110.042921 413.854416,107.964715 414.706325,105.984529 C415.497482,104.345925 417.258446,101.56339 419.440509,102.058063 C421.622572,102.552736 424.51923,105.619707 426.363137,106.905857 Z" id="Shape" fill="#F2F6FD" fill-rule="nonzero"></path>
                        <polygon id="Shape" fill="url(#linearGradient-1)" fill-rule="nonzero" points="250 189.296095 207.403893 198 206.43313 197.90734 169 194.13297 169 146.740237 214.82374 139 248.064656 142.873207 248.077023 143.083237 248.077023 143.182075"></polygon>
                        <polygon id="Shape" fill="#000000" fill-rule="nonzero" opacity="0.1" points="249 189.124409 206.958132 198 206 197.905512 206 148.362205 247.102044 142"></polygon>
                        <polygon id="Shape" fill="#000000" fill-rule="nonzero" opacity="0.05" points="248 142.64632 247.987646 142.657092 206.396669 148 169 145.748654 214.779107 139 247.987646 142.37702 248 142.560144"></polygon>
                        <polygon id="Shape" fill="#373C45" fill-rule="nonzero" points="272 140.290829 229.403893 149 228.43313 148.901173 191 145.127198 191 97.7394263 236.82374 90 270.064656 93.8728015 270.077023 94.0828099 270.077023 94.1816374"></polygon>
                        <polygon id="Shape" fill="#2B2B2B" fill-rule="nonzero" opacity="0.1" points="271 143.119109 228.958132 152 228 151.899224 228 102.361489 269.102044 96"></polygon>
                        <polygon id="Shape" fill="#000000" fill-rule="nonzero" opacity="0.05" points="270 93.6463196 269.987646 93.6570916 228.396669 99 191 96.7486535 236.779107 90 269.987646 93.3770197 270 93.5601436"></polygon>
                    </g>
                </g>
            </g>
        </g>
    </g>
</svg>