<?xml version="1.0" encoding="UTF-8"?>
<svg width="585px" height="385px" viewBox="0 0 585 385" version="1.1" xmlns="http://www.w3.org/2000/svg" xmlns:xlink="http://www.w3.org/1999/xlink">
    <!-- Generator: Sketch 51.3 (57544) - http://www.bohemiancoding.com/sketch -->
    <title>development-frameworks</title>
    <desc>Created with Sketch.</desc>
    <defs>
        <linearGradient x1="95.1583591%" y1="100%" x2="32.4424878%" y2="0%" id="linearGradient-1">
            <stop stop-color="#8067FF" offset="0%"></stop>
            <stop stop-color="#2CCDFF" offset="100%"></stop>
        </linearGradient>
        <linearGradient x1="122.260311%" y1="136.467845%" x2="32.4424878%" y2="0%" id="linearGradient-2">
            <stop stop-color="#8067FF" offset="0%"></stop>
            <stop stop-color="#2CCDFF" offset="100%"></stop>
        </linearGradient>
        <linearGradient x1="169.581144%" y1="264.562636%" x2="32.4424878%" y2="0%" id="linearGradient-3">
            <stop stop-color="#8067FF" offset="0%"></stop>
            <stop stop-color="#2CCDFF" offset="100%"></stop>
        </linearGradient>
        <path d="M18.9959719,16.3970276 C18.9504538,15.9896267 19.2484202,14.1926684 19.3186345,13.7085978 C19.4267805,12.9631159 19.1588367,12.1001905 18.9959719,11.3630604 C18.838111,10.6486471 18.5451281,9.80856034 18.2268954,9.19408161 C17.9086628,8.57960295 17.0372376,8.55401617 16.4884369,8.4556319 C15.6348904,8.30262688 11.3228719,8.80635577 10.3446335,8.31408548 C9.36639505,7.82181511 8.64973976,8.27884082 7.90482351,8.31408548 C6.93990273,8.3596863 6.58692053,7.56622854 5.579387,7.70704 C4.75586312,7.82229486 4.40804208,8.31291103 3.98530412,9.02615502 C3.64278792,9.6040998 3.04326528,10.5190031 2.9464181,11.1851429 C2.85667305,11.8035104 2.85262555,12.2219433 2.69476464,12.8616914 C2.56272965,13.3960398 2.53103475,13.9982227 2.49875236,14.550945 C2.44064404,15.5433063 2.66721395,16.6335507 2.34890954,17.5898322 C1.73344569,19.4385874 1.44257081,16.5192433 1.39995806,15.8367339 C1.35799094,15.1635785 1.09816884,14.6632021 1.06072127,13.9838664 C0.997124949,12.8339901 0.0812327334,9.64843648 0.470074176,8.88458051 C0.932358064,7.97557023 1.10184064,5.66913624 1.51440964,5.03657066 C1.96329634,4.3485491 1.62416978,4.16813067 2.12842078,3.4921357 C2.57407924,2.8946477 3.40970903,2.4371359 3.98530412,1.97778672 C4.59963809,1.48753587 5.26078153,1.00396645 6.06864846,1.15930999 C6.64553486,1.27022194 7.48285508,0.919160386 8.37554835,1.14461082 C9.12719517,1.33443984 10.3718917,0.664382125 11.0164097,0.479139126 C11.9887554,0.199687786 12.6786302,0.871005739 13.558164,1.14461082 C14.219146,1.35006518 14.7855406,1.02217338 15.4223109,1.1574726 C16.1213861,1.30596766 16.5949689,2.04443411 17.2036534,2.38902952 C17.9141889,2.79108533 18.3081955,3.04498015 18.8256823,3.71095295 C19.0085621,3.94613974 19.6595366,5.25312955 20.094219,5.94816662 C20.6740109,6.87538382 20.6436654,9.95636492 20.3235854,10.8333043 C20.2046248,11.1593587 20.396679,12.685752 20.4312212,13.1658136 C20.4725426,13.7422551 20.1837232,14.0496698 19.9914816,14.550945 C19.7973029,15.0570643 19.8918903,15.6499305 19.8454037,16.1856152 C19.8132826,16.5535956 19.6657191,17.5898322 19.3186345,18.2446144 C18.8069585,18.2446144 19.0248647,16.6557665 18.9959719,16.3970276 Z" id="path-4"></path>
    </defs>
    <g id="Web-Pages-V4" stroke="none" stroke-width="1" fill="none" fill-rule="evenodd">
        <g id="Homepage-(1)" transform="translate(-700.000000, -4153.000000)">
            <g id="Section-3" transform="translate(0.000000, 2642.000000)">
                <g id="Skill-3" transform="translate(154.000000, 1511.000000)">
                    <g id="development-frameworks" transform="translate(546.000000, 0.000000)">
                        <path d="M405.386046,174.365063 L409.0219,172.936721 C409.370183,172.799177 409.713188,172.651052 410.077301,172.508218 C396.218208,167.392702 387.74586,153.33178 389.678353,138.653609 C391.610846,123.975438 403.432128,112.599665 418.14056,111.264058 L415.607599,124.06624 L425.222296,111.412182 L425.306728,111.412182 C442.589303,113.794148 454.675125,129.767978 452.30387,147.094299 C452.224715,147.692086 452.098067,148.274004 451.98725,148.861211 C454.947648,146.517671 457.723351,143.930784 459.80249,140.925974 C464.024091,134.821132 465.454159,127.298527 466.910611,118.088362 C469.797131,99.8478966 472.398693,81.4064055 474.741682,62.9754947 C459.878941,58.4800805 450.481632,43.8196186 452.578274,28.3990215 C452.710199,27.4362127 452.894894,26.4998547 453.105974,25.574077 C453.158744,25.3413101 453.211514,25.1085431 453.269561,24.8810663 C453.496472,23.9870296 453.749769,23.1088634 454.045281,22.2359873 C454.092774,22.093153 454.156098,21.9608991 454.203591,21.823355 C454.467441,21.0986033 454.731291,20.384432 455.074296,19.7072917 C455.19039,19.4427838 455.306484,19.1782759 455.427855,18.9296385 C455.791968,18.1731459 456.177189,17.4325237 456.59935,16.7130622 C456.741829,16.4750051 456.894862,16.2475283 457.037341,16.0094712 C457.364515,15.4804554 457.70752,14.9514396 458.061079,14.4594549 C458.251051,14.194947 458.435746,13.9304391 458.630995,13.6712213 L458.773474,13.4649052 C468.019012,1.33362396 484.586941,-2.44929392 498.161017,4.47163642 L494.868167,21.1303442 L504.366771,8.62441052 C514.853485,17.5309254 518.343001,32.2397232 512.978838,44.9254753 L513.015777,44.9254753 C512.926068,45.1370817 512.815251,45.3381077 512.725542,45.549714 C512.551401,45.9411857 512.371983,46.3273672 512.197842,46.7135488 C511.9551,47.2055335 511.670142,47.6869379 511.432676,48.1630521 C511.23215,48.5227828 511.036901,48.8825136 510.820544,49.2210837 C510.509201,49.7500995 510.171473,50.2262137 509.833745,50.7181984 C509.633219,51.003867 509.448524,51.3001158 509.242721,51.5804942 C508.71502,52.3158262 508.123996,53.0194172 507.522418,53.6965575 C507.311338,53.9346146 507.084427,54.151511 506.862793,54.384278 C506.435356,54.8392316 506.007918,55.288895 505.554096,55.7173978 C505.274415,55.9819057 504.978903,56.2464137 504.688668,56.4897609 C504.271785,56.860072 503.844348,57.2198027 503.406357,57.5477925 C503.095013,57.79643 502.778393,58.0344871 502.461773,58.267254 C502.002674,58.600534 501.538298,58.9126533 501.068645,59.2247727 C500.752025,59.4310888 500.435404,59.637405 500.113507,59.8331408 C499.585807,60.1558405 499.031722,60.4520893 498.477637,60.743048 C498.197956,60.8858823 497.949937,61.044587 497.638593,61.1821311 C496.804827,61.5894733 495.949953,61.9650745 495.079248,62.2983545 C494.91566,62.3618364 494.741519,62.4094478 494.577932,62.4676396 C493.849706,62.7321475 493.116203,62.9966554 492.372146,63.1818109 C492.050248,63.2717436 491.723074,63.3458058 491.3959,63.4251582 C490.789045,63.5732826 490.176913,63.7108267 489.559504,63.8272102 C489.207703,63.8906921 488.84359,63.9488838 488.467164,64.0017854 C487.860309,64.0917181 487.248177,64.1604902 486.630767,64.2133917 C486.266654,64.2451327 485.907818,64.2768736 485.538428,64.2980343 C484.873526,64.3297752 484.203347,64.3350654 483.533167,64.3297752 C483.489232,64.3271235 483.445178,64.3271235 483.401242,64.3297752 C482.409166,72.0886737 481.367838,79.8475723 480.277257,87.6064708 C485.44944,80.6064238 493.271277,76.0533419 501.89952,75.0201768 C510.527764,73.9870116 519.199266,76.5651443 525.870554,82.1470277 L517.596215,96.2082679 L530.899537,87.4318956 C535.92948,94.1056479 538.112068,102.507681 536.968089,110.793234 C536.577659,113.702371 535.778168,116.541406 534.593438,119.225746 C529.397015,131.118999 517.482057,138.624332 504.538611,138.157538 C491.595165,137.690744 480.248969,129.346516 475.918454,117.109682 C475.797083,117.892626 475.680989,118.69673 475.559617,119.469093 C474.272029,127.589486 472.673097,137.698978 466.995043,145.919883 C463.148109,151.50629 457.849999,155.632614 452.699645,159.261662 C449.350508,161.624599 445.923975,163.876443 442.420045,166.017194 C438.742177,169.436151 434.304918,171.927791 429.47556,173.285871 C423.846758,176.174298 418.096585,178.785872 412.225041,181.120595 L408.557524,182.559518 C405.259398,183.850317 401.882117,185.172856 398.531221,186.580039 C399.058921,186.62765 399.586621,186.669971 400.114321,186.738743 C413.738657,188.614303 424.590002,199.105562 426.953153,212.686969 L404.626158,224.912524 L426.884552,223.912684 C425.993472,228.8606 423.926367,233.520461 420.858216,237.49781 C410.392373,251.079369 391.040236,253.833426 377.21741,243.708456 L378.32558,245.776908 C379.064361,247.141768 379.792587,248.501339 380.499705,249.850329 C390.17245,268.228338 390.874291,284.098813 382.478581,294.546875 L375.618478,289.01866 C383.792554,278.850976 377.307119,262.689543 372.716127,253.960782 C372.019563,252.638243 371.301891,251.315703 370.605326,249.961423 C364.394295,238.413008 357.349498,225.325156 360.172694,211.39617 C364.394295,190.394243 387.111788,181.506777 405.386046,174.365063 Z" id="Shape" fill="#F2F6FD" fill-rule="nonzero"></path>
                        <path d="M142.869212,273.094045 L140.023649,271.980962 C139.748613,271.875457 139.494734,271.754126 139.209119,271.64862 C150.053523,267.659817 156.680546,256.710288 155.167396,245.281482 C153.654246,233.852676 144.40468,224.994155 132.893873,223.949621 L134.877305,233.919883 L127.356132,224.065677 L127.287373,224.065677 C120.786216,224.951145 114.9043,228.376958 110.936363,233.589017 C106.968426,238.801076 105.239719,245.372151 106.130769,251.855804 C106.194239,252.325303 106.294733,252.773701 106.379359,253.23265 C104.045832,251.482762 101.985341,249.397457 100.265101,247.044757 C96.9699597,242.297013 95.8380814,236.430912 94.6956248,229.261818 C92.4583139,215.055514 90.42728,200.696226 88.6025229,186.35804 C100.23216,182.85159 107.580861,171.433626 105.935071,159.427782 C105.829288,158.678693 105.686481,157.950706 105.517228,157.227994 L105.390288,156.700467 C105.210457,156.004131 105.014758,155.318346 104.782036,154.653662 C104.745012,154.542881 104.697409,154.437375 104.655096,154.33187 C104.448819,153.767416 104.221386,153.213513 103.978085,152.67016 C103.88288,152.469699 103.792964,152.263964 103.69776,152.063504 C103.412146,151.477948 103.110664,150.902944 102.782737,150.343765 C102.671664,150.153855 102.550014,149.974496 102.438942,149.816238 C102.179773,149.404767 101.910027,148.998571 101.634991,148.608201 C101.486895,148.402466 101.344088,148.191455 101.190702,147.990994 L101.07963,147.832736 C93.8429627,138.387086 80.8810359,135.432895 70.249169,140.806075 L72.8302747,153.783242 L65.3884393,144.045092 C57.1808354,150.981764 54.4486728,162.435283 58.6447718,172.315269 L58.618326,172.315269 C58.687085,172.478802 58.7717114,172.63706 58.8457595,172.800594 C58.9832775,173.106559 59.1207954,173.40725 59.2688916,173.70794 C59.459301,174.08776 59.6602888,174.462304 59.8718548,174.831573 C60.0252402,175.116438 60.1786256,175.396027 60.3478784,175.670341 C60.5911794,176.065986 60.8767935,176.451081 61.1200945,176.836176 C61.278769,177.057737 61.4215761,177.289849 61.5855397,177.506135 C62.0086718,178.075865 62.4582496,178.624493 62.9289841,179.157295 C63.0929478,179.34193 63.2727789,179.510738 63.4578992,179.684822 C63.7911157,180.038265 64.1296214,180.386433 64.4839945,180.739876 C64.7008497,180.950887 64.9335723,181.146072 65.1610058,181.341257 C65.4889332,181.633156 65.8221497,181.912745 66.1606553,182.180025 C66.4039563,182.369935 66.6525464,182.55457 66.9011365,182.739204 C67.2607987,182.997692 67.6257501,183.266731 67.9907016,183.483017 C68.2392917,183.646551 68.4878818,183.804809 68.741761,183.957792 C69.1596039,184.211005 69.5880252,184.437841 70.0217355,184.664678 C70.2438799,184.780734 70.4554459,184.902065 70.6775903,185.012846 C71.333445,185.329362 71.999878,185.619502 72.6821785,185.87799 C72.8091181,185.930743 72.946636,185.962395 73.0735756,186.009872 C73.6395148,186.215608 74.2160323,186.405517 74.803128,186.569051 C75.0517181,186.637629 75.3320431,186.695657 75.5647657,186.753685 C76.0407893,186.869741 76.5168129,186.980522 77.0034148,187.070201 L77.8549681,187.207359 C78.3309917,187.275937 78.8123044,187.32869 79.2936172,187.370892 C79.5792313,187.397268 79.8595563,187.418369 80.1504596,187.434195 C80.6793747,187.460572 81.2082898,187.465847 81.7372049,187.460572 L81.8376988,187.460572 C82.6134409,193.516583 83.4279702,199.567318 84.2812865,205.612779 C80.2398522,200.153288 74.1197932,196.597878 67.3646259,195.785152 C60.6094586,194.972426 53.8172651,196.974339 48.5900958,201.318708 L55.0111251,212.206868 L44.602076,205.375392 C40.658911,210.570584 38.9465894,217.115361 39.8418401,223.569801 C40.1489103,225.837938 40.7775499,228.051053 41.7089104,230.142789 C45.777244,239.404342 55.1036364,245.248844 65.235131,244.885794 C75.3666256,244.522743 84.248445,238.02577 87.6398974,228.496904 C87.7351021,229.10356 87.8250177,229.720767 87.9202224,230.332698 C88.9251611,236.663024 90.1786899,244.533728 94.6215767,250.948457 C97.6363927,255.295281 101.783087,258.507921 105.81342,261.335466 C108.436839,263.178294 111.118439,264.936717 113.858219,266.610737 C116.738713,269.273049 120.212045,271.214891 123.992232,272.276378 C128.392806,274.523643 132.899162,276.570448 137.500724,278.374591 L140.367443,279.498224 C142.948549,280.500525 145.593125,281.529203 148.200676,282.626459 C147.788122,282.663386 147.370279,282.695038 146.952436,282.753066 C136.292859,284.209791 127.799709,292.371419 125.943929,302.941528 L143.398127,312.437015 L125.975664,311.66155 C127.53472,319.993548 133.271901,326.944541 141.170652,330.071335 C149.069403,333.19813 158.024357,332.063155 164.887947,327.065342 C164.597044,327.592869 164.31143,328.120396 164.020527,328.674299 C163.444009,329.729353 162.872781,330.784408 162.31742,331.839462 C154.748645,346.151272 154.198573,358.516507 160.772988,366.65625 L166.130898,362.351629 C159.731025,354.438723 164.80861,341.846651 168.405233,335.046827 C168.934148,334.018149 169.510665,332.97892 170.076604,331.934417 C174.937334,322.966456 180.448629,312.748256 178.253632,301.897024 C174.969069,285.575336 157.171076,278.675281 142.869212,273.094045 Z" id="Shape" fill="#F2F6FD" fill-rule="nonzero"></path>
                        <ellipse id="Oval" fill="#3F3D56" fill-rule="nonzero" cx="292.5" cy="372.75" rx="292.5" ry="12.1875"></ellipse>
                        <ellipse id="Oval" fill="#2B2B2B" fill-rule="nonzero" opacity="0.1" cx="292.5" cy="372.75" rx="292.5" ry="12.1875"></ellipse>
                        <ellipse id="Oval" fill="#373C45" fill-rule="nonzero" cx="292.5" cy="365.640625" rx="292.5" ry="12.1875"></ellipse>
                        <path d="M44.1434,361.578125 C42.5866274,358.672142 44.3509697,355.11218 46.3643957,352.517364 C48.3778217,349.922547 50.8323333,347.243347 50.7804409,343.92599 C50.7077915,339.179375 45.7468759,336.378871 41.787484,333.863165 C38.8497059,331.994795 36.1394304,329.780177 33.713023,327.26537 C32.6988213,326.295901 31.859344,325.153552 31.2325652,323.889999 C30.412665,322.033545 30.4386112,319.923938 30.4905036,317.888168 C30.6634783,311.11633 30.9921303,304.351524 31.4764596,297.59375" id="Shape" stroke="#373C45" stroke-width="4"></path>
                        <path d="M24.3826928,297.762169 C24.5020817,295.164848 25.937988,292.807827 28.1912121,291.510538 L29.8996051,294.889357 L29.8506384,290.797775 C30.6653514,290.555259 31.5152032,290.452243 32.3642612,290.493083 C36.5617229,290.698376 39.7998767,294.264501 39.6006538,298.462402 C39.401431,302.660303 35.8401119,305.903717 31.6420747,305.710551 C27.4440375,305.517384 24.1955964,301.960628 24.3826928,297.762169 Z" id="Shape" fill="url(#linearGradient-1)" fill-rule="nonzero"></path>
                        <path d="M37.403801,347.260404 C38.960805,350.339827 42.4185705,351.980922 45.807602,351.248945 C49.1966335,350.516968 51.6568542,347.597681 51.7869561,344.15387 C51.8411455,343.107821 51.6728504,342.062167 51.293044,341.085088 C50.1747829,338.124236 47.318078,336.169567 44.1355094,336.187624 C40.9529407,336.205681 38.1188854,338.192639 37.0347239,341.165988 L41.794734,345.011403 L36.5625222,343.803306 C36.5595875,345.006072 36.8481463,346.191857 37.403801,347.260404 Z" id="Shape" fill="url(#linearGradient-1)" fill-rule="nonzero"></path>
                        <path d="M41.689274,333.118712 C45.5780351,333.416117 49.0447337,330.65455 49.668181,326.762726 C50.2916283,322.870902 47.8642839,319.144377 44.0814378,318.185805 L44.1189829,321.325294 L42.4133595,317.914692 C38.2588288,317.718544 34.733627,320.964284 34.5396008,325.164255 C34.3455746,329.364227 37.5561978,332.927986 41.7107284,333.124134 L41.689274,333.118712 Z" id="Shape" fill="url(#linearGradient-1)" fill-rule="nonzero"></path>
                        <path d="M23.5149365,321.960271 C26.2310759,322.088414 28.8092043,320.75669 30.2781656,318.466747 C31.7471269,316.176805 31.883751,313.27654 30.6365729,310.858454 C29.3893947,308.440368 26.9478904,306.871827 24.231751,306.743684 C22.8064702,306.672763 21.3903546,307.008212 20.1480806,307.711024 L21.4948229,311.406481 L18.719882,308.743578 C17.2357255,310.103881 16.3510882,311.997608 16.2599051,314.009604 C16.2231068,314.712833 16.2889645,315.417674 16.4553999,316.101885 C17.2342349,319.415123 20.1172364,321.807594 23.5149365,321.960271 Z" id="Shape" fill="url(#linearGradient-1)" fill-rule="nonzero"></path>
                        <path d="M25.1938006,299.325463 C26.8622998,299.50789 28.4844519,300.019701 30.1581008,300.121049 C31.8317498,300.222398 33.6701888,299.827138 34.7310248,298.550146 C35.3026402,297.855908 35.5858731,296.984309 36.0647942,296.23433 C36.5234969,295.533953 37.1493508,294.95463 37.8877842,294.546875 C39.0774733,296.994004 38.7448762,299.894487 37.0309349,302.01921 C35.3169936,304.143932 32.5218006,305.120879 29.829853,304.536056 C27.1379053,303.951233 25.0205336,301.907037 24.375,299.269721 C24.6479335,299.279856 24.920867,299.300125 25.1938006,299.325463 Z" id="Shape" fill="#000000" fill-rule="nonzero" opacity="0.1"></path>
                        <path d="M22.9125966,320.94397 C25.4420222,321.070728 27.8524912,319.874069 29.258584,317.793554 C30.6646769,315.713039 30.8590845,313.05541 29.7703966,310.796875 C29.1981119,311.178518 28.7061652,311.666118 28.3217826,312.232689 C27.8080898,312.998795 27.4947371,313.881592 26.8937164,314.586815 C25.768729,315.890717 23.8526546,316.316895 22.1112357,316.235718 C20.3698169,316.154541 18.6900412,315.672554 16.974307,315.515274 C16.7328713,315.515274 16.4914357,315.474686 16.25,315.469612 C16.9831898,318.559574 19.7028497,320.794197 22.9125966,320.94397 Z" id="Shape" fill="#000000" fill-rule="nonzero" opacity="0.1"></path>
                        <path d="M41.1284363,333.131132 C43.6546272,333.259801 46.0657895,332.073472 47.4905649,330.000866 C48.9153403,327.92826 49.1476878,325.269103 48.1036404,322.984375 C47.4998233,323.373775 46.973257,323.869827 46.5501429,324.44785 C45.9857054,325.238639 45.6335793,326.147534 44.9966453,326.876704 C43.7745605,328.232343 41.7135871,328.709898 39.8545683,328.663683 C37.9955496,328.617468 36.3229505,328.186128 34.53125,328.052618 C35.4273375,330.957665 38.0681761,332.990582 41.1284363,333.131132 Z" id="Shape" fill="#000000" fill-rule="nonzero" opacity="0.1"></path>
                        <path d="M37.578125,347.333086 C39.1162711,350.358725 42.5321573,351.971158 45.880142,351.251965 C49.2281268,350.532772 51.65855,347.664472 51.7870763,344.280809 C51.8406093,343.253029 51.6743525,342.225639 51.2991462,341.265625 C50.6791819,341.666421 50.1226651,342.155707 49.6476908,342.717576 C48.9292004,343.581329 48.4627179,344.556362 47.6316282,345.367123 C46.092772,346.861467 43.6102269,347.48676 41.4011372,347.534452 C40.123954,347.539556 38.8475242,347.472324 37.578125,347.333086 Z" id="Shape" fill="#000000" fill-rule="nonzero" opacity="0.1"></path>
                        <path d="M55.859375,358.681056 C55.859375,358.681056 50.1267669,358.499575 48.4038802,357.229205 C46.6809934,355.958834 39.6083623,354.44293 39.1582388,356.481928 C38.7081152,358.520926 30.5438051,366.623541 37.0162715,366.655567 C43.4887379,366.687593 52.0514332,365.588029 53.7743199,364.52049 C55.4972066,363.452952 55.859375,358.681056 55.859375,358.681056 Z" id="Shape" fill="#9FAABB" fill-rule="nonzero"></path>
                        <path d="M36.8787218,365.923861 C43.3575205,365.978019 51.9285931,364.840695 53.6583443,363.757528 C54.9686049,362.92349 55.4916734,359.917703 55.6677559,358.53125 L55.859375,358.53125 C55.859375,358.53125 55.4968523,363.367588 53.7878167,364.488665 C52.078781,365.609743 43.4869929,366.698325 37.0133731,366.654998 C35.1437917,366.654998 34.4964297,365.945524 34.532682,364.9111 C34.7760901,365.523089 35.4907777,365.923861 36.8787218,365.923861 Z" id="Shape" fill="#000000" fill-rule="nonzero" opacity="0.2"></path>
                        <path d="M557.034025,366.65625 C555.477252,363.750267 557.241595,360.190305 559.255021,357.595489 C561.268447,355.000672 563.722958,352.321472 563.671066,349.004115 C563.598417,344.2575 558.637501,341.456996 554.678109,338.94129 C551.740331,337.07292 549.030055,334.858302 546.603648,332.343495 C545.589446,331.374026 544.749969,330.231677 544.12319,328.968124 C543.30329,327.11167 543.329236,325.002063 543.381129,322.966293 C543.550644,316.194455 543.879296,309.429649 544.367085,302.671875" id="Shape" stroke="#373C45" stroke-width="4"></path>
                        <path d="M536.263121,301.824797 C536.38251,299.227429 537.818416,296.870368 540.07164,295.573056 L541.780033,298.951934 L541.731066,294.860281 C542.545779,294.61776 543.395631,294.514743 544.244688,294.555583 C548.441261,294.763838 551.676618,298.331164 551.475483,302.528304 C551.274348,306.725444 547.712695,309.96701 543.515442,309.772974 C539.318188,309.578938 536.070765,306.022594 536.257681,301.824797 L536.263121,301.824797 Z" id="Shape" fill="#6C63FF" fill-rule="nonzero"></path>
                        <path d="M549.278801,352.338529 C550.835805,355.417952 554.293571,357.059047 557.682602,356.32707 C561.071634,355.595093 563.531854,352.675806 563.661956,349.231995 C563.716145,348.185946 563.54785,347.140292 563.168044,346.163213 C562.049783,343.202361 559.193078,341.247692 556.010509,341.265749 C552.827941,341.283806 549.993885,343.270764 548.909724,346.244113 L553.669734,350.089528 L548.437522,348.881431 C548.434588,350.084197 548.723146,351.269982 549.278801,352.338529 Z" id="Shape" fill="#6C63FF" fill-rule="nonzero"></path>
                        <path d="M553.564274,338.196837 C557.453035,338.494242 560.919734,335.732675 561.543181,331.840851 C562.166628,327.949027 559.739284,324.222502 555.956438,323.26393 L555.993983,326.403419 L554.288359,322.992817 C550.133829,322.796669 546.608627,326.042409 546.414601,330.24238 C546.220575,334.442352 549.431198,338.006111 553.585728,338.202259 L553.564274,338.196837 Z" id="Shape" fill="#6C63FF" fill-rule="nonzero"></path>
                        <path d="M535.389867,326.022644 C539.588615,326.220734 543.152835,322.974997 543.350776,318.773088 C543.548717,314.571178 540.305422,311.004274 536.106675,310.806184 C534.681407,310.735263 533.265305,311.07071 532.023043,311.773516 L533.369773,315.468942 L530.594858,312.806062 C529.110716,314.166353 528.226087,316.060064 528.134905,318.072044 C528.098107,318.775267 528.163964,319.480102 528.330398,320.164307 C529.109225,323.477517 531.992199,325.869968 535.389867,326.022644 Z" id="Shape" fill="#6C63FF" fill-rule="nonzero"></path>
                        <path d="M537.068801,303.387963 C538.7373,303.57039 540.359452,304.082201 542.033101,304.183549 C543.70675,304.284898 545.545189,303.889638 546.606025,302.612646 C547.17764,301.918408 547.460873,301.046809 547.939794,300.29683 C548.398497,299.596453 549.024351,299.01713 549.762784,298.609375 C550.952473,301.056504 550.619876,303.956987 548.905935,306.08171 C547.191994,308.206432 544.396801,309.183379 541.704853,308.598556 C539.012905,308.013733 536.895534,305.969537 536.25,303.332221 C536.522934,303.342356 536.795867,303.362625 537.068801,303.387963 Z" id="Shape" fill="#000000" fill-rule="nonzero" opacity="0.1"></path>
                        <path d="M534.787597,325.00647 C537.317022,325.133228 539.727491,323.936569 541.133584,321.856054 C542.539677,319.775539 542.734085,317.11791 541.645397,314.859375 C541.073112,315.241018 540.581165,315.728618 540.196783,316.295189 C539.68309,317.061295 539.369737,317.944092 538.768716,318.649315 C537.643729,319.953217 535.727655,320.379395 533.986236,320.298218 C532.244817,320.217041 530.565041,319.735054 528.849307,319.577774 C528.607871,319.577774 528.366436,319.537186 528.125,319.532112 C528.85819,322.622074 531.57785,324.856697 534.787597,325.00647 Z" id="Shape" fill="#000000" fill-rule="nonzero" opacity="0.1"></path>
                        <path d="M553.003436,337.193632 C555.529627,337.322301 557.94079,336.135972 559.365565,334.063366 C560.79034,331.99076 561.022688,329.331603 559.97864,327.046875 C559.374823,327.436275 558.848257,327.932327 558.425143,328.51035 C557.860705,329.301139 557.508579,330.210034 556.871645,330.939204 C555.649561,332.294843 553.588587,332.772398 551.729568,332.726183 C549.87055,332.679968 548.197951,332.248628 546.40625,332.115118 C547.302338,335.020165 549.943176,337.053082 553.003436,337.193632 Z" id="Shape" fill="#000000" fill-rule="nonzero" opacity="0.1"></path>
                        <path d="M549.453125,352.411211 C550.991271,355.43685 554.407157,357.049283 557.755142,356.33009 C561.103127,355.610897 563.53355,352.742597 563.662076,349.358934 C563.715609,348.331154 563.549353,347.303764 563.174146,346.34375 C562.554182,346.744546 561.997665,347.233832 561.522691,347.795701 C560.8042,348.659454 560.337718,349.634487 559.506628,350.445248 C557.967772,351.939592 555.485227,352.564885 553.276137,352.612577 C551.998954,352.617681 550.722524,352.550449 549.453125,352.411211 Z" id="Shape" fill="#000000" fill-rule="nonzero" opacity="0.1"></path>
                        <path d="M567.734375,362.743556 C567.734375,362.743556 562.001767,362.562075 560.27888,361.291705 C558.555993,360.021334 551.483362,358.50543 551.033239,360.544428 C550.583115,362.583426 542.418805,370.686041 548.891271,370.718067 C555.363738,370.750093 563.926433,369.650529 565.64932,368.58299 C567.372207,367.515452 567.734375,362.743556 567.734375,362.743556 Z" id="Shape" fill="#9FAABB" fill-rule="nonzero"></path>
                        <path d="M548.753722,371.001986 C555.23252,371.056144 563.803593,369.91882 565.533344,368.835653 C566.843605,368.001615 567.366673,364.995828 567.542756,363.609375 L567.734375,363.609375 C567.734375,363.609375 567.371852,368.445713 565.662817,369.56679 C563.953781,370.687868 555.361993,371.77645 548.888373,371.733123 C547.018792,371.733123 546.37143,371.023649 546.407682,369.989225 C546.65109,370.601214 547.365778,371.001986 548.753722,371.001986 Z" id="Shape" fill="#000000" fill-rule="nonzero" opacity="0.2"></path>
                        <path d="M393.611042,174.037496 C390.120265,172.838403 386.601336,171.727478 383.054255,170.704722 C383.638397,168.310061 384.182072,165.903057 384.685279,163.48371 C392.676766,124.596047 387.451157,93.2679644 369.604909,82.9575231 C352.492357,73.0650012 324.506315,83.3807326 296.23524,108.027396 C293.448248,110.467904 290.726356,112.971893 288.069565,115.539364 C286.285468,113.828892 284.47322,112.151925 282.63282,110.508461 C253.015754,84.1477998 223.345904,73.0438407 205.494378,83.3860228 C188.397661,93.3049953 183.325125,122.755086 190.530132,159.611343 C191.233918,163.261525 192.041512,166.890546 192.952915,170.498407 C188.756592,171.693974 184.697507,172.968892 180.81261,174.328453 C146.086059,186.437535 123.90625,205.481962 123.90625,225.208814 C123.90625,245.581061 147.717083,266.01679 183.889913,278.406248 C186.8247,279.404317 189.7806,280.331851 192.757614,281.18885 C191.793428,285.068271 190.934809,288.979432 190.181758,292.922333 C183.319847,329.138486 188.682695,357.895571 205.731905,367.751062 C223.345904,377.939831 252.904908,367.465396 281.682709,342.25269 C283.957696,340.258315 286.237962,338.142268 288.54462,335.930998 C291.423104,338.713601 294.377245,341.415088 297.407043,344.03546 C325.287517,368.07905 352.830174,377.791707 369.858272,367.904476 C387.451157,357.699837 393.167657,326.805544 385.746236,289.224541 C385.183207,286.353769 384.526927,283.424807 383.777395,280.437653 C385.857082,279.824 387.891023,279.187422 389.879218,278.527921 C427.482493,266.04324 451.953125,245.856148 451.953125,225.208814 C451.953125,205.4079 429.055454,186.262961 393.626877,174.037496 L393.611042,174.037496 Z" id="Shape" fill="url(#linearGradient-2)" fill-rule="nonzero"></path>
                        <path d="M385.335945,265.144378 C383.543644,265.741261 381.709172,266.311733 379.832528,266.871641 C375.253789,252.647343 369.711125,238.752911 363.243206,225.285287 C369.464606,211.99724 374.791901,198.307039 379.189408,184.306379 C382.536793,185.278295 385.794563,186.303031 388.925817,187.385872 C419.242052,197.839243 437.734375,213.300092 437.734375,225.216619 C437.734375,237.893775 417.760768,254.37936 385.335945,265.144378 Z M371.883148,291.861485 C375.162004,308.452713 375.625893,323.454015 373.46459,335.175102 C371.514145,345.712988 367.59217,352.738245 362.742416,355.55363 C352.415603,361.538305 330.338679,353.7577 306.52744,333.225989 C303.796818,330.870151 301.050381,328.36113 298.28813,325.698928 C308.21534,314.686007 317.389231,303.014092 325.747227,290.762798 C340.676776,289.495337 355.501715,287.200997 370.117205,283.896005 C370.784925,286.600465 371.377087,289.241539 371.893691,291.819228 L371.883148,291.861485 Z M235.815917,354.528894 C225.726319,358.099626 217.692596,358.199987 212.837571,355.395166 C202.505486,349.421056 198.209236,326.34335 204.071113,295.442782 C204.773976,291.791056 205.569968,288.158699 206.45909,284.545709 C221.014145,287.677184 235.764053,289.817826 250.607667,290.952955 C259.21014,303.161505 268.604862,314.789735 278.730969,325.762313 C276.696181,327.737837 274.615707,329.658778 272.489546,331.525137 C259.780028,342.659906 247.03888,350.540872 235.815917,354.528894 Z M188.562443,265.065146 C172.584612,259.59284 159.395389,252.483069 150.349543,244.728875 C142.226205,237.756439 138.125,230.831542 138.125,225.216619 C138.125,213.263117 155.910946,198.013554 185.568247,187.655261 C189.29342,186.355853 193.05198,185.170891 196.843925,184.100375 C201.249094,198.255878 206.583149,212.10416 212.811213,225.554676 C206.505605,239.198044 201.106404,253.24393 196.648881,267.600577 C193.928801,266.822341 191.233322,265.977197 188.562443,265.065146 Z M204.403216,157.024083 C198.246137,125.494939 202.331527,101.709425 212.62144,95.7511613 C223.58083,89.4125832 247.813787,98.4556213 273.359339,121.184706 C274.993496,122.637297 276.632923,124.158555 278.272351,125.727353 C268.218614,136.632991 258.897538,148.194559 250.37045,160.33599 C235.666901,161.657228 221.064217,163.931553 206.654134,167.144679 C205.814213,163.792276 205.063907,160.420504 204.403216,157.029365 L204.403216,157.024083 Z M345.736648,191.986623 C342.535107,186.443889 339.215837,180.971583 335.778838,175.569706 C346.232166,176.895525 356.242691,178.649198 365.646997,180.804315 C362.629101,190.396766 359.129658,199.830373 355.16204,209.069091 C352.136215,203.311549 348.994418,197.617393 345.736648,191.986623 Z M288.087832,135.747589 C294.900395,143.190095 301.334473,150.971757 307.365604,159.062992 C294.464555,158.453784 281.558235,158.453784 268.646643,159.062992 C275.00931,150.653812 281.530121,142.836232 288.087832,135.752871 L288.087832,135.747589 Z M230.101641,192.081702 C226.886043,197.670215 223.802232,203.329156 220.850208,209.058527 C216.77536,199.376349 213.290917,189.852635 210.444323,180.656415 C219.790642,178.543555 229.758995,176.847986 240.143795,175.543295 C236.657595,180.980386 233.306696,186.493189 230.091098,192.081702 L230.101641,192.081702 Z M240.438997,275.882986 C230.302758,274.78037 220.229754,273.15661 210.259821,271.018127 C213.153859,261.663443 216.717374,251.933725 220.881837,242.040261 C223.844404,247.776674 226.938758,253.439138 230.164899,259.027651 C233.447269,264.728849 236.868454,270.347295 240.428455,275.882986 L240.438997,275.882986 Z M288.483192,315.67341 C281.841137,308.521381 275.22544,300.598158 268.773159,292.035796 C275.04621,292.285818 281.435234,292.410828 287.94023,292.410828 C294.617428,292.410828 301.208525,292.262928 307.713521,291.967128 C301.708864,300.193854 295.286793,308.106356 288.472649,315.67341 L288.483192,315.67341 Z M355.267469,241.538457 C359.440676,250.964373 363.121624,260.601474 366.295388,270.41068 C356.20202,272.686386 345.996493,274.430129 335.720851,275.634725 C339.182451,270.130726 342.535107,264.561581 345.77882,258.92729 C349.075247,253.201441 352.23813,247.405163 355.267469,241.538457 Z M333.654434,251.923161 C328.692222,260.557713 323.454136,269.026757 317.940177,277.330295 C308.219583,278.027538 298.177429,278.386724 287.94023,278.386724 C277.703032,278.386724 267.829565,278.069796 258.277658,277.446502 C252.623126,269.171136 247.283125,260.689767 242.257655,252.002393 C237.232185,243.31502 232.573961,234.497353 228.282983,225.549394 C232.595047,216.559177 237.239214,207.73799 242.215483,199.08583 C247.184724,190.437193 252.479039,181.985755 258.098428,173.731518 C267.84538,172.992017 277.829547,172.606421 287.929687,172.606421 C298.029828,172.606421 308.077253,172.9973 317.813662,173.7368 C323.369793,181.966387 328.641265,190.384371 333.628077,198.990752 C338.614889,207.597132 343.322314,216.377824 347.75035,225.332826 C343.375029,234.354735 338.681661,243.211138 333.670249,251.902032 L333.654434,251.923161 Z M362.526286,95.3285894 C373.496219,101.667167 377.76084,127.232766 370.871026,160.758562 C370.417679,162.938328 369.925675,165.112813 369.395014,167.282015 C354.963614,164.003763 340.33137,161.686872 325.594354,160.346554 C317.149347,148.19421 307.898118,136.62484 297.903312,125.716789 C300.363332,123.343344 302.87431,121.035045 305.436246,118.791893 C329.621758,97.700274 352.22583,89.3756082 362.526286,95.3285894 Z" id="Shape" fill="#FFFFFF" fill-rule="nonzero"></path>
                        <path d="M288.43707,196.03125 C300.349573,196.03125 311.089094,203.207169 315.647811,214.212887 C320.206529,225.218604 317.686681,237.886733 309.26327,246.310145 C300.839858,254.733556 288.171729,257.253404 277.166012,252.694686 C266.160294,248.135969 258.984375,237.396448 258.984375,225.483945 C258.982968,217.672173 262.085558,210.179947 267.609315,204.65619 C273.133072,199.132433 280.625298,196.029843 288.43707,196.03125" id="Shape" fill="url(#linearGradient-3)" fill-rule="nonzero"></path>
                        <path d="M238.348987,155.40625 C238.348987,155.40625 236.352012,164.744972 230.372977,165.679369 C224.393943,166.613766 220.390625,165.679369 220.390625,165.679369 L234.570237,174.703125 L242.133052,173.768728 C242.133052,173.768728 242.945378,165.054687 245.7916,160.20818 C248.637821,155.361673 238.348987,155.40625 238.348987,155.40625 Z" id="Shape" fill="#FBCBAB" fill-rule="nonzero"></path>
                        <path d="M340.557263,155.40625 C340.557263,155.40625 339.550727,164.430006 346.91263,165.054688 C352.914333,167.839012 358.515625,165.679369 358.515625,165.679369 L344.336013,174.703125 L336.773198,173.768728 C336.773198,173.768728 335.827182,164.12029 332.675567,161.94178 C329.523951,159.76327 340.557263,155.40625 340.557263,155.40625 Z" id="Shape" fill="#FBCBAB" fill-rule="nonzero"></path>
                        <path d="M271.232925,94.46875 C271.232925,94.46875 267.484662,96.3470636 266.235242,100.103691 C266.235242,100.103691 259.381879,102.293298 255.607258,108.234256 C255.607258,108.234256 250.915341,113.241334 250.293267,115.742234 C249.671192,118.243135 242.501521,133.259091 242.501521,133.259091 C242.501521,133.259091 236.382787,158.833398 235.063631,162.832719 C236.089305,162.832719 238.905251,159.599062 243.208617,167.54568 C243.208617,167.54568 243.208617,166.016605 248.882221,155.824598 C254.555825,145.63259 258.629969,131.007215 258.629969,131.007215 C258.629969,131.007215 262.491306,122.311056 266.878404,122.311056 C271.265501,122.311056 272.503432,113.552627 275.62962,115.452045 C278.755808,117.351464 299.384428,115.135476 299.384428,115.135476 C299.384428,115.135476 310.302362,117.604719 311.962864,120.749827 C313.623367,123.894935 317.267638,126.38383 317.578675,129.512594 C317.889713,132.641358 327.297552,151.615511 328.935412,154.881638 C330.573272,158.147766 335.079852,165.962832 335.707198,167.54568 C335.707198,167.54568 335.558176,162.391306 344.077807,164.011102 C344.077807,164.011102 339.467986,150.245158 336.658107,146.477978 C333.848228,142.710799 327.182721,117.604719 327.182721,117.604719 C327.182721,117.604719 325.9333,113.225505 324.683879,111.975055 C323.434459,110.724604 313.739587,100.710449 310.302362,100.710449 C310.302362,100.710449 308.430867,96.0199416 306.243063,95.3920783 L271.232925,94.46875 Z" id="Shape" fill="#3F3D56" fill-rule="nonzero"></path>
                        <path d="M214.088115,168.913968 C216.602708,169.902406 222.484825,162.91661 224.907883,163.663293 C227.322002,164.407223 229.57903,164.860246 232.321019,164.860246 C235.063008,164.860246 242.284466,162.642695 243.504894,164.860246 C245.716588,168.883145 216.650138,178.78125 216.650138,178.78125 C216.650138,178.78125 213.768352,174.794392 214.088115,168.913968 Z" id="Shape" fill="#3F3D56" fill-rule="nonzero" transform="translate(228.844172, 171.194277) scale(-1, 1) translate(-228.844172, -171.194277) "></path>
                        <path d="M336.088115,169.913968 C338.602708,170.902406 344.484825,163.91661 346.907883,164.663293 C349.322002,165.407223 351.57903,165.860246 354.321019,165.860246 C357.063008,165.860246 364.284466,163.642695 365.504894,165.860246 C367.716588,169.883145 338.650138,179.78125 338.650138,179.78125 C338.650138,179.78125 335.768352,175.794392 336.088115,169.913968 Z" id="Shape" fill="#3F3D56" fill-rule="nonzero"></path>
                        <g id="Face" transform="translate(275.000000, 14.000000)">
                            <path d="M17.6619533,25.8888889 L5.56026892,25.8888889 L5.56026892,31.7779679 C3.72263887,32.0925802 2.44444444,32.7237074 2.44444444,34.0513402 C2.44444444,36.6412274 5.93013238,39.3333333 11.6111111,39.3333333 C17.4966147,39.3333333 20.7777778,36.6412274 20.7777778,34.0513402 C20.7777778,32.7237074 19.4995834,32.0925802 17.6619533,31.7781408 L17.6619533,25.8888889 Z" id="Fill-137" fill="#FBCBAB" fill-rule="nonzero"></path>
                            <path d="M3.66666667,18.9255183 C3.66666667,17.1047063 2.8917293,14.8888889 1.93567248,14.8888889 C0.979782801,14.8888889 0,15.2394886 0,17.0601284 C0,17.9370578 0.302589813,19.9007258 0.595655806,20.7618206 C0.911111094,21.6890078 1.44010023,22.2222222 1.93567248,22.2222222 C2.8917293,22.2222222 3.66666667,20.7461581 3.66666667,18.9255183" id="Fill-139" fill="#FBCBAB" fill-rule="nonzero"></path>
                            <path d="M18.3333333,18.9255183 C18.3333333,17.1047063 19.1082707,14.8888889 20.0641604,14.8888889 C21.0202172,14.8888889 22,15.2394886 22,17.0601284 C22,17.9370578 21.6974102,19.9007258 21.4043442,20.7618206 C21.0888889,21.6890078 20.5598997,22.2222222 20.0641604,22.2222222 C19.1082707,22.2222222 18.3333333,20.7461581 18.3333333,18.9255183" id="Fill-141" fill="#ECA182" fill-rule="nonzero"></path>
                            <path d="M17.7111112,27.1111111 L17.7111112,30.4772906 C17.4566623,30.7169201 17.1909317,30.941829 16.9116628,31.1522036 C15.8461366,31.9575525 15.0959812,32.4750105 14.3977223,32.7893612 C13.697207,33.1061342 13.0506708,33.2222222 12.1946398,33.2222222 C10.482751,33.2222222 9.60658618,32.7602926 7.48004656,31.1522036 C6.72989117,30.5838754 6.06547767,29.9139936 5.488889,29.1401357 L5.488889,27.1137199 C5.91221824,27.5877614 6.3785921,28.0155914 6.88315054,28.3977687 C9.01194654,30.0082802 9.8881114,30.4702098 11.6000001,30.4702098 C12.4560312,30.4702098 13.1023938,30.3541218 13.8030826,30.0373488 C14.5013416,29.7205757 15.2513234,29.2031176 16.3168496,28.3977687 C16.8215817,28.0155914 17.2877819,27.5877614 17.7111112,27.1111111" id="Fill-143" fill="#ECA182" fill-rule="nonzero"></path>
                            <path d="M11.6111111,3.88888889 L11.6111111,3.88906109 L11.6111111,3.88888889 C4.40944636,3.88888889 2.44444444,10.1787539 2.44444444,17.9376776 C2.44444444,23.0837743 4.03167248,26.7496191 6.99336515,28.8644369 C9.07698431,30.3522656 9.93517508,30.7777778 11.6111111,30.7777778 L11.6111111,30.7776056 L11.6111111,30.7777778 C13.2872171,30.7777778 14.1452379,30.3522656 16.2288571,28.8644369 C19.1905498,26.7496191 20.7777778,23.0837743 20.7777778,17.9376776 C20.7777778,10.1787539 18.8127759,3.88888889 11.6111111,3.88888889" id="Fill-145" fill="#FBCBAB" fill-rule="nonzero"></path>
                            <path d="M11.3741172,4.088889 C11.2465059,4.088889 11.1242989,4.09526049 11,4.09904894 C17.5374627,4.3110301 19.3388387,10.5127275 19.3388387,18.1376777 C19.3388387,23.2837744 17.8350479,26.9496192 15.0293433,29.064437 C13.2040838,30.440162 12.3704265,30.9066583 11,30.9695121 C11.1209866,30.974506 11.2445883,30.9777779 11.3741172,30.9777779 C13.093557,30.9777779 13.973761,30.5522657 16.1112498,29.064437 C19.1495138,26.9496192 20.7777778,23.2837744 20.7777778,18.1376777 C20.7777778,10.3787541 18.761973,4.088889 11.3741172,4.088889" id="Fill-147" fill="#ECA182" fill-rule="nonzero"></path>
                            <path d="M19.0671297,12.6627613 C18.905952,12.0172142 18.5595844,11.2609421 18.2612411,10.6568297 C18.0303294,10.1933867 17.8903773,10.0428401 17.4612711,9.4257984 C16.9363134,8.67092498 13.7478314,9.23429303 12.8694815,9.09599461 C11.9911315,8.95769625 11.4592851,9.23429303 10.5228097,8.97384574 C9.75622875,8.7593597 9.03604926,8.94390123 8.27588253,8.97384574 C7.29368529,9.01545463 6.70279855,8.51639251 5.67701752,8.64539746 C4.83609752,8.7491586 4.57629015,10.0133717 4.1450575,10.6568297 C3.79638732,11.1801616 3.53354531,11.8810713 3.4355229,12.4827463 C3.34407923,13.0429866 3.47466608,13.5201831 3.31562643,14.0990516 C3.18059897,14.5807746 3.15000809,15.0673723 3.11744365,15.5675496 C3.05659086,16.4643169 3.07385986,17.2090987 2.74936639,18.0738325 C2.6360486,18.3757146 2.53375004,18.5209105 2.44444444,18.5555556 C2.54674295,18.4657221 2.65134404,18.2836179 2.74936639,17.9792985 C3.07385986,16.9831224 2.79295011,15.8004897 2.85182934,14.7653161 C2.8845583,14.1913224 2.91482021,13.6286447 3.05001218,13.0731051 C3.21118985,12.4068406 3.07813602,11.8533901 3.16990865,11.2102802 C3.26990462,10.5161603 3.94948245,9.57552079 4.29798818,8.97384574 C4.72922076,8.22923805 5.26488999,7.6940676 6.10581006,7.57428972 C7.13159109,7.42665647 7.90705325,8.20155684 8.88925049,8.15298411 C9.64941721,8.11607576 10.0544996,7.86032908 10.8210805,8.10702278 C11.7575559,8.40890488 16.2879654,8.30061729 17.1568449,8.45974084 C17.7166908,8.56350197 18.0303294,8.89097613 18.2612411,9.4257984 C18.5595844,10.1242707 18.905952,10.9956201 19.0671297,11.7404019 C19.232748,12.5081643 19.6465472,13.5525649 19.5375055,14.3295544 C19.5353674,14.3410448 19.5332293,14.3527091 19.5309268,14.3641994 C19.452476,13.7947321 19.1911379,13.1606753 19.0671297,12.6627613 Z" id="Fill-151" fill="#ECA182" fill-rule="nonzero"></path>
                            <g id="Rectangle-6-+-Rectangle-6-+-Rectangle-6-+-Rectangle-6-Mask">
                                <g id="Group-7" transform="translate(0.400000, 0.000000)">
                                    <mask id="mask-5" fill="white">
                                        <use xlink:href="#path-4"></use>
                                    </mask>
                                    <use id="Mask" fill="#8F6B02" fill-rule="nonzero" xlink:href="#path-4"></use>
                                    <g mask="url(#mask-5)" fill="#D4A20B" fill-rule="nonzero" id="Rectangle-6">
                                        <g transform="translate(7.000000, -3.000000)">
                                            <path d="M8.84298426,3.06612195 L9.19989512,3.06612195 C10.5482013,5.26214229 11.3044478,7.22499774 11.4686344,8.9546883 C11.6328212,10.6843789 11.5394774,12.8357633 11.1886033,15.4088414 C11.411014,13.4491474 11.411014,11.297763 11.1886033,8.9546883 C10.9661926,6.61161354 10.1843195,4.6487581 8.84298426,3.06612195 Z" transform="translate(10.195063, 9.237482) scale(-1, 1) rotate(-34.000000) translate(-10.195063, -9.237482) "></path>
                                            <path d="M6.66728358,0.00580286511 L7.09441288,0.00580286511 C8.70798374,3.02965762 9.61301348,5.73245125 9.80950211,8.11418375 C10.0059908,10.4959162 9.89428272,13.4583086 9.47437785,17.0013608 C9.74054547,14.3029204 9.74054547,11.340528 9.47437785,8.11418375 C9.20821023,4.88783944 8.27251216,2.18504581 6.66728358,0.00580286511 Z" transform="translate(8.285369, 8.503582) scale(-1, 1) rotate(-23.500000) translate(-8.285369, -8.503582) "></path>
                                            <path d="M4.68326925,0.124777315 L5.11266884,0.124777315 C6.73481631,2.8764507 7.64465657,5.33596211 7.8421896,7.50331155 C8.0397227,9.670661 7.92742083,12.3664043 7.50528404,15.5905415 C7.77286643,13.1349914 7.77286643,10.4392482 7.50528404,7.50331155 C7.23770165,4.56737499 6.29703009,2.10786357 4.68326925,0.124777315 Z" transform="translate(6.309955, 7.857659) scale(-1, 1) rotate(-18.100000) translate(-6.309955, -7.857659) "></path>
                                            <path d="M2.09198613,1.51953954 L2.53737533,1.51953954 C4.21992692,3.96541724 5.16364703,6.15160117 5.36853559,8.07809132 C5.57342422,10.0045815 5.45694056,12.4007447 5.01908467,15.2665808 C5.29663104,13.0839181 5.29663104,10.6877549 5.01908467,8.07809132 C4.74153829,5.46842775 3.76583878,3.28224382 2.09198613,1.51953954 Z" transform="translate(3.779245, 8.393060) scale(-1, 1) rotate(-11.000000) translate(-3.779245, -8.393060) "></path>
                                        </g>
                                    </g>
                                </g>
                            </g>
                            <path d="M18.8127988,3.29907459 C18.6235072,3.38017294 18.0246968,2.63436463 17.5844998,2.52458307 C16.9377251,2.36443517 16.7015408,2.52902214 16.2349867,2.46311906 C15.3657174,2.3379715 14.4520117,3.37842066 13.6070456,3.08219826 C13.0128138,2.87578161 11.6248983,2.57494942 10.9714488,2.52458307 C10.3354565,2.47626553 7.10723074,2.28982469 6.00040559,2.96797763 C5.30074559,3.39600619 3.31575136,5.24214613 3.13313465,5.73607777 C2.9330606,6.27832695 2.53684907,6.3420105 2.19574771,6.74152659 C1.72936475,7.29026361 1.44286136,9.15182737 1.24484113,9.63705156 C0.881661456,10.5171821 1.61215277,11.3602057 1.73965932,12.2886538 C1.77714108,12.5628516 1.77714108,13.3854346 1.43224887,13.7666288 C1.35317771,13.775507 1.199924,12.2101305 0.973150669,11.3518539 C0.943650605,11.2398928 0.474219282,9.82835025 0.836855172,9.1396037 C1.32771252,8.21115561 1.3039122,5.84968579 1.73965932,5.20209411 C2.21716703,4.49969703 1.91808303,4.19575477 2.45275472,3.50428462 C2.92581246,2.89408355 4.80511076,1.5436749 5.41474598,1.0739874 C6.0659706,0.573397155 11.2750748,0.300903093 12.3020471,0.323526516 C13.3345066,0.34627082 14.2826569,0.934297757 14.7504541,1.0739874 C15.4501141,1.28484311 16.0380722,0.935693367 16.7136001,1.0739874 C17.4551918,1.2254279 19.0106479,3.21353717 18.8127988,3.29907459 Z" id="Fill-163" fill="#A98004" fill-rule="nonzero"></path>
                        </g>
                        <path d="M279.918554,45.9110991 C279.774647,45.4371896 277.755497,46.3557352 277.485385,46.65176 C276.334128,47.6563345 274.319428,46.7397312 273.113486,47.6620101 C272.914894,47.8124125 272.75084,48.0053816 272.537857,48.1444329 C272.330643,48.2689358 272.106886,48.364442 271.873006,48.428211 C269.532053,49.1791105 267.237204,50.0631425 265,51.0758609 C265.80588,55.8546845 266.629029,60.724317 268.517091,65.1938224 C269.415072,67.3221583 269.298292,70.0247275 270.017828,72.2183324 C271.612319,77.0794516 271.852859,81.590121 271.873006,86.7009649 C271.873006,90.1971114 272.834306,93.8412238 271.683048,97.1500767 C271.424016,97.8992509 271.10742,98.6427496 271.035466,99.4203017 C270.963513,100.197854 271.19952,101.077566 271.847103,101.542962 C272.221988,101.786767 272.651958,101.935877 273.099095,101.977143 C275.087892,102.260921 277.091079,101.744444 279.048217,101.296075 C284.295072,100.098531 289.648418,99.4117883 294.987374,98.742072 L303.938399,97.6069595 C304.580535,97.5626838 305.208884,97.4020273 305.791923,97.13305 C307.429586,96.2505001 307.585006,93.8213593 306.566144,92.2776064 C306.079737,91.5369455 305.391861,90.9296603 304.980287,90.1464327 C304.568712,89.3632051 304.537053,88.2621459 305.242198,87.7201297 C306.681269,86.6133951 306.249548,84.5616792 306.318623,82.7682015 C306.510499,77.7510043 309.107628,72.7877153 308.863946,67.7780856 C308.790681,66.7392021 309.857404,66.2345132 309.896155,65.1938224 C309.99689,63.4287225 309.452921,61.4628153 309.896155,59.7459576 L309.896155,48.8396893 C309.185254,47.7329546 307.823892,47.0291849 306.537362,46.7113534 C305.250832,46.3935219 303.906739,46.2998751 302.637478,45.9110991 C300.047149,45.1165203 293.282605,45.0257113 293.24519,45.71813 C293.158845,47.2533696 292.49562,46.7624334 291.234994,47.6620101 C290.511787,48.1780862 286.873164,49.226771 283.96936,48.428211 C281.811518,47.8347943 280.058639,46.3674422 279.918554,45.9110991 Z" id="Shape" fill="#DAE6F9" fill-rule="nonzero"></path>
                        <path d="M261.514677,54.0534213 C261.195154,54.293858 260.914131,54.5968421 260.684162,54.9488404 C260.394739,55.4592584 260.459853,56.324942 260.085184,56.6405117 C258.805003,57.7187596 258.641408,61.2333397 259.594398,67.1842519 C260.852755,67.3125855 263.691635,66.4055383 264.944959,66.5280386 C265.410551,66.5717887 265.891244,66.7584559 266.339219,66.5980388 C266.659398,66.4327388 266.959717,66.2199899 267.232653,65.9651204 C267.987667,65.4167856 268.974219,65.3526188 269.600881,64.6322001 C270.227543,63.9117815 270.280394,62.8530286 270.272844,61.8701093 C270.284133,61.0170292 270.208956,60.1653632 270.048856,59.3326023 C269.495179,56.7075952 267.761163,54.683423 266.673942,52.3559166 C266.142915,51.2213302 265.85601,50.5592451 264.736072,51.3379972 C263.616134,52.1167493 262.574214,53.1550855 261.514677,54.0534213 Z" id="Shape" fill="#DAE6F9" fill-rule="nonzero"></path>
                        <path d="M268.290607,108.65625 C268.290607,108.65625 267.066978,124.886383 274.71853,127.63874 C282.370081,130.391098 275.637542,114.16613 275.637542,114.16613 L273.185122,109.270754 L268.290607,108.65625 Z" id="Shape" fill="#FBCBAB" fill-rule="nonzero"></path>
                        <path d="M261.530372,53.7502825 L259.078125,57.7973337 C259.078125,57.7973337 261.225134,71.8019156 261.530372,74.289986 C261.795113,76.0853453 262.206973,77.8551748 262.761669,79.5810724 C262.761669,79.5810724 263.066906,87.0505327 263.066906,89.8535487 C263.066906,92.6565648 264.618961,97.323009 264.618961,97.323009 C264.835434,99.9686146 265.356329,102.579425 266.171017,105.102166 C267.39714,108.524575 268.623263,112.571626 268.623263,112.571626 C268.623263,112.571626 270.175319,108.214878 276.290415,114.75 C277.715695,113.282729 277.715695,110.926185 276.290415,109.458914 C276.290415,109.458914 274.453817,101.060364 274.453817,96.6983669 C274.453817,92.33637 271.07551,71.5027173 271.07551,71.5027173 C271.07551,71.5027173 268.881939,47.8188067 261.530372,53.7502825 Z" id="Shape" fill="#000000" fill-rule="nonzero" opacity="0.1"></path>
                        <path d="M260.513701,53.746277 L258.0625,57.7939422 C258.0625,57.7939422 260.208594,71.800649 260.513701,74.289097 C260.779162,76.0850489 261.192594,77.8552215 261.749644,79.5809862 C261.749644,79.5809862 262.054752,87.0515798 262.054752,89.8497712 C262.054752,92.6479627 263.606145,97.3203648 263.606145,97.3203648 C263.821156,99.9665693 264.341861,102.577937 265.157538,105.100702 C266.383138,108.52888 267.61391,112.571296 267.61391,112.571296 C267.61391,112.571296 269.165303,108.213887 275.277792,114.75 C276.699069,113.283138 276.699069,110.930223 275.277792,109.463361 C275.277792,109.463361 273.436806,101.063536 273.436806,96.7008778 C273.436806,92.3382191 270.065111,71.5014053 270.065111,71.5014053 C270.065111,71.5014053 267.872476,47.8296508 260.513701,53.746277 Z" id="Shape" fill="#DAE6F9" fill-rule="nonzero"></path>
                        <path d="M313.40345,49.9213341 C314.232648,50.4431155 314.15066,52.4266038 314.794362,53.1538389 C315.464717,53.9923969 315.845667,55.022707 316.492397,55.8812988 C317.139126,56.7398906 316.655129,57.0250948 317.363874,57.7921035 C318.441756,58.9540644 317.242094,61.1697437 317.956745,62.5749722 C316.207282,64.7809754 317.543735,66.3968741 315.494248,68.3451896 C315.265641,68.6057359 314.964103,68.7965821 314.626035,68.8946883 C314.160481,68.9431755 313.700997,68.7613963 313.40345,68.4110149 C313.084515,68.090474 312.860079,67.6897978 312.55591,67.354947 C311.83931,66.6386852 310.88411,66.1915394 309.859726,66.0928171 C308.843866,65.9969156 307.821565,65.9825569 306.803264,66.0498875 C306.579752,66.0755697 306.353321,66.0388303 306.150628,65.9439945 C305.999836,65.8436203 305.877884,65.7077035 305.796256,65.5490423 C304.615014,63.5800052 304.984152,61.1072608 305.406446,58.8577503 L306.372111,53.7061996 C306.513047,52.7226415 306.784005,51.7607504 307.178308,50.844227 C307.544493,50.0858042 308.359549,48.7979166 309.369511,49.0268744 C310.379472,49.2558322 312.550003,49.3260438 313.40345,49.9213341 Z" id="Shape" fill="#DAE6F9" fill-rule="nonzero"></path>
                        <path d="M307.553143,109.65625 C307.553143,109.65625 308.776772,125.886383 301.12522,128.63874 C293.473669,131.391098 300.206208,115.16613 300.206208,115.16613 L302.658628,110.270754 L307.553143,109.65625 Z" id="Shape" fill="#FBCBAB" fill-rule="nonzero"></path>
                        <path d="M314.786456,51.5332331 L316.353933,53.3989481 C316.353933,53.3989481 318.177431,64.0647069 314.149015,77.5422515 L312.910708,89.7618919 C312.910708,89.7618919 310.742365,100.105247 310.434095,102.610484 C310.125824,105.115722 310.125824,105.427556 309.504058,106.368341 C309.114172,106.823298 309.114172,107.498978 309.504058,107.953934 L307.643986,114.82484 C307.643986,114.82484 305.475642,110.438031 299.900649,114.82484 C300.825461,113.884054 298.646668,112.832404 299.900649,110.639 C301.154631,108.445596 300.20892,107.932793 299.900649,107.303841 C299.592379,106.674889 301.138956,103.545985 301.138956,102.917032 C301.138956,102.28808 303.322974,87.8856063 303.322974,87.8856063 C303.322974,87.8856063 304.25301,73.7843949 305.183047,69.0857529 C305.752563,66.1946875 305.742113,59.7518926 305.64284,55.2170953 C305.543566,50.4920267 311.196933,47.9339359 314.52521,51.2531115 C314.603584,51.3376765 314.697632,51.4169562 314.786456,51.5332331 Z" id="Shape" fill="#000000" fill-rule="nonzero" opacity="0.1"></path>
                        <path d="M315.800743,50.189034 L317.36928,52.0636759 C317.36928,52.0636759 319.194011,62.7857776 315.162871,76.3224973 L313.923727,88.6006049 C313.923727,88.6006049 311.753918,98.9934494 311.445439,101.510674 C311.13696,104.027898 311.131732,104.346534 310.514774,105.291821 C310.122355,105.748092 310.122355,106.42873 310.514774,106.885001 L308.663901,113.810024 C308.663901,113.810024 305.877134,110.342202 300.298372,114.75 C300.298372,114.75 298.729835,112.232776 299.989893,110.028876 C301.249951,107.824977 301.229037,106.879691 300.920558,106.25304 C300.612079,105.626389 302.159702,102.471892 302.159702,101.845242 C302.159702,101.218591 304.329511,86.7312736 304.329511,86.7312736 C304.329511,86.7312736 305.260176,72.5625924 306.190841,67.8361583 C307.121506,63.1097242 306.49932,48.9463536 306.49932,48.9463536 C306.49932,48.9463536 311.461125,45.4838423 315.800743,50.189034 Z" id="Shape" fill="#DAE6F9" fill-rule="nonzero"></path>
                        <path d="M436.169942,355.484375 C438.63915,350.827278 435.836546,345.119948 432.617199,340.966751 C429.397851,336.813554 425.464829,332.480014 425.548178,327.175804 C425.667992,319.564262 433.596547,315.0769 439.936266,311.040396 C444.635618,308.048036 448.97042,304.499564 452.850122,300.469105 C454.412912,298.851321 455.907982,297.122148 456.819609,295.053506 C458.132353,292.083148 458.095888,288.688453 458.012539,285.442277 C457.738183,274.58279 457.217253,263.737448 456.449749,252.90625" id="Shape" stroke="#373C45" stroke-width="4"></path>
                        <path d="M469.211221,251.8602 C469.029819,247.886264 466.832686,244.279727 463.384458,242.295719 L460.773901,247.464298 L460.852218,241.199354 C455.979487,239.757968 450.733885,241.632313 447.878202,245.835196 C445.022519,250.038079 445.212123,255.604956 448.347151,259.603826 C451.482179,263.602695 456.843156,265.115834 461.606525,263.346292 C466.369895,261.576749 469.442484,256.930628 469.206,251.854979 L469.211221,251.8602 Z" id="Shape" fill="url(#linearGradient-1)" fill-rule="nonzero"></path>
                        <path d="M447.625764,331.879566 C445.098606,336.790811 439.474543,339.261671 434.144893,337.802213 C428.815243,336.342755 425.237087,331.351983 425.568058,325.83934 C425.89903,320.326697 430.048644,315.799294 435.514678,314.98716 C440.980711,314.175026 446.268796,317.300193 448.19021,322.478181 L440.873312,328.416722 L448.906221,326.552114 C448.910377,328.404538 448.471357,330.231117 447.625764,331.879566 Z" id="Shape" fill="url(#linearGradient-1)" fill-rule="nonzero"></path>
                        <path d="M441.767115,308.739509 C435.861984,308.99023 430.703228,304.775778 429.760046,298.930321 C428.816865,293.084863 432.387485,287.456697 438.07071,285.830695 L438.008148,290.646456 L440.646202,285.423288 L440.677484,285.423288 C444.858053,285.197237 448.838816,287.23348 451.107673,290.758547 C453.376529,294.283614 453.58533,298.756593 451.654762,302.478416 C449.724193,306.200238 445.950496,308.599801 441.767115,308.765625 L441.767115,308.739509 Z" id="Shape" fill="url(#linearGradient-1)" fill-rule="nonzero"></path>
                        <path d="M471.303685,289.455881 C466.34449,289.687801 461.779246,286.766817 459.916934,282.170286 C458.054623,277.573755 459.301241,272.303756 463.026282,269.025717 C466.751324,265.747677 472.142701,265.176235 476.473597,267.60041 L474.382632,273.254847 L478.632519,269.182399 C482.11169,272.370062 483.330346,277.334662 481.721931,281.768149 C480.113516,286.201636 475.993604,289.234154 471.277548,289.455881 L471.303685,289.455881 Z" id="Shape" fill="url(#linearGradient-1)" fill-rule="nonzero"></path>
                        <path d="M467.88291,254.820633 C465.153149,255.123328 462.502589,255.978308 459.767548,256.148241 C457.032508,256.318175 454.028188,255.659682 452.301627,253.493025 C451.367067,252.340661 450.902427,250.885602 450.115707,249.62703 C449.368512,248.458533 448.347828,247.492139 447.143066,246.8125 C445.063842,250.923847 445.538877,255.874069 448.361508,259.509585 C451.184138,263.1451 455.844037,264.808613 460.313926,263.776416 C464.783816,262.744219 468.255546,259.202932 469.21875,254.693183 C468.76995,254.740977 468.32643,254.772839 467.88291,254.820633 Z" id="Shape" fill="#000000" fill-rule="nonzero" opacity="0.1"></path>
                        <path d="M471.447172,290.471623 C467.29985,290.666062 463.3558,288.62609 461.052362,285.09514 C458.748924,281.564189 458.422539,277.057991 460.19215,273.21875 C461.134065,273.864376 461.942729,274.692876 462.572207,275.657185 C463.41316,276.9548 463.926194,278.457871 464.91524,279.652758 C466.755816,281.86411 469.908069,282.588612 472.764136,282.45885 C475.620203,282.329089 478.370491,281.496452 481.226558,281.226116 C481.623234,281.193676 482.01991,281.166642 482.421875,281.155829 C481.212047,286.419839 476.731209,290.223365 471.447172,290.471623 Z" id="Shape" fill="#000000" fill-rule="nonzero" opacity="0.1"></path>
                        <path d="M442.109755,308.753008 C437.966318,308.94005 434.019145,307.037206 431.683222,303.726612 C429.3473,300.416017 428.957222,296.171873 430.652822,292.515625 C431.637622,293.140017 432.493866,293.93554 433.178046,294.86177 C434.106986,296.125078 434.68357,297.579172 435.772673,298.749666 C437.785377,300.915338 441.170137,301.67848 444.223896,301.606291 C447.181557,301.544414 450.027105,300.843149 452.96875,300.626582 C451.487102,305.277089 447.142197,308.528638 442.109755,308.753008 Z" id="Shape" fill="#000000" fill-rule="nonzero" opacity="0.1"></path>
                        <path d="M447.890625,331.684186 C445.049444,337.356364 438.279452,339.775491 432.522154,337.175814 C426.764857,334.576137 424.056797,327.877246 426.374623,321.96875 C427.347807,322.610869 428.220858,323.39496 428.965196,324.295355 C430.089009,325.671133 430.827665,327.232827 432.130866,328.512991 C434.542051,330.898027 438.435825,331.880725 441.902233,331.971027 C443.902214,331.993184 445.901767,331.897406 447.890625,331.684186 Z" id="Shape" fill="#000000" fill-rule="nonzero" opacity="0.1"></path>
                        <path d="M418.4375,349.249593 C418.4375,349.249593 427.711374,348.970054 430.522435,347.008104 C433.333496,345.046154 444.793167,342.706308 445.486738,345.848534 C446.180308,348.990761 459.426448,361.492369 448.954588,361.575196 C438.482729,361.658022 424.621834,359.970434 421.83179,358.2932 C419.041747,356.615965 418.4375,349.249593 418.4375,349.249593 Z" id="Shape" fill="#9FAABB" fill-rule="nonzero"></path>
                        <path d="M449.139285,360.505694 C438.661775,360.587573 424.7934,358.914171 422.001851,357.26124 C419.898989,355.997233 419.031559,351.478538 418.747672,349.390625 L418.4375,349.390625 C418.4375,349.390625 419.026301,356.677852 421.817851,358.330784 C424.6094,359.983715 438.477775,361.657116 448.955284,361.575237 C451.978148,361.575237 453.024322,360.505694 452.966494,358.955111 C452.545921,359.881367 451.394604,360.464754 449.139285,360.505694 Z" id="Shape" fill="#000000" fill-rule="nonzero" opacity="0.2"></path>
                        <path d="M170.121781,21.2874857 L160.530498,27.4143324 L166.353589,16.7439815 C164.71044,15.42013 162.6762,14.6859618 160.572542,14.6575705 L160.414877,14.6575705 C159.74965,14.6669519 159.084894,14.6173363 158.428299,14.5092976 L155.175146,16.5851177 L156.567853,14.0327063 C154.26576,13.2221685 152.275934,11.7008476 150.881404,9.68513402 L145.063568,13.3919557 L148.742416,6.65613119 C145.336854,2.54155917 140.75406,0.015625 135.703527,0.015625 C129.654449,0.015625 124.267564,3.64301475 120.788424,9.29327001 C118.69386,12.7321776 114.931624,14.7771315 110.929111,14.652275 L110.60327,14.652275 C103.923532,14.652275 98.515625,22.2830321 98.515625,31.6983591 C98.515625,41.113686 103.928788,48.7391477 110.60327,48.7391477 C112.069233,48.7348553 113.512166,48.3713792 114.807668,47.6800558 C119.164475,45.3977128 124.882457,45.3553491 129.444229,47.394101 C133.399848,49.1868169 137.92615,49.1964468 141.889247,47.4205783 C146.419486,45.4241901 152.069147,45.4665537 156.399677,47.7065331 C157.68439,48.3914655 159.113859,48.7547285 160.567286,48.765625 C167.247024,48.765625 172.654931,41.1348679 172.654931,31.7248364 C172.694951,28.0864499 171.823704,24.4966481 170.121781,21.2874857 Z" id="Shape" fill="#F2F6FD" fill-rule="nonzero"></path>
                        <path d="M152.34375,46.3151557 C148.835903,45.6483419 145.208847,46.0418201 141.925744,47.4453447 C137.943441,49.2148756 133.395756,49.2052722 129.420967,47.4189384 C124.830071,45.3856545 119.082206,45.4279046 114.702628,47.7041263 C113.400356,48.3935954 111.949882,48.7560967 110.476257,48.7603776 C104.51179,48.7603776 99.551086,42.7503074 98.515625,34.8284222 C99.7071461,33.9607276 100.719025,32.8702606 101.495217,31.6174181 C105.013671,25.9875984 110.407578,22.359375 116.48827,22.359375 C122.568962,22.359375 127.920605,25.9347858 131.417928,31.5065117 C133.540587,34.9304195 137.299568,36.9955884 141.328769,36.9514875 L141.466126,36.9514875 C146.220794,36.9567687 150.341506,40.7645549 152.34375,46.3151557 Z" id="Shape" fill="#DAE6F9" fill-rule="nonzero" opacity="0.4"></path>
                        <path d="M423.224004,34.0320758 L418.384686,37.1035706 L421.335229,31.780356 C420.50181,31.1081077 419.466938,30.73334 418.395357,30.715713 L418.320659,30.715713 C417.982981,30.7204283 417.645542,30.6954905 417.312246,30.641188 L415.663569,31.705831 L416.357187,30.3963202 C415.19115,29.9910383 414.182933,29.2291689 413.476005,28.2191254 L410.530797,30.0822505 L412.392894,26.7073324 C410.805958,24.6642243 408.382764,23.4407644 405.792854,23.375 C402.724928,23.375 399.998477,25.1955394 398.237754,28.0274896 C397.172411,29.7445187 395.266501,30.760284 393.243706,30.689097 L393.078304,30.689097 C389.695583,30.689097 386.953125,34.5164883 386.953125,39.2062404 C386.953125,43.8959926 389.695583,47.75 393.078304,47.75 C393.822394,47.7474174 394.554745,47.5647519 395.212513,47.2176785 C397.542319,46.0882776 400.251515,46.0357365 402.623553,47.0739517 C404.629102,47.9646722 406.919257,47.9646722 408.924805,47.0739517 C411.278852,46.0567689 413.959548,46.1092103 416.271819,47.2176785 C416.92951,47.5649517 417.661912,47.7476297 418.406028,47.75 C421.788749,47.75 424.531207,43.9279319 424.531207,39.2062404 C424.536302,37.3995592 424.086839,35.6204934 423.224004,34.0320758 Z" id="Shape" fill="#F2F6FD" fill-rule="nonzero"></path>
                        <path d="M413.359375,46.508227 C411.640005,46.176451 409.86292,46.3740859 408.253682,47.0760463 C406.301333,47.9640071 404.071927,47.9640071 402.119579,47.0760463 C399.8087,46.0408529 397.16972,46.0932262 394.899931,47.2193278 C394.260139,47.5667301 393.546868,47.7489179 392.822335,47.75 C389.892924,47.75 387.462136,44.7410885 386.953125,40.7716602 C387.535664,40.3405832 388.032716,39.8003272 388.41783,39.1796435 C390.131847,36.3564673 392.791171,34.546875 395.772522,34.546875 C398.753872,34.546875 401.376838,36.3352404 403.090855,39.1265763 C404.131001,40.8440165 405.975836,41.8790868 407.95243,41.8542316 L408.03034,41.8542316 C410.362442,41.8170845 412.362129,43.7275045 413.359375,46.508227 Z" id="Shape" fill="#DAE6F9" fill-rule="nonzero" opacity="0.4"></path>
                        <path d="M107.67638,113.31929 L115.44473,118.180175 L110.739209,109.720769 C112.073484,108.670903 113.723566,108.090345 115.428833,108.070792 L115.55071,108.070792 C116.083008,108.078669 116.614972,108.040107 117.140413,107.955555 L119.763424,109.600294 L118.624136,107.578418 C120.482385,106.932523 122.089104,105.727156 123.218378,104.131799 L127.918601,107.075567 L124.982949,101.738023 C127.733135,98.4799725 131.437144,96.5 135.512083,96.5 C140.40307,96.5 144.753557,99.3704363 147.567332,103.833232 C149.254874,106.555347 152.287527,108.17613 155.515848,108.081268 L155.780798,108.081268 C161.175191,108.081268 165.546875,114.125946 165.546875,121.58489 C165.546875,129.043834 161.175191,135.09375 155.780798,135.09375 C154.592758,135.089191 153.423569,134.799809 152.373535,134.250428 C148.656887,132.465439 144.334912,132.383097 140.551442,134.025193 C137.348124,135.440554 133.68664,135.440554 130.483322,134.025193 C126.727882,132.417158 122.451291,132.499335 118.761911,134.250428 C117.722436,134.785238 116.568873,135.067167 115.397039,135.072798 C109.997347,135.072798 105.625663,129.02812 105.625663,121.563938 C105.600251,118.689361 106.30538,115.854482 107.67638,113.31929 Z" id="Shape" fill="#F2F6FD" fill-rule="nonzero"></path>
                        <path d="M122.890625,133.089407 C125.669358,132.554903 128.540984,132.873995 131.141956,134.006287 C134.298939,135.44669 137.907461,135.44669 141.064444,134.006287 C144.794958,132.334942 149.056074,132.418736 152.720755,134.235508 C153.753737,134.794572 154.904319,135.089099 156.073511,135.09375 C160.799748,135.09375 164.726964,130.237484 165.546875,123.829984 C164.603824,123.12547 163.802414,122.242282 163.186368,121.228603 C160.413293,116.676186 156.125735,113.765625 151.305495,113.765625 C146.485255,113.765625 142.255142,116.654864 139.482068,121.164635 C137.803862,123.927873 134.833429,125.595503 131.648525,125.562461 L131.528411,125.562461 C127.736977,125.525146 124.478223,128.60629 122.890625,133.089407 Z" id="Shape" fill="#DAE6F9" fill-rule="nonzero" opacity="0.4"></path>
                    </g>
                </g>
            </g>
        </g>
    </g>
</svg>