<?xml version="1.0" encoding="UTF-8"?>
<svg width="32px" height="32px" viewBox="0 0 32 32" version="1.1" xmlns="http://www.w3.org/2000/svg" xmlns:xlink="http://www.w3.org/1999/xlink">
    <!-- Generator: Sketch 51.3 (57544) - http://www.bohemiancoding.com/sketch -->
    <title>github</title>
    <desc>Created with Sketch.</desc>
    <defs></defs>
    <g id="github-icon" stroke="none" stroke-width="1">
        <g id="github-icon-inner" transform="translate(-202.000000, -7347.000000)">
            <g id="github-circle" transform="translate(0.000000, 7053.000000)">
                <g id="github-circle-inner" transform="translate(154.000000, 160.000000)">
                    <g id="github-innermost" transform="translate(0.000000, 134.000000)">
                        <path d="M64,0 C55.16,0 48,7.34110392 48,16.4047015 C48,23.6637819 52.58,29.7950391 58.94,31.968662 C59.74,32.1122032 60.04,31.6200621 60.04,31.1894387 C60.04,30.799827 60.02,29.5079568 60.02,28.1340631 C56,28.8927805 54.96,27.1292751 54.64,26.2065106 C54.46,25.7348755 53.68,24.2789582 53,23.8893465 C52.44,23.5817584 51.64,22.8230409 52.98,22.8025351 C54.24,22.7820292 55.14,23.9918759 55.44,24.484017 C56.88,26.9652281 59.18,26.2680283 60.1,25.8374048 C60.24,24.7710992 60.66,24.0533936 61.12,23.643276 C57.56,23.2331585 53.84,21.818253 53.84,15.5434547 C53.84,13.7594434 54.46,12.2830202 55.48,11.1346911 C55.32,10.7245736 54.76,9.0430917 55.64,6.78744524 C55.64,6.78744524 56.98,6.35682183 60.04,8.46892714 C61.32,8.09982136 62.68,7.91526847 64.04,7.91526847 C65.4,7.91526847 66.76,8.09982136 68.04,8.46892714 C71.1,6.33631595 72.44,6.78744524 72.44,6.78744524 C73.32,9.0430917 72.76,10.7245736 72.6,11.1346911 C73.62,12.2830202 74.24,13.7389375 74.24,15.5434547 C74.24,21.8387589 70.5,23.2331585 66.94,23.643276 C67.52,24.1559229 68.02,25.140205 68.02,26.6781458 C68.02,28.8722746 68,30.63578 68,31.1894387 C68,31.6200621 68.3,32.132709 69.1,31.968662 C75.42,29.7950391 80,23.643276 80,16.4047015 C80,7.34110392 72.84,0 64,0 Z" id="github"></path>
                    </g>
                </g>
            </g>
        </g>
    </g>
</svg>