<?xml version="1.0" encoding="UTF-8"?>
<svg width="413px" height="432px" viewBox="0 0 413 432" version="1.1" xmlns="http://www.w3.org/2000/svg" xmlns:xlink="http://www.w3.org/1999/xlink">
    <!-- Generator: Sketch 51.3 (57544) - http://www.bohemiancoding.com/sketch -->
    <title>header--home-image</title>
    <desc>Created with Sketch.</desc>
    <defs>
        <linearGradient x1="50%" y1="100%" x2="50%" y2="0%" id="linearGradient-1">
            <stop stop-color="#808080" stop-opacity="0.25" offset="0%"></stop>
            <stop stop-color="#808080" stop-opacity="0.12" offset="54%"></stop>
            <stop stop-color="#808080" stop-opacity="0.1" offset="100%"></stop>
        </linearGradient>
        <linearGradient x1="50%" y1="100%" x2="50%" y2="-9.47390314e-13%" id="linearGradient-2">
            <stop stop-color="#808080" stop-opacity="0.25" offset="0%"></stop>
            <stop stop-color="#808080" stop-opacity="0.12" offset="54%"></stop>
            <stop stop-color="#808080" stop-opacity="0.1" offset="100%"></stop>
        </linearGradient>
        <linearGradient x1="95.1583591%" y1="100%" x2="32.4424878%" y2="0%" id="linearGradient-3">
            <stop stop-color="#8067FF" offset="0%"></stop>
            <stop stop-color="#2CCDFF" offset="100%"></stop>
        </linearGradient>
    </defs>
    <g id="Web-Pages-V4" stroke="none" stroke-width="1" fill="none" fill-rule="evenodd">
        <g id="Homepage-(1)" transform="translate(-872.000000, -202.000000)" fill-rule="nonzero">
            <g id="Section-1">
                <g id="header--home-image" transform="translate(872.000000, 202.000000)">
                    <g id="Group" transform="translate(0.000000, 13.000000)">
                        <ellipse id="Oval" fill="#5798FF" opacity="0.1" cx="206.5" cy="391.387105" rx="206.5" ry="19.9874804"></ellipse>
                        <path d="M388.506673,0 L23.313327,0 C22.4488394,0.00169550339 21.620211,0.58704708 21.0099871,1.62710304 C20.3997631,2.66715899 20.0580081,4.07659022 20.0600098,5.54490205 L20.0600098,385.159397 C20.0570078,388.119277 20.7464007,390.959953 21.9765296,393.056507 C23.2066584,395.15306 24.8767569,396.333752 26.6194212,396.338842 L385.200579,396.338842 C386.943243,396.333752 388.613342,395.15306 389.84347,393.056507 C391.073599,390.959953 391.762992,388.119277 391.75999,385.159397 L391.75999,5.54490205 C391.762075,2.48856844 390.306122,0.00706462022 388.506673,0 Z" id="Shape" fill="url(#linearGradient-1)"></path>
                        <path d="M391.76,21.2769953 L391.76,382.834147 C391.757903,388.970019 388.823884,393.943238 385.203942,393.946792 L26.6198589,393.946792 C22.9969489,393.946792 20.06,388.968607 20.06,382.827705 L20.06,21.2769953 L391.76,21.2769953 Z" id="Shape" fill="#FFFFFF"></path>
                        <path d="M391.76,5.51912363 L391.76,21.599374 L20.06,21.599374 L20.06,5.51912363 C20.06,2.47099582 21.5165633,0 23.3133252,0 L388.506675,0 C390.303437,3.66502169e-14 391.76,2.47099582 391.76,5.51912363 Z" id="Shape" fill="#EDEDF4"></path>
                    </g>
                    <g id="Group-3" transform="translate(29.000000, 21.000000)" opacity="0.8">
                        <ellipse id="Oval" fill="#FA5959" cx="2.90967742" cy="3.01333333" rx="2.58064516" ry="2.66666667"></ellipse>
                        <ellipse id="Oval" fill="#FED253" cx="10.0064516" cy="3.01333333" rx="2.58064516" ry="2.66666667"></ellipse>
                        <ellipse id="Oval" fill="#8CCF4D" cx="17.1032258" cy="3.01333333" rx="2.58064516" ry="2.66666667"></ellipse>
                    </g>
                    <rect id="Rectangle-path" fill="url(#linearGradient-2)" transform="translate(128.500000, 2.000000) rotate(90.000000) translate(-128.500000, -2.000000) " x="127" y="0" width="3" height="4"></rect>
                    <g id="Group-2" transform="translate(89.000000, 69.000000)" fill="#E8F1FF">
                        <rect id="Rectangle-path" x="0" y="0" width="41.8493151" height="6.42857143"></rect>
                        <rect id="Rectangle-path" x="0" y="18.6428571" width="235" height="6.42857143"></rect>
                        <rect id="Rectangle-path" x="0" y="37.2857143" width="235" height="6.42857143"></rect>
                        <rect id="Rectangle-path" x="0" y="55.9285714" width="235" height="6.42857143"></rect>
                        <rect id="Rectangle-path" x="0" y="74.5714286" width="235" height="6.42857143"></rect>
                    </g>
                    <rect id="Rectangle-path" fill="#DAE6F9" x="101" y="177" width="210" height="162" rx="5"></rect>
                    <path d="M194.297063,335 L186.312828,335 C185.825673,335.095327 185.475197,335.511937 185.475197,335.99569 C185.475197,336.479442 185.825673,336.896053 186.312828,336.991379 L187.908311,336.991379 L187.908311,350.180948 L160.587362,350.180948 C160.458746,349.970805 160.231387,349.836507 159.980533,349.8225 L152.003116,349.8225 C151.515961,349.917827 151.165485,350.334437 151.165485,350.81819 C151.165485,351.301942 151.515961,351.718553 152.003116,351.813879 L153.5986,351.813879 L153.5986,365.361897 L127.218577,365.361897 C127.170059,364.982292 126.859307,364.685262 126.468563,364.645 L118.497965,364.645 C117.996943,364.724917 117.629152,365.146419 117.629152,365.64069 C117.629152,366.134961 117.996943,366.556462 118.497965,366.636379 L119.295706,366.636379 L119.295706,380.576034 L92.4793119,380.576034 C92.3794232,380.5209 92.2668495,380.491218 92.1520333,380.489741 L84.1746162,380.489741 C83.6874614,380.585068 83.3369849,381.001678 83.3369849,381.485431 C83.3369849,381.969184 83.6874614,382.385794 84.1746162,382.481121 L84.9723579,382.481121 L84.9723579,395.756983 L58.4968789,395.756983 C58.3797345,395.489734 58.1134011,395.313419 57.8150484,395.305603 L49.8376313,395.305603 C49.3504765,395.40093 49,395.81754 49,396.301293 C49,396.785046 49.3504765,397.201656 49.8376313,397.296983 L50.635373,397.296983 L50.635373,412 L231,412 L231,335 L194.297063,335 Z" id="Shape" fill="#373C45"></path>
                    <path d="M242.132759,240.351844 C242.212545,240.024683 242.239123,239.686811 242.211472,239.351202 C242.142352,237.933414 241.758226,236.548827 241.087002,235.298036 C240.673592,234.560897 240.207605,233.854495 239.692658,233.184318 C238.163378,231.070601 236.746545,228.91191 235.065462,226.916246 C234.336472,226.140723 233.734925,225.254653 233.283176,224.290964 C233.113461,223.770723 232.910642,223.261868 232.675962,222.767514 C232.013206,221.73747 230.831334,221.162876 229.611779,221.277792 C228.408929,221.41947 227.302234,222.004816 226.508241,222.919296 C226.035963,223.425239 225.648021,224.20664 226.041585,224.780042 C226.43515,225.353445 227.289748,225.426525 227.340349,226.056143 C227.340349,226.393439 229.420689,227.730415 230.573202,228.124888 C231.016116,228.242758 231.429679,228.451426 231.78763,228.737641 C232.10302,229.047168 232.368546,229.403683 232.574759,229.7945 C233.657684,231.359969 234.326892,233.173934 234.520093,235.067551 L235.014861,238.226884 C234.282995,238.285226 233.55479,238.382808 232.833388,238.519206 C230.891582,238.805492 228.910924,238.671293 227.025497,238.125695 C225.057673,237.563536 223.08985,236.540407 221.060181,237.001377 C220.110003,237.209376 219.244161,237.737805 218.282738,237.889588 C217.531385,237.96202 216.773434,237.922233 216.033797,237.771535 L214.48765,237.524185 C214.437049,237.394888 214.397692,237.25997 214.358336,237.125052 C214.038631,235.997489 213.890788,234.828172 213.919792,233.656532 C215.966761,233.546722 217.826309,232.429916 218.884786,230.674658 C219.943264,228.919401 220.063121,226.753789 219.204804,224.892474 C220.038499,224.425159 220.728658,223.738981 221.200739,222.908053 L220.807175,222.834973 L221.17825,222.272814 C221.001194,222.164729 220.884894,221.980058 220.863925,221.773701 C220.842955,221.567345 220.91973,221.36306 221.071425,221.221577 C220.743813,221.051725 220.377526,220.970339 220.008801,220.98547 C220.12687,220.766228 219.93571,220.496392 219.705193,220.423311 C219.464826,220.374476 219.21883,220.359339 218.974288,220.378338 C218.615536,220.350744 218.262992,220.269253 217.92853,220.13661 C215.527785,219.310236 212.924636,218.585051 210.478912,219.276507 C209.40097,219.612906 208.393176,220.14245 207.504688,220.839308 C205.706528,221.848795 205.010504,224.08712 205.919184,225.93809 C206.290225,226.859039 206.556158,227.818907 206.711936,228.799479 C206.746378,229.714967 206.642122,230.630398 206.402706,231.514706 C206.938054,231.677679 207.48499,231.799831 208.038811,231.88011 C207.726433,233.087366 207.1738,234.219249 206.413951,235.20809 C206.065775,235.645568 205.690197,236.060525 205.289481,236.450462 C204.107268,236.659003 202.980617,236.797938 201.848601,236.866459 C200.656662,236.866459 199.487212,236.416732 198.300896,236.501056 C197.59803,236.580266 196.906046,236.736743 196.237492,236.967648 C193.151433,237.872171 189.945408,238.300594 186.730093,238.238127 L186.342151,238.277478 L186.701982,235.98387 C186.895183,234.090253 187.564391,232.276288 188.647316,230.710819 C188.85353,230.320002 189.119055,229.963487 189.434445,229.65396 C189.794412,229.367608 190.209834,229.158969 190.654496,229.041207 C191.805071,228.646565 194.427095,227.253542 194.455206,226.916246 C194.505808,226.286628 194.826282,226.207926 195.18049,225.69074 C195.534698,225.173554 195.18049,224.341559 194.713835,223.829994 C193.918579,222.918033 192.812178,222.334846 191.610296,222.194111 C190.392198,222.07876 189.211761,222.653711 188.551736,223.683833 C188.312816,224.177022 188.108055,224.686037 187.938899,225.207283 C187.48715,226.170972 186.885603,227.057042 186.156613,227.832565 C184.469908,229.82823 183.058697,231.98692 181.529417,234.100637 C181.017684,234.771137 180.551842,235.475439 180.135073,236.208733 C179.46722,237.462889 179.083333,238.848532 179.010603,240.267521 C178.982932,240.604993 179.009507,240.944718 179.089316,241.273785 C179.062646,241.837135 179.220563,242.120537 179.466013,242.313779 C180.326233,243.179504 181.231432,244.073336 182.389637,244.444361 C183.110205,244.614875 183.840631,244.740664 184.576732,244.821008 C186.353396,245.141438 187.989501,246.170189 189.794276,246.164568 C191.036816,246.164568 192.262489,245.669868 193.488162,245.844137 C195.174868,246.074622 196.389296,247.44629 197.423809,248.778606 C198.302438,249.818516 198.962174,251.025 199.363521,252.325829 C199.762708,253.894253 199.515324,255.659432 200.353055,257.042343 C200.56441,257.32473 200.727774,257.640017 200.836577,257.975526 C200.85397,258.506067 200.73594,259.032296 200.493613,259.504599 C199.785197,261.680154 201.336966,264.00187 201.173918,266.250506 C201.095205,267.346715 200.611683,268.381088 200.561082,269.477298 C200.476746,270.888317 201.050226,272.467983 200.263097,273.642895 C200.740997,273.395545 201.224519,273.176303 201.719286,272.979548 C199.357898,279.899724 197.221404,287.033521 197.384452,294.307857 C197.508144,299.02437 198.508923,304.218719 195.798949,308.091993 C195.413874,308.553768 195.107997,309.076158 194.89375,309.637931 C194.680101,310.396845 194.89375,311.200732 195.034309,311.976512 C195.534698,315.349465 193.713056,318.671824 193.589364,322.095372 C193.575176,323.150261 193.642847,324.20466 193.791769,325.249084 L194.455206,330.949375 C193.786649,331.094929 193.164622,331.403969 192.644809,331.848829 C191.947637,332.410988 191.334801,333.332929 191.660897,334.176167 C191.925148,334.856379 192.701032,335.182432 193.415071,335.351079 C194.147328,335.433216 194.847196,335.698047 195.450363,336.121237 C195.643289,336.334758 195.84788,336.537445 196.063199,336.728369 C196.478868,336.953592 196.954953,337.042109 197.423809,336.98134 C198.284029,336.947611 199.110515,336.87453 199.987602,336.756477 C200.169669,336.748916 200.346365,336.692614 200.499236,336.59345 C200.706834,336.363821 200.810564,336.058774 200.785976,335.750212 C200.848958,334.894464 200.813114,334.03431 200.679151,333.186767 C200.645417,333.023741 200.600438,332.866337 200.555459,332.703311 C200.850731,331.980751 201.06019,331.226046 201.179541,330.454675 C201.353833,329.330357 201.381945,328.155445 201.455036,327.003019 C201.623706,324.06855 202.017271,321.156567 202.467059,318.244583 L203.029295,314.500605 C203.203588,313.269477 203.383503,312.038349 203.59153,310.807221 C204.633882,304.139076 206.255507,297.574454 208.437998,291.187875 C208.915898,289.821829 209.731139,288.219676 211.176084,288.180325 L212.036304,289.866802 C213.160775,291.980519 213.846702,294.324722 214.701299,296.545249 C215.82577,299.462854 215.44345,302.869537 216.950241,305.612873 C217.197624,306.068221 217.512476,306.501084 217.698013,306.978919 C217.964567,307.714432 218.119953,308.485572 218.159046,309.266906 L219.154203,319.385766 C219.603991,323.933632 220.087513,328.605172 222.128428,332.692068 C222.256555,332.955554 222.407035,333.207574 222.578216,333.445361 C222.515372,334.125664 222.505972,334.809846 222.550104,335.491619 C222.486446,335.735975 222.541316,335.996037 222.698269,336.193859 C222.855221,336.391681 223.096015,336.504271 223.348478,336.497883 C224.197453,336.610315 225.035184,336.683396 225.906649,336.717125 C226.375505,336.777894 226.85159,336.689378 227.267258,336.464154 C227.487112,336.276219 227.693755,336.073362 227.885717,335.857022 C228.486799,335.43385 229.184853,335.168973 229.915386,335.086865 C230.629425,334.923838 231.40531,334.597786 231.669561,333.911952 C232.001279,333.068714 231.382821,332.152395 230.685649,331.584614 C230.120547,331.090959 229.426074,330.769127 228.684091,330.657052 C228.378568,330.674675 228.072073,330.650083 227.77327,330.583972 C227.842793,330.213507 227.86546,329.835773 227.840738,329.459654 C227.768749,329.017507 227.749874,328.568342 227.784515,328.121716 C227.899343,327.670571 228.053615,327.230393 228.245548,326.806264 C228.892118,324.816221 227.514642,322.792449 227.031119,320.757434 C226.384549,318.047828 227.345971,315.208925 227.171678,312.426239 C226.901805,308.058264 223.85449,303.960125 224.664109,299.65961 C225.310679,296.219197 224.759689,292.683218 224.146852,289.237184 L221.897911,276.414339 C221.739667,275.373516 221.466243,274.353497 221.08267,273.373059 C221.50006,273.300797 221.910223,273.191686 222.308343,273.047007 C222.870578,271.675339 222.774998,270.163132 222.606328,268.690275 C222.437657,267.217419 222.044092,265.778292 221.84731,264.316679 C221.676889,263.141419 221.579249,261.956755 221.554948,260.769456 C221.493638,259.59818 221.576724,258.423811 221.802331,257.272828 C222.060859,256.262322 222.412835,255.278052 222.853711,254.332737 C223.941755,251.603267 225.258312,248.97051 226.789358,246.462512 C229.100145,246.282621 231.337842,246.085865 233.643006,245.900353 C234.19558,245.875107 234.744902,245.801749 235.284733,245.681111 C235.972754,245.443999 236.672766,245.243219 237.381871,245.079601 C237.646359,245.065803 237.90757,245.014704 238.157756,244.927818 C238.663768,244.697333 238.972997,244.05085 239.52961,244.028364 C239.738588,244.056205 239.950336,244.056205 240.159313,244.028364 C240.406697,243.949661 240.530389,243.679825 240.721549,243.466205 C241.070135,243.078315 241.637992,242.999613 242.093403,242.746641 C242.899233,242.223446 243.216205,241.199339 242.846798,240.312493 C242.610659,240.312493 242.374521,240.346223 242.132759,240.351844 Z" id="Shape" fill-opacity="0.12" fill="#2B2B2B"></path>
                    <g id="Man" transform="translate(149.000000, 219.000000)">
                        <path d="M56.0809302,16.1636964 C55.4452907,16.9367897 54.7349543,17.64676 53.96,18.2835339 C57.6150674,20.4384308 61.9592675,21.1457946 66.12,20.2635403 C65.967293,19.8440474 65.4130233,19.7825218 65.0227721,19.5699787 C64.5159209,19.2143263 64.1706274,18.6760038 64.0612837,18.0709908 C63.6419303,16.5968925 63.5189526,15.0557753 63.6993116,13.5348743 C63.7754921,13.165797 63.7754921,12.7853038 63.6993116,12.4162266 C63.4821036,11.8624989 63.0649539,11.4081132 62.5285581,11.1409682 C61.6474488,10.5976011 60.6962322,10.1742895 59.7006512,9.88248948 C58.671293,9.5804546 58.0830884,9.44062363 58.0434977,10.6263902 C58.0017755,12.6316577 57.3142546,14.5714706 56.0809302,16.1636964 Z" id="Shape" fill="#FBCBAB"></path>
                        <path d="M43.0872873,8.90726897 C44.2884936,8.11957923 45.2675295,7.45177553 45.2785813,7.31748005 C45.2970157,7.0872532 45.3696118,6.78210715 44.7979172,6.85717139 C43.7901496,6.98949255 42.833205,8.10471001 43.0642849,7.77199638 C43.4264537,7.25053823 41.2132076,10.1361947 43.0872873,8.90726897 Z" id="Shape" fill="#FBCBAB"></path>
                        <g id="Group-8" transform="translate(57.000000, 12.500000) scale(-1, 1) translate(-57.000000, -12.500000) translate(0.000000, 1.000000)">
                            <path d="M36.7631521,8.06169436 C37.9643583,7.27400462 38.9433943,6.60620092 38.9544461,6.47190544 C38.9728804,6.24167859 39.0454766,5.93653254 38.4737819,6.01159678 C37.4660143,6.14391793 36.5090697,7.2591354 36.7401496,6.92642177 C37.1023184,6.40496362 34.8890724,9.29062011 36.7631521,8.06169436 Z" id="Shape" fill="#FBCBAB"></path>
                            <rect id="Rectangle-path" fill="#E8F1FF" x="0" y="0" width="114" height="6.42857143"></rect>
                            <ellipse id="Oval" fill="#FBCBAB" cx="50.76" cy="7.70491803" rx="6.08" ry="6.12568306"></ellipse>
                            <path d="M76.6058702,16.2508246 C76.7129435,15.4325177 76.8832323,14.623975 77.1151701,13.832634 C77.4925158,12.8047758 77.978215,11.8211172 78.5638453,10.8987156 C78.7662397,10.5019666 79.0320186,10.1418314 79.3504307,9.83287809 C79.7086499,9.53789785 80.1256148,9.32482934 80.5727504,9.20827436 C81.2032388,8.98926079 81.9385464,8.81952788 82.3418341,8.336698 C82.6792863,7.93268855 82.7380731,7.20476125 82.750963,7.04813091 C82.8018929,6.41206657 84.3245929,5.55176117 84.6867617,5.03030301 C85.0489305,4.50884486 85.1564493,4.41773571 84.6867617,3.90200786 C83.8888772,2.97314522 82.7765591,2.38032583 81.5687146,2.24021814 C80.3445468,2.11755732 79.1556765,2.69957793 78.4902798,3.74728951 C78.2516812,4.24817862 78.0474769,4.7651327 77.8791199,5.29447305 C77.4228618,6.27105324 76.8196044,7.16996194 76.0909114,7.95906691 C74.3932452,9.98186613 72.9728644,12.1708443 71.433647,14.31398 C70.9216891,14.9964502 70.4547598,15.7123839 70.0359017,16.4571157 C69.3639584,17.7274068 68.9774878,19.1323471 68.9041242,20.5714779 C68.8559268,21.0164957 68.9222068,21.4665718 69.0965264,21.8779884 C69.4604582,22.4904798 70.1166024,22.8629938 70.8224871,22.8578713 C71.5166052,22.843138 72.2025946,22.7034323 72.8483689,22.4452891 L75.3213027,21.6258548 C75.6204254,21.5597213 75.8938738,21.4063309 76.1078881,21.184621 C76.2370017,21.0000291 76.4029958,19.3554303 76.6058702,16.2508246 Z" id="Shape" fill="#FBCBAB" transform="translate(76.944422, 12.540984) scale(-1, 1) translate(-76.944422, -12.540984) "></path>
                            <path d="M30.6637837,16.0267809 C30.7701183,15.208474 30.9392322,14.3999313 31.1695698,13.6085903 C31.544312,12.5807321 32.0266603,11.5970735 32.6082502,10.6746719 C32.8092482,10.2779229 33.0731934,9.91778771 33.3894087,9.60883437 C33.7451564,9.31385413 34.1592446,9.10078563 34.6032953,8.98423065 C35.2294338,8.76521708 35.9596683,8.59548416 36.3601735,8.11265429 C36.6952975,7.70864484 36.7536788,6.98071754 36.7664797,6.82408719 C36.8170583,6.18802285 38.3292527,5.32771745 38.6889228,4.8062593 C39.0485929,4.28480114 39.1553699,4.19369199 38.6889228,3.67796415 C37.8965431,2.74910151 36.7918993,2.15628211 35.592388,2.01617442 C34.3766662,1.89351361 33.1959981,2.47553421 32.5351922,3.52324579 C32.2982398,4.02413491 32.0954444,4.54108898 31.9282489,5.07042933 C31.4751387,6.04700952 30.8760433,6.94591822 30.1523778,7.7350232 C28.4664242,9.75782242 27.055843,11.9468006 25.5272451,14.0899363 C25.0188194,14.7724065 24.5551116,15.4883402 24.1391433,16.233072 C23.4718359,17.5033631 23.0880317,18.9083034 23.0151743,20.3474342 C22.9673094,20.7924519 23.0331322,21.2425281 23.206249,21.6539447 C23.5676699,22.2664361 24.2192873,22.6389501 24.9203018,22.6338276 C25.609631,22.6190942 26.2908875,22.4793886 26.9322065,22.2212453 L29.3880788,21.4018111 C29.6851378,21.3356776 29.9566996,21.1822872 30.1692373,20.9605773 C30.2974602,20.7759854 30.462309,19.1313866 30.6637837,16.0267809 Z" id="Shape" fill="#FBCBAB"></path>
                        </g>
                        <path d="M79.7976974,113.416898 C80.4743172,113.961027 81.0690878,114.847958 80.7526043,115.65871 C80.490687,116.317107 79.7431313,116.62726 79.0501417,116.790499 C78.3421862,116.870613 77.665291,117.124905 77.080305,117.530514 C76.8950645,117.730607 76.6963459,117.91786 76.4855344,118.090967 C76.0830176,118.311486 75.6201387,118.397316 75.1650345,118.335826 C74.3356296,118.303178 73.5280512,118.232441 72.6822765,118.123615 C72.5055768,118.116297 72.3340891,118.061801 72.1857249,117.965818 C71.9835563,117.746402 71.8843762,117.451675 71.9128943,117.155065 C71.8471055,116.33065 71.8800777,115.501353 72.0111133,114.684719 C72.1487996,113.864527 72.5719065,113.118945 73.2061111,112.57894 C73.839078,112.089223 75.7598052,110.636399 76.4800778,111.566859 C76.6710592,111.817159 76.5946667,112.15996 76.8620406,112.366729 C77.1294145,112.573498 77.5495736,112.459231 77.8551438,112.49732 C78.5776111,112.612017 79.251851,112.931193 79.7976974,113.416898 Z" id="Shape" fill="#4960B6"></path>
                        <path d="M42.2027203,113.038869 C41.5258294,113.582724 40.9308204,114.469208 41.2474307,115.279552 C41.5039942,115.937617 42.2518495,116.253053 42.9451169,116.410771 C43.6535727,116.489949 44.3309533,116.744193 44.9157429,117.150414 C45.102121,117.35971 45.3027521,117.555962 45.5162107,117.737778 C45.9182124,117.954536 46.3783556,118.040136 46.831781,117.982513 C47.6615183,117.949882 48.4694204,117.87918 49.3155341,117.764971 C49.492447,117.758465 49.6642142,117.703929 49.8122847,117.607253 C50.0165107,117.388862 50.1177527,117.094174 50.0906834,116.796908 C50.1519361,115.974455 50.1171306,115.147698 49.9869662,114.333244 C49.852704,113.510714 49.4289114,112.762669 48.7914895,112.223086 C48.1637277,111.733616 46.2422308,110.281522 45.5162107,111.211515 C45.3251528,111.461688 45.4015759,111.809756 45.128636,112.010982 C44.8556961,112.212209 44.4462863,112.103437 44.1351348,112.141507 C43.4191143,112.253634 42.7493444,112.564657 42.2027203,113.038869 Z" id="Shape" fill="#4960B6"></path>
                        <path d="M51.6241242,52.682799 C49.1044406,60.0060778 46.6573864,67.5828547 46.8473404,75.3511635 C46.9702518,80.0549618 47.9647167,85.2375899 45.2774267,89.0963945 C44.8941171,89.5565737 44.59007,90.0783187 44.3779387,90.6399163 C44.1656372,91.3947773 44.3779387,92.1947047 44.5120239,92.9720989 C45.0148432,96.3520737 43.2102805,99.6531825 43.0817822,103.066957 C43.067899,104.118422 43.1351444,105.169384 43.2829099,106.210334 L43.9812701,112.226689 C44.2159192,114.288473 46.8529273,115.133467 48.8865522,115.420765 C49.8428583,114.270185 50.4431269,112.861841 50.6128986,111.370429 C50.7860919,110.24377 50.8140263,109.077679 50.8810689,107.934121 C51.0542622,105.004809 51.4732784,102.098031 51.8867076,99.1968859 L52.4453958,95.4620137 C52.624176,94.2339562 52.7973693,93.0058987 53.0040839,91.7778411 C54.0475769,85.1465575 55.6608092,78.6192909 57.8255627,72.2697531 C58.3004477,70.9008633 59.1105455,69.3066419 60.5407872,69.2672088 L61.3955801,70.9233965 C62.5129564,73.0246142 63.188969,75.3680634 64.038175,77.5819469 C65.1555514,80.4943585 64.7700565,83.8855999 66.2729277,86.6290128 C66.5187505,87.0796761 66.8316158,87.5134396 67.0103961,87.9866361 C67.2722795,88.7109074 67.4266527,89.4702033 67.4685203,90.2399526 L68.4573984,100.312278 C68.9043489,104.847077 69.3792338,109.505809 71.4072719,113.578679 C71.6080123,114.065461 71.9292564,114.492172 72.3402811,114.818003 C73.1671396,115.381332 74.3236241,115.094034 75.1337219,114.508172 C76.4355103,113.542521 77.1632293,111.97744 77.0667829,110.350803 C77.000789,109.909075 76.9820585,109.461476 77.0109141,109.015713 C77.1293307,108.566783 77.2825092,108.127916 77.4690384,107.703156 C78.1171167,105.720237 76.7483307,103.703519 76.262272,101.675534 C75.6197806,98.9715542 76.5751373,96.143642 76.4075309,93.3664293 C76.1393606,89.0062618 73.1168576,84.9164923 73.9157817,80.6295575 C74.5582731,77.1988831 74.0107587,73.6724427 73.4073755,70.2361349 L71.1446884,57.4485635 C70.787128,55.4318452 70.2507874,53.1559955 68.4685721,52.1701695 C67.447182,51.7089688 66.3268549,51.5152066 65.2114202,51.6068404 C60.5910691,51.6068404 56.1774327,52.2546689 51.6241242,52.682799 Z" id="Shape" fill="#373C45"></path>
                        <path d="M91.8893938,21.3005375 C90.2482941,21.4669675 88.5959971,21.1223331 87.1555938,20.3131661 C86.608273,19.9469281 86.0246952,19.6388534 85.4142317,19.3938894 C84.2871364,19.0250438 83.0473316,19.348493 81.8638816,19.524404 C79.9210705,19.807712 77.9406569,19.6723191 76.0537057,19.1271856 C74.081289,18.5597308 72.1088723,17.5326377 70.0801009,17.992276 C69.1277054,18.2022343 68.2654775,18.7299673 67.3018111,18.8831801 C66.548786,18.9598683 65.7885313,18.9196782 65.0476206,18.7640146 L58.6231777,17.753945 C57.173326,17.4617376 55.6926432,17.3549689 54.2162353,17.4361703 C53.0985692,17.6457518 51.9694601,17.787869 50.8349496,17.8617614 C49.6458641,17.8617614 48.4736851,17.4077976 47.2845996,17.4872413 C46.5820384,17.567834 45.890375,17.7257741 45.2220153,17.9582287 C42.1355083,18.8662036 38.9299124,19.2967073 35.7149669,19.235002 C33.1514638,19.4041269 30.6807974,20.2667197 28.5635476,21.7318031 C28.2677677,21.8963623 28.0609215,22.1858718 28,22.5205653 C28.0377223,22.8312775 28.1982118,23.11357 28.4452026,23.3036529 C29.301795,24.1775333 30.2091067,25.0741119 31.3700148,25.448632 C32.0903838,25.6193454 32.8206702,25.7444307 33.5565795,25.8231522 C35.3317546,26.152276 36.9716781,27.1793692 38.7750305,27.1793692 C40.0204708,27.1793692 41.2433691,26.680009 42.4719029,26.8559199 C44.1625458,27.0885764 45.3741732,28.461817 46.4167363,29.8010103 C47.2933007,30.847162 47.9542292,32.0585846 48.3609756,33.3646264 C48.7554589,34.9421508 48.5074979,36.7126097 49.3471839,38.102874 C49.5578905,38.3865712 49.7215611,38.7027674 49.8318348,39.0391744 C49.8498065,39.5729488 49.7314435,40.1024369 49.4880708,40.5769769 C48.7780008,42.7616779 50.3333922,45.0712189 50.1699634,47.3864344 C50.0910668,48.4816222 49.6064158,49.525739 49.5556965,50.6209268 C49.4767998,52.0452383 50.0459829,53.6284372 49.2570163,54.8087432 C52.3013457,53.2642172 55.6843055,52.5204671 59.0909223,52.6467404 C59.6574262,52.6605221 60.2223129,52.7136104 60.7815651,52.8056277 C61.8680885,53.0286182 62.9377066,53.3282157 63.9825156,53.7022063 C66.3381447,54.4569212 68.9304637,54.9960033 71.2522799,54.133472 C71.8158276,52.7545568 71.7200245,51.233778 71.5453247,49.7583955 C71.3706249,48.283013 71.0099545,46.8303287 70.7901709,45.3606208 C70.6193597,44.1799981 70.52149,42.9898378 70.4971261,41.7970047 C70.4356888,40.6203407 70.5189742,39.440542 70.7450871,38.2844595 C71.0033891,37.2696775 71.3562317,36.2817083 71.7989211,35.3336946 C72.8863749,32.5771 74.2061353,29.9192788 75.7437545,27.3893274 C78.0542997,27.2020674 80.2915838,27.0034582 82.602129,26.8218727 C83.153653,26.7911476 83.7019569,26.7171541 84.2420526,26.6005653 C84.930095,26.3638358 85.6298272,26.1630674 86.3384498,25.9990632 C86.6039166,25.984 86.8658413,25.9304874 87.1161455,25.8401759 C87.6233383,25.6075194 87.938925,24.9606209 88.4912017,24.9435973 C88.7008375,24.9689836 88.9127392,24.9689836 89.122375,24.9435973 C89.370336,24.8698282 89.488681,24.5917753 89.6859226,24.3761425 C90.0353222,23.9845987 90.6045053,23.905155 91.0609788,23.6554749 C91.8507293,23.1627004 92.1950142,22.1840008 91.8893938,21.3005375 Z" id="Shape" fill="url(#linearGradient-3)"></path>
                        <path d="M64.1691747,10.7097228 C64.5301373,10.9998449 65.029113,11.0312988 65.4222196,10.788711 C65.663224,10.5568372 65.8256457,10.2524834 65.8859014,9.91984059 C66.0843778,9.21474076 66.2447013,8.49900112 66.3661433,7.77587472 C66.3981416,7.46091063 66.4920169,7.15578982 66.6421444,6.87879427 C67.045106,6.24688854 67.9172694,6.21303644 68.5962321,5.92529366 C69.4354906,5.46145355 70.1299352,4.76534903 70.6,3.91673616 L70.2191185,3.83774794 L70.5779199,3.2735464 C70.4051449,3.16659809 70.291871,2.98259496 70.2723103,2.77711154 C70.2527496,2.57162811 70.3291957,2.36875778 70.4785595,2.22977354 C70.1565317,2.05434035 69.7943071,1.97055147 69.4297554,1.98716688 C69.5456758,1.77277029 69.3579951,1.50195355 69.1316742,1.42296534 C68.8976467,1.37296383 68.6575383,1.35964675 68.4195914,1.38347123 C68.0670957,1.35388606 67.7209712,1.27019759 67.3928674,1.13522255 C65.0413381,0.311488295 62.4910881,-0.416331697 60.0953986,0.277636202 C59.0368563,0.612019897 58.0471702,1.14170166 57.1753071,1.84047448 C55.4241716,2.84611361 54.7439463,5.07292006 55.624181,6.91828837 C55.985879,7.83527158 56.2451221,8.79106499 56.3969841,9.76750617 C56.4327183,10.6841802 56.3322149,11.6010918 56.0989029,12.4869576 C56.7526351,12.701487 57.428968,12.8359551 58.1137108,12.8875407 C58.802985,12.9414887 59.4883702,12.7413366 60.0457184,12.3233392 C60.5977206,11.8381258 60.9068418,11.0877378 61.3594836,10.4784001 C61.7126404,9.9323611 62.314468,9.60883353 62.9547699,9.62081377 C63.5674923,9.71672803 63.6778927,10.3542758 64.1691747,10.7097228 Z" id="Shape" fill="#976E00"></path>
                    </g>
                    <g id="Tree" transform="translate(338.000000, 341.000000)">
                        <ellipse id="Oval" fill="#6C63FF" cx="21.9744928" cy="73.6100826" rx="21.5536232" ry="4.19008264"></ellipse>
                        <ellipse id="Oval" fill="#3F3D56" cx="21.6173913" cy="71.8309091" rx="2.51246377" ry="3.31983471"></ellipse>
                        <ellipse id="Oval" fill="#3F3D56" cx="21.6173913" cy="67.7697521" rx="2.51246377" ry="3.31983471"></ellipse>
                        <ellipse id="Oval" fill="#3F3D56" cx="21.6173913" cy="63.7150413" rx="2.51246377" ry="3.31983471"></ellipse>
                        <ellipse id="Oval" fill="#3F3D56" cx="21.6173913" cy="59.6538843" rx="2.51246377" ry="3.31983471"></ellipse>
                        <ellipse id="Oval" fill="#3F3D56" cx="21.6173913" cy="55.5927273" rx="2.51246377" ry="3.31983471"></ellipse>
                        <path d="M31.0104348,19.6998347 C31.3504883,19.2567307 31.6614911,18.7916045 31.9414493,18.307438 L25.3542029,17.2115702 L32.4834783,17.2695868 C33.870086,14.2286019 33.9531519,10.7438118 32.7130435,7.63884298 L23.1478261,12.6540496 L31.9733333,6.09818182 C29.7109303,2.18110423 25.4786905,-0.136069213 20.997217,0.0887007966 C16.5157436,0.313470806 12.5311851,3.0427609 10.6634508,7.1669871 C8.79571654,11.2912133 9.35577723,16.1237074 12.115942,19.6998347 C11.5831086,20.3882421 11.1235634,21.1315246 10.7449275,21.9173554 L19.3089855,26.4297521 L10.1773913,23.3355372 C8.87230715,27.2217233 9.59147622,31.5110454 12.0904348,34.7454545 C8.21677104,39.7274312 8.78062839,46.882218 13.3857222,51.1813592 C17.9908161,55.4805004 25.0909231,55.4805004 29.6960169,51.1813592 C34.3011107,46.882218 34.8649681,39.7274312 30.9913043,34.7454545 C34.4174261,30.3354182 34.4174261,24.1292099 30.9913043,19.7191736 L31.0104348,19.6998347 Z" id="Shape" fill="url(#linearGradient-3)"></path>
                        <path d="M9.53971014,27.2097521 C9.53163335,29.9335469 10.4300395,32.580931 12.0904348,34.7261157 C8.21677104,39.7080923 8.78062839,46.8628792 13.3857222,51.1620204 C17.9908161,55.4611616 25.0909231,55.4611616 29.6960169,51.1620204 C34.3011107,46.8628792 34.8649681,39.7080923 30.9913043,34.7261157 C32.6173913,32.6568595 9.53971014,25.8495868 9.53971014,27.2097521 Z" id="Shape" fill="#2B2B2B" opacity="0.1"></path>
                    </g>
                    <g id="Tree" transform="translate(16.000000, 335.000000)">
                        <ellipse id="Oval" fill="#6C63FF" cx="27" cy="91.8266667" rx="27" ry="5.17333333"></ellipse>
                        <ellipse id="Oval" fill="#3F3D56" cx="27" cy="89.5633333" rx="3.21428571" ry="4.20333333"></ellipse>
                        <ellipse id="Oval" fill="#3F3D56" cx="27" cy="84.39" rx="3.21428571" ry="4.20333333"></ellipse>
                        <ellipse id="Oval" fill="#3F3D56" cx="27" cy="79.8633333" rx="3.21428571" ry="4.20333333"></ellipse>
                        <ellipse id="Oval" fill="#3F3D56" cx="27" cy="74.69" rx="3.21428571" ry="4.20333333"></ellipse>
                        <ellipse id="Oval" fill="#3F3D56" cx="27" cy="69.5166667" rx="3.21428571" ry="4.20333333"></ellipse>
                        <ellipse id="Oval" fill="#3F3D56" cx="27" cy="64.3433333" rx="3.21428571" ry="4.20333333"></ellipse>
                        <ellipse id="Oval" fill="#3F3D56" cx="27" cy="59.17" rx="3.21428571" ry="4.20333333"></ellipse>
                        <path d="M38.553199,24.6389092 C38.9910614,24.0759401 39.3866516,23.4808366 39.7366773,22.8585514 L31.4699926,21.4876759 L40.4079039,21.4876759 C41.3167689,19.4940602 41.7867878,17.3258036 41.7856846,15.1317987 C41.7895388,13.1850119 41.4175758,11.2560639 40.6905256,9.4524574 L28.6967672,15.7193168 L39.7543412,7.52967101 C36.9182857,2.63355953 31.6125178,-0.262614784 25.9944771,0.0187949537 C20.3764365,0.300204691 15.3817137,3.71233439 13.0412707,8.8677386 C10.7008277,14.0231428 11.4044262,20.0632752 14.8659678,24.5320877 C14.1803849,25.3852076 13.5881601,26.310417 13.0995822,27.2916422 L23.8215429,32.9175728 L12.3753641,29.0363929 C10.7539839,33.8946384 11.6704124,39.2492901 14.8129762,43.279255 C9.93675676,49.5097427 10.6347718,58.4722282 16.4158062,63.8595264 C22.1968405,69.2468245 31.1163431,69.2468245 36.8973775,63.8595264 C42.6784118,58.4722282 43.3764269,49.5097427 38.5002074,43.279255 C42.8086614,37.771318 42.8086614,30.0044175 38.5002074,24.4964806 L38.553199,24.6389092 Z" id="Shape" fill="url(#linearGradient-3)"></path>
                        <path d="M11.5805038,33.8501903 C11.5802216,37.2634437 12.7205064,40.5774458 14.8176993,43.2584303 C9.93437498,49.4941879 10.6334071,58.464254 16.4228646,63.8561088 C22.2123221,69.2479637 31.1448208,69.2479637 36.9342783,63.8561088 C42.7237357,58.464254 43.4227679,49.4941879 38.5394436,43.2584303 C40.5737468,40.7281839 11.5805038,32.1396012 11.5805038,33.8501903 Z" id="Shape" fill="#2B2B2B" opacity="0.1"></path>
                    </g>
                    <path d="M352.13422,197.596837 C355.738332,193.822679 362.490044,193.16364 364.372651,194.943839 C366.255259,196.724038 369.285324,203.907741 364.196187,205.827617 C360.993952,207.035659 361.932642,213.090685 363.882341,215.471418 C366.703362,218.916102 363.566115,219.99881 361.8806,221.431383 C360.195084,222.863956 351.455203,222.796556 351.06821,223.377196 C350.991607,223.497055 341.15774,228.706745 338.612497,224.104226 C336.067253,219.501707 342.416376,207.793376 340.258875,205.757003 C337.0316,202.710917 338.198029,200.345093 339.69087,198.701417 C341.183711,197.057741 350.38995,199.423403 352.13422,197.596837 Z" id="Shape" fill-opacity="0.25" fill="url(#linearGradient-3)"></path>
                    <path d="M66.86886,96.015419 C65.3983161,94 69.3087394,85.3921798 67.9720053,83.6536834 C66.6352712,81.9151871 64.5393917,80.3739913 61.0135134,83.0167605 C58.6563889,84.7835078 56.7570268,85.8202056 56.0796442,83.6536834 C55.7547525,82.6145587 48.3848634,76.5921186 43.4652133,78.3044639 C38.5455632,80.0168091 41.8897487,90.5192628 41.9928685,90.6144751 C42.3240465,90.9323414 42.3240465,92.0608497 41.9928685,94 C38.1182769,96.1842647 40.8950675,99.6312928 41.9928685,101.522624 C43.0906695,103.413955 43.5943664,106.666571 47.4366697,104.488674 C50.0922109,102.983459 56.142855,103.088555 56.7570268,106.425944 C57.7330967,111.729874 65.2468758,109.979485 67.306867,108.438401 C69.3668582,106.897316 69.9073847,100.179797 66.86886,96.015419 Z" id="Shape" fill-opacity="0.25" fill="url(#linearGradient-3)"></path>
                </g>
            </g>
        </g>
    </g>
</svg>