<?xml version="1.0" encoding="UTF-8"?>
<svg width="100px" height="50px" viewBox="0 0 100 50" version="1.1" xmlns="http://www.w3.org/2000/svg" xmlns:xlink="http://www.w3.org/1999/xlink">
    <!-- Generator: Sketch 51.3 (57544) - http://www.bohemiancoding.com/sketch -->
    <title>logo--black</title>
    <desc>Created with Sketch.</desc>
    <defs>
        <path d="M73.5168039,15.4338235 L82,29.9437731 L64.1224588,29.9437731 C63.9489261,29.9531329 63.7741589,29.9578735 63.5982792,29.9578735 C58.3337104,29.9578735 54.0659341,25.7104267 54.0659341,20.4709356 C54.0659341,18.6203222 54.5983546,16.8934699 55.5190645,15.4338235 L55.5112044,15.4338235 L64.6374788,0.0391873989 L73.5413247,15.4338235 L73.5168039,15.4338235 Z M40.8247736,29.9475443 L30.7109446,29.9475443 L30.7109446,9.59121783 C30.4056926,6.31098114 32.0173472,2.97518249 35.0991422,1.19590733 C39.2946672,-1.22638013 44.6261651,0.153437279 47.0073761,4.27781577 C48.5731122,6.98975016 48.4734122,10.2130503 47.0287481,12.7913438 C48.2606077,13.5609696 49.324025,14.6315109 50.0977132,15.9715783 C52.6575151,20.4052851 51.0764136,26.1104406 46.5662243,28.7143996 C44.7545438,29.7603738 42.7458253,30.1468611 40.8247736,29.9475443 Z M17.7359149,29.9578735 L0,29.9578735 L9.97645212,13.0071744 L9.9856166,13.0271944 L17.612509,0.0391873989 L26.7377199,15.1999804 L26.7052149,15.1999804 C27.4889418,16.6155696 27.9340659,18.2374838 27.9340659,19.9613074 C27.9340659,25.4822584 23.3681982,29.9578735 17.7359149,29.9578735 Z" id="path-1"></path>
        <filter x="-21.3%" y="-41.7%" width="142.7%" height="216.7%" filterUnits="objectBoundingBox" id="filter-2">
            <feOffset dx="0" dy="5" in="SourceAlpha" result="shadowOffsetOuter1"></feOffset>
            <feGaussianBlur stdDeviation="5" in="shadowOffsetOuter1" result="shadowBlurOuter1"></feGaussianBlur>
            <feColorMatrix values="0 0 0 0 0   0 0 0 0 0   0 0 0 0 0  0 0 0 0.1 0" type="matrix" in="shadowBlurOuter1"></feColorMatrix>
        </filter>
    </defs>
    <g id="Web-Pages-V4" stroke="none" stroke-width="1" fill="none" fill-rule="evenodd">
        <g id="Homepage-(1)" transform="translate(-145.000000, -7208.000000)" fill-rule="nonzero">
            <g id="Footer" transform="translate(0.000000, 7053.000000)">
                <g id="foooter__left" transform="translate(154.000000, 160.000000)">
                    <g id="logo--black">
                        <use fill="black" fill-opacity="1" filter="url(#filter-2)" xlink:href="#path-1"></use>
                        <use fill="#2B2B2B" xlink:href="#path-1"></use>
                    </g>
                </g>
            </g>
        </g>
    </g>
</svg>