<?xml version="1.0" encoding="UTF-8"?>
<svg width="32px" height="32px" viewBox="0 0 32 32" version="1.1" xmlns="http://www.w3.org/2000/svg" xmlns:xlink="http://www.w3.org/1999/xlink">
    <!-- Generator: Sketch 51.3 (57544) - http://www.bohemiancoding.com/sketch -->
    <title>share</title>
    <desc>Created with Sketch.</desc>
    <defs></defs>
    <g id="share-icon" stroke="none" stroke-width="1">
        <g id="share-icon-inner" transform="translate(-250.000000, -3057.000000)">
            <g id="share-circle" transform="translate(0.000000, 2763.000000)">
                <g id="share-circle-inner" transform="translate(154.000000, 160.000000)">
                    <g id="share-innermost" transform="translate(0.000000, 134.000000)">
                        <path d="M112,32 C103.163444,32 96,24.836556 96,16 C96,7.163444 103.163444,0 112,0 C120.836556,0 128,7.163444 128,16 C128,24.836556 120.836556,32 112,32 Z M119.083799,13.0351759 C118.27933,13.0351759 117.575419,13.3366834 117.072626,13.839196 L109.932961,9.71859296 C110.03352,9.51758794 110.03352,9.2160804 110.03352,9.01507538 C110.03352,7.30653266 108.726257,6 107.01676,6 C105.307263,6 104,7.30653266 104,9.01507538 C104,10.7236181 105.307263,12.0301508 107.01676,12.0301508 C107.821229,12.0301508 108.52514,11.7286432 109.027933,11.2261307 L116.167598,15.3467337 C116.067039,15.5477387 116.067039,15.8492462 116.067039,16.0502513 C116.067039,16.2512563 116.067039,16.5527638 116.167598,16.7537688 L109.027933,20.9748744 C108.52514,20.4723618 107.821229,20.1708543 107.01676,20.1708543 C105.407821,20.1708543 104.100559,21.4773869 104.100559,23.0854271 C104.100559,24.6934673 105.407821,26 107.01676,26 C108.625698,26 109.932961,24.6934673 109.932961,23.0854271 C109.932961,22.8844221 109.932961,22.6834171 109.832402,22.3819095 L116.972067,18.160804 C117.47486,18.6633166 118.178771,18.9648241 118.98324,18.9648241 C120.692737,18.9648241 122,17.6582915 122,15.9497487 C122,14.241206 120.793296,13.0351759 119.083799,13.0351759 Z" id="share"></path>
                    </g>
                </g>
            </g>
        </g>
    </g>
</svg>