<?xml version="1.0" encoding="UTF-8"?>
<svg width="488px" height="523px" viewBox="0 0 488 523" version="1.1" xmlns="http://www.w3.org/2000/svg" xmlns:xlink="http://www.w3.org/1999/xlink">
    <!-- Generator: Sketch 51.3 (57544) - http://www.bohemiancoding.com/sketch -->
    <title>work--certius</title>
    <desc>Created with Sketch.</desc>
    <defs></defs>
    <g id="Web-Pages-V4" stroke="none" stroke-width="1" fill="none" fill-rule="evenodd">
        <g id="Homepage-/-Desktop" transform="translate(-798.000000, -1907.000000)">
            <g id="Section-2" transform="translate(0.000000, 800.000000)">
                <g id="work--certius" transform="translate(798.000000, 1107.000000)">
                    <rect id="Rectangle-11" stroke-opacity="0.2" stroke="#094977" fill="#FFFFFF" fill-rule="nonzero" x="0.5" y="0.5" width="487" height="522" rx="5"></rect>
                    <g id="Logo/White/Old" transform="translate(146.000000, 213.000000)">
                        <g id="Group-3" transform="translate(82.923077, 37.100000)" fill="#727D84">
                            <path d="M17.457249,6.76293316 L22.1292675,6.76293316 C21.4485216,5.00453321 20.15282,3.43373325 18.2421627,2.05053328 C16.3397292,0.68506665 14.1750486,0 11.7508622,0 C8.49881564,0 5.72466186,1.16479997 3.4293146,3.50279991 C1.14219111,5.83613319 0,8.65853312 0,11.959733 C0,15.252533 1.14767363,18.0646662 3.44393465,20.3989328 C5.74841944,22.7462661 8.53353825,23.9194661 11.7947223,23.9194661 C14.0507782,23.9194661 16.1478411,23.2847994 18.0786009,22.0154661 C20.0203258,20.7545328 21.4485216,19.0511995 22.3659295,16.9101329 L17.6957385,16.9101329 C16.0199157,18.9466662 14.0763633,19.9602662 11.8687363,19.9602662 C9.67207435,19.9602662 7.83451729,19.1790662 6.35515136,17.6175996 C4.88766421,16.0691996 4.15392064,14.1838663 4.15392064,11.959733 C4.15392064,9.74493309 4.90685302,7.8539998 6.41454529,6.29253318 C7.93137509,4.74039988 9.76070838,3.95453323 11.8988901,3.95453323 C14.0370719,3.95453323 15.8910765,4.89066654 17.457249,6.76293316" id="path70" fill-rule="nonzero" transform="translate(11.182965, 11.959733) scale(-1, 1) rotate(-180.000000) translate(-11.182965, -11.959733) "></path>
                            <polygon id="path74" fill-rule="nonzero" transform="translate(30.650471, 11.475800) scale(-1, 1) rotate(-180.000000) translate(-30.650471, -11.475800) " points="24.6713287 0 24.6713287 22.9515994 36.6296128 22.9515994 36.6296128 18.9923995 28.8225081 18.9923995 28.8225081 13.407333 36.3015755 13.407333 36.3015755 9.45279976 28.8225081 9.45279976 28.8225081 3.9591999 36.6296128 3.9591999 36.6296128 0"></polygon>
                            <path d="M44.5856596,18.9923995 L44.5856596,11.9419997 L47.2163541,11.9419997 C48.370424,11.9419997 49.3417434,12.234133 50.1293984,12.8183997 C50.9188809,13.4026663 51.3117946,14.289333 51.3117946,15.4765329 C51.3117946,16.4714663 50.9654823,17.3077329 50.2765126,17.9834662 C49.5957667,18.6591995 48.5677947,18.9923995 47.1889416,18.9923995 L44.5856596,18.9923995 Z M40.4335664,22.9515994 L47.6019579,22.9515994 C49.9950767,22.9515994 51.9029927,22.2898661 53.3229647,20.9701328 C54.7511605,19.6541328 55.466629,17.9237329 55.466629,15.7779996 C55.466629,14.0055996 54.9668062,12.4534664 53.972643,11.1103997 C52.9775661,9.77293309 51.5082515,8.90026644 49.5674403,8.48493312 L55.6576033,5.68434189e-14 L50.6018086,5.68434189e-14 L44.5856596,8.84613311 L44.5856596,5.68434189e-14 L40.4335664,5.68434189e-14 L40.4335664,22.9515994 Z" id="path78" fill-rule="nonzero" transform="translate(48.045585, 11.475800) scale(-1, 1) rotate(-180.000000) translate(-48.045585, -11.475800) "></path>
                            <polygon id="path82" fill-rule="nonzero" transform="translate(62.529939, 11.475800) scale(-1, 1) rotate(-180.000000) translate(-62.529939, -11.475800) " points="56.1958042 22.9515994 68.8640743 22.9515994 68.8640743 18.9923995 64.6059858 18.9923995 64.6059858 5.68434189e-14 60.4520652 5.68434189e-14 60.4520652 18.9923995 56.1958042 18.9923995"></polygon>
                            <polygon id="path84" fill-rule="nonzero" transform="translate(73.348774, 11.475800) scale(-1, 1) rotate(-180.000000) translate(-73.348774, -11.475800) " points="71.2727273 22.9515994 75.4248204 22.9515994 75.4248204 -5.68434189e-14 71.2727273 -5.68434189e-14"></polygon>
                            <path d="M78.8111888,23.4350661 L82.9660232,23.4350661 L82.9660232,8.81719978 C82.9660232,5.57573319 84.2644661,3.95453323 86.8668343,3.95453323 C89.3796547,3.95453323 90.636065,5.58039986 90.636065,8.83119978 L90.636065,23.4350661 L94.7918131,23.4350661 L94.7918131,8.78546645 L94.7918131,8.50266645 C94.7918131,5.57106653 93.9840556,3.42439991 92.3667129,2.04959995 C90.7603354,0.68506665 88.9282608,-5.68434189e-14 86.8668343,-5.68434189e-14 C84.8483542,-5.68434189e-14 83.0007458,0.68506665 81.324923,2.04959995 C79.650014,3.42439991 78.8111888,5.59813319 78.8111888,8.57546645 L78.8111888,8.78546645 L78.8111888,23.4350661 Z" id="path88" fill-rule="nonzero" transform="translate(86.801501, 11.717533) scale(-1, 1) rotate(-180.000000) translate(-86.801501, -11.717533) "></path>
                            <path d="M101.58648,7.00933316 C101.58648,6.20106651 101.856037,5.49359986 102.397893,4.87666654 C102.951627,4.26533323 103.65613,3.95453323 104.513231,3.95453323 C105.409622,3.95453323 106.144279,4.22333323 106.716289,4.75813321 C107.296522,5.3013332 107.587095,6.01813318 107.587095,6.91786649 C107.587095,8.28333313 106.929193,9.24279977 105.607907,9.78599976 L102.014116,11.2335997 C99.3541818,12.343333 98.0228438,14.3518663 98.0228438,17.2750662 C98.0228438,19.2061329 98.6697809,20.7955995 99.9599999,22.0425328 C101.250219,23.2931994 102.79903,23.9194661 104.601865,23.9194661 C106.41475,23.9194661 107.961734,23.3071994 109.243729,22.0882661 C110.534862,20.8730661 111.210126,19.3069329 111.269519,17.3935996 L106.996811,17.3935996 C106.868886,19.1062662 106.060214,19.9602662 104.572625,19.9602662 C103.822433,19.9602662 103.237632,19.7409328 102.812736,19.2975995 C102.388755,18.8635995 102.177678,18.3063995 102.177678,17.6175996 C102.177678,17.0967996 102.331189,16.6123996 102.636382,16.1699996 C102.951627,15.7266663 103.44414,15.3710663 104.114834,15.0966663 L106.198191,14.283733 C108.416783,13.415733 109.893408,12.4114664 110.633547,11.2606664 C111.372774,10.1145331 111.74193,8.77239978 111.74193,7.23333315 C111.74193,4.90373321 111.026461,3.11826659 109.598265,1.87226662 C108.169156,0.625333318 106.497902,0 104.586331,0 C102.576988,0 100.86096,0.689733316 99.4428158,2.06826661 C98.0228438,3.45706658 97.3146853,5.10533321 97.3146853,7.00933316 L101.58648,7.00933316 Z" id="path92" fill-rule="nonzero" transform="translate(104.528308, 11.959733) scale(-1, 1) rotate(-180.000000) translate(-104.528308, -11.959733) "></path>
                        </g>
                        <g id="Group-2" transform="translate(0.000000, 0.700000)">
                            <path d="M67.4185123,96.3593881 L29.7819445,57.909789 C28.7896088,56.8999224 27.8996135,57.0147224 27.5140098,57.0828557 C27.265469,57.1285891 27.1622149,57.1649891 27.0013944,57.2424557 C27.1384574,57.1379224 27.2819166,57.0277891 27.4345133,56.9316557 C27.4381683,56.9316557 27.4418233,56.9279224 27.4454783,56.9279224 C27.4728909,56.9045891 27.4993897,56.8905891 27.5295436,56.8728557 C27.5670075,56.8504557 27.6035576,56.8271224 27.6401077,56.8084557 C27.6483315,56.8037891 27.6547277,56.8000557 27.6602103,56.7953891 C27.7077254,56.7673891 27.7543268,56.7403224 27.8027557,56.7169891 C27.8365646,56.6992557 27.8703734,56.6852557 27.9060098,56.6675224 C27.9206298,56.6581891 27.9343361,56.6535224 27.9489562,56.6441891 C28.4643128,56.3977891 29.092061,56.2064557 29.9126111,56.1009891 C30.3475575,56.0421891 30.73773,56.0188558 31.0246484,56.0141891 C31.3307556,56.0001891 31.6560516,55.9955224 32.0078465,56.0048558 L36.7228114,56.0048558 L36.7218977,56.0001891 L58.80365,56.0001891 L58.80365,56.0048558 L63.5167874,56.0048558 C63.8676686,55.9955224 64.1929646,56.0001891 64.4999856,56.0141891 C64.7878177,56.0188558 65.1761627,56.0421891 65.6111091,56.1009891 C66.4316592,56.2064557 67.0584937,56.3977891 67.574764,56.6441891 C67.5893841,56.6535224 67.6040041,56.6581891 67.6195379,56.6675224 C67.6533468,56.6852557 67.6889831,56.6992557 67.722792,56.7169891 C67.7703072,56.7403224 67.8169085,56.7673891 67.8635099,56.7953891 C67.8699062,56.8000557 67.8753887,56.8037891 67.8826988,56.8084557 C67.9219901,56.8271224 67.9576265,56.8504557 67.9950904,56.8728557 C68.0234167,56.8905891 68.0526568,56.9045891 68.0791556,56.9279224 C68.0828106,56.9279224 68.0855519,56.9316557 68.0901207,56.9316557 C68.3642465,57.1099224 68.6319761,57.3115224 68.8366568,57.512189 L87.1217659,76.1984552 L67.4185123,96.3593881 Z" id="path118" fill="#094977" fill-rule="nonzero" transform="translate(57.061580, 76.179694) scale(-1, 1) rotate(-180.000000) translate(-57.061580, -76.179694) "></path>
                            <path d="M65.6037984,30.585615 L2.14274635,95.3888134 C1.160462,96.40708 1.24367124,96.683583 1.07828196,96.190783 C1.07279945,96.176783 0.308844301,95.69028 0.274121691,94.9641467 L0.274121691,91.8449468 L0.287827985,90.8126801 C0.284172973,90.8126801 0.279604209,80.1894804 0.274121691,58.9430809 C0.274121691,58.4913476 0.419408401,58.0209476 0.426718424,57.9892143 C0.484284856,57.7876143 0.499818655,57.733481 0.515352454,57.683081 C0.769375758,56.9793477 1.08644801,56.395081 1.59906338,55.7333477 C1.71693751,55.5504144 5.23397238,51.9468145 5.23397238,51.9468145 L6.38895604,50.7876145 C6.38591019,50.7876145 13.0636163,43.9652591 26.4220744,30.3205483 C26.7391467,30.028415 27.0068763,29.804415 27.3129835,29.6074817 C27.4454777,29.5253483 27.4820278,29.5029483 27.5185779,29.4842817 C27.7150348,29.3750817 27.7488436,29.3610817 27.78448,29.3433483 C28.342783,29.073615 28.9705312,28.8822817 29.7910813,28.776815 C30.2260277,28.7170817 30.6162002,28.6946817 30.9031186,28.690015 C31.2092258,28.676015 31.5345218,28.6713484 31.8863167,28.6806817 L36.6012816,28.6806817 L58.6821202,28.676015 L63.3952576,28.6806817 C63.7461388,28.6713484 64.0714348,28.676015 64.3784558,28.690015 C64.6662879,28.6946817 65.0546329,28.7170817 65.4895793,28.776815 C66.3101294,28.8822817 66.9369638,29.073615 67.4532342,29.320015 C67.6487773,29.4161483 67.6953787,29.443215 67.7419801,29.471215 C67.9018869,29.566415 67.931127,29.580415 67.9576258,29.6037483 C68.1312389,29.7129483 68.2829219,29.826815 68.4282086,29.941615 C68.2427167,29.8454817 68.1422039,29.8090817 67.8726468,29.7586817 C67.4861293,29.6905483 66.5970478,29.5757483 65.6037984,30.585615 Z" id="path134" fill="#094977" fill-rule="nonzero" transform="translate(34.351165, 62.552140) scale(-1, 1) rotate(-180.000000) translate(-34.351165, -62.552140) "></path>
                            <path d="M67.3454162,95.6918657 C66.784372,95.961599 66.1575375,96.1529323 65.3369874,96.258399 C64.902041,96.317199 64.513696,96.3405323 64.2258639,96.345199 C63.9188429,96.359199 63.5935469,96.3638657 63.2426658,96.3545323 L58.5295283,96.3545323 L36.447776,96.359199 L31.7337248,96.3545323 C31.38193,96.3638657 31.0566339,96.359199 30.7505267,96.345199 C30.4636083,96.3405323 30.0734358,96.317199 29.6384894,96.258399 C28.8179393,96.1529323 28.1901911,95.961599 27.6748345,95.715199 C27.5962517,95.6741323 27.5624429,95.6601323 27.528634,95.642399 C27.4802051,95.6190657 27.4336037,95.591999 27.3860886,95.563999 C27.3294359,95.5322657 27.2928858,95.5089323 27.2554219,95.4865323 C27.2252681,95.468799 27.1987692,95.454799 27.1713566,95.4314657 C27.0077949,95.331599 26.8643357,95.2214657 26.7272727,95.1169324 C26.8880932,95.194399 26.9913473,95.230799 27.2398881,95.2765324 C27.6254918,95.3446657 28.5154871,95.4594657 29.5078228,94.449599 L47.6779216,76.2512841 L65.3296767,94.518665 C66.3229261,95.5285316 67.2120076,95.4137316 67.5985251,95.3455983 C67.8680822,95.2951983 67.968595,95.2587983 68.1540869,95.162665 C68.0088002,95.277465 67.8571172,95.3913316 67.6944692,95.4967983 C67.6570053,95.523865 67.6277652,95.537865 67.5994389,95.5555983 C67.561975,95.5789316 67.5263386,95.6013316 67.4870473,95.6199983 C67.4148615,95.6601323 67.3792251,95.6741323 67.3454162,95.6918657 Z" id="Combined-Shape" fill="#232C52" fill-rule="nonzero"></path>
                            <path d="M66.5891008,69.1823983 C66.573567,69.1870649 66.5580332,69.1917316 66.5434132,69.1963983 C66.5077768,69.2094649 66.4703129,69.2234649 66.4337628,69.2327983 C66.3835064,69.2505316 66.3305087,69.2691983 66.2820798,69.2785316 C66.2738561,69.2822649 66.2656323,69.2822649 66.2601498,69.2869316 C66.2190309,69.3009316 66.1769983,69.3102649 66.1340519,69.3195983 C66.1020705,69.3289316 66.0700892,69.3373316 66.0371941,69.3419983 C66.0344528,69.3419983 66.029884,69.3466649 66.026229,69.3466649 C65.6963642,69.4241316 65.3765507,69.4567983 65.0567372,69.4745316 L29.7612043,69.4745316 C29.4953022,69.4521316 29.2248314,69.4110649 28.952533,69.3373316 L28.9379129,69.3373316 C28.9077591,69.3289316 28.874864,69.3195983 28.8437964,69.3149316 C28.8017638,69.3009316 28.7597311,69.2869316 28.7186123,69.2785316 C28.7113022,69.2738649 28.7058197,69.2738649 28.6975959,69.2691983 C28.6464258,69.2551983 28.5961694,69.2374649 28.5449992,69.2187983 C28.5084491,69.2094649 28.4728127,69.1917316 28.4371764,69.1823983 C28.4216426,69.1730649 28.4042813,69.1683983 28.3914887,69.1637316 C27.857857,68.9583983 27.2867615,68.629865 26.6407382,68.1043983 C26.5466216,68.0549316 21.8216054,63.1913318 21.8161229,63.2006651 L6.06119557,47.0941322 L2.83199285,43.7014656 C2.58436582,43.4503989 2.35958261,43.2077323 2.15398821,42.9753323 C1.95935884,42.7653323 1.70350803,42.4638656 1.4421747,42.0979989 C0.945093132,41.4222656 0.255209699,40.331199 0.206780796,39.043199 L0.215004572,34.8926658 L0.206780796,3.02306659 C0.186678232,2.58439994 0.42608149,1.79013329 0.486389181,1.65293329 C0.493699204,1.63893329 0.497354215,1.62119996 0.502836733,1.60719996 C0.681932299,1.11346664 0.959713178,0.588933319 1.38917704,5.68434189e-14 C1.33983438,0.11853333 1.31242179,0.223066661 1.27769918,0.424666656 C1.20551271,0.821333313 1.10134488,1.73039996 2.08362923,2.74399993 L65.5282337,67.565865 C66.5233106,68.5701316 67.4114784,68.4609316 67.7979959,68.3881316 C67.9734364,68.355465 68.0757768,68.3283983 68.1781171,68.2919983 C67.5960565,68.7259983 67.0761311,69.0041316 66.5891008,69.1823983" id="path150" fill="#094977" fill-rule="nonzero" transform="translate(34.191852, 34.737266) scale(-1, 1) rotate(-180.000000) translate(-34.191852, -34.737266) "></path>
                            <path d="M1.27143563,69.0213947 C0.906578027,68.5003504 0.664007038,68.0264624 0.501360973,67.5770657 C0.494964703,67.5630657 0.491309692,67.544399 0.483999668,67.5313323 C0.472120881,67.493999 0.45932834,67.457599 0.445622047,67.421199 C0.430088248,67.370799 0.414554449,67.3166657 0.398106897,67.2662657 C0.397193144,67.2569323 0.393538132,67.247599 0.392624379,67.2429323 C0.378918086,67.2018657 0.368866804,67.160799 0.356988017,67.1150657 C0.350076682,67.0850631 0.219828742,66.6629388 0.205641845,66.2352041 L0.213809816,34.5818658 L0.213236985,34.2927582 C0.214726881,34.2920928 0.216315708,34.2915998 0.218097577,34.2915998 L0.212381749,33.8611218 L0.20558604,30.4313326 C0.247465935,29.317508 0.769043693,28.3509557 1.23080571,27.672915 C1.19614997,28.1388601 1.27645203,28.8897236 2.07301595,29.7154666 L20.1969885,48.2227455 L2.08243448,66.7305317 C1.12297025,67.720584 1.20006433,68.6109036 1.27143563,69.0213947 Z" id="Combined-Shape" fill="#232C52" fill-rule="nonzero"></path>
                            <path d="M68.8010246,38.6101324 C68.6539104,38.737999 68.5214162,38.8798657 68.3368381,39.0170657 C67.6816773,39.5322657 67.1041855,39.8477323 66.5678125,40.048399 C66.5522787,40.0530657 66.5367449,40.0577323 66.5221249,40.062399 C66.4864885,40.076399 66.4499384,40.0894657 66.4124745,40.098799 C66.3622181,40.1174657 66.3101342,40.135199 66.2607916,40.1445323 C66.2525678,40.149199 66.2452578,40.149199 66.2397752,40.1538657 C66.1977426,40.1678657 66.15571,40.1762657 66.1127636,40.185599 C66.0807822,40.1949323 66.0497146,40.2042657 66.0159058,40.207999 C66.0140783,40.207999 66.0095095,40.2126657 66.0049407,40.2126657 C65.7198498,40.2770657 65.4429827,40.3134657 65.1661156,40.3321323 L29.665902,40.3321323 C29.42193,40.308799 29.1797855,40.272399 28.9312447,40.2042657 L28.9166247,40.2042657 C28.8864708,40.1949323 28.8544895,40.185599 28.8225081,40.1809323 C28.7804755,40.1678657 28.7393566,40.1538657 28.697324,40.1445323 C28.6900139,40.1398657 28.6845314,40.1398657 28.6763076,40.135199 C28.6251375,40.1221323 28.5748811,40.1034657 28.5246247,40.084799 C28.4871608,40.076399 28.4515244,40.0577323 28.4158881,40.048399 C28.4003543,40.039999 28.3839067,40.0353323 28.3702004,40.0306657 C27.8676363,39.8337323 27.3294359,39.5322657 26.7272727,39.0534657 C26.9273846,39.1626657 27.0224149,39.194399 27.3038508,39.2494657 C27.6885408,39.3185324 28.5794498,39.4277323 29.5717855,38.4234657 L67.2229733,5.68434189e-14 L86.9454157,20.1198662 L68.8010246,38.6101324 Z" id="path166" fill="#232C52" fill-rule="nonzero" transform="translate(56.836344, 20.166066) scale(-1, 1) rotate(-180.000000) translate(-56.836344, -20.166066) "></path>
                            <path d="M68.7539327,39.9047093 C68.5402828,40.0941138 68.4825148,40.1770372 68.1083982,40.4578459 C67.9855265,40.5087307 67.8103886,40.5407692 67.7306138,40.5549039 C67.3427429,40.6284042 66.4514651,40.7395969 65.4538208,39.7247278 L47.4237846,21.1913532 L67.1648541,0.909991455 L86.9664425,21.2365841 L68.7539327,39.9047093 Z" id="path176" fill="#25B8EC" fill-rule="nonzero" transform="translate(67.195114, 20.754992) scale(-1, 1) rotate(-180.000000) translate(-67.195114, -20.754992) "></path>
                        </g>
                    </g>
                </g>
            </g>
        </g>
    </g>
</svg>