<?xml version="1.0" encoding="UTF-8"?>
<svg width="488px" height="523px" viewBox="0 0 488 523" version="1.1" xmlns="http://www.w3.org/2000/svg" xmlns:xlink="http://www.w3.org/1999/xlink">
    <!-- Generator: Sketch 51.3 (57544) - http://www.bohemiancoding.com/sketch -->
    <title>work--dynamo</title>
    <desc>Created with Sketch.</desc>
    <defs>
        <linearGradient x1="2.75157341%" y1="0%" x2="100%" y2="100%" id="linearGradient-1">
            <stop stop-color="#AE98FF" offset="0%"></stop>
            <stop stop-color="#765FFF" offset="100%"></stop>
        </linearGradient>
    </defs>
    <g id="Web-Pages-V4" stroke="none" stroke-width="1" fill="none" fill-rule="evenodd">
        <g id="Homepage-(1)" transform="translate(-154.000000, -1140.000000)" fill-rule="nonzero">
            <g id="Section-2" transform="translate(0.000000, 800.000000)">
                <g id="work--dynamo" transform="translate(154.000000, 340.000000)">
                    <rect id="Rectangle-11" fill="url(#linearGradient-1)" x="0" y="0" width="488" height="523" rx="5"></rect>
                    <g id="dynamo" transform="translate(136.000000, 242.000000)" fill="#FFFFFF">
                        <path d="M207.21163,28 C207.21163,33.35609 203.804877,35.754073 200.427907,35.754073 C195.767963,35.754073 193.644947,31.7339023 193.644947,28 C193.644947,22.6431342 197.051701,20.2451513 200.427907,20.2451513 C203.804877,20.2451513 207.21163,22.6431342 207.21163,28 M211.539375,16.5089216 C208.684759,13.6012413 204.738851,12 200.427907,12 C196.117726,12 192.171055,13.6012413 189.316439,16.5089216 C186.440439,19.4398759 184.855814,23.5205585 184.855814,28 C184.855814,32.4569434 186.439675,36.5298681 189.316439,39.4670287 C192.177928,42.390225 196.123836,44 200.427907,44 C204.731978,44 208.678649,42.390225 211.540139,39.4670287 C214.416139,36.5298681 216,32.4569434 216,28 C216,23.5205585 214.416139,19.4398759 211.539375,16.5089216" id="Fill-9"></path>
                        <path d="M178.484764,14.7228055 C176.58361,12.9670066 173.914639,12 170.969038,12 C166.877841,12 163.931474,13.475305 161.738365,16.6320236 C160.139894,13.6806389 156.997357,12 153.030298,12 C150.303855,12 146.734498,13.1785393 144.776639,15.7425015 L144.776639,13.7193811 C144.776639,13.235103 144.387366,12.8414818 143.908438,12.8414818 L137.50076,12.8414818 C137.021831,12.8414818 136.632558,13.235103 136.632558,13.7193811 L136.632558,42.1221006 C136.632558,42.6056038 137.021831,43 137.50076,43 L144.265527,43 C144.743688,43 145.133728,42.6056038 145.133728,42.1221006 L145.133728,25.8945211 C145.133728,22.5913568 147.208828,20.3722006 150.297725,20.3722006 C153.391219,20.3722006 155.165169,22.2969156 155.165169,25.6543192 L155.165169,42.1221006 C155.165169,42.6056038 155.554442,43 156.033371,43 L162.738367,43 C163.217295,43 163.606568,42.6056038 163.606568,42.1221006 L163.606568,25.8945211 C163.606568,22.6432714 165.70619,20.3722006 168.711561,20.3722006 C170.52919,20.3722006 173.579006,21.0587133 173.579006,25.6543192 L173.579006,42.1221006 C173.579006,42.6056038 173.968278,43 174.446441,43 L180.974425,43 C181.452588,43 181.84186,42.6056038 181.84186,42.1221006 L181.84186,23.5358928 C181.84186,19.7988153 180.680938,16.7505749 178.484764,14.7228055" id="Fill-7"></path>
                        <path d="M123.387084,29.891863 L123.387084,30.8618897 C123.387084,36.2871994 120.102284,37.4251153 117.346657,37.4251153 C114.956679,37.4251153 113.886981,35.8542628 113.886981,34.2966237 C113.886981,31.74564 115.971114,31.0499878 117.213418,30.862667 L123.387084,29.891863 Z M118.753995,12 C115.323844,12 112.300981,12.9956764 110.013961,14.8782123 C107.977522,16.5539956 106.599708,18.8834588 106.134128,21.435997 C106.046311,21.9171241 106.338529,22.3726014 106.798809,22.4720913 L112.655276,23.738256 C112.713568,23.7506923 112.772617,23.7561331 112.831666,23.7561331 C113.238954,23.7561331 113.591735,23.4576633 113.670467,23.0449356 C114.235219,20.1045422 116.697116,19.0567889 118.813044,19.0567889 C121.634535,19.0567889 123.387084,20.41778 123.387084,22.6081127 C123.387084,23.2633471 123.188739,24.16342 121.470257,24.4144766 L114.368459,25.4995385 C108.808752,26.3350984 105.488372,29.804032 105.488372,34.7785281 C105.488372,39.2485791 109.068417,44 115.703121,44 C120.123482,44 122.624744,41.9099344 123.915498,40.2450328 L123.915498,42.2768035 C123.915498,42.7618168 124.300075,43.1566675 124.772469,43.1566675 L130.751576,43.1566675 C131.224726,43.1566675 131.609302,42.7618168 131.609302,42.2768035 L131.609302,23.5719213 C131.609302,20.2739859 130.595625,17.4781637 128.677284,15.487588 C126.448556,13.1728929 123.110007,12 118.753995,12 Z" id="Fill-3"></path>
                        <path d="M90.6542907,12 C88.013302,12 84.6253673,13.0061608 82.5636431,15.7599049 L82.5636431,13.6621838 C82.5636431,13.1769597 82.1764506,12.7825695 81.7000821,12.7825695 L75.2077476,12.7825695 C74.7313786,12.7825695 74.344186,13.1769597 74.344186,13.6621838 L74.344186,42.1203857 C74.344186,42.6048335 74.7313786,43 75.2077476,43 L81.9363609,43 C82.4127299,43 82.7999225,42.6048335 82.7999225,42.1203857 L82.7999225,26.1615578 C82.7999225,22.6718257 84.863933,20.327999 87.9363211,20.327999 C91.1634338,20.327999 93.014031,22.3667167 93.014031,25.9216629 L93.014031,42.1203857 C93.014031,42.6048335 93.4012235,43 93.8775926,43 L100.606206,43 C101.082575,43 101.469767,42.6048335 101.469767,42.1203857 L101.469767,24.0389933 C101.469767,20.5865264 100.561999,17.6472327 98.8455469,15.5401953 C96.9583642,13.2235412 94.1260663,12 90.6542907,12" id="Fill-5"></path>
                        <path d="M70.9115601,13.0220106 L63.500117,13.0220106 C63.1545736,13.0220106 62.8414248,13.2258979 62.7010479,13.5425411 L55.5595605,29.6728087 L53.1021916,24.1230575 L52.9309625,23.7353627 L48.4180731,13.5425411 C48.2784674,13.2258979 47.9645474,13.0220106 47.619004,13.0220106 L40.2083322,13.0220106 C39.9113808,13.0220106 39.6375685,13.1702923 39.475595,13.4197453 C39.3136216,13.6684261 39.2889399,13.9788908 39.409263,14.2515129 L48.0478481,33.7621397 L48.2190771,34.1498345 L50.8985811,40.2008087 L49.6914931,42.926257 C48.6926567,45.1929589 46.975738,46.4935129 44.980379,46.4935129 C44.5160551,46.4935129 44.0370764,46.4232336 43.5573264,46.2842195 C43.4794249,46.2618228 43.3992095,46.2502382 43.3182228,46.2502382 C42.9749933,46.2502382 42.6626159,46.4541256 42.5230102,46.7699965 L39.9229503,52.6441138 C39.8242236,52.8649918 39.822681,53.1198509 39.9160086,53.3430458 C40.0101075,53.5654683 40.1844218,53.7330575 40.4073281,53.8156937 C41.9954394,54.4057312 43.617488,54.7046115 45.230281,54.7046115 C50.528356,54.7046115 55.2255866,51.5103767 57.4893587,46.3699448 L71.7098579,14.2515129 C71.8301811,13.9796631 71.8054994,13.6684261 71.6435259,13.4197453 C71.4823238,13.1702923 71.2085115,13.0220106 70.9115601,13.0220106" id="Fill-11"></path>
                        <path d="M17.9685688,16.588973 L9.04164183,16.588973 L9.04164183,10.1135285 C9.04164183,9.99758017 8.88535646,9.95611518 8.827041,10.057474 L0.015189787,25.24056 C-0.0283524056,25.3158112 0.0268528746,25.4102592 0.115492338,25.4102592 L9.04241936,25.4102592 L9.04241936,31.8864715 C9.04241936,32.0024198 9.19870473,32.0438848 9.25702019,31.942526 L18.0680939,16.75944 C18.1124136,16.683421 18.0572083,16.588973 17.9685688,16.588973" id="Fill-14"></path>
                        <path d="M30.2322251,5.67681461 C26.484347,1.96324136 21.3058477,0 15.2566675,0 L0.855485663,0 C0.382917206,0 0,0.388791217 0,0.868608946 L0,7.66551256 C0,8.14533026 0.382917206,8.53412147 0.855485663,8.53412147 L15.0226625,8.53412147 C20.7914926,8.53412147 26.9561557,11.9483872 26.9561557,21.5293136 C26.9561557,31.067041 20.7618621,34.4651071 14.9649211,34.4651071 L0.855485663,34.4651071 C0.382917206,34.4651071 0,34.8538983 0,35.3337161 L0,42.131391 C0,42.6112088 0.382917206,43 0.855485663,43 L15.1981663,43 C21.2557038,43 26.4433202,41.0483298 30.2018349,37.3532704 C34.1047033,33.5185857 36.1674419,28.046195 36.1674419,21.530085 C36.1674419,15.0054896 34.1145802,9.52384202 30.2322251,5.67681461" id="Fill-1"></path>
                    </g>
                </g>
            </g>
        </g>
    </g>
</svg>