<?xml version="1.0" encoding="UTF-8"?>
<svg width="488px" height="523px" viewBox="0 0 488 523" version="1.1" xmlns="http://www.w3.org/2000/svg" xmlns:xlink="http://www.w3.org/1999/xlink">
    <!-- Generator: Sketch 51.3 (57544) - http://www.bohemiancoding.com/sketch -->
    <title>work--koodoo</title>
    <desc>Created with Sketch.</desc>
    <defs>
        <linearGradient x1="0%" y1="0%" x2="100%" y2="100%" id="linearGradient-1">
            <stop stop-color="#7E7EA7" offset="0%"></stop>
            <stop stop-color="#343463" offset="100%"></stop>
        </linearGradient>
    </defs>
    <g id="Web-Pages-V4" stroke="none" stroke-width="1" fill="none" fill-rule="evenodd">
        <g id="Homepage-(1)" transform="translate(-154.000000, -1843.000000)">
            <g id="Section-2" transform="translate(0.000000, 800.000000)">
                <g id="work--koodoo" transform="translate(154.000000, 1043.000000)">
                    <rect id="Rectangle-11" fill="url(#linearGradient-1)" fill-rule="nonzero" x="0" y="0" width="488" height="523" rx="5"></rect>
                    <g id="Koodoo" transform="translate(151.000000, 225.000000)">
                        <g id="House" stroke-linecap="round" stroke-linejoin="round" transform="translate(142.000000, 0.000000)" stroke="#FF975C" stroke-width="2">
                            <polyline id="Stroke-1" points="18.3372088 34.8837209 9.85834636 34.8837209 8 17.0698481 20 6.97674419"></polyline>
                            <path d="M26.6666667,33.4883721 L21.3333333,33.4883721" id="Stroke-2"></path>
                            <polyline id="Stroke-3" points="9.33333333 33.4883721 18.0152955 39.0697675 29.3333333 39.0697675"></polyline>
                            <polyline id="Stroke-4" points="37.3333333 21.1354376 32.7563091 37.6744187 26.6666667 34.4306009 30.0307761 20.9302325"></polyline>
                            <polyline id="Stroke-5" points="5.56471128 18.6674083 0 15.7767227 18.8413092 0 31.7601593 17.3640848 44 23.7209303 31.4547313 6.49245413 25.6018024 3.47207729"></polyline>
                            <polyline id="Stroke-7" points="15.8876828 31.6644508 14.6666667 22.3255813 24 22.3255813 22.3580832 34.8837209"></polyline>
                        </g>
                        <g transform="translate(0.000000, 26.000000)" fill="#FFFFFF" fill-rule="nonzero">
                            <path d="M14.4162731,13.726916 L25.1229862,1.72882111 C25.3778472,1.44336494 25.4459028,1.02725581 25.2968287,0.669348837 C25.1475231,0.311683363 24.8088657,0.0800822898 24.4350231,0.0800822898 L18.6132638,0.0800822898 C18.3516899,0.0800822898 18.1016898,0.194071557 17.923912,0.394035778 L6.45423611,13.3100823 L6.45423611,1.06082469 C6.45423611,0.519134168 6.03317129,0.0800822898 5.51418981,0.0800822898 L0.939884259,0.0800822898 C0.420902778,0.0800822898 6.94444444e-05,0.519134168 6.94444444e-05,1.06082469 L6.94444444e-05,31.4300287 C6.94444444e-05,31.9714776 0.420902778,32.4105296 0.939884259,32.4105296 L5.51418981,32.4105296 C6.03317129,32.4105296 6.45423611,31.9714776 6.45423611,31.4300287 L6.45423611,22.7004311 L9.98849537,18.6782039 L18.8817824,31.9907979 C19.0577083,32.2537943 19.3454399,32.4105296 19.6528472,32.4105296 L25.2665047,32.4105296 C25.617662,32.4105296 25.9398843,32.2062182 26.1012268,31.8806726 C26.2630323,31.555127 26.2366435,31.1629266 26.0338658,30.8637048 L14.4162731,13.726916 Z" id="Fill-8"></path>
                            <path d="M36.7524305,26.9784338 C33.8313657,26.9784338 31.4542824,24.3045161 31.4542824,21.0176645 C31.4542824,17.730813 33.8313657,15.0566539 36.7524305,15.0566539 C39.6734954,15.0566539 42.0501158,17.730813 42.0501158,21.0176645 C42.0501158,24.3045161 39.6734954,26.9784338 36.7524305,26.9784338 M36.7524305,9.19103667 C30.6077546,9.19103667 25.416088,14.6069759 25.416088,21.0176645 C25.416088,27.4285948 30.6077546,32.8442925 36.7524305,32.8442925 C42.897338,32.8442925 48.0883102,27.4285948 48.0883102,21.0176645 C48.0883102,14.6069759 42.897338,9.19103667 36.7524305,9.19103667" id="Fill-10"></path>
                            <path d="M62.3342823,26.9784338 C59.4132177,26.9784338 57.0361342,24.3045161 57.0361342,21.0176645 C57.0361342,17.730813 59.4132177,15.0566539 62.3342823,15.0566539 C65.2553472,15.0566539 67.6319676,17.730813 67.6319676,21.0176645 C67.6319676,24.3045161 65.2553472,26.9784338 62.3342823,26.9784338 M62.3342823,9.19103667 C56.1896064,9.19103667 50.9979398,14.6069759 50.9979398,21.0176645 C50.9979398,27.4285948 56.1896064,32.8442925 62.3342823,32.8442925 C68.4791898,32.8442925 73.670162,27.4285948 73.670162,21.0176645 C73.670162,14.6069759 68.4791898,9.19103667 62.3342823,9.19103667" id="Fill-12"></path>
                            <path d="M113.082315,26.9784338 C110.161019,26.9784338 107.784167,24.3045161 107.784167,21.0176645 C107.784167,17.730813 110.161019,15.0566539 113.082315,15.0566539 C116.00338,15.0566539 118.38,17.730813 118.38,21.0176645 C118.38,24.3045161 116.00338,26.9784338 113.082315,26.9784338 M113.082315,9.19103667 C106.937407,9.19103667 101.745972,14.6069759 101.745972,21.0176645 C101.745972,27.4285948 106.937407,32.8442925 113.082315,32.8442925 C119.226991,32.8442925 124.418194,27.4285948 124.418194,21.0176645 C124.418194,14.6069759 119.226991,9.19103667 113.082315,9.19103667" id="Fill-14"></path>
                            <path d="M138.664167,26.9784338 C135.743101,26.9784338 133.366018,24.3045161 133.366018,21.0176645 C133.366018,17.730813 135.743101,15.0566539 138.664167,15.0566539 C141.585231,15.0566539 143.961852,17.730813 143.961852,21.0176645 C143.961852,24.3045161 141.585231,26.9784338 138.664167,26.9784338 M138.664167,9.19103667 C132.519259,9.19103667 127.327824,14.6069759 127.327824,21.0176645 C127.327824,27.4285948 132.519259,32.8442925 138.664167,32.8442925 C144.808842,32.8442925 150.000046,27.4285948 150.000046,21.0176645 C150.000046,14.6069759 144.808842,9.19103667 138.664167,9.19103667" id="Fill-16"></path>
                            <path d="M87.7081945,26.9784338 C85.2503241,26.9784338 82.6181481,24.5832101 82.6181481,21.0176645 C82.6181481,17.4518775 85.2503241,15.0566539 87.7081945,15.0566539 C90.1662962,15.0566539 92.7977778,17.4518775 92.7977778,21.0176645 C92.7977778,24.5832101 90.1662962,26.9784338 87.7081945,26.9784338 M97.8963889,0.08010644 L93.7378241,0.08010644 C93.2188426,0.08010644 92.7977778,0.519158318 92.7977778,1.06084884 L92.7977778,10.9472442 C91.5612037,10.1053658 89.670463,9.19103667 87.2924537,9.19103667 C81.4855092,9.19103667 76.5799537,14.6069759 76.5799537,21.0176645 C76.5799537,27.4285948 81.4855092,32.8442925 87.2924537,32.8442925 C89.670463,32.8442925 91.5612037,31.9297218 92.7977778,31.088085 L92.7977778,31.4300527 C92.7977778,31.9715018 93.2188426,32.4105536 93.7378241,32.4105536 L97.8963889,32.4105536 C98.4153704,32.4105536 98.8362037,31.9715018 98.8362037,31.4300527 L98.8362037,1.06084884 C98.8362037,0.519158318 98.4153704,0.08010644 97.8963889,0.08010644" id="Fill-18"></path>
                        </g>
                    </g>
                </g>
            </g>
        </g>
    </g>
</svg>