<?xml version="1.0" encoding="UTF-8"?>
<svg width="32px" height="32px" viewBox="0 0 32 32" version="1.1" xmlns="http://www.w3.org/2000/svg" xmlns:xlink="http://www.w3.org/1999/xlink">
    <!-- Generator: Sketch 51.3 (57544) - http://www.bohemiancoding.com/sketch -->
    <title>linkedIn</title>
    <desc>Created with Sketch.</desc>
    <defs></defs>
    <g id="linkedin-icon" stroke="none" stroke-width="1">
        <g id="linkedin-icon-inner" transform="translate(-154.000000, -7347.000000)">
            <g id="linkedin-circle" transform="translate(0.000000, 7053.000000)">
                <g id="linkedin-circle-inner" transform="translate(154.000000, 160.000000)">
                    <g id="linkedin-innermost" transform="translate(0.000000, 134.000000)">
                        <path d="M16,32 C7.163444,32 0,24.836556 0,16 C0,7.163444 7.163444,0 16,0 C24.836556,0 32,7.163444 32,16 C32,24.836556 24.836556,32 16,32 Z M24,16.8095873 C24,13.4935158 22.3080325,11.9504771 20.0510466,11.9505161 C18.2293283,11.9505161 17.4154474,12.999854 16.9597203,13.7344101 L16.9597203,13.7692907 L16.9371776,13.7692907 C16.9437246,13.7581958 16.952764,13.7458553 16.9597203,13.7344101 L16.9597203,12.2041401 L13.5295838,12.2041401 C13.5757852,13.2176632 13.5295838,23 13.5295838,23 L16.9600551,23 L16.9600551,16.9709101 C16.9600551,16.6478752 16.9833417,16.3266699 17.0738101,16.0958973 C17.3218915,15.4503725 17.8857939,14.7830473 18.8333686,14.7830473 C20.0746681,14.7830473 20.5706819,15.7732517 20.5706819,17.2241838 L20.5706819,23 L24,23 L24,16.8095873 Z M9.94116485,7 C8.76760509,7 8,7.80556299 8,8.86490577 C8,9.9011635 8.74539718,10.7311741 9.89563305,10.7311741 L9.91854774,10.7311741 C11.1148362,10.7311741 11.8588198,9.90131921 11.8588198,8.86490577 C11.8362771,7.80556299 11.1148362,7 9.94116485,7 Z M8.20373991,23 L11.6329092,23 L11.6329092,12.2041401 L8.20373991,12.2041401 L8.20373991,23 Z" id="linkedIn"></path>
                    </g>
                </g>
            </g>
        </g>
    </g>
</svg>